/* XPM */
static char *result[] = {
/* columns rows colors chars-per-pixel */
"70 70 91 1 ",
"  c #A17300",
". c #A77900",
"X c #AB7D00",
"o c #AF8100",
"O c #B18300",
"+ c #B78800",
"@ c #BB8C00",
"# c #BE9100",
"$ c #BE9A00",
"% c #C29300",
"& c #C59900",
"* c #CB9B00",
"= c #C3A200",
"- c #CDA300",
"; c #CDAC00",
": c #D4A400",
"> c #D3AB00",
", c #DCAC00",
"< c #D4B200",
"1 c #D9B400",
"2 c #DDBA00",
"3 c #D7B416",
"4 c #DCB918",
"5 c #E2B300",
"6 c #E8B700",
"7 c #E5BC00",
"8 c #ECBC00",
"9 c #E6BE0B",
"0 c #E4BD1B",
"q c #D6B42D",
"w c #E4C300",
"e c #EAC401",
"r c #E5C800",
"t c #ECCA00",
"y c #F3C200",
"u c #F8C700",
"i c #F1CF01",
"p c #FECD00",
"a c #EBD600",
"s c #E5D800",
"d c #EDDE00",
"f c #F4D400",
"g c #FED200",
"h c #F4D900",
"j c #FEDC00",
"k c #F5DC0F",
"l c #EBCE1B",
"z c #F1E200",
"x c #FEE200",
"c c #F6EC00",
"v c #FEEC00",
"b c #FFE60C",
"n c #FFEC0B",
"m c #FFF300",
"M c #FFFE00",
"N c #FFF30C",
"B c #FFFF09",
"V c #FFE41D",
"C c #F3EB19",
"Z c #FFEF1B",
"A c #FFFC15",
"S c #E3C220",
"D c #FAD129",
"F c #EFCA3E",
"G c #FFEC2C",
"H c #FFFE24",
"J c #F3ED37",
"K c #FFF138",
"L c #FEE74E",
"P c #FFFF41",
"I c #FFFF49",
"U c #F9E552",
"Y c #FFFF57",
"T c #FFF65A",
"R c #E9D57C",
"E c #FFEC6B",
"W c #FFF165",
"Q c #FFFF68",
"! c #FFF871",
"~ c #FFFD80",
"^ c #FFFF94",
"/ c #FFFE9E",
"( c #E8DDAE",
") c #FFFBAF",
"_ c #FFFDB0",
"` c #FFFFB9",
"' c #FFF9C7",
"] c #FFFCCE",
"[ c #FFFFDE",
"{ c #FFFFE1",
"} c None",
/* pixels */
"}}}}}}}}}}}}}}}}}}}}}}}}}}}}ti,-,:,:,:,,::}}}}}}}}}}}}}}}}}}}}}}}}}}}}",
"}}}}}}}}}}}}}}}}}}}}}}}}}}7fjjp6,555555555,}}}}}}}}}}}}}}}}}}}}}}}}}}}",
"}}}}}}}}}}}}}}}}}}}}}}}}}7jjjjgp6688y8888y86}}}}}}}}}}}}}}}}}}}}}}}}}}",
"}}}}}}}}}}}}}}}}}}}}}}}}}fjbxvjgp8ppppppppgp8}}}}}}}}}}}}}}}}}}}}}}}}}",
"}}}}}}}}}}}}}}}}}}}}}}}}tjZ~AMvgpu6gpppppgppp5}}}}}}}}}}}}}}}}}}}}}}}}",
"}}}}}}}}}}}}}}}}}}}}}}}}fn/~mvvvgp6uppgppppppy}}}}}}}}}}}}}}}}}}}}}}}}",
"}}}}}}}}}}}}}}}}}}}}}}}wj!'Vjhjgjg88ggpggpgpgp5}}}}}}}}}}}}}}}}}}}}}}}",
"}}}}}}}}}}}}}}}}}}}}}}}fG]Lt;;1uggy7vmmmmmmmmmz}}}}}}}}}}}}}}}}}}}}}}}",
"}}}}}}}}}}}}}}}}}}}}}}1hTEw=$=#@ypy5CHHHHHHHHHH}}}}}}}}}}}}}}}}}}}}}}}",
"}}}}}}}}}}}}}}}}}}}}}}7vNt=<tf2X&pu6R{[[[[[[[[[(}}}}}}}}}}}}}}}}}}}}}}",
"}}}}}}}}}}}}}}}}}}}}}}tvx;;hmmm2X5u6SIIIIIIIIIIJ}}}}}}}}}}}}}}}}}}}}}}",
"}}}}}}}}}}}}}}}}}}}}}}fmt;fHBMmj*+687cMMMMMMMMMM}}}}}}}}}}}}}}}}}}}}}}",
"}}}}}}}}}}}}}}}}}}}}}<hv<2K^BvjpuO*66dMMMMMMMMMMs}}}}}}}}}}}}}}}}}}}}}",
"}}}}}}}}}}}}}}}}}}}}}1xf;k`Qmtwpp-+567jxxxxjxxjxt}}}}}}}}}}}}}}}}}}}}}",
"}}}}}}}}}}}}}}}}}}}}}7vw1W`Ah=&yg8O:6,ppppppppppu}}}}}}}}}}}}}}}}}}}}}",
"}}}}}}}}}}}}}}}}}}}}}7x<l)Pvt;&ypp%&5,upppppppppp}}}}}}}}}}}}}}}}}}}}}",
"}}}}}}}}}}}}}}}}}}}}*ef<UYmx7>+ypp:%,,8upupupuuuu,}}}}}}}}}}}}}}}}}}}}",
"}}}}}}}}}}}}}}}}}}}}:et1NBvj12+ypp6X:,,5656566666:}}}}}}}}}}}}}}}}}}}}",
"}}}}}}}}}}}}}}}}}}}}:y2rMmxf17+ypp8%:,:,555555555:}}}}}}}}}}}}}}}}}}}}",
"}}}}}}}}}}}}}}}}}}}},e>hMvje06+ypp8%%::5555555555,}}}}}}}}}}}}}}}}}}}}",
"}}}}}}}}}}}}}}}}}}}},8&cMxx4F6@yppy*%::5555555555,}}}}}}}}}}}}}}}}}}}}",
"}}}}}}}}}}}}}}}}}}}}15&mmjjqD6+ypp8:O:*,5,55555,55}}}}}}}}}}}}}}}}}}}}",
"}}}}}}}}}}}}}}}}}}}&,:-mvji3p8@8ppy,O:*,,55555555,}}}}}}}}}}}}}}}}}}}}",
"}}}}}}}}}}}}}}}}}}}%,*<Mxjw1p6@8pp85X**,555555,555-}}}}}}}}}}}}}}}}}}}",
"}}}}}}}}}}}}}}}}}}}&:%wmjj1<u6+ypu86+&*:5555555555:}}}}}}}}}}}}}}}}}}}",
"}}}}}}}}}}}}}}}}}}}&:@ampp>-86+ygy88@#*:55,5555555:}}}}}}}}}}}}}}}}}}}",
"}}}}}}}}}}}}}}}}}}}**+hvpe;@58@ypy68%+*:555555,555:}}}}}}}}}}}}}}}}}}}",
"}}}}}}}}}}}}}}}}}}}*&@cjp5-O68+8p888*O**5555555555,}}}}}}}}}}}}}}}}}}}",
"}}}}}}}}}}}}}}}}}}}*%@cjp>-o96+yp888*O**5555555555:}}}}}}}}}}}}}}}}}}}",
"}}}}}}}}}}}}}}}}}}}&%$cgu*&%76+yy888:X&*555,,55555,}}}}}}}}}}}}}}}}}}}",
"}}}}}}}}}}}}}}}}}}}*+&vpp88508+88888:X%*5555555555,}}}}}}}}}}}}}}}}}}}",
"}}}}}}}}}}}}}}}}}}}*+&xgppg6S6+68888,X%*5,,,5,5,,,,}}}}}}}}}}}}}}}}}}}",
"}}}}}}}}}}}}}}}}}}}*+$hpgpg696+58888,X%%%%*%%*%%%%%}}}}}}}}}}}}}}}}}}}",
"}}}}}}}}}}}}}}}}}}}&+$tpppp676+58888,X@%@%%%%%%%%%%}}}}}}}}}}}}}}}}}}}",
"}}}}}}}}}}}}}}}}}}}*O$tuppp676+,y888:X%%%%%%%%%%%%%}}}}}}}}}}}}}}}}}}}",
"}}}}}}}}}}}}}}}}}}}&O#e8upp6w6+58888:X@%@%%%%%%%%%%}}}}}}}}}}}}}}}}}}}",
"}}}}}}}}}}}}}}}}}}}*O#w888y,w6+58886*X@%%%%%@%%%%%@}}}}}}}}}}}}}}}}}}}",
"}}}}}}}}}}}}}}}}}}}*O#68888,76+58885*X@%@%%%%%%%%@%}}}}}}}}}}}}}}}}}}}",
"}}}}}}}}}}}}}}}}}}}*O+68888,76+,886,*X@%%%%%%%%%%%@}}}}}}}}}}}}}}}}}}}",
"}}}}}}}}}}}}}}}}}}}&+O58888>76+5885,*X@%@%%%%%%%%%@}}}}}}}}}}}}}}}}}}}",
"}}}}}}}}}}}}}}}}}}}%+O,888e,76+5865,%X@%%%%%%%%@%%%}}}}}}}}}}}}}}}}}}}",
"}}}}}}}}}}}}}}}}}}}%+O,6888,76+,y5,,%X%@%%%@%%%%%%@}}}}}}}}}}}}}}}}}}}",
"}}}}}}}}}}}}}}}}}}}#+O:6886,76+565,,@X%@%%%%%%%%%%@}}}}}}}}}}}}}}}}}}}",
"}}}}}}}}}}}}}}}}}}}%+X*6888,w6+55,,,+X%%%%%%%%@%%%@}}}}}}}}}}}}}}}}}}}",
"}}}}}}}}}}}}}}}}}}}%+X*5888,76+,,5,:OX%@%@%%%%%%%%+}}}}}}}}}}}}}}}}}}}",
"}}}}}}}}}}}}}}}}}}}%@X%,888,75+:,,5*XO%@%%@%%%%%%@@}}}}}}}}}}}}}}}}}}}",
"}}}}}}}}}}}}}}}}}}}@+X@:688,76O:,,,*XO%%%%%%%%@%%%+}}}}}}}}}}}}}}}}}}}",
"}}}}}}}}}}}}}}}}}}}@%X+:188,75+:5,:*X+%%%%%%%%%%%%+}}}}}}}}}}}}}}}}}}}",
"}}}}}}}}}}}}}}}}}}}}%Xo**66:65O>,,:%X+$+++++++++++}}}}}}}}}}}}}}}}}}}}",
"}}}}}}}}}}}}}}}}}}}}%OX**:,-75O:5:*+X+@oOoOoOOOoOX}}}}}}}}}}}}}}}}}}}}",
"}}}}}}}}}}}}}}}}}}}}%+X%**,-65O:,**+X@+ooOoOOooOOo}}}}}}}}}}}}}}}}}}}}",
"}}}}}}}}}}}}}}}}}}}}%+.+****65+::**XX%+oOoOooOOooo}}}}}}}}}}}}}}}}}}}}",
"}}}}}}}}}}}}}}}}}}}}%@XO***%51O***&XO$oOoOoOOoOOOX}}}}}}}}}}}}}}}}}}}}",
"}}}}}}}}}}}}}}}}}}}}@@XX***%5,O%**+.O#ooOooooOoOOX}}}}}}}}}}}}}}}}}}}}",
"}}}}}}}}}}}}}}}}}}}}}%OX%**%5,O&**OX+@oOoOOooOOoo}}}}}}}}}}}}}}}}}}}}}",
"}}}}}}}}}}}}}}}}}}}}}%OX+**%,:O%*&XX+$ooOoOOOoOOo}}}}}}}}}}}}}}}}}}}}}",
"}}}}}}}}}}}}}}}}}}}}}%+X.**%:*X&*+.O%+XOOoOoOOOoX}}}}}}}}}}}}}}}}}}}}}",
"}}}}}}}}}}}}}}}}}}}}}%+O.+*%*%O%*XXO%XOOoOoOOooOX}}}}}}}}}}}}}}}}}}}}}",
"}}}}}}}}}}}}}}}}}}}}}@@OX.*%%@@*+.X+%OOOOoOooOOo}}}}}}}}}}}}}}}}}}}}}}",
"}}}}}}}}}}}}}}}}}}}}}}%+O X****% XO@+OOXoOooOooo}}}}}}}}}}}}}}}}}}}}}}",
"}}}}}}}}}}}}}}}}}}}}}}%+OX O%*@X.O+@+OOOoOoOoOOX}}}}}}}}}}}}}}}}}}}}}}",
"}}}}}}}}}}}}}}}}}}}}}}@%OOX ..  XOO%XOOXOoOooOo}}}}}}}}}}}}}}}}}}}}}}}",
"}}}}}}}}}}}}}}}}}}}}}}}%+OXX  XXOO++OOOOoOOoOoo}}}}}}}}}}}}}}}}}}}}}}}",
"}}}}}}}}}}}}}}}}}}}}}}}%%OOOOXOOOO%OOXOOoOoOoOo}}}}}}}}}}}}}}}}}}}}}}}",
"}}}}}}}}}}}}}}}}}}}}}}}}&+OOOOOOO@%XOOXXOXOOoo}}}}}}}}}}}}}}}}}}}}}}}}",
"}}}}}}}}}}}}}}}}}}}}}}}}%%OOOOOOO*X  .   .    }}}}}}}}}}}}}}}}}}}}}}}}",
"}}}}}}}}}}}}}}}}}}}}}}}}}&%OOXO+%+           }}}}}}}}}}}}}}}}}}}}}}}}}",
"}}}}}}}}}}}}}}}}}}}}}}}}}@&%%+%*@           }}}}}}}}}}}}}}}}}}}}}}}}}}",
"}}}}}}}}}}}}}}}}}}}}}}}}}}%%***%            }}}}}}}}}}}}}}}}}}}}}}}}}}",
"}}}}}}}}}}}}}}}}}}}}}}}}}}}%%%+.          }}}}}}}}}}}}}}}}}}}}}}}}}}}}"
};
