/* XPM */
static char *result[] = {
/* columns rows colors chars-per-pixel */
"70 70 110 2 ",
"   c #9F7200",
".  c #A07200",
"X  c #A77900",
"o  c #AB7D00",
"O  c #AF8100",
"+  c #B18300",
"@  c #B68800",
"#  c #BC8D00",
"$  c #BF9000",
"%  c #BF9F00",
"&  c #C29300",
"*  c #C79900",
"=  c #CB9C00",
"-  c #C3A200",
";  c #CDA200",
":  c #CBAB00",
">  c #D4A400",
",  c #D6AA00",
"<  c #DBAC00",
"1  c #D5B200",
"2  c #DCB300",
"3  c #D7BA00",
"4  c #DBBA00",
"5  c #DFBE08",
"6  c #D7AC19",
"7  c #E2B200",
"8  c #E5BB00",
"9  c #ECBC00",
"0  c #E3B509",
"q  c #F0BF00",
"w  c #D8B028",
"e  c #DAB92C",
"r  c #DCC100",
"t  c #DFC800",
"y  c #E4C301",
"u  c #EAC101",
"i  c #E4CA00",
"p  c #EACC00",
"a  c #E0C10C",
"s  c #F4C400",
"d  c #F4CD00",
"f  c #FECD00",
"g  c #EED000",
"h  c #EDDE00",
"j  c #EDD20B",
"k  c #F3D301",
"l  c #FED200",
"z  c #F4DA00",
"x  c #FEDC00",
"c  c #FFD00B",
"v  c #FFDE08",
"b  c #EAC01C",
"n  c #E8D11D",
"m  c #FBDA10",
"M  c #F7E203",
"N  c #FEE301",
"B  c #F4EA00",
"V  c #FFEA00",
"C  c #FFE70F",
"Z  c #F6F100",
"A  c #FEF300",
"S  c #FFFD01",
"D  c #FFF50F",
"F  c #FFFE0A",
"G  c #FEE512",
"H  c #FFE219",
"J  c #F5EF1F",
"K  c #FFEB1A",
"L  c #E7C824",
"P  c #E9DF24",
"I  c #EBD32F",
"U  c #FCD227",
"Y  c #FADF3E",
"T  c #FFEF20",
"R  c #F7F32C",
"E  c #FFFE2B",
"W  c #FFF032",
"Q  c #FFFF3E",
"!  c #F7DE4A",
"~  c #E4C558",
"^  c #FFF142",
"/  c #FFFE42",
"(  c #FEE653",
")  c #FBEA56",
"_  c #FFED5D",
"`  c #FFFF54",
"'  c #FFF55E",
"]  c #E4CC7B",
"[  c #E5D27E",
"{  c #FFE366",
"}  c #FBE16A",
"|  c #FFEE6E",
" . c #FFF967",
".. c #FFFE76",
"X. c #FFFF7D",
"o. c #ECDD82",
"O. c #FFED80",
"+. c #FFF79B",
"@. c #FFFD9A",
"#. c #FDF2AB",
"$. c #FFFEAB",
"%. c #FFF3BC",
"&. c #FFFABB",
"*. c #F0E5C5",
"=. c #F7F2DC",
"-. c #FEFEDE",
";. c #FFFDE2",
":. c #FFFEF6",
">. c #FFFFFF",
",. c None",
/* pixels */
",.,.,.,.,.,.,.,.,.,.,.,.,.,.,.,.,.,.,.,.,.,.,.,.,.,.,.,.,.> < < > < < > < > , p u ,.,.,.,.,.,.,.,.,.,.,.,.,.,.,.,.,.,.,.,.,.,.,.,.,.,.,.,.,.",
",.,.,.,.,.,.,.,.,.,.,.,.,.,.,.,.,.,.,.,.,.,.,.,.,.,.,.= < 7 7 7 7 7 7 7 < 8 z x x s < ,.,.,.,.,.,.,.,.,.,.,.,.,.,.,.,.,.,.,.,.,.,.,.,.,.,.,.",
",.,.,.,.,.,.,.,.,.,.,.,.,.,.,.,.,.,.,.,.,.,.,.,.,.,.,.9 q 9 9 q 9 q 9 9 8 z x x x f s ,.,.,.,.,.,.,.,.,.,.,.,.,.,.,.,.,.,.,.,.,.,.,.,.,.,.,.",
",.,.,.,.,.,.,.,.,.,.,.,.,.,.,.,.,.,.,.,.,.,.,.,.,.,.s f l f f f f f f f d N G V N l f 9 ,.,.,.,.,.,.,.,.,.,.,.,.,.,.,.,.,.,.,.,.,.,.,.,.,.,.",
",.,.,.,.,.,.,.,.,.,.,.,.,.,.,.,.,.,.,.,.,.,.,.,.,.7 f f f f f f f f l s x T ..F S N f f ,.,.,.,.,.,.,.,.,.,.,.,.,.,.,.,.,.,.,.,.,.,.,.,.,.,.",
",.,.,.,.,.,.,.,.,.,.,.,.,.,.,.,.,.,.,.,.,.,.,.,.,.s f f f f l f f f d d N @. .V V V x f 8 ,.,.,.,.,.,.,.,.,.,.,.,.,.,.,.,.,.,.,.,.,.,.,.,.,.",
",.,.,.,.,.,.,.,.,.,.,.,.,.,.,.,.,.,.,.,.,.,.,.,.,.f l l l l l l l f p x ' *.H x x l x l q ,.,.,.,.,.,.,.,.,.,.,.,.,.,.,.,.,.,.,.,.,.,.,.,.,.",
",.,.,.,.,.,.,.,.,.,.,.,.,.,.,.,.,.,.,.,.,.,.,.,.h A A A A A A A A A g C &.( y : : 8 f f s < ,.,.,.,.,.,.,.,.,.,.,.,.,.,.,.,.,.,.,.,.,.,.,.,.",
",.,.,.,.,.,.,.,.,.,.,.,.,.,.,.,.,.,.,.,.,.,.,.,.R E E E E E E E E T g W | a - * % @ , l s 7 ,.,.,.,.,.,.,.,.,.,.,.,.,.,.,.,.,.,.,.,.,.,.,.,.",
",.,.,.,.,.,.,.,.,.,.,.,.,.,.,.,.,.,.,.,.,.,.,.,.-.;.-.-.;.-.-.-.;.o.z A k - 1 k z * o u s 8 ,.,.,.,.,.,.,.,.,.,.,.,.,.,.,.,.,.,.,.,.,.,.,.,.",
",.,.,.,.,.,.,.,.,.,.,.,.,.,.,.,.,.,.,.,.,.,.,.P Q Q Q Q Q Q Q Q / n M V 1 1 M A S z # = s 9 < ,.,.,.,.,.,.,.,.,.,.,.,.,.,.,.,.,.,.,.,.,.,.,.",
",.,.,.,.,.,.,.,.,.,.,.,.,.,.,.,.,.,.,.,.,.,.,.Z S S S S S S S S Z p V z : k E F S N 8 @ 7 9 < ,.,.,.,.,.,.,.,.,.,.,.,.,.,.,.,.,.,.,.,.,.,.,.",
",.,.,.,.,.,.,.,.,.,.,.,.,.,.,.,.,.,.,.,.,.,.,.Z S S S S S S S S B i V y 3 ^ ..S N l f & & 9 7 ,.,.,.,.,.,.,.,.,.,.,.,.,.,.,.,.,.,.,.,.,.,.,.",
",.,.,.,.,.,.,.,.,.,.,.,.,.,.,.,.,.,.,.,.,.,.,.l x x x x x x x x u p N 1 j $.` V u u f 7 @ < 8 ,.,.,.,.,.,.,.,.,.,.,.,.,.,.,.,.,.,.,.,.,.,.,.",
",.,.,.,.,.,.,.,.,.,.,.,.,.,.,.,.,.,.,.,.,.,.8 f f f l f f f f f 7 z z 1 ) $.D k - , l f # = 8 ; ,.,.,.,.,.,.,.,.,.,.,.,.,.,.,.,.,.,.,.,.,.,.",
",.,.,.,.,.,.,.,.,.,.,.,.,.,.,.,.,.,.,.,.,.,.q l f f f f f f f f 7 z y r #.Q V 8 - > f l = & 7 > ,.,.,.,.,.,.,.,.,.,.,.,.,.,.,.,.,.,.,.,.,.,.",
",.,.,.,.,.,.,.,.,.,.,.,.,.,.,.,.,.,.,.,.,.,.s f f s f f s f f q 7 z 4 I ` A x 2 = ; f f < & < > ,.,.,.,.,.,.,.,.,.,.,.,.,.,.,.,.,.,.,.,.,.,.",
",.,.,.,.,.,.,.,.,.,.,.,.,.,.,.,.,.,.,.,.,.,.< 7 7 7 7 7 7 7 7 < < d 3 M F V m 5 > = f f 9 @ < > ,.,.,.,.,.,.,.,.,.,.,.,.,.,.,.,.,.,.,.,.,.,.",
",.,.,.,.,.,.,.,.,.,.,.,.,.,.,.,.,.,.,.,.,.,.7 7 7 7 7 7 7 7 7 < < s 4 A S N ! L < = f f q & > > ,.,.,.,.,.,.,.,.,.,.,.,.,.,.,.,.,.,.,.,.,.,.",
",.,.,.,.,.,.,.,.,.,.,.,.,.,.,.,.,.,.,.,.,.= 7 7 7 7 7 7 7 7 7 > 7 8 4 S V v #.} < = f f q & = > ,.,.,.,.,.,.,.,.,.,.,.,.,.,.,.,.,.,.,.,.,.,.",
",.,.,.,.,.,.,.,.,.,.,.,.,.,.,.,.,.,.,.,.,.> 7 7 < 7 7 7 7 7 7 > 7 > i S K O.:.;.] w f f s * & > ,.,.,.,.,.,.,.,.,.,.,.,.,.,.,.,.,.,.,.,.,.,.",
",.,.,.,.,.,.,.,.,.,.,.,.,.,.,.,.,.,.,.,.,.> 7 7 7 7 7 7 < 7 7 > 7 * i F _ ;.>.>.*.~ c f q > @ > = ,.,.,.,.,.,.,.,.,.,.,.,.,.,.,.,.,.,.,.,.,.",
",.,.,.,.,.,.,.,.,.,.,.,.,.,.,.,.,.,.,.,.,.> 7 7 7 7 7 7 7 7 < > 7 & h A x Y =.%.6 = f f q < @ > = ,.,.,.,.,.,.,.,.,.,.,.,.,.,.,.,.,.,.,.,.,.",
",.,.,.,.,.,.,.,.,.,.,.,.,.,.,.,.,.,.,.,.,.< 7 < 7 7 7 7 7 7 7 > < * B V x 8 o.{ < = f f q 7 @ = & ,.,.,.,.,.,.,.,.,.,.,.,.,.,.,.,.,.,.,.,.,.",
",.,.,.,.,.,.,.,.,.,.,.,.,.,.,.,.,.,.,.,.,.< 7 7 7 7 7 7 7 7 < > > = A N x 2 e U > = f f 9 8 @ * & ,.,.,.,.,.,.,.,.,.,.,.,.,.,.,.,.,.,.,.,.,.",
",.,.,.,.,.,.,.,.,.,.,.,.,.,.,.,.,.,.,.,.,.7 7 7 7 7 7 7 7 7 < ; = : A l f 1 * 9 < = f s 9 9 # & & ,.,.,.,.,.,.,.,.,.,.,.,.,.,.,.,.,.,.,.,.,.",
",.,.,.,.,.,.,.,.,.,.,.,.,.,.,.,.,.,.,.,.,.< 7 7 7 7 7 7 7 7 < = & , A f s 1 $ 8 < = f s 9 9 # & & ,.,.,.,.,.,.,.,.,.,.,.,.,.,.,.,.,.,.,.,.,.",
",.,.,.,.,.,.,.,.,.,.,.,.,.,.,.,.,.,.,.,.,.< 7 7 7 7 7 7 7 7 < = # 4 V l 9 ; + 8 < = f q 9 9 & @ = ,.,.,.,.,.,.,.,.,.,.,.,.,.,.,.,.,.,.,.,.,.",
",.,.,.,.,.,.,.,.,.,.,.,.,.,.,.,.,.,.,.,.,.2 7 7 7 7 7 7 7 7 < * @ r N f 2 ; + 8 < = f 9 9 9 & @ & ,.,.,.,.,.,.,.,.,.,.,.,.,.,.,.,.,.,.,.,.,.",
",.,.,.,.,.,.,.,.,.,.,.,.,.,.,.,.,.,.,.,.,.7 7 7 < 7 7 7 7 7 < & @ i N f > * * u < = s 9 9 9 = @ & ,.,.,.,.,.,.,.,.,.,.,.,.,.,.,.,.,.,.,.,.,.",
",.,.,.,.,.,.,.,.,.,.,.,.,.,.,.,.,.,.,.,.,.7 7 < 7 7 7 < 7 7 > = @ i x f s s 0 L > = s 9 9 9 = + = ,.,.,.,.,.,.,.,.,.,.,.,.,.,.,.,.,.,.,.,.,.",
",.,.,.,.,.,.,.,.,.,.,.,.,.,.,.,.,.,.,.,.,.< < < < < < < < < > & + y x f f f 9 e < * 9 9 9 9 = + & ,.,.,.,.,.,.,.,.,.,.,.,.,.,.,.,.,.,.,.,.,.",
",.,.,.,.,.,.,.,.,.,.,.,.,.,.,.,.,.,.,.,.,.& & & & & & & & & & & O r l f f f 8 9 > & q 9 9 q > o & ,.,.,.,.,.,.,.,.,.,.,.,.,.,.,.,.,.,.,.,.,.",
",.,.,.,.,.,.,.,.,.,.,.,.,.,.,.,.,.,.,.,.,.& & # & # & & & & & & O 3 d f f f 0 u < & q 9 9 9 = o & ,.,.,.,.,.,.,.,.,.,.,.,.,.,.,.,.,.,.,.,.,.",
",.,.,.,.,.,.,.,.,.,.,.,.,.,.,.,.,.,.,.,.@ & & & & & & & & & & & O 1 u f f l 7 u < & 9 9 9 q = o = ,.,.,.,.,.,.,.,.,.,.,.,.,.,.,.,.,.,.,.,.,.",
",.,.,.,.,.,.,.,.,.,.,.,.,.,.,.,.,.,.,.,.@ $ & $ & & & & & & & & O 1 u s f f 2 u > & 9 9 9 7 = o & ,.,.,.,.,.,.,.,.,.,.,.,.,.,.,.,.,.,.,.,.,.",
",.,.,.,.,.,.,.,.,.,.,.,.,.,.,.,.,.,.,.,.,.& & & & & & & & & # & O , 9 9 9 9 < 9 > = 9 9 9 9 = o & ,.,.,.,.,.,.,.,.,.,.,.,.,.,.,.,.,.,.,.,.,.",
",.,.,.,.,.,.,.,.,.,.,.,.,.,.,.,.,.,.,.,.,.# & & & # & & & & & & O ; 9 9 9 9 > u > & 9 9 9 7 & o & ,.,.,.,.,.,.,.,.,.,.,.,.,.,.,.,.,.,.,.,.,.",
",.,.,.,.,.,.,.,.,.,.,.,.,.,.,.,.,.,.,.,.,.& & & & & & # & & & & O ; 9 9 9 u , u > = 9 9 7 < & o & ,.,.,.,.,.,.,.,.,.,.,.,.,.,.,.,.,.,.,.,.,.",
",.,.,.,.,.,.,.,.,.,.,.,.,.,.,.,.,.,.,.,.,.& & # & & & & & & # & O * 9 9 9 9 , u > & 9 9 9 < & o & ,.,.,.,.,.,.,.,.,.,.,.,.,.,.,.,.,.,.,.,.,.",
",.,.,.,.,.,.,.,.,.,.,.,.,.,.,.,.,.,.,.,.,.$ & & & & & & & & & & + & 9 9 9 q < u > & 9 9 < < & o & ,.,.,.,.,.,.,.,.,.,.,.,.,.,.,.,.,.,.,.,.,.",
",.,.,.,.,.,.,.,.,.,.,.,.,.,.,.,.,.,.,.,.,.$ & & & & & # & & # # + & 8 9 9 9 > u > * 9 8 < < & o & ,.,.,.,.,.,.,.,.,.,.,.,.,.,.,.,.,.,.,.,.,.",
",.,.,.,.,.,.,.,.,.,.,.,.,.,.,.,.,.,.,.,.,.$ & $ & # & & & & # & o & 7 9 9 9 > u > * 9 7 < < @ o # ,.,.,.,.,.,.,.,.,.,.,.,.,.,.,.,.,.,.,.,.,.",
",.,.,.,.,.,.,.,.,.,.,.,.,.,.,.,.,.,.,.,.,.# & & & & $ $ # & & # + # < 9 9 u , 8 > & 7 < < < @ o & ,.,.,.,.,.,.,.,.,.,.,.,.,.,.,.,.,.,.,.,.,.",
",.,.,.,.,.,.,.,.,.,.,.,.,.,.,.,.,.,.,.,.,.& & & & & $ & & & $ & + @ < 9 9 9 < u > & 7 < < > @ @ # ,.,.,.,.,.,.,.,.,.,.,.,.,.,.,.,.,.,.,.,.,.",
",.,.,.,.,.,.,.,.,.,.,.,.,.,.,.,.,.,.,.,.,.$ & $ $ & & & $ & $ & @ + > 7 9 9 > 8 > & < < < ; o @ # ,.,.,.,.,.,.,.,.,.,.,.,.,.,.,.,.,.,.,.,.,.",
",.,.,.,.,.,.,.,.,.,.,.,.,.,.,.,.,.,.,.,.,.# & $ & & $ & & & $ % @ o = 7 9 9 < 9 > # < < < = o @ & ,.,.,.,.,.,.,.,.,.,.,.,.,.,.,.,.,.,.,.,.,.",
",.,.,.,.,.,.,.,.,.,.,.,.,.,.,.,.,.,.,.,.,.# # & $ & $ & & # $ $ @ o & > 9 9 > 9 > # < 7 < & o @ & ,.,.,.,.,.,.,.,.,.,.,.,.,.,.,.,.,.,.,.,.,.",
",.,.,.,.,.,.,.,.,.,.,.,.,.,.,.,.,.,.,.,.,.+ + @ @ @ + @ + + + # @ o & = < 8 ; 9 = & < < ; & o # & ,.,.,.,.,.,.,.,.,.,.,.,.,.,.,.,.,.,.,.,.,.",
",.,.,.,.,.,.,.,.,.,.,.,.,.,.,.,.,.,.,.,.,.o + O O O O O O O @ + & o # = ; < = 9 > & < < = @ o # ,.,.,.,.,.,.,.,.,.,.,.,.,.,.,.,.,.,.,.,.,.,.",
",.,.,.,.,.,.,.,.,.,.,.,.,.,.,.,.,.,.,.,.,.,.+ + + O + O O @ + + # o @ = = < = 8 = & < ; = + o & ,.,.,.,.,.,.,.,.,.,.,.,.,.,.,.,.,.,.,.,.,.,.",
",.,.,.,.,.,.,.,.,.,.,.,.,.,.,.,.,.,.,.,.,.,.O O O + O + O O @ + & o o * = = = 8 = & > = = o o & ,.,.,.,.,.,.,.,.,.,.,.,.,.,.,.,.,.,.,.,.,.,.",
",.,.,.,.,.,.,.,.,.,.,.,.,.,.,.,.,.,.,.,.,.,.O + + O + O + O O + & o o & & = & 8 = & = = & o @ # ,.,.,.,.,.,.,.,.,.,.,.,.,.,.,.,.,.,.,.,.,.,.",
",.,.,.,.,.,.,.,.,.,.,.,.,.,.,.,.,.,.,.,.,.,.O O O + O + O + + + & @ o & = = & 7 = @ = = # o @ & ,.,.,.,.,.,.,.,.,.,.,.,.,.,.,.,.,.,.,.,.,.,.",
",.,.,.,.,.,.,.,.,.,.,.,.,.,.,.,.,.,.,.,.,.,.O O + O + O + O + O & @ o o = = & 7 = @ = = @ X # & ,.,.,.,.,.,.,.,.,.,.,.,.,.,.,.,.,.,.,.,.,.,.",
",.,.,.,.,.,.,.,.,.,.,.,.,.,.,.,.,.,.,.,.,.,.o + O + O + O + O O @ & o o = = & < & o = & X + # ,.,.,.,.,.,.,.,.,.,.,.,.,.,.,.,.,.,.,.,.,.,.,.",
",.,.,.,.,.,.,.,.,.,.,.,.,.,.,.,.,.,.,.,.,.,.,.O + + + o + + + + o & @ X & = & = # @ = & X o # ,.,.,.,.,.,.,.,.,.,.,.,.,.,.,.,.,.,.,.,.,.,.,.",
",.,.,.,.,.,.,.,.,.,.,.,.,.,.,.,.,.,.,.,.,.,.,.O + + + + + + o + o & @ o o = & & & # * o o @ & ,.,.,.,.,.,.,.,.,.,.,.,.,.,.,.,.,.,.,.,.,.,.,.",
",.,.,.,.,.,.,.,.,.,.,.,.,.,.,.,.,.,.,.,.,.,.,.O o + + + + + o + o & @ o X & & & & * & X o @ & ,.,.,.,.,.,.,.,.,.,.,.,.,.,.,.,.,.,.,.,.,.,.,.",
",.,.,.,.,.,.,.,.,.,.,.,.,.,.,.,.,.,.,.,.,.,.,.o + + + + + o @ o o & @ o o o & = = & X o @ @ & ,.,.,.,.,.,.,.,.,.,.,.,.,.,.,.,.,.,.,.,.,.,.,.",
",.,.,.,.,.,.,.,.,.,.,.,.,.,.,.,.,.,.,.,.,.,.,.,.+ + + + @ o @ @ @ o & @ o o o & # X X o @ # ,.,.,.,.,.,.,.,.,.,.,.,.,.,.,.,.,.,.,.,.,.,.,.,.",
",.,.,.,.,.,.,.,.,.,.,.,.,.,.,.,.,.,.,.,.,.,.,.,.o + O + o @ o o o o & o o o     . X o + @ # ,.,.,.,.,.,.,.,.,.,.,.,.,.,.,.,.,.,.,.,.,.,.,.,.",
",.,.,.,.,.,.,.,.,.,.,.,.,.,.,.,.,.,.,.,.,.,.,.,.o + + O @ o o @ o @ & & @ o o X X o + + @ # ,.,.,.,.,.,.,.,.,.,.,.,.,.,.,.,.,.,.,.,.,.,.,.,.",
",.,.,.,.,.,.,.,.,.,.,.,.,.,.,.,.,.,.,.,.,.,.,.,.,.O O + o o @ o @ o o & @ @ o o + + + + & ,.,.,.,.,.,.,.,.,.,.,.,.,.,.,.,.,.,.,.,.,.,.,.,.,.",
",.,.,.,.,.,.,.,.,.,.,.,.,.,.,.,.,.,.,.,.,.,.,.,.,.o o o o o o o o o o & # + + + + + + & & ,.,.,.,.,.,.,.,.,.,.,.,.,.,.,.,.,.,.,.,.,.,.,.,.,.",
",.,.,.,.,.,.,.,.,.,.,.,.,.,.,.,.,.,.,.,.,.,.,.,.,.,..     . . . . . . o & @ + + + + @ & ,.,.,.,.,.,.,.,.,.,.,.,.,.,.,.,.,.,.,.,.,.,.,.,.,.,.",
",.,.,.,.,.,.,.,.,.,.,.,.,.,.,.,.,.,.,.,.,.,.,.,.,.,.. .   . . . .   . . # * @ + o @ & & ,.,.,.,.,.,.,.,.,.,.,.,.,.,.,.,.,.,.,.,.,.,.,.,.,.,.",
",.,.,.,.,.,.,.,.,.,.,.,.,.,.,.,.,.,.,.,.,.,.,.,.,.,.,.. . . . .   . .   X & = & & * * ,.,.,.,.,.,.,.,.,.,.,.,.,.,.,.,.,.,.,.,.,.,.,.,.,.,.,.",
",.,.,.,.,.,.,.,.,.,.,.,.,.,.,.,.,.,.,.,.,.,.,.,.,.,.,.,..   . .   . . .   o & = = * ,.,.,.,.,.,.,.,.,.,.,.,.,.,.,.,.,.,.,.,.,.,.,.,.,.,.,.,.",
",.,.,.,.,.,.,.,.,.,.,.,.,.,.,.,.,.,.,.,.,.,.,.,.,.,.,.,.,.. .   . .   . .   o @ # ,.,.,.,.,.,.,.,.,.,.,.,.,.,.,.,.,.,.,.,.,.,.,.,.,.,.,.,.,."
};
