/* XPM */
static char *result[] = {
/* columns rows colors chars-per-pixel */
"70 70 167 2 ",
"   c #9F7100",
".  c #A27400",
"X  c #A67800",
"o  c #AB7D00",
"O  c #AF8100",
"+  c #AF8800",
"@  c #B28300",
"#  c #B78800",
"$  c #BC8D00",
"%  c #BF9000",
"&  c #BD9D00",
"*  c #C29300",
"=  c #C69900",
"-  c #CA9B00",
";  c #C59911",
":  c #C2A200",
">  c #CEA100",
",  c #CBAA00",
"<  c #C2A40F",
"1  c #D4A500",
"2  c #D8A700",
"3  c #D6AA00",
"4  c #DCAC00",
"5  c #D8AC0A",
"6  c #CCB300",
"7  c #D3B200",
"8  c #DBB400",
"9  c #D6BA02",
"0  c #DCBB00",
"q  c #D0B214",
"w  c #D9B21F",
"e  c #E3B300",
"r  c #E3BC00",
"t  c #ECBC00",
"y  c #EBBD0F",
"u  c #E2B812",
"i  c #C09828",
"p  c #C9A022",
"a  c #DCB937",
"s  c #E1BB21",
"d  c #DAC500",
"f  c #D8C508",
"g  c #E4C300",
"h  c #E9C500",
"j  c #E7CB00",
"k  c #EBCB00",
"l  c #EFCE0A",
"z  c #F3C300",
"x  c #F8C700",
"c  c #F2CC00",
"v  c #FECE00",
"b  c #F9CA0B",
"n  c #E1D000",
"m  c #E9D400",
"M  c #EADA00",
"N  c #EADC0A",
"B  c #F4D300",
"V  c #FED300",
"C  c #FEDC00",
"Z  c #FFD10B",
"A  c #FFDF0C",
"S  c #FFD313",
"D  c #FFDF12",
"F  c #FFD41D",
"G  c #FCDF1C",
"H  c #EFE700",
"J  c #F7E000",
"K  c #FFE401",
"L  c #F5EA00",
"P  c #FFEB00",
"I  c #FFE40E",
"U  c #FFEB09",
"Y  c #FFF400",
"T  c #FFFD00",
"R  c #FFF20A",
"E  c #FFFF0B",
"W  c #EDE113",
"Q  c #FFE516",
"!  c #FFEE16",
"~  c #F0E51B",
"^  c #FFE11D",
"/  c #FFF412",
"(  c #FFFE14",
")  c #FFF11E",
"_  c #FFFF1D",
"`  c #E5D92F",
"'  c #F0D721",
"]  c #FFD526",
"[  c #FFD72E",
"{  c #E5CB30",
"}  c #FFD934",
"|  c #FFE422",
" . c #F4EA26",
".. c #FFE923",
"X. c #FFE32F",
"o. c #FFFF26",
"O. c #FFF82F",
"+. c #F2E732",
"@. c #FFE330",
"#. c #FFE53B",
"$. c #F9F536",
"%. c #FFF832",
"&. c #FFF03A",
"*. c #FFFF39",
"=. c #C8A645",
"-. c #CDB643",
";. c #D6B962",
":. c #EAC644",
">. c #FFDB41",
",. c #E3C452",
"<. c #E9D359",
"1. c #F6DF5B",
"2. c #FFDF58",
"3. c #FFE541",
"4. c #F5EF46",
"5. c #FFF746",
"6. c #FFFF45",
"7. c #FFF849",
"8. c #FFEA5A",
"9. c #FFFB53",
"0. c #FFFF58",
"q. c #EDD36C",
"w. c #F5D96E",
"e. c #EAD17B",
"r. c #FFEC6B",
"t. c #F2EA65",
"y. c #FFF065",
"u. c #FFFF62",
"i. c #FFEC72",
"p. c #FFEE7C",
"a. c #FFF273",
"s. c #FFF17D",
"d. c #FFFD7F",
"f. c #DCC688",
"g. c #F4DF87",
"h. c #E0D19F",
"j. c #FFEF83",
"k. c #F9F280",
"l. c #FFFA84",
"z. c #FFF788",
"x. c #FBE796",
"c. c #FFFF9B",
"v. c #EADAAA",
"b. c #EBDCB3",
"n. c #EFE3A4",
"m. c #F8E9A2",
"M. c #F8EBA8",
"N. c #FFF5A7",
"B. c #FFFDA2",
"V. c #FFF4AF",
"C. c #FFFFAD",
"Z. c #FEF5BD",
"A. c #FFFFBC",
"S. c #FEF4C4",
"D. c #FFFFC4",
"F. c #FFFCCB",
"G. c #F5EFDD",
"H. c #FFF9D3",
"J. c #F7F2DE",
"K. c #FAF4DE",
"L. c #FFFDDD",
"P. c #F9F5E6",
"I. c #FFFCE3",
"U. c #FFFEEC",
"Y. c #FFFEF3",
"T. c #FFFFFE",
"R. c None",
/* pixels */
"R.R.R.R.R.R.R.R.R.R.R.R.R.R.R.R.R.R.R.R.R.R.R.R.R.R.0 h k B B c e 1 1 - 1 1 3 3 1 1 - = R.R.R.R.R.R.R.R.R.R.R.R.R.R.R.R.R.R.R.R.R.R.R.R.R.R.",
"R.R.R.R.R.R.R.R.R.R.R.R.R.R.R.R.R.R.R.R.R.R.R.h B C C C C C C C V v x z t 4 4 e e e e e 4 1 - R.R.R.R.R.R.R.R.R.R.R.R.R.R.R.R.R.R.R.R.R.R.R.",
"R.R.R.R.R.R.R.R.R.R.R.R.R.R.R.R.R.R.R.R.R.k B C C C C C C C C C C v v v v v t e e t z t z t t t e R.R.R.R.R.R.R.R.R.R.R.R.R.R.R.R.R.R.R.R.R.",
"R.R.R.R.R.R.R.R.R.R.R.R.R.R.R.R.R.R.R.k C C C C C U ..U P P K K K V v v v v v v z t x v v v v V V x e R.R.R.R.R.R.R.R.R.R.R.R.R.R.R.R.R.R.R.",
"R.R.R.R.R.R.R.R.R.R.R.R.R.R.R.R.R.r B C C C K / 0.C.c.( T T T T T Y K V v v v v v x t t v v v v v v v z 3 R.R.R.R.R.R.R.R.R.R.R.R.R.R.R.R.R.",
"R.R.R.R.R.R.R.R.R.R.R.R.R.R.R.R.g C C C K / u.D.Y.c.%.Y Y P P P P P P P K C v v v V x e t v v v v v v v x e R.R.R.R.R.R.R.R.R.R.R.R.R.R.R.R.",
"R.R.R.R.R.R.R.R.R.R.R.R.R.R.R.g C C C U 9.D.T.H.8.I ^ K C B C B C C V V C C C V v v v t e t v v V V V v V v r R.R.R.R.R.R.R.R.R.R.R.R.R.R.R.",
"R.R.R.R.R.R.R.R.R.R.R.R.R.R.r B C K ) B.Y.L.p.G B l { 7 , , , , 3 9 t t v V V V v v v t t e k Y Y Y Y Y Y Y Y M R.R.R.R.R.R.R.R.R.R.R.R.R.R.",
"R.R.R.R.R.R.R.R.R.R.R.R.R.0 B C C Y l.S.r.| B d , < -.& : : : & & & + o = e v v V v v z t t r N o.o.o.o.o.o.o.o.` R.R.R.R.R.R.R.R.R.R.R.R.R.",
"R.R.R.R.R.R.R.R.R.R.R.R.8 k B K Y T ! A B g , & & q <.h B B B c k h : o   . * t v v v z t t t u n.I.L.L.L.L.L.L.L.h.R.R.R.R.R.R.R.R.R.R.R.R.",
"R.R.R.R.R.R.R.R.R.R.R.7 h c C Y T K C B 7 & : 7 k ^ a.Y Y Y T T T Y P c 1 @ . o 2 v v z t t t t s 4.6.6.6.6.6.6.6.$.f R.R.R.R.R.R.R.R.R.R.R.",
"R.R.R.R.R.R.R.R.R.R.R.g k C Y T K C k : & 7 c C U 7.c.T T T T T Y Y K C V x - X . = t t t t t t t g T T T T T T T T L R.R.R.R.R.R.R.R.R.R.R.",
"R.R.R.R.R.R.R.R.R.R.4 k B K T K C k : & 0 C K %.c.U.D.E T T P K C K V V v V v e @   # 3 4 t t t t e M T T T T T T T T M R.R.R.R.R.R.R.R.R.R.",
"R.R.R.R.R.R.R.R.R.= e k C T K C k : : h C / l.I.I.C.F.( P K B r r r x v v v v V z #   # 1 1 e t t r 8 B C C K C K J C C 4 R.R.R.R.R.R.R.R.R.",
"R.R.R.R.R.R.R.R.R.3 e k Y P C k : : k K &.D.T.A.*.u.I...C C , 6 6 : t v v v v v v x #   # 1 2 e t t 4 4 v v v v v v v v z R.R.R.R.R.R.R.R.R.",
"R.R.R.R.R.R.R.R.- e e B Y K B , & h A y.L.F.u.E T l.T.3.C 9 n 0 , = e V v v v v v v z # . * 1 2 e t e 1 z v v v v v v v v 4 R.R.R.R.R.R.R.R.",
"R.R.R.R.R.R.R.R.3 e e J K C 9 & r I s.B.0.( T T I V.T.r.h d C 2 @ * t v v v v v v v v e o o > 1 3 t t 1 4 x x x x v v x v t R.R.R.R.R.R.R.R.",
"R.R.R.R.R.R.R.- 4 e t K C k & 7 B P _ T T T Y C G H.T.M.9 L v 3 # * e v v v v v v v v z - X o 1 2 4 t 1 > 4 e t e e e e e e - R.R.R.R.R.R.R.",
"R.R.R.R.R.R.R.2 e e h V c , : c K T T T T Y K C 8.T.T.P.+.V x 2 @ * t v v V v v v v v t e # . = 1 1 e 3 1 1 e e e e e e e e 2 R.R.R.R.R.R.R.",
"R.R.R.R.R.R.R.4 e e x v 2 & 0 K Y T T T P C C @.F.T.T.T.Z.>.b 3 @ * t v v v V v v v v t t 1 X o 1 2 2 2 1 > 4 e e e e e e e e R.R.R.R.R.R.R.",
"R.R.R.R.R.R.1 e e e v z o $ B P T T E R Q #.j.L.T.T.T.T.T.Y.Z.e.=.i y V v v v v v v x t t t #   * 1 1 1 1 > 2 e e e 4 e e e e - R.R.R.R.R.R.",
"R.R.R.R.R.R.> e 4 r v -   1 K T E _ 5.k.Z.Y.T.T.T.T.T.T.T.T.T.T.G.v.w.} Z v v v v v x t t t > X X - 2 1 1 1 > e e e e e e e e 2 R.R.R.R.R.R.",
"R.R.R.R.R.R.1 4 1 t t o o h P T T T K D @.r.Z.Y.T.T.T.T.T.P.x.,.i ; t Z v v v v v v h t t t e @ . $ 1 1 1 > - e e e e e e e e 4 R.R.R.R.R.R.",
"R.R.R.R.R.= 1 1 1 z 1 . = V T T T K C C C C A 1.J.T.T.T.S.] x 2 @ * t v v v v v v x t t t t e - . o - 1 1 1 = 2 e e e e e e e e - R.R.R.R.R.",
"R.R.R.R.R.- 2 - 2 t $ . e P T T K V C C C K C 7 t.T.T.T.2.v x 3 @ * e v v v v v v t t t t t t 2 o X * 1 1 > = 1 e e e 4 e e e e 2 R.R.R.R.R.",
"R.R.R.R.R.> 1 * 4 4 o o c T T Y V v v v V V 0 j ' K.T.I.] V x 2 @ * t v v v v v x t t t t t t e o . o 1 1 - = - e e e e e e e e 3 R.R.R.R.R.",
"R.R.R.R.R.1 > * 1 - . * C T T K v v v v v t 9 M 5 b.T.S.b v x 3 # * t v v v v v t t t t t t t t - . o * 1 = - - 4 e e e e e e 4 4 R.R.R.R.R.",
"R.R.R.R.* 1 > * > $ . 1 P T T V v v v v x 8 M 8 # f.T.N.V v x 2 @ * t v v v v x t t t t t t t t 1 X X * - - - = 4 e e e e e e e e - R.R.R.R.",
"R.R.R.R.= 1 - $ > o . r Y T K v v v v v 8 n r 1 $ ;.T.z.V v x 2 # * t v v v c t t t t t t t t t 2 o X # * - - = 2 e e e e e 4 e e - R.R.R.R.",
"R.R.R.R.- 1 - $ > o X c T T C v v V V t : 7 - - * :.Y.z.V v x 3 @ $ t v v x t t t t t t t t t t e o X o * - - = 1 e e e e e e e e 1 R.R.R.R.",
"R.R.R.R.- 1 = $ = X o V T Y v v v v v x t t t t z [ U.F.S v x 2 @ * e v v t t t t t t t t t t t e * X o $ - - = 1 e e e e e e e e 1 R.R.R.R.",
"R.R.R.R.- 2 * $ * X o c T K v v v v v v v V v V v F P.H.S v x 1 @ * t x t t t t t t t t t t t t e * X o @ - - = > 4 4 4 4 4 4 4 4 1 R.R.R.R.",
"R.R.R.R.> 1 * # % . @ k H V v v v v v v v v v V v S S.s.V v x 2 # * e t t t t t t t t t t t t t t * . o * * - - * * * * * * * * = $ R.R.R.R.",
"R.R.R.R.> 1 * # $ . # j M h x v v v v v v v v v v Z m. .V v x 1 @ * 4 t t t t t t t t t t t t t e * X o o * - - * * * * * * * * * $ R.R.R.R.",
"R.R.R.R.> 1 * # # . # g M t t z v v v V v v v v v b x.W C v x 1 @ * 2 t t t t t t t t t t t t t 4 * . o o * - = * * * * * * * * * $ R.R.R.R.",
"R.R.R.R.> 1 $ @ # . # r m t t t t z x x v v v v v v q.W V v x 3 @ * 4 t t t t t t t t t t t t 4 4 * . o o * - - * * * # * * * * * $ R.R.R.R.",
"R.R.R.R.1 1 * # # . # 7 k t t t t t t t z t z t t h ,.N V v x 1 @ * 4 t t t t t t t t t t t e 4 2 * . o o * - = * * # * * * * * * $ R.R.R.R.",
"R.R.R.R.- 1 * # # . @ 2 t t t t t t t t t t t t t t a N C v z 1 @ * 4 t t t t t t t t t t e 4 4 1 * X o o * - = # * * * * * * * * $ R.R.R.R.",
"R.R.R.R.- 1 * # # X O 1 e t t t t t t t t t t t t t w N V V z 2 @ * 4 t t t t t t t t t e 4 4 4 1 * . o o * = = * * * * * * * * * $ R.R.R.R.",
"R.R.R.R.* 1 = # # X o > 2 t t t t t t t t t t t t t 5 M C v z 1 @ * 4 t t t t t t t t e 4 4 4 4 > o . o @ * - = o * * * * * * # * $ R.R.R.R.",
"R.R.R.R.* - = # # o o - 1 e t t t t t t t t t t t t 4 M C v z 1 # * 2 t t t t t t t 4 4 4 4 4 4 - o X # o * - - * * # * * * * * * # R.R.R.R.",
"R.R.R.R.* - * # # o . = 2 2 t t t t t t t t t t t t 3 M C v z 1 @ * 4 t t t t t e e 4 4 4 4 4 2 - o X o o * - * * * * * * * * * % # R.R.R.R.",
"R.R.R.R.$ - = @ # @ . * 1 2 e t t t t t t t t t t t 3 M C v z 1 @ * 4 t t t t e 4 4 4 e 4 4 4 1 * X X o o - - * * * * * * * * * * # R.R.R.R.",
"R.R.R.R.R.= - # @ o . o 1 1 1 e t t t t t t t t t t 3 M V v t 1 # * 4 t t e 4 4 4 4 4 4 4 4 1 - * X o * o * * * * * * * * * * # % R.R.R.R.R.",
"R.R.R.R.R.= - $ @ @ o o 1 1 1 4 t t t t t t t t t t 3 M C v t 1 @ * 2 t e 4 4 e 4 e 4 4 4 4 > = o . o o o = - * * * * * * * * * % R.R.R.R.R.",
"R.R.R.R.R.* - * @ @ o . * 1 1 1 e t t t t t t t t t 3 M V v t 1 @ * 1 4 4 4 4 4 4 4 4 4 4 1 - = X X o # * - * * * * * * * * * # $ R.R.R.R.R.",
"R.R.R.R.R.* - * @ @ o . o > 1 1 2 e t t t t t t t t 2 M C v t 1 # * 1 4 4 4 e 4 4 4 e 4 2 - - * X o # o * * * # * # * * * * * * # R.R.R.R.R.",
"R.R.R.R.R.R.= - # @ o X X = - > > 1 r t t t t t t h 2 M V v t 1 @ * > 4 4 4 4 4 4 4 4 4 1 - - o . o o * * - * * * * * # * * * * R.R.R.R.R.R.",
"R.R.R.R.R.R.= - $ @ @ o . # - - - - - 4 e t t e e e 1 c V v t 1 o * > 4 4 4 4 4 e 4 2 - - - * . X # o * * - * o * o # # # * # o R.R.R.R.R.R.",
"R.R.R.R.R.R.$ - * # @ @ . X = - - * - - 1 2 4 4 4 e > m V v e 1 # * > e 4 4 e 4 4 1 - - - - #   o o o * - * o o # o # o o o @ o R.R.R.R.R.R.",
"R.R.R.R.R.R.R.- - # @ @ o . # - - - - - - - 2 4 4 4 > m V v e 1 @ * > 4 4 4 4 2 - - - - - * X X # o o - - * o o o # o @ o @ o R.R.R.R.R.R.R.",
"R.R.R.R.R.R.R.* - $ @ @ @ . . * - - - - - - - - 1 4 > m v v e 1 @ * > 4 4 2 > - - - - - - o . o @ o # - - * o o # o # o @ # o R.R.R.R.R.R.R.",
"R.R.R.R.R.R.R.$ = = # @ @ o . o - - - - - - - - - > = n V x 4 1 # * = 1 - - - - - - - - $ . X @ @ @ * - * o o * o @ o @ @ @ o R.R.R.R.R.R.R.",
"R.R.R.R.R.R.R.R.= = * @ @ @ X . @ - - - - - - - - - % j V x 4 1 @ * * = - - - - - - - * X . o @ o # - - # o o # @ @ @ @ @ o R.R.R.R.R.R.R.R.",
"R.R.R.R.R.R.R.R.$ - * @ @ @ o X . * - - - - - - - - * h V t 3 1 o * * = - = - - - - = o   o @ @ # * - * o o # o @ O @ @ @ o R.R.R.R.R.R.R.R.",
"R.R.R.R.R.R.R.R.R.* = * @ @ @ o   . * - - - - - - - * h v 4 4 - o * * - - - - - - = o   X @ @ @ # - - o # o o # O @ @ @ o R.R.R.R.R.R.R.R.R.",
"R.R.R.R.R.R.R.R.R.$ - = @ @ o @ o . X * - - - - - - * e t 4 2 o o * * - - - = - = o . X @ @ @ @ % > % O @ + O O O @ O O o R.R.R.R.R.R.R.R.R.",
"R.R.R.R.R.R.R.R.R.R.* - * @ @ @ @ o . . # * - - - - * - - - * * * * * - - - - * o . . @ @ @ @ # = = @ O O O @ @ @ O @ o R.R.R.R.R.R.R.R.R.R.",
"R.R.R.R.R.R.R.R.R.R.R.= - $ @ @ @ @ o X . o * - - - * * * * * * * * * - - = # . . . @ @ @ @ @ * = $ O @ O @ @ O O @ O R.R.R.R.R.R.R.R.R.R.R.",
"R.R.R.R.R.R.R.R.R.R.R.$ = = # @ @ @ @ o X . X @ * = - - - - - - * - - = * X . . o o @ @ @ @ $ - % O O @ O O O O O O o R.R.R.R.R.R.R.R.R.R.R.",
"R.R.R.R.R.R.R.R.R.R.R.R.* = * # @ @ @ # o o . . . o # * * * - * * * o X   . X o @ @ @ @ @ # - * O O @ O @ O @ @ @ o R.R.R.R.R.R.R.R.R.R.R.R.",
"R.R.R.R.R.R.R.R.R.R.R.R.R.* - * # o @ o # o o X . .   . . X X . . . . X . o o o @ @ @ @ # = = @ O O O @ O O O O o R.R.R.R.R.R.R.R.R.R.R.R.R.",
"R.R.R.R.R.R.R.R.R.R.R.R.R.R.* - * # # o o # o * o o X X . . X X . X X o o * * o @ @ @ # = = @ + O O O @ O @ @ o R.R.R.R.R.R.R.R.R.R.R.R.R.R.",
"R.R.R.R.R.R.R.R.R.R.R.R.R.R.R.* - * * # o # o o * # o o * o o o o o * o o o # o @ @ $ - = @ O O @ @ O O O @ o R.R.R.R.R.R.R.R.R.R.R.R.R.R.R.",
"R.R.R.R.R.R.R.R.R.R.R.R.R.R.R.R.% - - $ # @ @ @ @ @ @ @ @ @ @ @ @ @ @ @ @ @ @ o $ * - * @ o @ @ O O @ o O o R.R.R.R.R.R.R.R.R.R.R.R.R.R.R.R.",
"R.R.R.R.R.R.R.R.R.R.R.R.R.R.R.R.R.$ = - = $ @ @ @ @ o @ @ @ @ @ @ @ @ o @ @ @ * - - # . . . . . . . . . . R.R.R.R.R.R.R.R.R.R.R.R.R.R.R.R.R.",
"R.R.R.R.R.R.R.R.R.R.R.R.R.R.R.R.R.R.R.* = - = % # @ @ @ @ o @ @ @ @ @ # $ * - - * o .       . . . .   R.R.R.R.R.R.R.R.R.R.R.R.R.R.R.R.R.R.R.",
"R.R.R.R.R.R.R.R.R.R.R.R.R.R.R.R.R.R.R.R.R.* - - - = * * * $ # * $ * * - - - * @ X     . .     . . R.R.R.R.R.R.R.R.R.R.R.R.R.R.R.R.R.R.R.R.R.",
"R.R.R.R.R.R.R.R.R.R.R.R.R.R.R.R.R.R.R.R.R.R.R.% = = = = - - - - - - - * $ o .     .   .   . . R.R.R.R.R.R.R.R.R.R.R.R.R.R.R.R.R.R.R.R.R.R.R.",
"R.R.R.R.R.R.R.R.R.R.R.R.R.R.R.R.R.R.R.R.R.R.R.R.R.R.$ * * * * * $ # o X .   . .       . R.R.R.R.R.R.R.R.R.R.R.R.R.R.R.R.R.R.R.R.R.R.R.R.R.R."
};
