/* XPM */
static char *_a414ed399554df9d06a5541323271b7HH2wqb9I0DcbC6QM[] = {
/* columns rows colors chars-per-pixel */
"70 70 147 2 ",
"   c None",
".  c #9F7100",
"X  c #A27400",
"o  c #A77900",
"O  c #AB7D00",
"+  c #AF8000",
"@  c #B28400",
"#  c #B78800",
"$  c #BB8C00",
"%  c #BF9000",
"&  c #BD9D00",
"*  c #C39400",
"=  c #C69900",
"-  c #CA9B00",
";  c #C3A300",
":  c #CCA400",
">  c #C7A800",
",  c #CCAC00",
"<  c #CFA10B",
"1  c #D4A500",
"2  c #D3AB00",
"3  c #DCAC00",
"4  c #D5B400",
"5  c #DBB300",
"6  c #D4B800",
"7  c #DCBB00",
"8  c #E3B300",
"9  c #E8B700",
"0  c #E3BD00",
"q  c #ECBC00",
"w  c #DCB424",
"e  c #DAB32F",
"r  c #D7C000",
"t  c #D8C000",
"y  c #DFCD00",
"u  c #E4C400",
"i  c #ECC400",
"p  c #E1CF00",
"a  c #ECCA00",
"s  c #F4C400",
"d  c #F8C700",
"f  c #F2CD00",
"g  c #FECD00",
"h  c #FFCF0A",
"j  c #E5D600",
"k  c #E6D900",
"l  c #EAD900",
"z  c #F4D200",
"x  c #FED400",
"c  c #F6DC00",
"v  c #FEDC00",
"b  c #FFD20A",
"n  c #FFDF0D",
"m  c #E4C51E",
"M  c #FFD212",
"N  c #F8D810",
"B  c #EDE200",
"V  c #F5E400",
"C  c #FEE300",
"Z  c #F6EC01",
"A  c #FFEB00",
"S  c #FFED0A",
"D  c #FFF400",
"F  c #FFFE01",
"G  c #FFFC0E",
"H  c #FFFC0C",
"J  c #F6E715",
"K  c #FFE013",
"L  c #FFEE12",
"P  c #FFE41E",
"I  c #FFF315",
"U  c #FFFF11",
"Y  c #FFF219",
"T  c #FFFF19",
"R  c #DFCE31",
"E  c #FFD934",
"W  c #FFE223",
"Q  c #FDE02B",
"!  c #FFF825",
"~  c #FFFF22",
"^  c #FFFF2D",
"/  c #FFE534",
"(  c #FFEC31",
")  c #FFE53C",
"_  c #FFF131",
"`  c #FFFB30",
"'  c #FFF73D",
"]  c #FFFB38",
"[  c #E6C44E",
"{  c #E4D05E",
"}  c #FFE640",
"|  c #FFE642",
" . c #FFFB46",
".. c #FFF549",
"X. c #FFFB49",
"o. c #F0E852",
"O. c #FFEA58",
"+. c #FFF754",
"@. c #FFFD59",
"#. c #FFFE5E",
"$. c #EEE266",
"%. c #F6EA60",
"&. c #FFEB66",
"*. c #FFE36F",
"=. c #FDED6C",
"-. c #FFFC65",
";. c #F0E679",
":. c #FFFE74",
">. c #FFFF70",
",. c #FFFF7A",
"<. c #EBD984",
"1. c #FFEF86",
"2. c #FFFF83",
"3. c #FFFF84",
"4. c #FFFA8F",
"5. c #FFFF8C",
"6. c #FFF88D",
"7. c #F6E891",
"8. c #FFEDA3",
"9. c #F6E9AD",
"0. c #FFF4A2",
"q. c #FFF3A5",
"w. c #FFFFAB",
"e. c #FFFFAC",
"r. c #FCEDB1",
"t. c #F1EAB8",
"y. c #FFFFB0",
"u. c #FFFBB5",
"i. c #FFFFBB",
"p. c #FFFFBA",
"a. c #FFFFB8",
"s. c #FFFFC1",
"d. c #FDF6CE",
"f. c #FFFFCD",
"g. c #FFF8D1",
"h. c #FFFFD5",
"j. c #FFFFD8",
"k. c #FFFFDD",
"l. c #FFFDDB",
"z. c #FEFCE1",
"x. c #FFFCEF",
"c. c #FFFFED",
"v. c #FFFFF1",
"b. c #FFFDF3",
"n. c #FFFFF7",
"m. c #FEFCF5",
"M. c #FFFFFD",
/* pixels */
"                                                            - - * * * = > 4 0 0 0                                                           ",
"                                                - 1 3 3 3 3 3 5 0 i f z c x v c c x s s q 8                                                 ",
"                                          1 3 8 9 9 9 8 8 0 d c v v v v v v v v v v x g g g d s 0                                           ",
"                                      9 s g g g g d i i c v v v v v C C C v C v v v x x g g x g g d 9                                       ",
"                                  9 d g g g g g s a c v v v C A Y +.4. .F F F D D D A v x g g g g g g d 9                                   ",
"                              3 q g g g g x d i z v v v C D ] 5.j.k.:.G D D D D D D D D D A v x g g g g g q 1                               ",
"                            8 d g g g g g s i x v C v S X.w.b.m.0.( A C C v C v v v v v x v C C v x g g g d q 3                             ",
"                          l A A A A A A f i c v v C  .e.M.x.q.) v c z a 7 7 7 7 7 7 i f d g g x x v x g g d q q 8                           ",
"                        Z H F H F H F B u c v v A @.z.h.1./ c a 5 , & & & & & & & & & & @ = 5 s g g x g g g q q q 8                         ",
"                      t.i.i.p.p.p.p.$.u a v v D F _ ) N v u , = & = > 6 7 u u u u 7 4 > + . X @ 1 s g x g g q q q q 9                       ",
"                    o.2.3.3.3.3.3.;.m a c C D F A v v a , & & , 0 a v A A A D D D D A A a 3 # o X @ 3 d g g s q q q q 8                     ",
"                  B F F F F F F Z u a z C D D C v c 7 ; & , i c A S ! G F F F F F F D D A v d 9 * X X % 9 d q q q q q q 8                   ",
"                k F F F F F F Z u a a v D D A v f 2 & > u x A I -.a.e.T F F D D A A C v x g g g d 8 @ . O : 3 8 0 q q q 9 3                 ",
"              5 V A A A A A A u 5 a z A D C v f > & 4 z C L -.f.M.a.^ F D D A v f f f z g g g x g g s - X o * 1 1 9 q q q 9 -               ",
"              s g g g g g g q 3 9 i V D A v a > & 5 c C ..s.M.j.>.U D D A v v 0 > , > = s g g g x g g g 1 o X * 1 1 8 9 q q 3               ",
"            9 g g g g x g d 3 5 8 f D A v f > & 7 v W 6.c.h.,.~ F D A v v v i r p 4 , > s g g g g g g g g 3 o X - 1 1 8 q 9 8 -             ",
"            d g g g g g g 8 3 8 8 z A C z , & 7 v O.u.w.@.T F D A C v v v f 6 Z 0 - @ - s g g g g g g g g g 1 X o - 1 1 3 q 9 1 *           ",
"          3 9 9 9 9 9 9 9 1 8 8 0 C v v 6 & 4 v A ` ~ H F F D A v v v n z 4 V v 8 * @ * s x g g g g g g g g s = X O 1 1 1 8 9 3 :           ",
"          3 8 8 8 8 8 8 1 8 8 8 i x x u = , c C D F F F F A C v v v Q Q 7 k v g 9 * @ - s x g g g g g g g g q 9 # . # 1 1 1 9 3 1 *         ",
"        1 8 8 8 8 3 8 3 1 8 8 8 s g q = ; a v D F F F D A v v v v v =.<.R S g g 9 * @ - s g g g g g x g g g q q 3 o o - 3 1 1 3 1 :         ",
"        5 8 8 8 8 8 8 1 3 8 8 9 g g * o 6 v A F F F F C v v v v v | l.m.d.E g g 8 * @ - s x g g g g g g g s q q 9 * X O - 1 1 1 1 1 *       ",
"      - 8 8 8 8 8 8 3 1 3 8 3 q g 3 X O f A F F F D A v v v v n =.z.M.M.m.8.E g 9 * @ * s g g g g g g g g s q q q 3 O X # 1 1 1 3 1 *       ",
"      3 8 3 8 8 8 8 1 : 3 3 3 q s # X 1 v D F F D A v C v v v C N { z.m.*.M g g 9 * @ - s g g g g x g g d i q q q 9 * X O * 1 1 1 1 -       ",
"      3 8 8 8 8 8 8 1 1 1 1 3 q 2 X O s A F F F A v v v v v v v 5 j =.r.h g g g 9 * @ - s x g g g g g g s q q q q q 3 O X @ 1 1 1 1 - $     ",
"    1 8 8 8 8 3 8 3 : 1 1 * 8 q $ . - v F F F A x x v v v v v 0 y V e [ g g g g 8 * @ - q g g g g g g d q q q q q q 8 * . O $ 1 1 1 - *     ",
"    1 8 8 8 8 8 8 3 : 1 1 * 8 3 O o 9 A F F D x g g x x v x i 7 V 3 % - g g g g 9 * @ - s g g g g g g s q q q q q q 9 1 o o # - 1 - - =     ",
"    3 8 3 8 8 8 8 1 1 1 - * 8 * X @ g D F F v g g g g g x s 4 V 0 * @ : g g g g 8 * @ * d g g g g g d q q q q q q q q 3 @ X @ * 1 - - =     ",
"    8 8 8 8 8 8 8 1 1 1 * * 1 # . = C F F A g g g g g g d 2 B u - @ * % c x g g 9 * @ - s g g x x d s q q q q q q q q 9 * X O $ - - - - $   ",
"  - 8 8 8 8 8 8 8 - 1 1 $ * - O X 5 D F F v g g g g g g 5 j a 1 $ $ 1 2 V x g g 8 * @ - s g g g d q q q q q q q q q q 9 - o o @ * - - - *   ",
"  1 8 8 8 8 8 8 3 1 1 1 * * * o o i D F A g g g g x g 8 > 7 - - * 1 d 5 J x g g 8 - @ - s x g g s q q q q q q q q q q q 1 O o @ $ - - - *   ",
"  1 9 8 8 8 8 8 3 1 1 1 @ * * X O d F F v g g g g g g q 0 9 9 9 q d g e 7.b g g 8 * @ - s g d q q q q q q q q q q q q q 8 @ X O # - - - *   ",
"  1 3 3 3 3 3 3 3 - 1 - # * * . @ a D D x g g x g g g x g g g g x g g e 9.h g g 8 * @ * s s q q q q q q q q q q q q q 9 8 # X O @ * - - *   ",
"  * * * * * * * * 1 1 - O * # X @ a V V g g g g g g x g g g g g g g g w %.x g g 8 * @ = 9 q q q q q q q q q q q q q q q 9 # X O @ * - - *   ",
"  * * * * * * * * - 3 - * * @ X # u B f s g g g g g g g g g x g g g g 5 Z x g g 9 * @ * 8 q q q q q q q q q q q q q q q 3 # X O @ $ - - -   ",
"  $ * # * * # * * * 1 * O * # X # u l i q q s g g g g g g g g g g g g 5 Z x g g 8 * @ * 8 q q q q q q q q q q q q q q 8 3 $ X O @ # - - =   ",
"  * * * * * * * * - 3 - O # O . @ 5 l i q q q s s d d g g g g g g g d 2 Z x g d 8 * # * 9 9 q q q q q q q q q q q q 9 8 1 # X O @ @ - - -   ",
"  % * * * * # * * 1 1 * @ # O X # 3 p q q q q q q q q s s q s q q q q , Z x g g 8 * @ = 9 q q q q q q q q q q q q 9 3 8 1 # X O @ # - - -   ",
"  $ $ * * * * * * * 1 - # # # o @ 2 u q q q q q q q q 9 q q q q q q q 2 Z x g g 8 * @ * 8 q q q q q q q q q q 9 8 3 3 3 1 @ X O @ @ * - *   ",
"  $ * * * * * * * - 1 1 @ # O X + 1 3 9 q q q q q q q q q q q q q q q 2 Z x g d 3 * @ * 8 q q q q q q q q q q 8 3 3 3 3 1 @ X O @ @ - - =   ",
"  # % * # * * * * * 1 - $ # # o o 1 2 8 q q q q q q q q q q q q q q q 2 Z x g g 8 * # * 8 q q q q i q q q 9 8 3 3 3 3 1 - O X @ @ # * - *   ",
"  $ * * % * % * $ * * - $ @ $ o o - 1 3 9 q q q q q q q q q q q q q q 2 Z x x d 8 * @ * 8 q q q q q q q 8 8 3 3 3 3 3 1 - o X O @ # - - *   ",
"  # * $ * % $ * * * - - $ # $ O X * 1 1 8 q q q q q q q q q q q q q q 2 Z x g d 3 * @ - 9 q q q q q q 8 3 3 3 3 3 8 3 : * X o @ @ # - - *   ",
"  @ * * * * * * * # - - $ @ $ O X $ 1 1 3 9 q q q q q q q q q q q q q 2 Z v g d 8 * @ * 8 q q q q 8 8 3 3 3 3 8 3 3 1 - $ X O @ @ # - - $   ",
"    * * % * $ * * * - - * O O @ X + 1 1 1 3 q q q q q q q q q q q q q 2 Z x g d 3 * # * 8 q q 8 3 3 3 3 3 3 3 3 3 3 : - O X O @ @ $ - -     ",
"    # * * * * * $ $ * - - O @ @ o X - 1 1 1 5 q q q q q q q q q q q q 2 Z x g s 3 * @ * 8 9 8 3 3 3 3 3 3 3 3 3 3 1 - * O o O @ @ * - =     ",
"    # * * $ * % * * * * - $ @ @ O . $ 1 1 1 1 8 q q q q q q q q q q q , Z x g s 3 * @ * 1 8 3 3 3 3 8 3 8 3 3 3 1 - - * X o @ @ @ - - *     ",
"    @ * * $ % * $ * * - - * @ @ O o o - : 1 1 1 8 q q q q q q q q q q 2 Z x g s 3 * @ * 1 3 3 3 3 3 3 3 3 3 3 3 - - - O o O @ @ # - - %     ",
"      $ * * * % * * * * * * @ @ O o X $ - - - 1 1 8 q q q q q q q q q 1 Z x g s 3 * # * 1 8 8 3 3 3 3 3 3 3 1 - - - * X o @ O @ $ - -       ",
"      @ # # # # # # # $ = = # @ @ O o o - - - - - - 1 8 9 8 9 8 8 8 8 : Z x g q 3 - @ * 1 3 3 3 3 3 3 3 3 1 - - - * O X O @ @ # = - *       ",
"        + + + + + + + # = : $ @ @ @ o X $ - - - - - - - 1 3 3 3 3 3 3 : Z x g q 3 * @ * 1 8 3 3 8 3 3 3 : - - - - * o o O # O * - - $       ",
"        + @ @ + + @ + + * - = @ @ @ O o o * - - - - - - - 1 1 3 3 3 3 : V x g 9 1 * @ * 1 3 3 3 3 1 1 - - - * - * O X O # O O * - *         ",
"        o + + @ + + @ + @ - - $ O @ @ O . O * - - - - - - - - - 1 3 3 : V g g 9 3 * # * 1 3 3 1 - - - - - - - - @ X o O O O * - - %         ",
"          + + + @ + + @ @ * - * @ @ @ @ o X @ - - - - - - - - - - - - = V g g 8 3 * # * - - - - - - - - - - - $ X o O # # O * - =           ",
"          o + @ + @ + + + # - - * O O @ O X X $ - - - - - - - - - - = = c g d 3 1 * O * * - - - - - - - - - * o X O # O @ * - - $           ",
"            + + + @ @ + + + % - * # @ @ @ O . X * - - - - - * - - - = ; x g q 3 8 * # * - - - - - - - - - * o . O O O # O * - *             ",
"              @ + + + @ + + @ = - * @ @ @ @ O X X # - - - - - - - = = = g d 8 3 1 O O * * - - - - - - - * X . o O # # O * - * *             ",
"              + # + + + @ # + # - - # @ @ @ @ O X X @ - - - - - - - - = i 9 3 2 * o # * * - - - - - - $ X X O @ # O O * * - *               ",
"                + + @ + + + + + $ - - @ @ @ @ @ O X . O * - - - - - - $ - * - * * $ * @ * - - - - * O X X O O @ O * O * - *                 ",
"                  + + + + + + + O * - * @ @ @ @ @ O o X X @ * - - = - = * * * * * * * * - - - * @ o . X O @ @ @ O O * - -                   ",
"                    + @ @ + + # @ @ * - * @ @ @ @ @ O O X . o O % = - - - - - - - - - - - * O o X X O O @ @ @ @ O * - - $                   ",
"                      + + + @ + @ @ @ - - * @ @ @ @ O @ O O o X X o O # # * * $ * $ # O O X X X o O @ @ @ @ @ @ # * - *                     ",
"                        + @ + @ O @ O # * - * @ @ @ @ @ @ @ O O X X X . X X X X X . . . X X O O @ @ @ @ @ @ @ $ - - #                       ",
"                          + @ + @ @ @ O @ * * * $ O @ @ @ O @ @ @ O O O o o o X o o o O O @ @ @ @ @ @ @ @ @ $ - - #                         ",
"                            + @ O @ @ @ @ @ * - - * $ @ @ @ @ @ @ @ @ @ @ @ O @ @ @ @ @ @ @ @ @ @ O @ @ # * - *                             ",
"                              o + + + + O + O # * - * $ # @ @ @ @ @ @ @ @ @ @ @ @ @ @ O @ @ @ @ @ @ @ * - - %                               ",
"                                  X X . X X X X o % - - * % # @ @ @ @ @ @ @ @ @ @ @ @ @ @ @ @ @ # * - - * #                                 ",
"                                    . X X . . X X X + % - - = * $ # @ @ @ @ @ @ @ @ @ @ @ # * * - - * $                                     ",
"                                          X . . X . . X O $ * - - - - * * * $ * * * * - - - - - * $                                         ",
"                                              X . X . X X . o + # * = - - - - - - - - - * * $                                               ",
"                                                        . X . . X X o @ # $ % $ $ # #                                                       "
};
