/* XPM */
static char *result[] = {
/* columns rows colors chars-per-pixel */
"70 70 152 2 ",
"   c #9F7100",
".  c #A27400",
"X  c #A77900",
"o  c #AB7C00",
"O  c #AF8100",
"+  c #B28300",
"@  c #B78800",
"#  c #BB8C00",
"$  c #B4870C",
"%  c #B79500",
"&  c #BF9000",
"*  c #BD9D00",
"=  c #BF930E",
"-  c #BC9321",
";  c #C29300",
":  c #C79800",
">  c #CA9B00",
",  c #C39815",
"<  c #C4A300",
"1  c #CEA100",
"2  c #C5A800",
"3  c #CCAB00",
"4  c #D3A400",
"5  c #D6AA00",
"6  c #DCAC00",
"7  c #CEB500",
"8  c #D4B401",
"9  c #DDB400",
"0  c #D7BE00",
"q  c #DCBA00",
"w  c #D5B50B",
"e  c #D8AD1A",
"r  c #E3B300",
"t  c #E8B700",
"y  c #E2BC00",
"u  c #ECBC00",
"i  c #E3B40A",
"p  c #F0BF00",
"a  c #E1BD1E",
"s  c #C8A235",
"d  c #E1BB2A",
"f  c #DECC00",
"g  c #E4C200",
"h  c #EBC500",
"j  c #E5CA00",
"k  c #ECCB00",
"l  c #F3C200",
"z  c #F8C700",
"x  c #F2CD00",
"c  c #FECE00",
"v  c #E6D600",
"b  c #E9D400",
"n  c #E7DA00",
"m  c #E8DC00",
"M  c #F4D300",
"N  c #FDD400",
"B  c #F5D800",
"V  c #FEDC00",
"C  c #FFD70F",
"Z  c #FFDC0B",
"A  c #FFD216",
"S  c #FFDF10",
"D  c #EDE100",
"F  c #F4E400",
"G  c #FFE300",
"H  c #F5EB00",
"J  c #FFEB00",
"K  c #FFE10D",
"L  c #FFEB0B",
"P  c #FFF400",
"I  c #FFFD00",
"U  c #FFF509",
"Y  c #FFFE0C",
"T  c #ECE211",
"R  c #EBE01C",
"E  c #FFE017",
"W  c #FFEB12",
"Q  c #FFE11C",
"!  c #F1E81A",
"~  c #FFF313",
"^  c #FFFF16",
"/  c #FFF41D",
"(  c #FFFF1B",
")  c #F2CB2E",
"_  c #FFD520",
"`  c #FFD72F",
"'  c #FFDB2E",
"]  c #FFDC31",
"[  c #FFE42B",
"{  c #FFFD20",
"}  c #FFE534",
"|  c #FFEC30",
" . c #F2E73C",
".. c #F6F032",
"X. c #FFFF32",
"o. c #FFFE39",
"O. c #DEBB43",
"+. c #FFDC47",
"@. c #FFDD4B",
"#. c #E8C957",
"$. c #E8DB5C",
"%. c #EDE540",
"&. c #FFE642",
"*. c #FFEF4F",
"=. c #FFFF44",
"-. c #FFF348",
";. c #FFFC4D",
":. c #FFEA5B",
">. c #FFFE5B",
",. c #E8DA64",
"<. c #E8DA6B",
"1. c #F6DA6C",
"2. c #FFEA62",
"3. c #FFEB69",
"4. c #FFFF61",
"5. c #FFFD6B",
"6. c #FEEB73",
"7. c #FFE57A",
"8. c #FFFD71",
"9. c #EAD986",
"0. c #FFEF84",
"q. c #FFE98F",
"w. c #FFFE85",
"e. c #FFF38B",
"r. c #FFFF89",
"t. c #F8E997",
"y. c #FFEC9C",
"u. c #FFFD9A",
"i. c #E8DAA2",
"p. c #E8DBAC",
"a. c #F1DFA2",
"s. c #FAEEA7",
"d. c #FFF2A1",
"f. c #FFFAAD",
"g. c #EEE5B9",
"h. c #F3EABE",
"j. c #FDF3B4",
"k. c #FFFFB5",
"l. c #F9EDC0",
"z. c #FFFFC4",
"x. c #FFFFCB",
"c. c #F7F1D1",
"v. c #FFF6D1",
"b. c #FFFDD6",
"n. c #F9F3DC",
"m. c #FFFCDD",
"M. c #F8F5E2",
"N. c #FFFFE1",
"B. c #FFFFEF",
"V. c #FFFEF6",
"C. c #FFFFFD",
"Z. c None",
/* pixels */
"Z.Z.Z.Z.Z.Z.Z.Z.Z.Z.Z.Z.Z.Z.Z.Z.Z.Z.Z.Z.Z.Z.Z.Z.Z.9 g k k M x x h r 5 5 1 1 4 4 5 4 1 1 Z.Z.Z.Z.Z.Z.Z.Z.Z.Z.Z.Z.Z.Z.Z.Z.Z.Z.Z.Z.Z.Z.Z.Z.Z.Z.",
"Z.Z.Z.Z.Z.Z.Z.Z.Z.Z.Z.Z.Z.Z.Z.Z.Z.Z.Z.Z.Z.Z.g x B V V V V V V G V V c c c p t 6 6 r r 6 6 6 5 > Z.Z.Z.Z.Z.Z.Z.Z.Z.Z.Z.Z.Z.Z.Z.Z.Z.Z.Z.Z.Z.Z.",
"Z.Z.Z.Z.Z.Z.Z.Z.Z.Z.Z.Z.Z.Z.Z.Z.Z.Z.Z.q k B V V V V V V V V V V V V N c c c c c l r r u l p p l u r Z.Z.Z.Z.Z.Z.Z.Z.Z.Z.Z.Z.Z.Z.Z.Z.Z.Z.Z.Z.",
"Z.Z.Z.Z.Z.Z.Z.Z.Z.Z.Z.Z.Z.Z.Z.Z.Z.y M V G V V G G W | W J J J J G G V c c c c c c c z u p c c c c N z u Z.Z.Z.Z.Z.Z.Z.Z.Z.Z.Z.Z.Z.Z.Z.Z.Z.Z.",
"Z.Z.Z.Z.Z.Z.Z.Z.Z.Z.Z.Z.Z.Z.Z.Z.k V V V V G U o.w.z.u.^ I I I I I I I J G V c c c c c c z r l c c c c c z u Z.Z.Z.Z.Z.Z.Z.Z.Z.Z.Z.Z.Z.Z.Z.Z.",
"Z.Z.Z.Z.Z.Z.Z.Z.Z.Z.Z.Z.Z.Z.y B V V V G ~ >.k.V.m.8.~ P J J J G G J G G G J G V N c c c N l r r c c c c c c l 5 Z.Z.Z.Z.Z.Z.Z.Z.Z.Z.Z.Z.Z.Z.",
"Z.Z.Z.Z.Z.Z.Z.Z.Z.Z.Z.Z.Z.y N G V G ~ 5.x.C.N.e.[ G V V N B B M B N V N c N N G V N c c c z u u r z N N N N N N y Z.Z.Z.Z.Z.Z.Z.Z.Z.Z.Z.Z.Z.",
"Z.Z.Z.Z.Z.Z.Z.Z.Z.Z.Z.Z.g B V V G ;.z.V.m.0.[ N M g q 3 3 2 < < < 3 8 8 r l c c N N N c c c u u y r F I P I P P I m Z.Z.Z.Z.Z.Z.Z.Z.Z.Z.Z.Z.",
"Z.Z.Z.Z.Z.Z.Z.Z.Z.Z.Z.g M V V J { k.d.:.Q B g 8 < * * * < < < < < < * % . o ; r z c c c c c u u u t y ! o.o.o.o.o.o.%.Z.Z.Z.Z.Z.Z.Z.Z.Z.Z.Z.",
"Z.Z.Z.Z.Z.Z.Z.Z.Z.Z.g x V V P I J K V B y < * * < w g k M B V B B B j q ; X   . # 6 c c c c l u u u u d h.N.N.N.N.m.m.g.Z.Z.Z.Z.Z.Z.Z.Z.Z.Z.",
"Z.Z.Z.Z.Z.Z.Z.Z.Z.y k B G P I J V V j 2 * < 8 g B G L P P P I I I I I P G h 5 @   . # u c c l u u u u u a ..X.X.X.X.X.X.T Z.Z.Z.Z.Z.Z.Z.Z.Z.",
"Z.Z.Z.Z.Z.Z.Z.Z.q k M V P I G V B 0 : < 8 k N J ~ ;.4.I I I I I I P J G V N c z 6 +   o > u u u u u u u y g P I I I I I I n Z.Z.Z.Z.Z.Z.Z.Z.",
"Z.Z.Z.Z.Z.Z.Z.4 h k N P P G V B 3 * 2 g V G / 8.x.N.8.I I I P J G V V V c c c c c l > X . # 5 4 r u u u u r j I I I I I I I f Z.Z.Z.Z.Z.Z.Z.",
"Z.Z.Z.Z.Z.Z.: 6 h b J P G V x 3 * 5 M V W 5.b.C.z.;.X.I P G g 9 q 9 x V c c c N c N c 6 o . @ 1 5 6 t u u u 5 h V V V V V V M Z.Z.Z.Z.Z.Z.Z.",
"Z.Z.Z.Z.Z.Z.5 r h B I G V M 3 * 0 B G -.z.C.b.8.^ Y -.G V g 7 7 8 2 8 N c c c c c c c N u @   + 4 4 4 t u u r 5 l c c c c c c u Z.Z.Z.Z.Z.Z.",
"Z.Z.Z.Z.Z.4 6 r h P G V B 3 * 8 N [ e.N.z.5.( I P W 3.V h 0 m 6 < > 9 N c c c c c c c c c l @   @ 4 4 5 t u t 4 6 c c c c c c c r Z.Z.Z.Z.Z.",
"Z.Z.Z.Z.Z.6 r r b J G V 8 * 8 V [ u.r.=.^ I I J V Q 0.M 8 H x 4 o ; 9 N c c c c c c c c c c t o . # 4 4 6 t u 6 4 p c z z c z z p Z.Z.Z.Z.Z.",
"Z.Z.Z.Z.4 r r r N N V q * 3 B G U Y I I I I G V V [ s.w D G u 4 + ; 6 c c c c c c c c c c c l 5 X X > 4 4 6 t 6 4 > r t r r r r r 1 Z.Z.Z.Z.",
"Z.Z.Z.Z.6 r r y c N j < < M V P I I I I P G V V V &.c.R G c l 4 + ; 6 c c N c c c c c c c c p u : . o 4 4 4 6 r 4 4 6 r 6 r r r r 6 Z.Z.Z.Z.",
"Z.Z.Z.4 r r r l N l & * g G P I I I I P V V V V V 6.V.*.N c u 5 o ; 6 c c c c c N c c N c z u u r +   # 4 4 4 6 4 4 > r r r r r r r 1 Z.Z.Z.",
"Z.Z.Z.6 r 6 r z c >   > V J I I I I J V Z K Q } 3.n.C.v.7.@.) e $ : 6 c c c c c c c c c c l u u u 4 X . : 4 4 6 4 4 > 6 r r r r r r 5 Z.Z.Z.",
"Z.Z.; 6 r 5 r N u o X r V I I I I J G K E } :.t.M.C.C.C.v.y.1.O.- : 6 c c c c N c c c c c l u u u r #   o > 4 4 4 4 4 4 r r r r r 6 6 > Z.Z.",
"Z.Z.> 6 6 4 u z ;   & c P I I I J V V V V V N w  .j.C.q.A c p 4 + ; 6 c c c c c c c c c z u u u u t 4 X X # 4 4 4 4 4 > 6 r 6 r r r r 4 Z.Z.",
"Z.Z.1 5 4 5 h r o . r G I I I J V V V V V V q n B #.V.@.c c p 4 + ; 6 c c c c c N c c c l u u u u u 6 #   o : 4 6 4 > : 6 r r r r r r 6 Z.Z.",
"Z.; 5 4 ; 6 u > . @ c P I I P c N V V V V y f F 6 s n.` c N p 4 o ; 6 c c c c c c c c z u u u u u u t > . X @ 4 4 4 > : 4 r r r r r r r Z.Z.",
"Z.> 4 1 ; 6 r o   4 V I I I V c c c c N h 0 F 9 # - l._ c c p 4 + ; 6 c c N c c c c c p u u u u u u u 6 o X o ; 4 4 > > > r r r r r r 6 4 Z.",
"Z.> 4 1 @ 4 4 X X u P I I G c c c c c l 8 F y ; + , a.A c c p 4 + ; 6 c c c c c c c p u u u u u u u u r ; . o ; 4 > > > : r r r r r r r 5 Z.",
"Z.4 4 > ; 4 ; X + c I I P N c c c N z 5 F y > + ; = 9.A c c p 4 + ; 6 c c c c c c z p u u u u u u u u t > . X @ : > > > : 4 r r 6 r r r 5 Z.",
"; 4 4 ; ; > o . : G I I G c c N N c 6 v j 5 : # 4 9 <.Z c c u 4 + ; 6 c c c c c z u u u u u u u u u u u 4 o X @ @ > > > : 4 r r r r 6 r 6 Z.",
": 4 4 ; ; > o . 5 J I P N N c c c r < 8 : > > 1 z i ,.C c N p 4 + ; 6 N N c c z u u u u u u u u u u u u r o . o @ : > > : 4 r r r r r r r > ",
": 4 4 # ; ; X . 9 P I J c c c c c z p l p l l z N i i.] c c u 4 o ; 6 c c c l u u u u u u u u u u u u u r @ X o o : > > > > r r r r r r r > ",
"> 4 4 @ ; ; X . r H I V c c c c c c c c c c c c c i p.] c c u 4 + ; 6 c z p u u u u u u u u u u u u u u t ; . o o ; > > > > 6 6 6 6 5 6 6 > ",
"> 6 1 @ # # X X 9 F F N c c c c c c c c c c c c N i $.Z c c u 4 + ; 6 l u u u u u u u u u u u u u u u u t ;   o o # > > > ; ; ; ; ; ; ; ; # ",
"> 4 > @ # # . X 9 m b u z c c c c c c c c c c c c t m V c c u 4 + ; 4 u u u u u u u u u u u u u u u u u r ;   X + @ > > > ; # ; ; ; ; ; ; # ",
"> 4 > # # # X X 5 m k u u l z c c N c c c c c c c t m V c c t 4 o ; 4 u u u u u u u u u u u u u u u u r 6 ;   X + + > > : # ; ; # ; ; ; # # ",
"> 6 > @ @ @ X X 5 b h u u u u p l z c z c c c c c 9 m V c c u 4 + ; 4 u u u u u u u u u u u u u u u r r 6 ;   o + + ; > > ; # ; ; ; ; # ; # ",
"> 6 > @ @ @ . X 4 j h u u u u u u u u p p p p u u 6 n V c c u 4 O ; 4 u u u u u u u u u u u u u u r 6 6 5 ; . o + + ; > > # ; ; ; ; ; ; & # ",
"> 4 4 @ @ + X X > 8 u u u u u u u u u u u u u u u 5 n G c c t 4 + ; 4 u u u u u u u u u u u u u t 6 6 6 4 ;   o + o ; > > ; ; ; ; # & ; ; # ",
": 4 4 @ @ @ X . > 6 r u u u u u u u u u u u u u u 5 m G c c t 4 o ; 4 u u u u u u u u u u u t r 6 6 r 6 1 #   o + + ; : : # ; # ; ; & ; & @ ",
"; 4 > ; @ @ o . : 5 6 u u u u u u u u u u u u u u 5 m G c c t 4 + ; 4 u u u u u u u u u u t r 6 6 6 6 6 > +   o + + ; > > # ; ; & ; ; ; ; @ ",
"@ > > ; + @ o   ; 4 4 t t p u u u u u u u u u u u 4 m G c c t 4 + ; 4 u u u u u u u u u r 6 6 6 r 6 6 4 > o o o + + ; > > ; ; ; # ; ; # ; @ ",
"@ > : ; @ @ o   @ 4 4 6 t u u u u u u u u u u u p 5 m G c c r 4 + ; 4 u u u u u u u t r 6 6 r 6 6 6 6 4 : X X o + + : > ; ; ; ; ; ; ; ; # Z.",
"Z.: > ; @ @ @ . o 4 4 6 r u u u u u u u u u u u u 5 m G c c r 4 o ; 4 u u u u u u t 6 6 6 r 6 6 6 6 4 > ; . X o + o > > ; ; ; # ; ; ; ; ; Z.",
"Z.: > : o o @ X X > 4 4 4 t u u u u u u u u u u u 5 m G c c r 4 + ; 4 u u u u r 6 6 6 6 6 6 6 6 6 6 4 > @ . o ; + ; > > ; @ ; ; ; # ; ; # Z.",
"Z.; > : @ @ o o   ; 4 4 4 6 t p u u u u u u u u u 4 m V c c 6 4 + ; 4 u u r r 6 6 6 r 6 6 6 6 r 6 4 > > o . o o o ; > : @ ; ; ; # ; ; ; # Z.",
"Z.; > > ; o @ o . o > 4 4 4 6 t u u u u u u u u p 5 m G c c r 4 + ; 4 t r 6 6 r 6 6 6 6 6 6 6 6 4 > > ; . X o @ o ; > : ; ; ; ; ; ; ; # Z.Z.",
"Z.Z.: > ; o @ o X . ; 1 4 4 4 6 u u u u u u u u u 5 m V c c r 4 o ; > 6 6 6 6 6 6 6 6 6 6 6 6 5 > > > o . o @ o @ > : ; @ ; @ ; ; & ; # Z.Z.",
"Z.Z.; > > ; o @ o   o > > > 1 4 5 r u u u u u u u 5 m V c z 6 4 + ; > 6 6 6 6 6 6 r 6 6 r 6 5 > > > : o . @ o o ; > : ; ; ; ; ; ; & ; # Z.Z.",
"Z.Z.# > > # + + + X . # > > > > > > 6 t r t t r t 4 B N c z 6 4 o ; > 6 6 6 6 6 r 6 6 6 6 4 > > > > @ . o o ; o ; > ; o ; ; o ; @ @ + O Z.Z.",
"Z.Z.Z.: > ; + + + o . X > > > > > > > 4 6 6 6 6 6 > m V c z 6 4 o ; > 6 6 r 6 6 6 6 6 4 1 > > > > ; . . o o o ; > > ; o o o o o O + O Z.Z.Z.",
"Z.Z.Z.; > > @ + + + X . @ > > > > > > > > 4 6 6 6 > b V c l 6 4 @ : > 6 6 6 6 6 6 6 4 > > > > > > o . o o ; o ; > > o ; o @ o @ O O o Z.Z.Z.",
"Z.Z.Z.Z.: > ; + + + o . X ; > > > > > > > > > 4 5 > m N c p 6 4 o ; > r 6 6 6 4 1 > > > > > > > ; . X o o o ; ; > ; o o @ o @ o + O Z.Z.Z.Z.",
"Z.Z.Z.Z.& > > @ + + + X   X : > > > > > > > > > > : b N N u 5 4 o : ; 4 1 > > > > > > > > > > ;     o o ; o ; > : @ + o o @ o o + o Z.Z.Z.Z.",
"Z.Z.Z.Z.Z.: > & + + + + X . o : > > > > > > > > > ; k N c t 5 4 @ ; ; > > > > > > > > > > > ; X   o o ; o ; ; > ; + + + @ o o @ O Z.Z.Z.Z.Z.",
"Z.Z.Z.Z.Z.# > > # + + + + X . + > > > > > > ; > > ; j N z 6 6 4 o ; ; : > > > > > > : > > ; X . X o @ o o ; > ; + + + + @ o @ o o Z.Z.Z.Z.Z.",
"Z.Z.Z.Z.Z.Z.: > : + + + + o .   o ; > > > > > > > & j N u 4 6 ; o ; ; : : > > > > > > > ; X . X o @ o @ ; ; > ; + o + + o + @ o Z.Z.Z.Z.Z.Z.",
"Z.Z.Z.Z.Z.Z.Z.> > ; + + + + o X . o ; > > > > > : ; t p 6 6 > o o ; ; ; : > > > > > > # X   o + + + + + * > : O + + O + O + O Z.Z.Z.Z.Z.Z.Z.",
"Z.Z.Z.Z.Z.Z.Z.# : : # + + + + o X . X @ > > > > > ; : > ; : ; ; ; ; ; > > > : > > ; + . . X o + + + + # > > + O + O + O O O o Z.Z.Z.Z.Z.Z.Z.",
"Z.Z.Z.Z.Z.Z.Z.Z.; > : @ + + + + o o . . o ; ; > > : ; ; ; ; ; ; ; ; ; > > > > ; # X   X o + + + + + # : > @ O + O O + O + o Z.Z.Z.Z.Z.Z.Z.Z.",
"Z.Z.Z.Z.Z.Z.Z.Z.Z.; > ; @ + + + @ o o X   . o ; : : > > > > > > : : > > : ; @ o   . X o + + + + + @ : > # o O O + O O + O Z.Z.Z.Z.Z.Z.Z.Z.Z.",
"Z.Z.Z.Z.Z.Z.Z.Z.Z.Z.; > : @ o + ; o o @ o X . . X o @ ; ; ; ; ; ; ; ; o o X     X o + + + + + o @ ; > # O O O + O + + o Z.Z.Z.Z.Z.Z.Z.Z.Z.Z.",
"Z.Z.Z.Z.Z.Z.Z.Z.Z.Z.Z.: > : # + o o @ o o o o o .       . X X X X . .     . X o + + + + + + + @ : > # o + O + O + O O Z.Z.Z.Z.Z.Z.Z.Z.Z.Z.Z.",
"Z.Z.Z.Z.Z.Z.Z.Z.Z.Z.Z.Z.; > : # o ; o o ; o o o o o X X X X . X . . o o o o o @ + + + + + + # : > # + + O + + O O O Z.Z.Z.Z.Z.Z.Z.Z.Z.Z.Z.Z.",
"Z.Z.Z.Z.Z.Z.Z.Z.Z.Z.Z.Z.Z.; : > ; o ; ; o o ; o @ @ o o @ o o @ o o o ; o o ; o + + + o @ ; > : @ o + + O + O O o Z.Z.Z.Z.Z.Z.Z.Z.Z.Z.Z.Z.Z.",
"Z.Z.Z.Z.Z.Z.Z.Z.Z.Z.Z.Z.Z.Z.# : > : # @ + + + + + + + + + + + + + + + + + + + + + + + ; : > ; + o + O O O o O o Z.Z.Z.Z.Z.Z.Z.Z.Z.Z.Z.Z.Z.Z.",
"Z.Z.Z.Z.Z.Z.Z.Z.Z.Z.Z.Z.Z.Z.Z.Z.& > > : # @ @ + + + + + + + + + + + + + + + + + @ # ; : : + . . . X . . . X Z.Z.Z.Z.Z.Z.Z.Z.Z.Z.Z.Z.Z.Z.Z.Z.",
"Z.Z.Z.Z.Z.Z.Z.Z.Z.Z.Z.Z.Z.Z.Z.Z.Z.Z.; : > : ; # @ + + + + + + + @ + + + + @ # ; : > : # X   .     .   . Z.Z.Z.Z.Z.Z.Z.Z.Z.Z.Z.Z.Z.Z.Z.Z.Z.Z.",
"Z.Z.Z.Z.Z.Z.Z.Z.Z.Z.Z.Z.Z.Z.Z.Z.Z.Z.Z.Z.; : > > > : ; ; # # # # # # # ; : > > > ; @ X   .     . .   Z.Z.Z.Z.Z.Z.Z.Z.Z.Z.Z.Z.Z.Z.Z.Z.Z.Z.Z.Z.",
"Z.Z.Z.Z.Z.Z.Z.Z.Z.Z.Z.Z.Z.Z.Z.Z.Z.Z.Z.Z.Z.Z.# ; : : > : > : > > > > > > : ; # o X . .     . . . Z.Z.Z.Z.Z.Z.Z.Z.Z.Z.Z.Z.Z.Z.Z.Z.Z.Z.Z.Z.Z.Z.",
"Z.Z.Z.Z.Z.Z.Z.Z.Z.Z.Z.Z.Z.Z.Z.Z.Z.Z.Z.Z.Z.Z.Z.Z.Z.Z.# ; ; ; ; ; ; # @ + X .   . .       Z.Z.Z.Z.Z.Z.Z.Z.Z.Z.Z.Z.Z.Z.Z.Z.Z.Z.Z.Z.Z.Z.Z.Z.Z.Z."
};
