/* XPM */
static char *result[] = {
/* columns rows colors chars-per-pixel */
"70 70 148 2 ",
"   c #9F7100",
".  c #A27400",
"X  c #A77900",
"o  c #AB7C00",
"O  c #AF8000",
"+  c #B28300",
"@  c #B78800",
"#  c #BB8D00",
"$  c #B88A08",
"%  c #B79300",
"&  c #BF9000",
"*  c #BE9E00",
"=  c #BC9116",
"-  c #C29300",
";  c #C79900",
":  c #CA9B00",
">  c #C5A400",
",  c #CFA100",
"<  c #CBAA00",
"1  c #D4A400",
"2  c #D2AC00",
"3  c #DCAC00",
"4  c #CEB600",
"5  c #D4B300",
"6  c #DCB300",
"7  c #D5B900",
"8  c #DEBB00",
"9  c #CEA214",
"0  c #E3B300",
"q  c #E8B700",
"w  c #E4BC00",
"e  c #ECBC00",
"r  c #F0BF00",
"t  c #D8B02E",
"y  c #CCA73C",
"u  c #D4AE35",
"i  c #D7B735",
"p  c #D9C200",
"a  c #DDCC00",
"s  c #E5C300",
"d  c #EBC400",
"f  c #E5C900",
"g  c #EDCA00",
"h  c #E5C50B",
"j  c #F3C300",
"k  c #F8C700",
"l  c #F2CC00",
"z  c #FECD00",
"x  c #FDCF0D",
"c  c #E5D202",
"v  c #E9D400",
"b  c #EBDB00",
"n  c #E7DB0F",
"m  c #F4D300",
"M  c #FDD400",
"N  c #F4DC00",
"B  c #FEDC00",
"V  c #FFD008",
"C  c #FEDD0A",
"Z  c #FED114",
"A  c #EDE200",
"S  c #F0E000",
"D  c #FEE401",
"F  c #F4EC00",
"G  c #FDEA00",
"H  c #FFEB0B",
"J  c #F7F100",
"K  c #FFF300",
"L  c #FFFD00",
"P  c #FFF10B",
"I  c #FFFA0C",
"U  c #FFE212",
"Y  c #FCE21C",
"T  c #FFED1D",
"R  c #FFFF1C",
"E  c #F1C725",
"W  c #F8CE21",
"Q  c #FFDA3E",
"!  c #EEE12E",
"~  c #FFE326",
"^  c #FFEB25",
"/  c #FFE328",
"(  c #FFE92F",
")  c #FFF524",
"_  c #FFFC20",
"`  c #FFF72C",
"'  c #FEFC2D",
"]  c #F9E534",
"[  c #FFE63D",
"{  c #F2EC3D",
"}  c #FFFF32",
"|  c #FFFF39",
" . c #C8A74C",
".. c #D7BA5D",
"X. c #D7B962",
"o. c #D7BD6A",
"O. c #DFC642",
"+. c #D9C252",
"@. c #DDC956",
"#. c #FFDD4F",
"$. c #F4D55B",
"%. c #FFE641",
"&. c #FFEB4E",
"*. c #FFFB44",
"=. c #FFFB4C",
"-. c #FFE851",
";. c #F3E75D",
":. c #FFE958",
">. c #FFFE55",
",. c #DFCF6C",
"<. c #E8D66F",
"1. c #EED77F",
"2. c #FFE166",
"3. c #FFEC6C",
"4. c #FFFD65",
"5. c #F9E377",
"6. c #FFED73",
"7. c #F9E47D",
"8. c #FFED79",
"9. c #FFFF74",
"0. c #EAD784",
"q. c #FFE989",
"w. c #FFFD84",
"e. c #FFF08D",
"r. c #FFFF8C",
"t. c #F3E49C",
"y. c #FCE99D",
"u. c #FFFD9F",
"i. c #FEF7A6",
"p. c #FFFEA7",
"a. c #FFF4AE",
"s. c #FFFFAB",
"d. c #EEE6BA",
"f. c #FFF4B7",
"g. c #FFFDB6",
"h. c #FFF5BD",
"j. c #FFFFBB",
"k. c #FFFDC7",
"l. c #FFFFCD",
"z. c #FFF7D3",
"x. c #FFFFD4",
"c. c #F4F0DB",
"v. c #FEFCDE",
"b. c #FFFEE1",
"n. c #FFFDEE",
"m. c #FFFEF4",
"M. c #FFFFFD",
"N. c None",
/* pixels */
"N.N.N.N.N.N.N.N.N.N.N.N.N.N.N.N.N.N.N.N.N.N.N.N.N.: : 3 3 0 0 0 3 3 0 w f m B B B l q 3 N.N.N.N.N.N.N.N.N.N.N.N.N.N.N.N.N.N.N.N.N.N.N.N.N.N.",
"N.N.N.N.N.N.N.N.N.N.N.N.N.N.N.N.N.N.N.N.N.N.; 1 3 3 0 3 0 0 3 6 w l m B B B D B B B z k k j 0 N.N.N.N.N.N.N.N.N.N.N.N.N.N.N.N.N.N.N.N.N.N.N.",
"N.N.N.N.N.N.N.N.N.N.N.N.N.N.N.N.N.N.N.N.3 q j j j j j r e w d B B B B B D B B B B B M z z M z k e N.N.N.N.N.N.N.N.N.N.N.N.N.N.N.N.N.N.N.N.N.",
"N.N.N.N.N.N.N.N.N.N.N.N.N.N.N.N.N.N.3 r z z M z z z z k j N B B D D D ^ T G G G G D B z z z z z z k 0 N.N.N.N.N.N.N.N.N.N.N.N.N.N.N.N.N.N.N.",
"N.N.N.N.N.N.N.N.N.N.N.N.N.N.N.N.N.0 k M z z z z z k j m B B B D P =.p.j.} L L L L L K G D M z M z z z r N.N.N.N.N.N.N.N.N.N.N.N.N.N.N.N.N.N.",
"N.N.N.N.N.N.N.N.N.N.N.N.N.N.N.N.e z M z z z z M k d m B B D P >.j.m.g.` K G G G D D G G D G D M M z z z q 1 N.N.N.N.N.N.N.N.N.N.N.N.N.N.N.N.",
"N.N.N.N.N.N.N.N.N.N.N.N.N.N.N.j M M M M M M M l d m B B H *.g.M.b.6.U D B B m m m B B B M z B B M M z z j q 1 N.N.N.N.N.N.N.N.N.N.N.N.N.N.N.",
"N.N.N.N.N.N.N.N.N.N.N.N.N.N.F L K L K L K L G f m B D H w.n.b.q./ m g 8 2 < > > > < 2 6 0 k z z M M z z j e e 1 N.N.N.N.N.N.N.N.N.N.N.N.N.N.",
"N.N.N.N.N.N.N.N.N.N.N.N.N.{ | | | | | | | ' c g B B K *.f.8./ m s < * * * > > > > > * % X O 1 j z M z z k e e q 1 N.N.N.N.N.N.N.N.N.N.N.N.N.",
"N.N.N.N.N.N.N.N.N.N.N.N.d.b.b.v.v.b.b.b.v.<.s B B K L H U B d < * * < 8 g m N N N M g 8 # .   O 3 k z z k e e e q 1 N.N.N.N.N.N.N.N.N.N.N.N.",
"N.N.N.N.N.N.N.N.N.N.N.n ' } } } } } } } ! h l B G L D B m 7 * * 5 g B H P K L L L L L K B e ; X   # j z k r e e e q N.N.N.N.N.N.N.N.N.N.N.N.",
"N.N.N.N.N.N.N.N.N.N.a L L L L L L L L F s f m G L G B m < * < g B G ` 4.R L L L L K K D B M k q @ . o 3 r q e e e e 6 N.N.N.N.N.N.N.N.N.N.N.",
"N.N.N.N.N.N.N.N.N.N.F L L L L L L L L p s l D L G B l < * 7 m D ) r.b.s.R L L G D D B B z z z M k : X X : 3 3 e e e q 1 N.N.N.N.N.N.N.N.N.N.",
"N.N.N.N.N.N.N.N.N.e B B B B B B B B d 6 d m K G B m > * 8 B H 4.v.m.r.' _ K D B s 6 8 w z z z z z z 1 X X ; 3 3 e e e 0 N.N.N.N.N.N.N.N.N.N.",
"N.N.N.N.N.N.N.N.N.k M z z z z z z k 3 0 d G K B B < * s B ^ p.M.l.>.L ' ( B B s < 4 4 ; k M z z z z z 3 X X : 1 3 q e q : N.N.N.N.N.N.N.N.N.",
"N.N.N.N.N.N.N.N.e z z z z z z z z 0 3 6 d K B B 7 * 7 C &.k.x.9.R L G [ %.B m 7 v 2 > : k z z z M z z z 1 . + 1 1 6 q q 3 N.N.N.N.N.N.N.N.N.",
"N.N.N.N.N.N.N.N.j k k k k k k k k 3 0 0 m D B d * 5 B &.u.4.R L L G B -.:.B 6 b j : @ : k z z z z z z M l - . # 1 1 3 e 3 : N.N.N.N.N.N.N.N.",
"N.N.N.N.N.N.N.1 0 q q 0 0 q 0 0 3 3 0 0 N B m > > m D I L L L L D B B 3.6.s a D r ; @ ; k z M z z z z z k 0 o X : 3 3 0 3 1 N.N.N.N.N.N.N.N.",
"N.N.N.N.N.N.N.3 0 0 0 0 0 0 0 3 1 0 3 q M M 7 ; s B K L L L L B B B B e.t.7 G M e : @ : k z z z z z z z k e , . + 1 1 3 0 1 : N.N.N.N.N.N.N.",
"N.N.N.N.N.N.1 0 3 0 0 0 0 0 0 3 3 0 0 d z 0 % 4 B K L L L K D B B B C h.c.;.M k r : + : k M z z M z z z j e 0 + . ; 1 1 3 1 1 N.N.N.N.N.N.N.",
"N.N.N.N.N.N.3 0 0 0 0 0 0 0 0 1 3 0 6 j k - X d G L L L K D C C ~ [ e.m.M.z.2.#.E 9 $ ; k z z z z z z z j q e 1 . o , 1 1 1 1 - N.N.N.N.N.N.",
"N.N.N.N.N.N.3 6 0 0 3 0 0 0 3 , 0 3 6 z 0 X @ M K L L L H C ~ [ 3.f.n.M.M.n.h.q.$.u = : k z z M z z z k e e e 0 + . - 1 1 1 1 ; N.N.N.N.N.N.",
"N.N.N.N.N., 0 0 0 0 0 0 3 0 3 : 3 1 0 k - . 3 D L L L D B B B D B m O.b.n.#.x z r ; + : k M z z z z M j e e e q : . o : 1 3 1 : N.N.N.N.N.N.",
"N.N.N.N.N.3 3 0 3 0 0 0 0 0 1 , 1 1 q q X o l K L L G B B B B B B 8 c i.z.Z z k r : @ : k z z z z z k j e e e e 3 o . - , 1 1 : N.N.N.N.N.N.",
"N.N.N.N.N.3 0 0 0 0 0 0 0 3 1 1 1 : e :   ; D L L K M M B B B B g p N 0.f.V z M r : @ : k k M z z z k e e e e e 0 # . + : 3 , : & N.N.N.N.N.",
"N.N.N.N.N.0 0 0 3 0 0 0 0 3 : 3 : : 0 # . 0 K L L B z z z M M z 5 N 6 X.y.k z z e : o : k z z z z k r e e e e e q : . o - 1 , : - N.N.N.N.N.",
"N.N.N.N.: 0 0 3 0 0 0 3 0 3 : 1 ; : 3 X o l L L G z z z M z z 6 c s -  .0.z z z e : @ ; k z z z z k e e e e e e r 3 X X # , : : ; N.N.N.N.N.",
"N.N.N.N.1 0 0 0 0 0 0 0 0 1 1 1 # : ; X # B L L B z M z z z q p v , + y ,.B z M e : @ : k M z z k e e r e e e e e 3 + X + ; : : ; N.N.N.N.N.",
"N.N.N.N.3 3 0 0 0 3 0 0 0 1 1 1 # : -   : D L K M z z M z k 5 b 3 ; # t @.S z M r : + : k z z k r e e e r q r e e q - . o - : : : N.N.N.N.N.",
"N.N.N.N.3 0 0 0 0 0 0 3 3 1 1 1 # : @ . 3 K L D z z z z k 3 < , ; ; 1 W +.Y z z e : @ ; k z z j e e e e e e q r e q - . o # ; : : # N.N.N.N.",
"N.N.N.N.3 0 3 0 0 0 0 6 0 1 1 : # ; o X 6 L L M z z z z z j r j j j k Z o.5.z z r : + : k z r e e e e e e e e e e q 1 X X @ ; : : & N.N.N.N.",
"N.N.N.N.3 3 3 3 3 3 3 3 3 : 1 : @ ; o X 6 J K z z M z z z M z z z z z V ..7.z z e : + : j e e e e e e e e e e e e r 1 X X o - : : - N.N.N.N.",
"N.N.N.N.- - - - - - - - - - 1 : @ - o X 6 A B k z z z z z z z z z z z x i ] M z e : + ; q e e e e e e e r e e e e e 1 X X + # : : - N.N.N.N.",
"N.N.N.N.@ - - - - - - - - : 1 : @ # o X 6 A g j z z z M z z z z z z z z 5 D z z q : @ ; q e e e e e e e e e e e e e 1 X X + # : : - N.N.N.N.",
"N.N.N.N.- - - - - - - - - - 1 : + # o X 5 b d e e k k z M z z M z z z z 5 G z z e : + ; 0 e e e e e e e e e e e e 0 1 o X + @ : : - N.N.N.N.",
"N.N.N.N.- - - - - - - - - ; 1 : @ @ o o 1 v d e e e j k k k k z z z k k 5 D z M e : + - q e e e e e e e e e e e 0 3 , X X + + : : - N.N.N.N.",
"N.N.N.N.- - @ - - - - @ - - 1 : @ @ o X , f d e e e e e e r r r e d e e < F z z q : @ - q e e e e e e e e e e 0 3 3 : X X + + : : - N.N.N.N.",
"N.N.N.N.- - - - - - - - - - 1 : @ + o X : 8 e e e e e e e e e e e e e q 2 G z z q : @ ; q e e e r e e e e e 0 0 3 3 : X X + + ; : - N.N.N.N.",
"N.N.N.N.- - - - - - - - - - 1 : @ @ o X : 6 e e e e e e e e e e e e e e < D z z q : + - q e e e e e e e e 0 3 3 3 3 ; X X + + ; : - N.N.N.N.",
"N.N.N.N.@ - - - @ - - - - - , , @ @ o . ; 3 0 e e e e e e e e e e e e e 2 G M z q : @ ; q e e e e e e e 0 0 3 3 3 3 - X o + + ; : & N.N.N.N.",
"N.N.N.N.# - - - - - # - - @ : : @ @ + . - 1 3 e e e e e e e e e e e e e 2 G M z 0 : + ; q e e e e e q q 3 3 0 3 3 1 # . o + @ : : # N.N.N.N.",
"N.N.N.N.# - - - - - - - - - ; : @ @ + . @ 1 3 0 e e e e e e e e e e e q < G z z q : + ; q e e e e q 0 3 3 3 3 3 3 : @ . o + @ : : N.N.N.N.N.",
"N.N.N.N.@ - - - # - - - - # - : # + @ X o , 1 3 q e e e e r e e e e e e < G M z 0 : + ; q e e e q 3 3 3 3 3 3 3 1 : o X o + @ : ; N.N.N.N.N.",
"N.N.N.N.@ - # - - - - # - @ - : # + + o X , 1 , 0 e e e d e e e e e e e 2 G z z 0 : + ; q e q 0 3 3 3 3 3 0 3 3 : ; X X + + - : ; N.N.N.N.N.",
"N.N.N.N.N.- - - # - - - - - - : ; o @ o . - 1 1 3 0 e e e e e e e e e q 2 G z z 0 : @ - q 0 3 3 3 3 3 3 3 3 3 , : - X o + + - : - N.N.N.N.N.",
"N.N.N.N.N.# - - - - - - - - - ; ; # o o . @ 1 1 1 3 q e e e e e e e e e < G z z 0 : + - 3 3 3 3 3 3 3 0 3 3 3 : : @ . o + + ; : - N.N.N.N.N.",
"N.N.N.N.N.# - - - - - - - # # ; : # + + X X : , 1 1 3 e e e e e e e e q 2 F z z 0 : @ - 3 3 3 3 3 0 3 3 3 3 , : ; X . o o @ ; : N.N.N.N.N.N.",
"N.N.N.N.N.@ - # - - # - - - - - ; - @ o X   # , : , 1 3 e e e e e e e e 2 G z k 3 : @ - 3 3 3 3 3 3 3 3 3 , : : - . o + @ # : ; N.N.N.N.N.N.",
"N.N.N.N.N.N.+ @ + @ @ @ @ @ @ % : - + + + . o : : : : : 1 0 q 0 q q 0 3 < D M k 0 : @ - 3 3 3 3 3 3 0 3 , : : ; o . o @ + - : - N.N.N.N.N.N.",
"N.N.N.N.N.N.O + O O O + O O O + : : @ + + X . # : : : : : : 3 3 3 3 3 3 < D z k 3 , o - 1 3 3 0 3 3 1 : : : : - . X @ o @ ; : # N.N.N.N.N.N.",
"N.N.N.N.N.N.o O + + O O O + O + - : - + + o . o : : : : : : : 1 3 3 3 3 > D z k 3 ; o ; 3 3 3 3 3 , , : : : : o . o @ + # : ; N.N.N.N.N.N.N.",
"N.N.N.N.N.N.N.+ O O + O + O O O @ : ; + + + X . @ : : : : : : : : , 3 3 < S z j 3 : @ - 3 3 1 , : : : : ; : - . X + + + - : - N.N.N.N.N.N.N.",
"N.N.N.N.N.N.N.o O + O + O O O + + ; : @ + + o X X - : : : : : : : : : , > B z j 3 : o - , , ; : : : : : : ; X . o + + @ : ; N.N.N.N.N.N.N.N.",
"N.N.N.N.N.N.N.N.O O + O O + + O + # : - + + + o . o ; : : : : : : : : ; > B z q 1 : - - ; : : : : : : : : o . o + + + - : - N.N.N.N.N.N.N.N.",
"N.N.N.N.N.N.N.N.O O O + O O O O + + ; : # + + + X   + : : : : : : : : ; : M k 0 1 - o - ; : : : : : : : @ . X + + + + : : N.N.N.N.N.N.N.N.N.",
"N.N.N.N.N.N.N.N.N.O + O + O O @ + o # : - + + + + X . + : : : : : : : : : k r 3 3 - o - ; : : : : : : @ . . o + + + - : - N.N.N.N.N.N.N.N.N.",
"N.N.N.N.N.N.N.N.N.O O O O O @ O + + + ; : @ + + o o . . @ : : : : : : ; ; j 3 3 : o @ - - : : : : ; @ . . o + + + @ : : N.N.N.N.N.N.N.N.N.N.",
"N.N.N.N.N.N.N.N.N.N.O O + O O O + o o @ : ; + + @ @ o X . o - ; : : : ; # , : : - @ - @ ; : : : ; + . X o + + + + ; : # N.N.N.N.N.N.N.N.N.N.",
"N.N.N.N.N.N.N.N.N.N.O O O + O + + + + + # : - + @ o @ o X   X - ; : : : - - - - - - - - : : ; - o   . o + + + + # ; - N.N.N.N.N.N.N.N.N.N.N.",
"N.N.N.N.N.N.N.N.N.N.N.O + O + O + + o + + - : # o @ @ o o X . X o - ; : : : : : : : : : ; - o . . X + + + + + @ ; ; N.N.N.N.N.N.N.N.N.N.N.N.",
"N.N.N.N.N.N.N.N.N.N.N.N.O O O + o + + o o @ ; : - o o @ @ o o X . . o + # - - ; - - # @ o . . X o o + + + + + - : @ N.N.N.N.N.N.N.N.N.N.N.N.",
"N.N.N.N.N.N.N.N.N.N.N.N.N.O + O @ o + + o o @ : ; - @ o @ o @ o o .       . . X X .     . . o o + + + + + + ; : # N.N.N.N.N.N.N.N.N.N.N.N.N.",
"N.N.N.N.N.N.N.N.N.N.N.N.N.N.O O + + @ o @ o o - : ; - o + + + @ + o o o X X . . X X X o o o @ + + + + + + - : & N.N.N.N.N.N.N.N.N.N.N.N.N.N.",
"N.N.N.N.N.N.N.N.N.N.N.N.N.N.N.O o @ o @ o @ o o @ ; ; - + + + o + @ + + + + + o o @ o + + @ o + + @ o # ; : # N.N.N.N.N.N.N.N.N.N.N.N.N.N.N.",
"N.N.N.N.N.N.N.N.N.N.N.N.N.N.N.N.O O O O O O O O O @ - : - @ + + + + + + + + + + + + + + + + + + + + # : ; @ N.N.N.N.N.N.N.N.N.N.N.N.N.N.N.N.",
"N.N.N.N.N.N.N.N.N.N.N.N.N.N.N.N.N.X   X . . X . . . X & : : & @ + + + + + + + + + + + + + + + + # ; : ; N.N.N.N.N.N.N.N.N.N.N.N.N.N.N.N.N.N.",
"N.N.N.N.N.N.N.N.N.N.N.N.N.N.N.N.N.N.N.    .   .   .   X + - , ; - # @ + + + + + + + + + + @ # ; : ; # N.N.N.N.N.N.N.N.N.N.N.N.N.N.N.N.N.N.N.",
"N.N.N.N.N.N.N.N.N.N.N.N.N.N.N.N.N.N.N.N.  .           . . X @ ; : : : - # # # # @ # - - ; : : : - N.N.N.N.N.N.N.N.N.N.N.N.N.N.N.N.N.N.N.N.N.",
"N.N.N.N.N.N.N.N.N.N.N.N.N.N.N.N.N.N.N.N.N.N.N.. .           . X + & ; : : : : : : : : : ; - # N.N.N.N.N.N.N.N.N.N.N.N.N.N.N.N.N.N.N.N.N.N.N.",
"N.N.N.N.N.N.N.N.N.N.N.N.N.N.N.N.N.N.N.N.N.N.N.N.N.N.. .   .       . X O @ & - - - - - @ N.N.N.N.N.N.N.N.N.N.N.N.N.N.N.N.N.N.N.N.N.N.N.N.N.N."
};
