/* XPM */
static char *result[] = {
/* columns rows colors chars-per-pixel */
"70 70 164 2 ",
"   c #9F7100",
".  c #A27400",
"X  c #A77800",
"o  c #AB7D00",
"O  c #AF8100",
"+  c #B18300",
"@  c #B78800",
"#  c #BC8C00",
"$  c #BF9000",
"%  c #BD9D00",
"&  c #C29300",
"*  c #C79800",
"=  c #CA9B00",
"-  c #C19309",
";  c #C4A300",
":  c #CEA300",
">  c #C6A800",
",  c #CBAA00",
"<  c #D3A400",
"1  c #D8A700",
"2  c #D2AA00",
"3  c #DCAC00",
"4  c #CDB500",
"5  c #D4B400",
"6  c #DCB400",
"7  c #D7BC00",
"8  c #DDBC00",
"9  c #D7BA08",
"0  c #C3A71C",
"q  c #D8AE13",
"w  c #E0AF00",
"e  c #E3B300",
"r  c #E8B700",
"t  c #E3BC00",
"y  c #ECBC00",
"u  c #EABB0A",
"i  c #F0BF00",
"p  c #DABE25",
"a  c #CCB33A",
"s  c #DDC600",
"d  c #DDCA00",
"f  c #DFC71E",
"g  c #E4C300",
"h  c #EAC400",
"j  c #E5CD00",
"k  c #EECB00",
"l  c #F3C400",
"z  c #F8C600",
"x  c #F2CC00",
"c  c #FECD00",
"v  c #F7C80E",
"b  c #E6D002",
"n  c #E9D600",
"m  c #ECDC00",
"M  c #F4D200",
"N  c #FED300",
"B  c #F7DC00",
"V  c #FEDC00",
"C  c #FFD10B",
"Z  c #FFDE0B",
"A  c #E8C913",
"S  c #E4C719",
"D  c #EDC11A",
"F  c #F0C51D",
"G  c #FFD112",
"H  c #FEDE10",
"J  c #FFD31D",
"K  c #FFDC1F",
"L  c #EEE600",
"P  c #F7E300",
"I  c #FFE300",
"U  c #F4EA00",
"Y  c #FEEB00",
"T  c #FFE20A",
"R  c #FFEA0F",
"E  c #FFF500",
"W  c #FFFD00",
"Q  c #FFF00E",
"!  c #FFFF0E",
"~  c #FFE311",
"^  c #FFEB15",
"/  c #FFE11E",
"(  c #FFEF1E",
")  c #FFF414",
"_  c #FFFD11",
"`  c #DCC02A",
"'  c #FFD525",
"]  c #FDDF26",
"[  c #FFD62A",
"{  c #F0CA3A",
"}  c #E8D436",
"|  c #F1DB37",
" . c #FFD936",
".. c #FFDC3C",
"X. c #FFE32F",
"o. c #F2EB2C",
"O. c #FFF020",
"+. c #FEFD22",
"@. c #FFFF29",
"#. c #FFE634",
"$. c #FFE83C",
"%. c #F9F737",
"&. c #FFFF32",
"*. c #FFF83A",
"=. c #CDAA42",
"-. c #E9CF4C",
";. c #F4D044",
":. c #F0D84D",
">. c #FFDC4A",
",. c #FFE74A",
"<. c #F7F242",
"1. c #FFFF42",
"2. c #FFFE4C",
"3. c #F1E250",
"4. c #FFFA58",
"5. c #DCC378",
"6. c #F1D464",
"7. c #FFE163",
"8. c #F9E468",
"9. c #FDED6C",
"0. c #FFF564",
"q. c #FFFA63",
"w. c #FFF068",
"e. c #FFFC6E",
"r. c #FFEE7E",
"t. c #FFFC74",
"y. c #FFFC7C",
"u. c #DEC782",
"i. c #ECDF87",
"p. c #E9DD88",
"a. c #EFE582",
"s. c #FFE782",
"d. c #FFF485",
"f. c #FFFF81",
"g. c #FFFD89",
"h. c #FFEC9E",
"j. c #FFF197",
"k. c #FFFF93",
"l. c #FFF19A",
"z. c #FFFF9B",
"x. c #E6D6A8",
"c. c #E7DBAC",
"v. c #ECDFB9",
"b. c #FFEEA4",
"n. c #FFF7A3",
"m. c #FFF0AD",
"M. c #FFF8AB",
"N. c #FFF4B1",
"B. c #FFFEB2",
"V. c #FFFFB8",
"C. c #F1E8CE",
"Z. c #FFF7C1",
"A. c #FFFDC4",
"S. c #FFF5CB",
"D. c #FFF8CC",
"F. c #FCF3D2",
"G. c #FFFBD2",
"H. c #FFFFDF",
"J. c #FFFDE3",
"K. c #F9F5E8",
"L. c #FEFCED",
"P. c #FFFEF4",
"I. c #FFFFFF",
"U. c None",
/* pixels */
"U.U.U.U.U.U.U.U.U.U.U.U.U.U.U.U.U.U.U.U.U.U.U.U.U.U.* = = < < < < 1 < < : < 6 g k h 6 1 U.U.U.U.U.U.U.U.U.U.U.U.U.U.U.U.U.U.U.U.U.U.U.U.U.U.",
"U.U.U.U.U.U.U.U.U.U.U.U.U.U.U.U.U.U.U.U.U.U.U.e y y y y y y e r e e e g x B V V V V N c l y U.U.U.U.U.U.U.U.U.U.U.U.U.U.U.U.U.U.U.U.U.U.U.U.",
"U.U.U.U.U.U.U.U.U.U.U.U.U.U.U.U.U.U.U.U.U.U.l c N c c c c c c c l h M V V V V V V V V N N c c y U.U.U.U.U.U.U.U.U.U.U.U.U.U.U.U.U.U.U.U.U.U.",
"U.U.U.U.U.U.U.U.U.U.U.U.U.U.U.U.U.U.U.U.3 l N c c c c c c c c l x V V V I ^ ^ Y I I V N c c c c l 1 U.U.U.U.U.U.U.U.U.U.U.U.U.U.U.U.U.U.U.U.",
"U.U.U.U.U.U.U.U.U.U.U.U.U.U.U.U.U.U.U.3 c c c c c c c N c c l M V V I ) t.M.&.W W W W Y V c c c N z 3 U.U.U.U.U.U.U.U.U.U.U.U.U.U.U.U.U.U.U.",
"U.U.U.U.U.U.U.U.U.U.U.U.U.U.U.U.U.U.e c c c c c c c c c c l M V I Y 2.A.H.4.) E Y Y Y Y Y Y V c c c i < U.U.U.U.U.U.U.U.U.U.U.U.U.U.U.U.U.U.",
"U.U.U.U.U.U.U.U.U.U.U.U.U.U.U.U.U.6 c c N N N N N N N N l x V V ^ g.L.D.$.T K B B M V N N N V V N c c t < U.U.U.U.U.U.U.U.U.U.U.U.U.U.U.U.U.",
"U.U.U.U.U.U.U.U.U.U.U.U.U.U.U.U.U.U E E E E E E E E E P g B V ( B.P.j.X.M A p , > , 2 7 y c c N N c z y e U.U.U.U.U.U.U.U.U.U.U.U.U.U.U.U.U.",
"U.U.U.U.U.U.U.U.U.U.U.U.U.U.U.U.o.@.@.@.@.@.@.@.@.@.+.b M V Y e.N.,.B 8 > 0 a % ; ; % % o # y c N c c y y w U.U.U.U.U.U.U.U.U.U.U.U.U.U.U.U.",
"U.U.U.U.U.U.U.U.U.U.U.U.U.U.U.c.H.H.H.H.H.H.H.H.J.J.a.h B I W R Z x , % ; p :.x M M k 8 @ . X < c c c i y y 1 U.U.U.U.U.U.U.U.U.U.U.U.U.U.U.",
"U.U.U.U.U.U.U.U.U.U.U.U.U.U.U.%.1.1.1.1.1.1.1.1.1.<.S x I E Y V h ; * 7 M #.0.E E W W E B 3 o . * l c y y y r U.U.U.U.U.U.U.U.U.U.U.U.U.U.U.",
"U.U.U.U.U.U.U.U.U.U.U.U.U.U.L W W W W W W W W W W n h M E E V k ; > g I ) t.f.W W W W Y I N l & . & y y y y y 3 U.U.U.U.U.U.U.U.U.U.U.U.U.U.",
"U.U.U.U.U.U.U.U.U.U.U.U.U.d W W W W W W W W W W U g k I W V M > > k T *.V.J.z.W E I I V c c N z & . # 1 e y y r U.U.U.U.U.U.U.U.U.U.U.U.U.U.",
"U.U.U.U.U.U.U.U.U.U.U.U.U.k V V V V I V V V I V 8 t M E I B , ; k T q.J.A.k.V.Y I h 8 t c c c c z & . * 1 e h i 1 U.U.U.U.U.U.U.U.U.U.U.U.U.",
"U.U.U.U.U.U.U.U.U.U.U.U.1 c c c c c c c c c c l 1 t P Y V t % g T y.P.B.+.g.G.Z k > 4 ; y c c c c l @ X = 1 e y 3 U.U.U.U.U.U.U.U.U.U.U.U.U.",
"U.U.U.U.U.U.U.U.U.U.U.U.y c N c c c c N c c c r 6 e Y I x > 5 ~ d.H.t._ E M.L.X.5 g , * y c N c c N e X @ 1 3 y r * U.U.U.U.U.U.U.U.U.U.U.U.",
"U.U.U.U.U.U.U.U.U.U.U.U.l c c c z c c c c c l 3 e t I V 5 > M w.k.&.W E ~ D.I.-.g h & @ y N c c c c c * . = 1 6 y < U.U.U.U.U.U.U.U.U.U.U.U.",
"U.U.U.U.U.U.U.U.U.U.U.= e e e e e e e e e e 3 1 e k V M ; t I _ W W E I #.L.I.p.B y & # y c c N c c c e o @ < 1 e 1 & U.U.U.U.U.U.U.U.U.U.U.",
"U.U.U.U.U.U.U.U.U.U.U.1 e e e e e e 3 e e e 1 3 6 l N 5 > M E W W W V V d.I.I.G.] y & @ y N c c c c c y & X = 1 3 3 * U.U.U.U.U.U.U.U.U.U.U.",
"U.U.U.U.U.U.U.U.U.U.U.3 e e e e e e e e e 3 1 e e c y % s I W W W I V ,.J.I.I.I.m.{ - # y c c c c c c y 3 X # 1 1 1 < U.U.U.U.U.U.U.U.U.U.U.",
"U.U.U.U.U.U.U.U.U.U.= w e e e e e e e e e 1 1 e e c = + M Q ! _ O.,.l.L.I.I.I.I.I.L.v.5.;.' C c c c l y r @ X = 1 < < $ U.U.U.U.U.U.U.U.U.U.",
"U.U.U.U.U.U.U.U.U.U.1 e e w e w e e 3 e e < 3 3 t l + - T _ 2.g.D.P.I.I.I.I.I.I.I.I.I.P.F.b.7.[ c c l y y = X # < < 1 & U.U.U.U.U.U.U.U.U.U.",
"U.U.U.U.U.U.U.U.U.U.1 w w e e 6 e e e e e : 1 1 y 3 X 3 E W W ~ X.9.Z.I.I.I.I.I.I.F.u.=.F C c c c c y y y 3 o o = 1 1 * U.U.U.U.U.U.U.U.U.U.",
"U.U.U.U.U.U.U.U.U.U.3 e e e e e e w e e 3 : 1 < y * X x W W Y I V V Z 8.K.I.I.I.b.u # @ y N c N c c y y y y @ X * 1 1 * U.U.U.U.U.U.U.U.U.U.",
"U.U.U.U.U.U.U.U.U.U.e e e w e w e w e e 3 < < = r + # I W W N N V V V 8 a.I.I.L. .y # @ y c c c c l y y y y = X @ < < * U.U.U.U.U.U.U.U.U.U.",
"U.U.U.U.U.U.U.U.U.= e e e e e e e 6 e e 1 = = < 1 X < E W Y c c N N k 7 | L.I.S.G y & # y c c c c y y y y y < X + = < * # U.U.U.U.U.U.U.U.U.",
"U.U.U.U.U.U.U.U.U.< e e w e w e e w w e 1 < = = * X e W W N c c c c 6 b q C.I.b.c y & # y c c c l y y y y y w o o * = = & U.U.U.U.U.U.U.U.U.",
"U.U.U.U.U.U.U.U.U.1 3 e e e e e e e e e < < = * # X k W E N c c c y 7 t # x.I.s.c r & @ i N c c y y y y y y e @ X & = = & U.U.U.U.U.U.U.U.U.",
"U.U.U.U.U.U.U.U.U.1 e e e 6 e e e e w e = 1 & * @ + B W I c c N c 3 g 1 # u.I.7.c y & # y c c l y y y y y y r # X @ * = & U.U.U.U.U.U.U.U.U.",
"U.U.U.U.U.U.U.U.U.3 e e e w w e e w e e = 1 & * o @ Y W V c c c y ; , = & 6.I.>.c y # # y N l y y y y y y y y = . + = = * U.U.U.U.U.U.U.U.U.",
"U.U.U.U.U.U.U.U.U.3 e e e e w e e e e e < < # & o $ E E N c c c l h i l l >.L...c y & # y c i y y y y y y y y < . o & * * U.U.U.U.U.U.U.U.U.",
"U.U.U.U.U.U.U.U.U.1 3 3 3 3 3 3 1 3 3 1 = 1 # & X & U Y c c c c c c c c c  .J...c y # # e i y y y y y y y y y 1 X o & * * U.U.U.U.U.U.U.U.U.",
"U.U.U.U.U.U.U.U.U.& * & & & & & & & & & * < # $ X & m B c c c c c c c c c ' Z.] c y # @ w y y y y y y y y y y < X X @ * * U.U.U.U.U.U.U.U.U.",
"U.U.U.U.U.U.U.U.U.# & & & & & & & & & & * < # # X & m k z N c c c c c c c J n.Z c y & @ w y y y y y y y y y y < X o @ = * U.U.U.U.U.U.U.U.U.",
"U.U.U.U.U.U.U.U.U.& & # & & & & & & & # * < @ @ X # n k y l c c N c c c c G d.Z c y & # 3 y y y y y y y y y e < X o @ = * U.U.U.U.U.U.U.U.U.",
"U.U.U.U.U.U.U.U.U.$ & & $ & # & # & & & * < @ @ X $ h h y y i z c c c c c v 9.Z c r # @ w y y y y y i y y y w : X o @ = = U.U.U.U.U.U.U.U.U.",
"U.U.U.U.U.U.U.U.U.& & & # & & & & & & # * < @ @ X # g h y y y y y i i h y u 3.V c y # @ 3 i y y y y y y y e 3 = o o + = * U.U.U.U.U.U.U.U.U.",
"U.U.U.U.U.U.U.U.U.$ & $ & & & & & & & # * < # @ X @ 6 y y y y y y y y y y u } V c r & @ w y y y y y y y e 3 3 * X o + & * U.U.U.U.U.U.U.U.U.",
"U.U.U.U.U.U.U.U.U.& & # & $ & # & & & & * < # @ X @ 3 y y y y y y y y y y r f V c r & @ 3 y y y y y y e w 3 3 * X o + = * U.U.U.U.U.U.U.U.U.",
"U.U.U.U.U.U.U.U.U.# & & & & & & & & & # $ < $ + o + 1 e y y y y y y y y y e 9 I c y # # 3 i y y y y y 3 3 3 1 & X o + = = U.U.U.U.U.U.U.U.U.",
"U.U.U.U.U.U.U.U.U.$ & & $ & & & & & & # & = & @ o o 1 3 y y y y y y y y y e 5 V c y # @ w y y y y e w 3 3 3 1 # X o + = & U.U.U.U.U.U.U.U.U.",
"U.U.U.U.U.U.U.U.U.# & & & & & & & # & & # * # @ o o < 1 r y y y y y y y y y 7 V c e & @ w y y y y e 3 3 3 3 < @ X + @ = & U.U.U.U.U.U.U.U.U.",
"U.U.U.U.U.U.U.U.U.# & & # & & & & & # & # = & + + X = < w y y y y y y y y e 5 V c e & @ 3 y y r 3 3 3 3 3 3 = + X + @ = & U.U.U.U.U.U.U.U.U.",
"U.U.U.U.U.U.U.U.U.@ & # & & & # & & & & # = & + o X * 1 1 y y y y y i y y t 5 V c e & @ w y e w 3 3 3 3 3 1 * X X + # = & U.U.U.U.U.U.U.U.U.",
"U.U.U.U.U.U.U.U.U.@ & & & & # & & # & & # * & + + X # 1 < 6 y y y y y y y r 5 V c e # @ 3 e 3 3 3 3 3 3 3 < & X o + # * # U.U.U.U.U.U.U.U.U.",
"U.U.U.U.U.U.U.U.U.U.& & & & & & & & & & & & * @ + X o < < 1 y y y y y y y r 7 V c e & @ < w 3 w 3 w w 3 1 = # X + + & = U.U.U.U.U.U.U.U.U.U.",
"U.U.U.U.U.U.U.U.U.U.# & & # & & & & & # & & = # + o X = < < 3 y y y y y y r 5 V c e & @ < w 3 3 3 3 3 3 = = + X + + & * U.U.U.U.U.U.U.U.U.U.",
"U.U.U.U.U.U.U.U.U.U.# & & & & # & & & & & # = # + o . # = = < e y y y y y e 5 V z w & @ < 3 3 3 6 3 1 < * = X X + @ = * U.U.U.U.U.U.U.U.U.U.",
"U.U.U.U.U.U.U.U.U.U.O @ @ @ + @ @ + @ @ + @ * * O + X O * * = = 1 e r e e 3 4 V z w & @ < w 1 w w 3 < * = & . o @ & = & U.U.U.U.U.U.U.U.U.U.",
"U.U.U.U.U.U.U.U.U.U.o O O O O O O + O + O O $ = + + o X * = = = = 1 3 3 3 1 5 V z w # @ = w w w 3 < = = = + . o o & = U.U.U.U.U.U.U.U.U.U.U.",
"U.U.U.U.U.U.U.U.U.U.U.+ + O + O + O + O + O $ = # + O   @ * = = = = < 3 3 1 5 N z w & @ < w w 1 < = = = & X o + + & = U.U.U.U.U.U.U.U.U.U.U.",
"U.U.U.U.U.U.U.U.U.U.U.o O + O + O + O O O + + = $ + + X X * = = = = = = < 1 2 V z 3 & @ < 1 1 = = = = = @ . o + @ = & U.U.U.U.U.U.U.U.U.U.U.",
"U.U.U.U.U.U.U.U.U.U.U.o O O O + O + O + O + O % * + + O . @ = = = = = = = * , V z 3 & + = = = = = = = * X X + + # * # U.U.U.U.U.U.U.U.U.U.U.",
"U.U.U.U.U.U.U.U.U.U.U.U.O + + O + O + O + O O $ = $ + + X . & = = = = = * * , N i 3 & @ & = = = = = = + . o + + * * U.U.U.U.U.U.U.U.U.U.U.U.",
"U.U.U.U.U.U.U.U.U.U.U.U.O O O + + O + O O + O + * & + + O . O * = = = = = * : c r 1 & + & = = = = = # . X + + # * & U.U.U.U.U.U.U.U.U.U.U.U.",
"U.U.U.U.U.U.U.U.U.U.U.U.U.O + O O + O O + O + O $ * @ + + o . @ = = = = = * : c w < + @ & = = = = * X X + + + & * U.U.U.U.U.U.U.U.U.U.U.U.U.",
"U.U.U.U.U.U.U.U.U.U.U.U.U.O O O + O + O O + O + @ * & o @ o X X $ = = = = * = y 1 = o @ & = = = = o . o + + @ = * U.U.U.U.U.U.U.U.U.U.U.U.U.",
"U.U.U.U.U.U.U.U.U.U.U.U.U.o O O O + O + + O + O o & = @ o @ o . X $ = = = * # * * & & @ & = = * o . o + + + # * U.U.U.U.U.U.U.U.U.U.U.U.U.U.",
"U.U.U.U.U.U.U.U.U.U.U.U.U.U.O O O O O + O O + + o @ & & @ o + o . X @ * = = * & & & & & * = & o . X + + + @ * & U.U.U.U.U.U.U.U.U.U.U.U.U.U.",
"U.U.U.U.U.U.U.U.U.U.U.U.U.U.U.O + O + O + O O + + o & = @ @ + + o . . O * * = * = = = = * @ o   X + + + + # * U.U.U.U.U.U.U.U.U.U.U.U.U.U.U.",
"U.U.U.U.U.U.U.U.U.U.U.U.U.U.U.O + O + + + + + o + o @ & & + + + + o . . X o # & & & & @ o   . o + + + + @ * # U.U.U.U.U.U.U.U.U.U.U.U.U.U.U.",
"U.U.U.U.U.U.U.U.U.U.U.U.U.U.U.U.O O O O + + + + + + + @ = & + + + @ o o .   . . . .       o o o + + o @ * * U.U.U.U.U.U.U.U.U.U.U.U.U.U.U.U.",
"U.U.U.U.U.U.U.U.U.U.U.U.U.U.U.U.o + O + o + + + + + + o # = & o + + + + + o X X X . o o o @ o @ @ o @ & * U.U.U.U.U.U.U.U.U.U.U.U.U.U.U.U.U.",
"U.U.U.U.U.U.U.U.U.U.U.U.U.U.U.U.U.o + O + + + + o + + + o & = & + @ + + + + + o o @ o o @ o @ + + + & = @ U.U.U.U.U.U.U.U.U.U.U.U.U.U.U.U.U.",
"U.U.U.U.U.U.U.U.U.U.U.U.U.U.U.U.U.U.O + + O + O O + O O O + % * $ @ + + + + + + + + + + + + + + @ & * # U.U.U.U.U.U.U.U.U.U.U.U.U.U.U.U.U.U.",
"U.U.U.U.U.U.U.U.U.U.U.U.U.U.U.U.U.U.o O O + O + + O O O + + + & = * @ + + + + + + + + + + + + # & = # U.U.U.U.U.U.U.U.U.U.U.U.U.U.U.U.U.U.U.",
"U.U.U.U.U.U.U.U.U.U.U.U.U.U.U.U.U.U.U.o O O + O O O O O o o o X @ * * & @ + + + @ o + + + # = * = @ U.U.U.U.U.U.U.U.U.U.U.U.U.U.U.U.U.U.U.U.",
"U.U.U.U.U.U.U.U.U.U.U.U.U.U.U.U.U.U.U.U.o X X X X X X   .   . . . + & = = = & & & & & & * = = & U.U.U.U.U.U.U.U.U.U.U.U.U.U.U.U.U.U.U.U.U.U.",
"U.U.U.U.U.U.U.U.U.U.U.U.U.U.U.U.U.U.U.U.U.U..     .   .   .       . . + $ * = = = = = = & & U.U.U.U.U.U.U.U.U.U.U.U.U.U.U.U.U.U.U.U.U.U.U.U.",
"U.U.U.U.U.U.U.U.U.U.U.U.U.U.U.U.U.U.U.U.U.U.U.U.U.            .   .     . o @ # & & @ + U.U.U.U.U.U.U.U.U.U.U.U.U.U.U.U.U.U.U.U.U.U.U.U.U.U."
};
