/* XPM */
static char *_6fd3fd7cd0e455cf5ef785340718278mR319tQRakGuDkna[] = {
/* columns rows colors chars-per-pixel */
"70 70 136 2 ",
"   c None",
".  c #9F7100",
"X  c #A27400",
"o  c #A77800",
"O  c #AB7C00",
"+  c #AF8000",
"@  c #B28300",
"#  c #B78900",
"$  c #BB8C00",
"%  c #B59200",
"&  c #BF9000",
"*  c #BD9D00",
"=  c #C39400",
"-  c #C79800",
";  c #CA9B00",
":  c #D09F00",
">  c #C5A400",
",  c #CFA000",
"<  c #CBAC00",
"1  c #D3A300",
"2  c #D5AB00",
"3  c #DCAC00",
"4  c #CEB600",
"5  c #D4B300",
"6  c #DBB400",
"7  c #D6BC00",
"8  c #DCBA00",
"9  c #E3B300",
"0  c #E8B700",
"q  c #E4BC00",
"w  c #ECBC00",
"e  c #D4BA3B",
"r  c #DDCB00",
"t  c #E5C300",
"y  c #EAC500",
"u  c #E3CB00",
"i  c #ECCA00",
"p  c #F3C300",
"a  c #F8C700",
"s  c #F1CE00",
"d  c #FFCE00",
"f  c #E3D300",
"g  c #ECD300",
"h  c #E5D800",
"j  c #ECDB00",
"k  c #F5D300",
"l  c #FDD300",
"z  c #F5D800",
"x  c #FFDD00",
"c  c #FFDF11",
"v  c #EDE400",
"b  c #F1E100",
"n  c #FFE300",
"m  c #F3EA00",
"M  c #FFEC00",
"N  c #FFE30E",
"B  c #FFF300",
"V  c #FFFD00",
"C  c #FFF109",
"Z  c #FFFC0A",
"A  c #FFE315",
"S  c #FFE71D",
"D  c #FFFF11",
"F  c #FFF41B",
"G  c #FFFF1D",
"H  c #E3D427",
"J  c #F5D424",
"K  c #FFEB22",
"L  c #FFE42C",
"P  c #FFED2F",
"I  c #FFF121",
"U  c #FFF820",
"Y  c #FFFF21",
"T  c #FFFF26",
"R  c #FFF42A",
"E  c #FFFF2D",
"W  c #F5ED33",
"Q  c #FFE73C",
"!  c #FFF734",
"~  c #FFF930",
"^  c #FFF833",
"/  c #FFFF31",
"(  c #FFF834",
")  c #D6BE60",
"_  c #D8C24A",
"`  c #FFDD4D",
"'  c #E3D55C",
"]  c #FFE641",
"[  c #FFE45B",
"{  c #FFED5C",
"}  c #FCF150",
"|  c #FFFD63",
" . c #FFFF63",
".. c #FFFE64",
"X. c #FFFF62",
"o. c #FFFD68",
"O. c #FFFF6A",
"+. c #FFEE7A",
"@. c #FFFD71",
"#. c #FFFF74",
"$. c #FFF973",
"%. c #FFFD79",
"&. c #E3D59D",
"*. c #FFEE82",
"=. c #FFF687",
"-. c #FFFF80",
";. c #FFFF8D",
":. c #FFFC8F",
">. c #FFF29C",
",. c #FFFF9A",
"<. c #FFFF9E",
"1. c #E3D5AB",
"2. c #FFFBA2",
"3. c #FFFFAE",
"4. c #FFF5B7",
"5. c #FFFFB4",
"6. c #FFFFB3",
"7. c #F8F0BC",
"8. c #FFFFB8",
"9. c #FFFCBF",
"0. c #FFFFC3",
"q. c #FFF7C9",
"w. c #FFFFD5",
"e. c #FAF5DB",
"r. c #FFFFDD",
"t. c #FFFFDE",
"y. c #FFFFD9",
"u. c #FFFFE5",
"i. c #FFFBE8",
"p. c #FFFFE8",
"a. c #FFFFEB",
"s. c #FFFFED",
"d. c #FFFDF5",
"f. c #FFFFFD",
"g. c #FFFFFE",
"h. c #FFFFFC",
/* pixels */
"                                                          q t i i k s s s y 0 9 2                                                           ",
"                                                  t s k l x x x x x x x x x l d d d p w 9                                                   ",
"                                            t k z x x x x x x x x x x x x x l l d d d d d a w 3                                             ",
"                                        i k x x x x n n C K P M B M M M n n x l d d d d d d l d a 0                                         ",
"                                    i l x x x n M C ~ @.5.0.| Z V V V V V V V B M x x l d d d d d d p 9                                     ",
"                                t k x x x n M F | 5.p.d.2.! B M M M M n M n M n M n M n n l d d d d d p 9 1                                 ",
"                              t x x x x M ! :.u.f.i.>.Q n x x x z l k k l x x x l d l l x x x d d d d d w w 3                               ",
"                          5 y x x x n R ,.s.d.q.+.L x k i 8 5 4 > > > > > > < 5 6 9 p d d d l l l d d d p w w 9 ,                           ",
"                        6 i z x x M Z :.4.*.] c k t 5 > * * * > > > > > > > * * % X O & 2 p d d d d d d p w w w w 1                         ",
"                      8 i k x n B V B N x x s 7 > * * > < 8 t i k z x x k k k t 5 $ o . X O ; w d d d d p w w w w w 2                       ",
"                    8 i s x n B V M n x k 8 > * > < t k n n M B B V V V V V V V B x p 3 # o . o ; p d d a w w w w w w 1                     ",
"                  8 i i l n V V n x x t > * - 7 s x n C ^ O./ V V V V V V V M M n x l l d w = o . O : w w 0 w w w w w w 2                   ",
"                1 y t k n V B n x k 5 * * 5 i x n F | 8.p.3.Y V V V B M n n x x x d l d d d d w & X . # 1 3 3 0 w w w w w 1                 ",
"              ; 6 y i n V M x x k < * > t x n I %.w.f.t.#.D V V M n n l 8 6 8 8 w d d d d d d d d 2 O . O ; 1 3 3 w w w w 3 =               ",
"              3 9 q k B M x x i > * < k n A $.y.h.y.-.T V B M n x x z 6 4 4 4 < , d d d d d d l d d w # . o - 1 1 3 w w w 0 1               ",
"            1 9 9 0 M B n x i > * 6 z A { 9.u.6.| G V V M n x x x z 6 h g 5 * ; 1 l d d d d d d d d l p = . o - 3 1 2 9 w w 3 ;             ",
"          ; 9 9 9 i M x x k > * 8 z A =.2.O.E Z V V M n x x x x x 6 f M 9 : O - 1 d d d d d d d d d l d p $ X o ; 1 2 3 9 w 9 1 =           ",
"          3 9 9 9 k x x k > * 6 x n B D V V V V V n x x x x x x 8 r B l 0 1 O = 1 d d d d d d d d d d d p w # X O : 1 1 1 w 0 1 :           ",
"        1 9 9 3 w l d k 5 * 4 z x B V V V V V M x x x x x x x q r B l d 0 1 O = 1 d d d d d d d d d d d w w 9 + X @ 1 1 1 3 0 1 1 ;         ",
"        3 9 9 9 y d d , % > s x B V V V V B M x n x x x x x t _ } l d d 0 ; O ; 1 d d d d l d d d d d d w w w 1 o X $ 1 1 1 3 3 1 1         ",
"      1 9 9 3 9 a l 3 o O q n M V V V V B n x x x x x x x y ) e.` d d d 9 1 O = 1 d d d d d d d d d d p w w w w = X X = 1 1 1 3 1 1 ;       ",
"      1 9 3 2 q d p @ . = l n V V V V B n x x x x x x x i e 7.[ d d d d 9 : O = 1 d d d d d d l d d d p w w w w 3 @ . O ; 1 1 1 1 2 1       ",
"    - 1 3 3 2 w d ; X o w x V V V V B x x x x x x x x s 5 W J a d d d d 0 1 O = 1 d d d d d d d d d d w w w w w 9 ; X X @ ; 1 1 1 1 1 $     ",
"    ; 1 3 : 3 w 9 O . - l M V V V B n x x x x x x x k 5 m k 3 a d l d d 9 1 O = 1 d l d d d d d d d w w w w w w 0 3 # . O = 1 3 1 1 ; =     ",
"    1 1 : = 9 w ; X o w n V V V M l l l x x x x x k 5 v k 2 = p d d d d 9 1 O = 1 d d d d d d d d a w w w w w w w 9 ; o X @ ; 1 1 1 ; ;     ",
"  - 1 1 = = 9 3 O X = d V V V V l d d l d d l l l 5 v k 2 # # p d d d d w ; O = 1 d d d d d d d d w w w w w w w w w 1 @ . O = 1 1 ; ; ; &   ",
"  ; 1 1 = = 3 ; o X 3 x V V V x d d d d d d d d 2 h j 2 $ @ = t l d d d 9 : O ; 1 d d d d d d d w w w w w w w w w w 3 = X o @ - 1 ; ; ; =   ",
"  : 3 1 = ; : $ X O p M V V M d d d d d d d d 6 h z 3 = @ = = f x d d d 9 1 O = 1 d d d d d d p w w w w w w w w w w 0 : X X O = ; ; ; ; =   ",
"  1 1 : $ ; : O . $ l V V V l d d d d d d d 6 r j 3 1 $ = 1 9 f n d d d 9 ; O - 1 d d d d d p w w w w w w w w w w w w 3 O . O @ = ; ; ; ;   ",
"= 1 1 ; # ; = O . 1 n V V M d d d d d d d 9 - 7 ; ; ; = 2 d w H A d d d 0 1 O = 1 d d d a p w w w w w w w w w w w w w 3 = . O @ $ ; ; ; ; # ",
"- 1 1 - @ ; = o X 2 M V V x d d d d d d d p p p p y p p d d w 1.[ d d d 9 1 O - 1 d d p w w w w w w w w w w w w w w w 0 = X o @ @ ; ; ; ; $ ",
"; 1 1 - # - # X X 2 z V B d d d d l d d d l d d d d d d d d 0 1.[ d d d 9 : O - 1 d w w w w w w w w w w w w w w w w w 0 ; X o O @ = ; ; ; & ",
"; 1 : = @ = # X o 3 j v z d d d d d d d d d d d d d d d d d 0 ' S d d d 9 : O = ; w w w w w w w w w w w w w w w w w w 0 ; X X @ @ = ; ; ; = ",
": 1 : $ @ = # X o 2 j v y w d d d l d d d d d d d d d d d d w f n d d d 3 1 O = ; w w w w w w w w w w w w w w w w w w 9 ; o o O @ $ ; ; ; = ",
"; 1 1 = @ = # . o 1 h j w w w w a d d d d d d d d d d d d d w h M d d d 9 : O - : w w w w w w w w w w w w w w w w w 9 3 - o X O @ # ; ; ; = ",
": 1 : = # @ @ X o 1 u k w w w w w w p p a d d d d d d p d d 3 h M d d d 9 1 O = ; w w w w w w w w w w w w w w w w 9 3 3 - o X @ @ @ = ; ; = ",
"; 1 1 = # # @ X o 1 8 i w w w w w w w w y w w p w p w w w w 3 f M d d d 3 : O = ; w w w w w w w w w w w w w w w 0 3 3 2 - o X O @ # = ; ; = ",
"; 1 1 = # # @ X o ; 5 t w w w w w w w w w w w w w w w w w w 3 h M d d a 9 : O - ; w w w w w w w w w w w w w 0 9 3 3 3 1 = o X @ @ @ - ; ; = ",
"- 1 1 = @ # @ o X ; 2 9 w w w w w w w w w w w w w w w w w w 3 f M d d d 3 : O - ; w w w w w w w w w w w w 0 3 3 3 3 3 1 = X o O @ @ = ; ; & ",
"= : 1 = # # @ o . = 2 2 0 w w w w w w w w w w w w w w w w w 3 f M d d d 9 1 O = : w w w w w w w w w w w 9 3 3 3 3 3 3 ; # X o @ @ @ = ; ; $ ",
"$ - ; ; # # # O . $ 1 1 3 w w w w w w w w w w w w w w w w p 2 f M d d d 3 : O - ; w w w w w w w w 0 9 9 3 9 3 3 3 3 1 ; @ X o @ @ @ ; ; ; # ",
"  - ; - # @ # O X O 1 1 1 0 w w w w w w w w w w w w w w w w 3 f M d d d 3 1 O ; ; w w w w w w w 0 9 3 3 3 3 3 3 3 3 : - O X O @ @ # ; ; ;   ",
"  - ; - # @ # @ X o : 1 1 3 0 w w w w w w w w w w w w w w w 3 f M d d p 3 : O = ; w w w w 0 0 9 3 3 3 3 3 3 3 3 9 1 ; - X X @ @ @ # ; ; =   ",
"  = ; ; = @ @ @ o X = 1 1 1 3 0 w w w w w w w w w w w w w w 3 h M d d a 3 : O - : w w w 0 9 3 3 3 3 3 9 3 3 3 3 3 ; ; $ . o @ @ @ $ ; ; =   ",
"  = ; ; = @ O # O X @ 1 2 1 1 3 w w w w w w w w w w w w w w 2 f M d d p 3 1 O = ; 0 0 9 3 3 3 3 3 3 9 3 3 9 3 3 : - ; O . O @ @ @ = ; ; $   ",
"    - - = O @ @ O X X - 1 1 1 1 2 w w w w w w w w w w w w w 3 f M d d a 2 1 O - ; 3 3 3 3 3 9 3 3 3 3 3 3 3 3 1 ; ; = X X O @ @ @ - ; -     ",
"    = - - = O # @ o . @ : 1 1 1 1 3 w w w w w w w w w w w w 3 f M d d p 2 1 O = = 3 3 3 3 3 3 3 3 3 3 3 3 3 : ; ; ; @ . o @ @ @ $ ; ; =     ",
"    = ; - = @ @ @ O X X = ; ; : : : 1 9 w w w p w w w w w w 2 f M d d w 3 : O - = 3 3 9 3 9 3 3 3 3 9 3 1 : ; ; ; = o X O @ @ @ = ; ; &     ",
"      - ; - @ @ @ @ o . O ; ; ; ; ; ; ; 1 9 9 0 0 0 9 9 0 9 1 f n d d w 3 : O ; - 3 3 3 3 3 9 3 3 3 3 1 ; ; ; ; ; + . o @ @ @ @ ; ; =       ",
"      = ; ; = @ @ @ @ X X # ; ; ; ; ; ; ; ; 1 2 3 3 3 3 3 3 1 f n d d w 3 : O = = 9 3 3 3 3 3 3 3 3 : : ; ; ; ; # X X + @ @ @ = ; ; &       ",
"        = ; ; # @ @ @ O X o = ; ; ; ; ; ; ; ; 1 1 2 9 3 3 3 ; f n d d 0 1 : O - = 3 3 3 3 9 3 1 1 ; ; ; ; ; ; = o X O @ @ @ @ ; ; =         ",
"        = ; ; $ @ @ @ O o X O = ; ; ; ; ; ; ; ; ; ; 1 1 2 3 , f x d d 9 3 1 O = - 3 3 2 1 1 ; ; ; ; ; ; ; ; = o . o @ @ + @ = ; ; =         ",
"          = ; - # @ @ @ O o . O ; ; ; ; ; ; ; ; ; ; ; ; ; : = f x d d 3 3 : O - = : : ; ; ; ; ; ; ; ; ; ; ; O . X @ @ @ @ # ; ; -           ",
"          $ ; ; = @ @ @ @ + X X @ = ; ; ; ; ; ; ; ; ; ; ; ; = u x d a 3 3 : O = $ ; ; ; ; ; ; ; ; ; ; ; ; O X X O @ @ @ @ = ; ; $           ",
"            = ; ; # @ @ @ @ O o X O = ; ; ; ; ; ; ; ; ; ; ; = r l d w 1 1 : O = $ ; ; ; ; ; ; ; ; ; ; = O . X @ @ @ @ @ $ ; ; &             ",
"              ; ; - @ @ @ @ @ O X X o = ; ; ; ; ; ; ; ; ; ; = t l p 3 3 3 $ o = = ; ; ; ; ; ; ; ; ; = o X X O @ @ @ @ @ ; ; =               ",
"              # ; ; = @ @ @ @ @ @ o . o # - ; ; ; ; ; ; ; ; = 9 a 9 2 3 - O O - $ ; ; ; ; ; ; ; - # o X o O @ @ @ @ @ = ; ; #               ",
"                $ ; ; $ @ @ @ @ @ O o . X O = ; ; ; ; ; ; ; = = ; ; ; ; $ $ # = $ ; ; ; ; ; ; $ O . . o @ @ @ @ @ @ $ ; ; $                 ",
"                  = ; ; $ @ @ @ @ @ @ O X . X O = - ; ; ; ; - = = & = $ = = = = = ; ; ; ; = O X X X o @ @ @ @ @ @ # ; ; =                   ",
"                    $ ; ; = @ @ @ @ @ @ @ o X X X O # = = ; ; - ; ; ; ; - ; ; - ; - = # O X . X O O @ @ @ @ @ @ # ; ; &                     ",
"                      = ; ; = @ @ @ @ @ @ @ O o X X . X O @ # = = = = = = = = # @ O X X X o O O @ @ @ @ @ @ @ # ; ; $                       ",
"                        $ ; ; = @ @ @ @ @ @ @ @ @ O o X X . X X X o o o X X . . . X X o O O @ @ @ @ @ @ @ @ $ ; ; $                         ",
"                          # = ; ; $ @ @ @ @ @ @ @ @ @ O O O o o X X X X X o o o O O O @ @ @ @ @ @ @ @ @ # = ; = #                           ",
"                              = ; ; = # @ @ @ @ @ @ @ @ @ @ @ @ @ O @ @ O @ O @ @ @ @ @ @ @ @ @ @ @ @ $ - ; =                               ",
"                                $ = ; ; = # @ @ @ @ @ @ @ @ @ @ @ @ @ @ @ @ @ @ @ @ @ @ @ @ @ @ @ $ - ; = $                                 ",
"                                    & ; ; ; = $ # @ @ @ @ @ @ @ @ @ @ @ @ @ @ @ @ @ @ @ @ @ # = ; ; = &                                     ",
"                                        & = ; ; ; = $ # @ @ @ @ @ @ @ @ @ @ @ O @ @ @ $ $ - ; ; = =                                         ",
"                                            $ = = ; ; ; = = = = $ $ $ # # $ = = = = ; ; ; ; = $                                             ",
"                                                  $ = = - ; ; ; ; ; ; - ; ; ; ; ; ; = = $                                                   ",
"                                                          $ # = & = = = & = = $ #                                                           "
};
