/* XPM */
static char *result[] = {
/* columns rows colors chars-per-pixel */
"70 70 130 2 ",
"   c #9F7100",
".  c #A37400",
"X  c #A67800",
"o  c #AB7C00",
"O  c #AF8100",
"+  c #B18300",
"@  c #B78800",
"#  c #BB8C00",
"$  c #BF9000",
"%  c #BE9E00",
"&  c #C08F00",
"*  c #C19200",
"=  c #C79800",
"-  c #CA9B00",
";  c #C39710",
":  c #C2A200",
">  c #CCA300",
",  c #C7A800",
"<  c #CDAB00",
"1  c #D4A400",
"2  c #D4AA00",
"3  c #DCAC00",
"4  c #CDB500",
"5  c #D4B300",
"6  c #DAB500",
"7  c #D6BB00",
"8  c #DCBB00",
"9  c #D8B613",
"0  c #E3B300",
"q  c #E8B700",
"w  c #E2BC00",
"e  c #ECBC00",
"r  c #F0BF00",
"t  c #E1BB1B",
"y  c #D7B623",
"u  c #DBC400",
"i  c #E4C301",
"p  c #ECC400",
"a  c #E1CA00",
"s  c #EDCB00",
"d  c #E0CB09",
"f  c #F3C300",
"g  c #F9C700",
"h  c #F2CC00",
"j  c #FECD00",
"k  c #E6D000",
"l  c #ECD600",
"z  c #EDDB00",
"x  c #F4D400",
"c  c #FED300",
"v  c #F4DE00",
"b  c #FEDC00",
"n  c #FEDC0C",
"m  c #E3C313",
"M  c #EFD611",
"N  c #FFD211",
"B  c #FCDC12",
"V  c #FCDB18",
"C  c #EBE100",
"Z  c #F3E500",
"A  c #FFE300",
"S  c #F5EC00",
"D  c #FFEB01",
"F  c #FFE30F",
"G  c #FFF400",
"H  c #FFFD00",
"J  c #FFFF0E",
"K  c #FFE215",
"L  c #FFEF10",
"P  c #FEE11F",
"I  c #FFE91A",
"U  c #FFF614",
"Y  c #FFFF11",
"T  c #FFF51C",
"R  c #F0C624",
"E  c #FDDA3D",
"W  c #EFE72C",
"Q  c #FFEA26",
"!  c #FFE52D",
"~  c #FFF024",
"^  c #FCFA24",
"/  c #FFFF29",
"(  c #FFE431",
")  c #FFE538",
"_  c #F7F433",
"`  c #FFF731",
"'  c #FFFE34",
"]  c #FFF638",
"[  c #FFFC3B",
"{  c #D7B645",
"}  c #D7B648",
"|  c #E0BC45",
" . c #EED656",
".. c #F3D45E",
"X. c #FBE747",
"o. c #F6F142",
"O. c #FFFF42",
"+. c #FFF74D",
"@. c #FFFF4B",
"#. c #FFE953",
"$. c #FFE369",
"%. c #FFFF65",
"&. c #FFFF6F",
"*. c #FFFF76",
"=. c #FFFD7B",
"-. c #EBDA8E",
";. c #EFE688",
":. c #FFEF85",
">. c #FFF08D",
",. c #FFFF8B",
"<. c #FFF893",
"1. c #E3D6A4",
"2. c #FFEDA0",
"3. c #F6E6AF",
"4. c #FFFCA4",
"5. c #FEF3AE",
"6. c #FFFEB0",
"7. c #FFF6BA",
"8. c #FFFDBA",
"9. c #FFF4C2",
"0. c #FBF6CD",
"q. c #FFFFC9",
"w. c #FFF6D2",
"e. c #FFFCD5",
"r. c #FFFFDF",
"t. c #FFFFE1",
"y. c #FFFFEA",
"u. c #FFFEF4",
"i. c #FFFEFD",
"p. c None",
/* pixels */
"p.p.p.p.p.p.p.p.p.p.p.p.p.p.p.p.p.p.p.p.p.p.p.p.p.p.w w s s w 1 - 1 1 1 1 1 1 1 1 > - - p.p.p.p.p.p.p.p.p.p.p.p.p.p.p.p.p.p.p.p.p.p.p.p.p.p.",
"p.p.p.p.p.p.p.p.p.p.p.p.p.p.p.p.p.p.p.p.p.p.p.p.s x b b b b b j g r 0 3 0 q q q q q e e e q q p.p.p.p.p.p.p.p.p.p.p.p.p.p.p.p.p.p.p.p.p.p.p.",
"p.p.p.p.p.p.p.p.p.p.p.p.p.p.p.p.p.p.p.p.p.p.h b b b b b b b A c j j j f q f g j j j j j j c j f p.p.p.p.p.p.p.p.p.p.p.p.p.p.p.p.p.p.p.p.p.p.",
"p.p.p.p.p.p.p.p.p.p.p.p.p.p.p.p.p.p.p.p.p.x b b A F I D D A A b j j j c g e f j j j j c j j j j g 3 p.p.p.p.p.p.p.p.p.p.p.p.p.p.p.p.p.p.p.p.",
"p.p.p.p.p.p.p.p.p.p.p.p.p.p.p.p.p.p.p.w v b b D ] 4.=.H H H G G A b j j j c r e j j j j j j j j j h 3 p.p.p.p.p.p.p.p.p.p.p.p.p.p.p.p.p.p.p.",
"p.p.p.p.p.p.p.p.p.p.p.p.p.p.p.p.p.p.w v b A T ,.y.4.U G D D D A D D A c j j g q e j j j j j j j j j g 3 p.p.p.p.p.p.p.p.p.p.p.p.p.p.p.p.p.p.",
"p.p.p.p.p.p.p.p.p.p.p.p.p.p.p.p.p.6 x b b ] q.u.:.K A b v x b b c c b b c j j f 0 f c c c c c c c c j g 6 p.p.p.p.p.p.p.p.p.p.p.p.p.p.p.p.p.",
"p.p.p.p.p.p.p.p.p.p.p.p.p.p.p.p.p.s b A +.t.w.#.b s 8 < > < < 7 w f j c c j j f e 0 Z G G G G G G G G G S p.p.p.p.p.p.p.p.p.p.p.p.p.p.p.p.p.",
"p.p.p.p.p.p.p.p.p.p.p.p.p.p.p.p.w v b U 4.>.Q p 5 % % % : : % % @ o 1 g c j j f e q a ^ / / / / / / / / / W p.p.p.p.p.p.p.p.p.p.p.p.p.p.p.p.",
"p.p.p.p.p.p.p.p.p.p.p.p.p.p.p.6 x b G G K c u : % < 8 s x x x s < X   @ q j j g e e q -.t.t.t.t.r.r.r.r.r.r.1.p.p.p.p.p.p.p.p.p.p.p.p.p.p.p.",
"p.p.p.p.p.p.p.p.p.p.p.p.p.p.p.i x D G A v 8 % , i b D G G H H G D p * X o q j g e e e t o.O.O.O.O.O.O.O.O.O._ p.p.p.p.p.p.p.p.p.p.p.p.p.p.p.",
"p.p.p.p.p.p.p.p.p.p.p.p.p.p.8 s A G D b 8 = 5 x D ` ' H H H G G A b j 3 o X 3 e e e e q k H H H H H H H H H H C p.p.p.p.p.p.p.p.p.p.p.p.p.p.",
"p.p.p.p.p.p.p.p.p.p.p.p.p.p.p x G D b w % 6 x U =.e.@.H G G A A c j j j q X o 1 3 q e e 0 S H H H H H H H H H G p.p.p.p.p.p.p.p.p.p.p.p.p.p.",
"p.p.p.p.p.p.p.p.p.p.p.p.p.1 p v G b s : 2 v ~ 6.u.*.H G A p w w j c c j j q X o 1 3 e e q i b b b A b b b b b A p p.p.p.p.p.p.p.p.p.p.p.p.p.",
"p.p.p.p.p.p.p.p.p.p.p.p.p.3 p D A v < , x Q q.y.%.H D A s , 4 : q j j j j j 2 . $ 1 3 e q 1 g j j j j j j j j j g p.p.p.p.p.p.p.p.p.p.p.p.p.",
"p.p.p.p.p.p.p.p.p.p.p.p.> 0 s D A 8 % p ! 8.8.[ H D b b 6 a < = e c j j j j j * X - 2 0 e 2 q j j j j c j j c j j q p.p.p.p.p.p.p.p.p.p.p.p.",
"p.p.p.p.p.p.p.p.p.p.p.p.3 0 x A x , 7 V <.*.J H D b A p u s & # e j j j j j j q o @ 1 1 e 3 1 r j g g j j g g g g f p.p.p.p.p.p.p.p.p.p.p.p.",
"p.p.p.p.p.p.p.p.p.p.p.- 3 0 x b 8 : x D Y H H D b b B 7 v r # # q j c j j j j g = X - 1 3 0 1 3 0 q 0 q 0 0 q q q 0 - p.p.p.p.p.p.p.p.p.p.p.",
"p.p.p.p.p.p.p.p.p.p.p.1 0 w j h , 8 A G H H D b b n  .d b r & # e c j j j j j g 3 o @ 1 3 3 1 1 0 0 0 0 0 0 0 0 0 0 1 p.p.p.p.p.p.p.p.p.p.p.",
"p.p.p.p.p.p.p.p.p.p.p.3 0 e j 2 % x G H H G A b b ( 0.X.j e * # e j j j j c j f e & X 1 1 3 1 1 3 0 0 0 0 0 0 0 0 6 3 p.p.p.p.p.p.p.p.p.p.p.",
"p.p.p.p.p.p.p.p.p.p.p.3 0 p g + > A H H H A b n ) 7.i.w.$.R * @ e j j j j j j e e 1 X & 1 1 3 - 3 0 0 0 0 0 0 3 3 0 0 p.p.p.p.p.p.p.p.p.p.p.",
"p.p.p.p.p.p.p.p.p.p.- 3 3 f 3 X 6 G H H D b b ( 5.i.i.i.9...; # q c j j j j g e e 0 o X - 1 1 1 1 0 0 0 3 0 0 0 0 0 0 1 p.p.p.p.p.p.p.p.p.p.",
"p.p.p.p.p.p.p.p.p.p.- 3 2 f * O h G H G b b b A m ;.i.2.N e * # e c c j j j r e e e = X & 1 1 1 - 0 0 0 0 0 0 0 0 0 0 1 p.p.p.p.p.p.p.p.p.p.",
"p.p.p.p.p.p.p.p.p.p.1 1 3 q o * A H H A b b b x 7 M 3.E j e $ # e j j j j j r e e e 1 X @ 1 1 - - 0 0 0 0 0 0 0 0 0 0 3 p.p.p.p.p.p.p.p.p.p.",
"p.p.p.p.p.p.p.p.p.p.1 - 3 1 X 3 G H D c b b b 8 k 6 | N j e * # q j j j j g e e e e 3 o o = 1 1 - 3 0 0 0 0 0 0 0 0 0 3 p.p.p.p.p.p.p.p.p.p.",
"p.p.p.p.p.p.p.p.p.* 1 - 3 = X f H H b j j c f 7 s $ 3 j j r * # e c j j j g e e e e q # X * 1 - = 3 0 0 0 0 0 0 0 0 0 0 - p.p.p.p.p.p.p.p.p.",
"p.p.p.p.p.p.p.p.p.* 1 * 1 @ o v H G c j j j 6 k 2 @ - j j e & # e j j j j p e e e e e = X & - - = 3 0 0 3 0 0 0 0 0 0 0 1 p.p.p.p.p.p.p.p.p.",
"p.p.p.p.p.p.p.p.p.- 1 * 1 o & D H A j j j f 8 w # @ : c j e * # q j c j f e e e e e e 1 X o = - = 1 0 0 0 0 3 0 0 3 0 0 1 p.p.p.p.p.p.p.p.p.",
"p.p.p.p.p.p.p.p.p.- 1 # - X > G G b j j c 6 a 3 # - 5 b j e * # e c j g e e e e e e r 3 X o & - = 1 0 0 0 0 0 0 0 0 6 0 1 p.p.p.p.p.p.p.p.p.",
"p.p.p.p.p.p.p.p.p.1 1 & * . 2 H G c j j f - > = = e 9 N j e # # q j j f e e e e e e e 3 o X & - = - 0 0 0 0 0 0 0 0 0 0 3 p.p.p.p.p.p.p.p.p.",
"p.p.p.p.p.p.p.p.p.- - * * . 6 H A j j j j f e r f g } E j e * # e j f e e e e e e e e q @ X # = = - 0 0 0 0 0 0 0 0 0 q 3 p.p.p.p.p.p.p.p.p.",
"p.p.p.p.p.p.p.p.p.1 - # # X 6 G b j j j j j j c j g } X.j e * # q f e e e e e e e e e q @ X @ = = = 3 3 3 3 3 3 3 1 3 3 1 p.p.p.p.p.p.p.p.p.",
"p.p.p.p.p.p.p.p.p.1 = # @ X 6 Z x j j j j j j j j g y V j e # @ 0 e e e e e e e e e e q @ X o = - & * * * * * * * * * * * p.p.p.p.p.p.p.p.p.",
"p.p.p.p.p.p.p.p.p.1 = # @ . 7 z f j j j j j j j j j 5 b j e * # 3 e e e e e e e e e e 0 @ . @ * - & * * * * * * * * * * * p.p.p.p.p.p.p.p.p.",
"p.p.p.p.p.p.p.p.p.1 = @ @ . 5 l e r g j c j j j j g 5 b j e * # 3 r e e e e e e e e e 3 @ X o & - * & * * $ $ * * * * * $ p.p.p.p.p.p.p.p.p.",
"p.p.p.p.p.p.p.p.p.1 = @ @ . < s e e e f g j j j j g 7 b c q & @ 3 e e e p e e e e e 0 3 @ X @ & - & * * * * * * * * * * $ p.p.p.p.p.p.p.p.p.",
"p.p.p.p.p.p.p.p.p.1 = @ + X > p e e e e e r r r e q 5 b c q * # 0 e e e e e e e e q 3 3 @ X o # - # * * * * * * * * $ * $ p.p.p.p.p.p.p.p.p.",
"p.p.p.p.p.p.p.p.p.1 - @ + X > w e e e e e e e e e q 5 b j q * # 3 e e e r e e e e 0 3 1 @ X @ & - * # * * * $ * * * * * $ p.p.p.p.p.p.p.p.p.",
"p.p.p.p.p.p.p.p.p.1 - @ @ . = 0 e e e e e e e e e q 5 b j q & @ 3 e e e e e e e 0 3 3 1 o X o & - * * * * * $ * $ * * * # p.p.p.p.p.p.p.p.p.",
"p.p.p.p.p.p.p.p.p.- - @ + X * 3 e e e e e e e e e q 5 v j q * # 3 e e e e e e 0 3 3 3 1 o X @ & - # * * * * * * * * * * * p.p.p.p.p.p.p.p.p.",
"p.p.p.p.p.p.p.p.p.* - @ @ X & 1 0 e e e e e e e e q 5 b j w * # 3 e e e e e 0 3 3 3 3 - o o @ & - # * * * $ * * * $ * * # p.p.p.p.p.p.p.p.p.",
"p.p.p.p.p.p.p.p.p.* - # @ X @ 1 3 e e e e e e e e q 5 b j q # # 3 r e e e 0 3 3 3 0 3 = X o o * - # * * * * * $ * * * * # p.p.p.p.p.p.p.p.p.",
"p.p.p.p.p.p.p.p.p.* - @ + X + 1 3 q e e e e e e e q 5 v j 0 * # 3 e e e 0 3 3 3 0 3 1 & X o @ * = # * $ * * * * * * * $ # p.p.p.p.p.p.p.p.p.",
"p.p.p.p.p.p.p.p.p.& = # + o o 1 1 3 e e e e e e e q 5 b j q & # 0 e q 0 3 3 3 3 3 1 1 # X o o * * $ * * * $ * * * $ * * # p.p.p.p.p.p.p.p.p.",
"p.p.p.p.p.p.p.p.p.# - & o o X - 3 1 w e e r e e e q 5 b j q & # 3 q 3 3 3 3 3 0 3 1 - @ . @ @ = * * * * * * * $ $ * * * + p.p.p.p.p.p.p.p.p.",
"p.p.p.p.p.p.p.p.p.p.- * @ @ . & 1 1 3 e e e e e e q 5 b j 0 & @ 1 3 3 0 3 0 3 3 3 1 = o o o @ = = * * * $ * * * * * * * p.p.p.p.p.p.p.p.p.p.",
"p.p.p.p.p.p.p.p.p.p.= = @ o X o 1 1 1 0 e e e e e q 5 b j 0 & # 1 3 3 3 3 3 3 0 1 - * . o @ @ - * $ $ * * * * * * * * # p.p.p.p.p.p.p.p.p.p.",
"p.p.p.p.p.p.p.p.p.p.& = @ @ o X * = 1 1 q e e e e w 2 b g 0 & # 1 3 3 3 3 3 3 1 - - # . o @ & = # $ * * * $ * * $ * * # p.p.p.p.p.p.p.p.p.p.",
"p.p.p.p.p.p.p.p.p.p.# - # + + . & 1 = - 1 3 q 0 0 3 2 b j 0 & @ 1 3 3 0 3 3 3 - - - o X + + * = @ @ @ + @ @ @ @ @ @ @ O p.p.p.p.p.p.p.p.p.p.",
"p.p.p.p.p.p.p.p.p.p.p.- * + + X o - - - = 1 3 3 3 3 2 c g 0 & @ 1 3 3 3 3 3 - - - * X o + @ = $ O O O + O + O O O O O p.p.p.p.p.p.p.p.p.p.p.",
"p.p.p.p.p.p.p.p.p.p.p.* * @ + X X * - - = - 1 1 3 3 4 c g 3 * @ 1 3 3 3 1 - - = - + . + + # - # O O + O O + + O O O O p.p.p.p.p.p.p.p.p.p.p.",
"p.p.p.p.p.p.p.p.p.p.p.* - # + + X o - - - - = - 1 1 < b g 0 & @ 1 3 1 1 - - - - * X X @ + * = @ + + O + + O + O O O O p.p.p.p.p.p.p.p.p.p.p.",
"p.p.p.p.p.p.p.p.p.p.p.p.- & + + o X * - - - - = * - < c g 3 * @ * - - - - - - - @ . O + @ = * O O + + O + O O O + O o p.p.p.p.p.p.p.p.p.p.p.",
"p.p.p.p.p.p.p.p.p.p.p.p.* = + @ o X o - - - - - - = , c r 2 & @ * - - - - - - * X X + + # - # O + O O + O + O @ O O p.p.p.p.p.p.p.p.p.p.p.p.",
"p.p.p.p.p.p.p.p.p.p.p.p.& = # + o o   & - - - - - - > c q 3 # @ * - - - - - - o X o + + * = + O O O + O + O + O O O p.p.p.p.p.p.p.p.p.p.p.p.",
"p.p.p.p.p.p.p.p.p.p.p.p.p.= * + @ o X X * - - - - * - g 0 1 @ @ * - - - - - # . X + + # - $ O O + O O + O + O + O p.p.p.p.p.p.p.p.p.p.p.p.p.",
"p.p.p.p.p.p.p.p.p.p.p.p.p.* - @ @ o o X o = - - - = = r 3 - o # * - - - - # . X + + + $ - + O + @ O + O + O O O O p.p.p.p.p.p.p.p.p.p.p.p.p.",
"p.p.p.p.p.p.p.p.p.p.p.p.p.p.* * o @ @ o   o = - - = # = = & # # * - - - # . X o + + @ = $ O + O O + O + O + O O p.p.p.p.p.p.p.p.p.p.p.p.p.p.",
"p.p.p.p.p.p.p.p.p.p.p.p.p.p.* - @ o @ o o . o = - - = & & & = & - - - # . X o @ + + $ = @ + O + O O + O + O + O p.p.p.p.p.p.p.p.p.p.p.p.p.p.",
"p.p.p.p.p.p.p.p.p.p.p.p.p.p.p.* = @ o @ o o . X # = - - - - - = - * + . . o + + O @ = $ O O + O O O O + O + O p.p.p.p.p.p.p.p.p.p.p.p.p.p.p.",
"p.p.p.p.p.p.p.p.p.p.p.p.p.p.p.# = & o @ @ o o .   X @ & * * & # o .   X o @ + + + $ = O + O + + @ O O + O + o p.p.p.p.p.p.p.p.p.p.p.p.p.p.p.",
"p.p.p.p.p.p.p.p.p.p.p.p.p.p.p.p.= = & o o @ o o X .     . X X     X o o @ o @ + # = @ O + + O O O O O + + O p.p.p.p.p.p.p.p.p.p.p.p.p.p.p.p.",
"p.p.p.p.p.p.p.p.p.p.p.p.p.p.p.p.p.= = @ @ o o @ # o o X X X X X o o @ @ @ o o # = @ O O O + + + + + + O + o p.p.p.p.p.p.p.p.p.p.p.p.p.p.p.p.",
"p.p.p.p.p.p.p.p.p.p.p.p.p.p.p.p.p.p.= = & @ @ @ o o @ o o @ o o @ @ o @ o @ @ = % + + + O + O + O O + + o p.p.p.p.p.p.p.p.p.p.p.p.p.p.p.p.p.",
"p.p.p.p.p.p.p.p.p.p.p.p.p.p.p.p.p.p.# - * # @ + + + o @ + + @ o + + + + @ # - * + + + + + O + O + O O O p.p.p.p.p.p.p.p.p.p.p.p.p.p.p.p.p.p.",
"p.p.p.p.p.p.p.p.p.p.p.p.p.p.p.p.p.p.p.# - - # @ + @ @ + + + o @ + + + @ * = & + o + + O O + O + O + O o p.p.p.p.p.p.p.p.p.p.p.p.p.p.p.p.p.p.",
"p.p.p.p.p.p.p.p.p.p.p.p.p.p.p.p.p.p.p.p.p.* - * # @ @ + o @ @ o @ # # - = # X X o o o + O O + O + O o p.p.p.p.p.p.p.p.p.p.p.p.p.p.p.p.p.p.p.",
"p.p.p.p.p.p.p.p.p.p.p.p.p.p.p.p.p.p.p.p.p.p.* - - = * & & & & * * - - * o . . .   . . . . X X X o o p.p.p.p.p.p.p.p.p.p.p.p.p.p.p.p.p.p.p.p.",
"p.p.p.p.p.p.p.p.p.p.p.p.p.p.p.p.p.p.p.p.p.p.p.p.* * - - - - - - - # + .   . . .           . .   p.p.p.p.p.p.p.p.p.p.p.p.p.p.p.p.p.p.p.p.p.p.",
"p.p.p.p.p.p.p.p.p.p.p.p.p.p.p.p.p.p.p.p.p.p.p.p.p.p.@ # * & # @ X . . .       .   . .     p.p.p.p.p.p.p.p.p.p.p.p.p.p.p.p.p.p.p.p.p.p.p.p.p."
};
