/* XPM */
static char *ede6b047450748f3eaacb10be2c548a6RgwYaTG6O1onZy7Q[] = {
/* columns rows colors chars-per-pixel */
"70 70 125 2 ",
"   c #211D18",
".  c #28231D",
"X  c #362E24",
"o  c #393126",
"O  c #373129",
"+  c #3E362B",
"@  c #41372C",
"#  c #42392D",
"$  c #453C31",
"%  c #493F32",
"&  c #4D4234",
"*  c #4F4538",
"=  c #514535",
"-  c #574837",
";  c #514739",
":  c #554A3C",
">  c #5A4E3E",
",  c #5E513F",
"<  c #61523F",
"1  c #574D42",
"2  c #5B4F40",
"3  c #5E5142",
"4  c #635644",
"5  c #665847",
"6  c #695A46",
"7  c #625648",
"8  c #665949",
"9  c #6B5D4B",
"0  c #715F4B",
"q  c #6F614E",
"w  c #73624E",
"e  c #78654F",
"r  c #6F6352",
"t  c #746552",
"y  c #796751",
"u  c #766854",
"i  c #7B6B55",
"p  c #756958",
"a  c #7D6D59",
"s  c #7F705C",
"d  c #806E57",
"f  c #816F59",
"g  c #847057",
"h  c #84735D",
"j  c #89765C",
"k  c #8D795F",
"l  c #907B5F",
"z  c #857561",
"x  c #887761",
"c  c #877965",
"v  c #8B7A63",
"b  c #8D7D69",
"n  c #927E64",
"m  c #907F6A",
"M  c #8F806C",
"N  c #968166",
"B  c #988367",
"V  c #94826A",
"C  c #9B866B",
"Z  c #9E886D",
"A  c #978570",
"S  c #998771",
"D  c #9A8871",
"F  c #9C8970",
"G  c #9D8A71",
"H  c #9E8A70",
"J  c #9F8C73",
"K  c #9C8A74",
"L  c #9F8C75",
"P  c #9F8E78",
"I  c #A08A6F",
"U  c #A08A70",
"Y  c #A18C71",
"T  c #A18D72",
"R  c #A28C72",
"E  c #A28D72",
"W  c #A28D73",
"Q  c #A48E73",
"!  c #A48F73",
"~  c #A38F74",
"^  c #A58F74",
"/  c #A48F76",
"(  c #A18F78",
")  c #A59074",
"_  c #A49075",
"`  c #A59075",
"'  c #A69175",
"]  c #A59176",
"[  c #A69277",
"{  c #A89277",
"}  c #A1907A",
"|  c #A49178",
" . c #A69178",
".. c #A59279",
"X. c #A79378",
"o. c #A89378",
"O. c #A8937A",
"+. c #A89479",
"@. c #A8947A",
"#. c #A9947A",
"$. c #A9957A",
"%. c #A9957B",
"&. c #A8947C",
"*. c #AA957C",
"=. c #AA967C",
"-. c #AB967C",
";. c #AB967D",
":. c #AB977D",
">. c #AB977F",
",. c #AC977E",
"<. c #AC987E",
"1. c #AD997F",
"2. c #AD9980",
"3. c #AE9980",
"4. c #AD9A81",
"5. c #AF9B82",
"6. c #B09C82",
"7. c #B19D83",
"8. c #B19D85",
"9. c #B29E86",
"0. c #B39F86",
"q. c #B39F87",
"w. c #B4A087",
"e. c #B5A189",
"r. c #B5A28A",
/* pixels */
"$ 9 9 9 9 9 9 9 9 9 9 9 9 9 9 9 9 9 9 9 9 9 9 9 9 9 9 9 9 9 9 9 9 9 9 9 9 9 9 9 9 9 9 9 9 9 9 9 9 9 9 9 9 9 9 5 8 9 9 9 9 9 9 9 9 9 9 9 9 : ",
"5 ! ^ ` Z c K ` ^ ^ ! ! ` ` _ ` ) ` ` ` _ ` ` ` ` ` _ _ ! ! ^ ~ ~ ` ` ` ` ` ` ` ! O.^ ) ` ` ` ) ` ` ` ` ^ ! ` h 9 ~ ^ ^ ` ^ ^ ~ f h ^ ^ m a ",
"5 H C ..h & z &.....O.O.O.%...+.....` %...%.%.+.&.+...+.O.O...H C C K ....%.%.%.%.%.%.O.%.%.%.O.O.%.%...` O.` Z n ~ E ^ ~ ~ ~ C > 4 C ~ ~ c ",
"5 H D V C p C ..O.O.O.O.O...+.+.+.%.%.&.+.&.+.+.+.&.+.&.%.%.%...&...&.&.,.<.&.O.%.<.&.,.&.<.,.%.%.%.%.%.%.%.` O...` ..` ..^ ~ ~ m m ~ H ^ c ",
"5 N v h v C C H ~ ! ~ ^ ! ` ` ` ` ` ` ` ` ` ~ H H ` ` ` ` ` E ` ` ` ` ^ ` ` %.O.O.<.,.&.&.%.~ ~ { ) ` %...` { ` ` ` ..~ ^ ^ ~ ^ V v ~ 8 u c ",
"8 i 4 t } p S &.&.4.4.&.<.<.,.4.4.&.%.<.<.&.&.v p ~ <.,.&.4.4.4.<.<.&.,.<.<.<.6.4.6.4.4.4.&...&.%.,.<.,.,.%.%.%.&.&...C ~ &.&...r V ^ u a c ",
"5 V t z q.V a 4.6.A b 4.4.4.<.4.<.4.4.<.4.5.4.2.&.,.4.4.4.4.<.4.4.4.<.4.4.4.4.4.<.4.,.4.4.,.4.4.<.,.<.<.<.4.<.<.4.&.( 4 f 4.K ~ ..O...E ` v ",
"5 Z ^ ^ q...t a 4.2 $ K 6.6.6.q.6.q.6.6.q.<.` ~ ..` O.%.+.%.O.O.O.O.O.O.O.O.O...%.O.&.%.,.&.&.4.,.%.&.<.%...&.%.&.&...v V h 1 K O.~ ~ ~ ..v ",
"5 Z E ` q.%.v , 8 7 3 v m b b V b b M V V b b b M M M M M M M M V V b A b b b b b b b b b b b b b b b b b b b b b b b b z & 7 a ..O.! ~ O.v ",
"5 Z E ` q.` y y o @ - 6 5 5 6 8 9 # O # * 1 1 3 3 3 q 3 r 3 r 3 8 8 * % 2 2 2 4 3 4 3 4 8 9 9 8 8 8 8 9 2 : 4 6 4 4 > > $ 9 8 8 ` ..` E &.v ",
"4 Z J ) w.c # , 4 = 9 w g j j j N h + & 9 9 a h M M M M s c M j c c 7 & j h x h x c v m C N N x b v c v u t c n v h a w > a H N &.%.~ E ..b ",
"5 C E E w.P w g t 4 y w j j l v j B b & 4 q h h h S D S h c V V V K t + v v n v m E V U ..H V z H H C V u f n Z ` V h p , p ..} O.&.^ ^ o.v ",
"4 C Z ` w.<.B B y < y d j l l N k j Z V * 3 s z c K L V M V J _ ( ..p $ N B V S O.O.E O.q.O.h u C ^ ~ D a v H ..&.Z j z 4 p ` %.O.%.! E ..c ",
"5 Z Z _ w.&.B B e < g g j l N B Z n j Z M & q z M L } S Z P _ _ ^ ..a : H E H ..&.O...q.q.4.v p S &.` K h n ^ &.&.) z z 5 u ` { ,.O.^ ^ ..v ",
"5 Z E E w.,.B B e < j N N l N N Z J N k J M & q c K } K _ P _ _ ....h 8 ^ U ~ ..,.&.,.e.q.w.b z K <.~ ~ h n ..<.4.} z j 4 i o.o.,.&.^ ! O.c ",
"4 Z H +.e.<.B B e < j l C l l N C E Z B k J b $ u M A A Z _ _ _ ^ ..x u E K H ..&.&.<.e.e.q.V N ..4.~ _ h n O.&.%.( j h 4 u { <.4.4.^ ^ O.c ",
"4 Z E ..e.,.B B w < N i N N w N N B ) I B N Z N $ r M M N E J _ ` ..M h J E E ..&._ K w.w.w.b V ..4.D ` a n ..&.<.` j z 4 i ^ 4.6.<.^ ` ,.v ",
"4 C U ~ e.4.B B e = i N g N e < N N B ) I B N Z M $ u M M V Z _ _ ` V h E J J ..2.K A e.w.w.b V &.4.~ ..h v ..&.%...x z 3 i ..&.4.4.` O.4.v ",
"5 C U E e.4.B B w & < i w y N < < N N B I I N N D s $ r h h B _ } ` V z E Z J +.2.~ D e.w.w.A D &.4.~ ` h v %.4.&...x j 3 i ` <.4.4...` &.c ",
"5 U U U e.4.B U e = < , e N N g , 6 N N Z Z B N N Z z $ u M V _ _ +.C h E L J _ &...H w.w.w.V D &.4.~ ..j v %.&.&.%.x z 4 i ..<.6.4.` ` &.v ",
"5 Z Z ^ e.6.C B y & 6 6 > N N g N , < N B Z I I B N C s $ q M E _ _ C z E J J ` 2.%.%.e.w.w.V C &.4._ _ z c +.&.&.} c z 3 i ..,.4.6.^ ` 4.c ",
"5 Z U ^ e.q.I B w & w y > ; j N s N 6 6 N N Z I E B N B h & u V V C C s E J E ` &.&.<.e.w.w.D Z ( 4.` ..v n %.&.4._ k h 4 i %.&.4.4.^ ` 6.c ",
"5 Z U O.e.<.B I w & w i q - & j N N N w w N B Z Z E N N D h ; h v V A a J J J ` &.&.4.q.w.w._ H &.4.K K s n ^ &.%...v j 4 u ` &.<.4.` ^ ,.b ",
"5 U U <.e.6.C B w & i h i w > + i N y N N i N N C J C N N Z s - s c b p Z Z J E %.&.4.w.w.e.&.J &.4.~ H u n ` 4.4.` v h 4 i ` +.,.4...^ 4.c ",
"5 U E &.e.w.Z C w & i k a h s q & s N N N N N N B Z I I B N C N : p j r v Z J ` +.&.4.w.w.w.2.E } 4._ E p n ` &.&...v h 4 i ` ` <.4.~ ~ 4.c ",
"5 Z U ,.e.q.C C e & i k i 8 g N w = = N i N Z B N B Z I I C N Z v 4 a q v C E } +.&.<.e.w.w.&.E { 4.~ K h N +.&.&.+.h z 4 i _ ` ,.O.V ^ 6.v ",
"5 Z U ^ e.6.B C i = i n h ; 3 j N 6 X 6 N N N B B N B C I I B N E b 4 9 k V H E ..%.&.w.w.w.<.E %.4._ _ v n %.<.<.%.v j 4 i _ _ 4.( j ` 4.b ",
"5 Z U ^ e.<.I I i & i k j 3 4 s B y - & y N g N Z B N B Z I Z Z v I M 5 t b V Z ` %.&.w.w.w.&.E } 4.E ` V N ` &.&...v z 4 u _ _ 4.A h ..6.c ",
"5 Z U ..e.q.I C g & i N j u j Z E s w < < w N y N Z B N N C I I B n E V 9 h v N ` ....q.w.w.<.Z %.4.L ~ V n ..&.&.&.v z 4 u _ } 4.b x ..4.b ",
"5 Z U ^ e.4.B I g & i v j a v E ` s y i h w q N N N C B N B C Z U B v Z V 3 u b Z ` E <.w.e.&.J &.4.P ` C n } %.&...v j 8 i ) %.4.v V ` <.c ",
"5 I U ^ e.<.Z C d & i k j k N ) ` M e i N i w 6 g g N B B N B C U E B n ..v # w v B C <.w.w.2.L &.4._ _ M n ` &.<...v h 5 i X.<.4.v S ^ 4.b ",
"5 S U ^ r.q.B I i = i l k M C ) %.M y s N N i w < N g N C B N N C I U Z n H z X 9 c V ` w.w.&.P ( 4._ _ v n %.<.&.&.v j 5 p +.<.4.z N ..4.c ",
"6 Z ) ) r.1.C C i & i k j N C E %.v i h / N j f 6 9 n h l C B n N C I E C l E s . 3 m E %.q.%.E ..4.E ` a n ..,.&.%.v z 4 p ..,.4.u h O.6.v ",
"5 Z Z ) r.<.C Z g & u M v N ) _ %.c y j &.Z n v g > g B d l I B l i B I I C n ` a   1 E E &...J %.4.( ~ u n ..&.&...v j 8 u O.%.4.a 9 O.<.v ",
"5 Z ) ) r.1.C Z a = u k M N ) ) O.a y v ,.V C V m f 4 v B j n B B g l Z U I B n ` s . 4 E ~ ~ E } 4.~ ~ t v ..,.,.%.v z 6 u <.<.4.z 8 ..4.v ",
"5 Z ) X.r.1.N B g = i h N N Z ) ,.p y v &.H H H U n i 6 n B j k C B N N Z E E B n H b O 4 J J J &.4.~ ~ w v O.&.&.%.v j 6 i <.<.<.V a ` 4.b ",
"5 Z ` X.r.<.s g i & i N N N E ) &.u t v &.H H K ^ n n f > j B j l C N N N C I I B n Z S % 8 E U } ..J E r v ` ,.&.&.v h 9 i <.,.<.` H ^ <.c ",
"5 Z _ X.e.w.i i g = y N v N J ) %.t y v &.H ~ U ..U C v y > h B j l I N N N I I I B y H ( > 8 z L H J J q k ` &.&...v z 5 p <.<.,.%.^ ` 4.v ",
"5 Z _ X.r.<.y u i = i N M N E _ ..t y v &.^ ..^ &.( H B f y 4 j N j l C B l N I U E C n ` _ 4 > V J J ~ p v O.,.&.&.v j 9 i <.,.<.&.^ ^ &.v ",
"5 Z ` X.e.<.N N i = i N N B ) ` &.t e v 4.K ^ O.<...U E v f f y k N g l I C n C U E Z N n _ ..6 w E E E h n O.%.&...v h 5 a <.%.<.&...^ 4.c ",
"5 Z ^ O.e.q.B Z i - g N v B ` ` &.i e v ,.U _ 4.2...^ ~ n j h f 0 v B g n C B B C I I I C n ` ` 3 a H U u n ..&.<...x j 8 i ,.&.<.&.O.` %.v ",
"5 Z %...e.4.Z I i = i N M N Z ) &.a y l ,.Z ( 4.4.....~ B m C m i 6 k B g n C B N C ! I I B n { A $ w x 8 x ` &.,...v z 8 p ,.%.<.,.O.! &.v ",
"5 Z _ &.e.<.C Z i = i N N N E E &.z u v 4.H ~ 4.4.O...~ C Z ! U j i 4 j B w j Z B N C I I I B n ..p + t 5 f ^ &.&...x j 5 i %.O.,.&.` ~ &.c ",
"4 Z _ +.w.w.C C i = i v N N ! ` &.c i v 4.H K <.&.....~ C V ^ ..H j 9 $ x n g n C B B C I I I B n E 7 % 5 t C ( ....x z 5 a O.! ,.&.^ ! ..v ",
"5 Z ` :.e.w.B Z i = d n n N E ! O.v d v &.C K 4.&.....~ V Z ^ &.O.n i < = j B j l I N N I I ! I B n Z 8 $ t v S ~ ..z j 5 a %.^ %.O.! E ^ v ",
"5 Z X.o.e.e.C C y = i n n N E ! &.m y v 4.S K 4.2...O.~ Z S U ^ &.C z w 0 & x B j n I C N C I I I B n U u ; p b S ( j z 5 u ..^ ,.O.! ! ^ c ",
"5 Z o.%.r.<.C Z d = a v m V ! ! %.V i j ,.Z ^ 4.2.&.&.^ Z Z ^ &.&.H V t h w & j B j n I C l l I E I B N ^ b 3 t m A v h 4 i ,.! ,.O.^ ^ O.c ",
"6 I o.%.e.w.N E a = i b N B ! ^ %.b i v &.H K 4.4.,.&.^ V Z ^ O...U v i x j t & k C j n I C d j I U I N n ..( 3 3 c h a > i &.! ,...U ^ ^ x ",
"8 Z +.+.6.w.C C d = i N N V ` ` %.V y j ,.I C 4.4.` &.~ V U ..O.%.H M i N M v q & v Z v n I I p g E I I B n O.O.> 4 t w > i ,.^ <...` E ^ c ",
"5 Z +.+.w.e.Z C i = i N v N ) ) O.m y c ,.m h <.4.( ..~ Z U O.O.` ` h i D C C h w ; n B j n I Z p j ! U I B n O.( 3 9 0 > p O.^ <.` ) ! ^ c ",
"8 Z +.&.w.6.I B i = i v N B Z ` -.v e v O.h p 4.2.....~ B U O.O.&.` h u Z Z D V k q - N C k l Z I d n E E I n e ! K 8 9 > a O.^ <...E ~ O.c ",
"5 H +.+.w.w.B U d = g N M C ) ` O.c e v ,.h u 4.&.( ~ ~ Z H O.O.+.` M i K K H D B v w , n C k k Z I C I U E U y > Z V 1 = a &.^ &.` ^ E ^ c ",
"5 Z O.%.q.w.U C i = i v N ) E _ O.v t j 4.h p ,.2.^ E ..C H ..O.+._ C r Z K Z H J Z v t > n Z j j C I I I I I I 6 < N j @ p &.` ,.` ^ ^ ^ c ",
"5 Z ..%.q.e.C H g = a M N ) ) ) -.c 0 v ,.v a O.2.} ..` C Z ..O.+._ K 8 D K H H J H D Z s > v Z j j I I I I I I Z 6 e N p f %.) ,.O.^ E O.x ",
"8 Z ^ O.q.e.C C g = i N B _ Z ` O.f 0 x ,.m h ( &...` ..C D ..O.+._ J 8 D Z K Z Z K V D L j : j I j n I ! I I I I B j j t d -.) ,.^ ! ^ ^ c ",
"6 Z ..O.w.5.C Z a = i N N Z Z _ O.t 0 x 4.V x U &...` O.C C ....X.E J 8 Z K Z K J K h C H H a = h C j n I I I B E B n j 9 a %.! 4.^ ! ^ ^ c ",
"5 Z X.%.w.w.Z C g = i N N B Z _ ! 5 0 j / V m R O.^ ^ { U U ~ ..X._ V 9 Z H D Z H K h b J H n t & d C j k C I n N N j j 0 g %.! ,.` ^ E ` v ",
"5 Z ` +.w.w.C C a = i j j M I Z U 9 0 x ^ m C U { ! ! ^ m m U ^ _ Z n q V S J K H S t b H H n h w # d B j j n n j j j j < g %.) ,.O.E ^ ` c ",
"5 Z X.+.w.w.C C g = u g s N N N m w 0 d B x n n U C m n n v m U V V j 6 v M C Z Z C p D D K b i f w $ d l g g k j g j y 4 a ..) &...^ U ..c ",
"5 Z +.+.w.<.Z C a = q i i s h N j 0 6 d n f n j m n n v d h x n v h i 5 f j x x j v f n C V j g f f 4 # e j j j j j d 0 0 a ` E 4.^ ^ ~ ` c ",
"8 Z X.+.5.5.q t i & - - > , , q 6 - % - 6 4 6 6 6 6 6 8 5 5 5 8 5 5 4 = < 4 5 5 6 6 5 9 8 5 5 4 4 > & $ @ 9 9 9 9 9 9 9 > u B t V ..^ ~ ^ c ",
"4 C X.+.w.} & 4 a s a h s M s s x j x x z z x j x x z x x x x x x z h z z f z z z z z h z z h z h h z h h z z z j h j s i h v t z ^ ~ E ..v ",
"5 Z ` +.6.<.k w , q C ) ) %.%.` ! ! ^ ! ^ ^ ^ ^ ^ ^ ^ / ^ ^ ^ ^ E ^ ^ ^ ^ ! ! ^ ^ E ` ` ^ ^ ^ ` ^ ^ ~ ~ ` ` ` ` ` ` ` h w h q N ^ ~ ! E ` v ",
"4 Z _ +.w.%.y B u u C C C C C C I n I U m U U n U U m U B I B B I C B I B I B Z Z C Z Z Z Z Z E E E U ~ E E E E Z Z U v t v h t O...^ ! O.c ",
"5 N V +.2.h a B I I C I I I I C I Z I Z I Z C Z C C C C I C C C C C I C I I I I C I B B n B C Z Z Z I I E E E E E ~ ^ ^ E E ^ x c O.^ v N c ",
"4 w 1 V s b Z Z I I I I ! I E ! ! ! O.O.{ { ` ) %.{ %...O.%.{ -.%.O.{ O.%.! O.%.I C V t : 4 t b O...O.O.{ ` ` O.+.%.%...O.` ! ` C K ` a t z ",
"5 N t 3 h ` _ E ! ! ! I ! ) ! ! E ) %.%.O.O.%.O.O.%.` %.-.O.,.-.-.-.-.-.-.O.,.&.,.4.<.&.S S ..&.%.%.,.&.&.%.%.+.&.&.&.&.%.%.O.%...K ~ v z c ",
"5 v 9 4 5 Z E E ! ! ! I I ) ! ! ! E ) ! ! ! ! ! ! ! ) ) ! ! ! ! ! ! ! I ! ^ ! ! ^ ....&.O.^ E E E ! ! E E ! ! ! U _ ` ^ ! ~ E ` v 3 x a U c ",
"< 9 n N k C Z Z I I B I C I C Z Z Z Z I C I I C I I I I C I B I I B I I I I I I ^ ^ E ! ^ ^ ^ ~ ~ ^ ~ ~ ^ ^ ~ ^ ~ ~ ~ ^ ~ ~ ~ ^ m 8 V v a z ",
"o 9 h g a i i w e e e e e e e w e e e e d i d i i d e d i e e e e d e e e e d e a a h f h f h a f f f h h f a h z f f a f h f h f p f f 9 : "
};
