/* XPM */
static char *_fa22c144b51467dc25b221995a9d6509u5YZgOj0Cn6a5Nl[] = {
/* columns rows colors chars-per-pixel */
"70 70 161 2 ",
"   c None",
".  c #9E2E19",
"X  c #A12F19",
"o  c #A4311A",
"O  c #AC341B",
"+  c #B1371B",
"@  c #B5391C",
"#  c #BD3D1D",
"$  c #BC3E20",
"%  c #C13F1E",
"&  c #B1421B",
"*  c #BD461D",
"=  c #BB4B1C",
"-  c #C4401E",
";  c #CB431F",
":  c #C14E1D",
">  c #CE4B1F",
",  c #D2471F",
"<  c #D4491F",
"1  c #C5511E",
"2  c #CC541E",
"3  c #CB5B1E",
"4  c #D1541F",
"5  c #D05C1F",
"6  c #D5661F",
"7  c #C44221",
"8  c #CB4521",
"9  c #CD4921",
"0  c #D34720",
"q  c #D64920",
"w  c #DB4B21",
"e  c #D55521",
"r  c #DC5221",
"t  c #D65A21",
"y  c #DC5A21",
"u  c #DA5029",
"i  c #E04D21",
"p  c #E45122",
"a  c #ED5323",
"s  c #E25D21",
"d  c #ED5C23",
"f  c #F05523",
"g  c #F15B23",
"h  c #D16020",
"j  c #DB6620",
"k  c #DC6E20",
"l  c #DE7120",
"z  c #E56123",
"x  c #E86122",
"c  c #E96222",
"v  c #EA6222",
"b  c #EB6222",
"n  c #EC6122",
"m  c #EC6222",
"M  c #ED6322",
"N  c #EE6322",
"B  c #EE6323",
"V  c #E96522",
"C  c #EA6622",
"Z  c #EC6522",
"A  c #ED6423",
"S  c #EE6422",
"D  c #EE6423",
"F  c #EF6523",
"G  c #ED6622",
"H  c #EC6722",
"J  c #ED6722",
"K  c #E96325",
"L  c #E86326",
"P  c #E86427",
"I  c #EC6424",
"U  c #ED6424",
"Y  c #EF6524",
"T  c #EB6322",
"R  c #E56E21",
"E  c #E86922",
"W  c #E16028",
"Q  c #F16023",
"!  c #F16123",
"~  c #F26323",
"^  c #F06423",
"/  c #F06523",
"(  c #F16523",
")  c #F26423",
"_  c #F26523",
"`  c #F16623",
"'  c #F16723",
"]  c #F26623",
"[  c #F36623",
"{  c #F26723",
"}  c #F36723",
"|  c #F26623",
" . c #F16823",
".. c #F26823",
"X. c #F36823",
"o. c #F26923",
"O. c #F36923",
"+. c #F06A23",
"@. c #F26A23",
"#. c #F26B23",
"$. c #F36B23",
"%. c #F06C23",
"&. c #F36C23",
"*. c #F36D23",
"=. c #F36E23",
"-. c #F36F23",
";. c #F46E23",
":. c #F46F23",
">. c #F36B23",
",. c #E37321",
"<. c #E87322",
"1. c #E77A21",
"2. c #EC7D22",
"3. c #F37023",
"4. c #F37123",
"5. c #F37223",
"6. c #F37323",
"7. c #F47023",
"8. c #F47123",
"9. c #F47223",
"0. c #F47323",
"q. c #F37423",
"w. c #F47423",
"e. c #F47523",
"r. c #F47623",
"t. c #F47723",
"y. c #F57723",
"u. c #F47423",
"i. c #F47823",
"p. c #F47923",
"a. c #F47A23",
"s. c #F47B23",
"d. c #F57B23",
"f. c #F47C23",
"g. c #F57C23",
"h. c #F47D23",
"j. c #F57D23",
"k. c #F57E23",
"l. c #F57F23",
"z. c #F47B23",
"x. c #EF8124",
"c. c #F58023",
"v. c #F58123",
"b. c #F58223",
"n. c #F58323",
"m. c #F58423",
"M. c #F58523",
"N. c #F68423",
"B. c #F68523",
"V. c #F58623",
"C. c #F58723",
"Z. c #F68623",
"A. c #F68723",
"S. c #F58423",
"D. c #F68823",
"F. c #F68923",
"G. c #F68A23",
"H. c #F68B23",
"J. c #F68C23",
"K. c #F68D23",
"L. c #F68C23",
/* pixels */
"                                                          W W L z K L L L s p u u                                                           ",
"                                                  W L Y Y S [ [ [ [ [ S | | g f a a a p w                                                   ",
"                                            W L S [ [ [ [ [ [ [ [ [ [ [ | Y g f f f f f a a p w                                             ",
"                                        L K [ [ [ [ S -.6.q.p.p.p.q.q.q.7.=.%.g f f f f f f f f a p                                         ",
"                                    L Y [ [ [ @.6.h.M.L.L.L.L.L.L.L.L.G.G.m.m.n.e.@.! f f f f f f f a u                                     ",
"                                y S | | [ @.e.M.L.L.L.D.M.M.k.p.i.e.7.;.4.4.4.7.-.6.e.q.} g f f f f f p w 9                                 ",
"                              s S [ [ @.q.C.L.L.L.D.b.6.-.[ [ [ S c K N U U | | g g f g ! X.} g f f f a i i q                               ",
"                          e s Y S [ -.b.D.L.L.M.h.6.@.c s t 2 1 : : : : = 1 1 2 < < a f f f g g g f f f i i i w 9                           ",
"                        t s Y | X.e.F.F.M.k.9.@.g 5 2 : = : = = = = 1 : : = = = & o o # , i f f f f f f i i i i w 0                         ",
"                      t s K | >.c.F.k.9.;.[ c 4 : = = : 2 4 5 s N S S J S C V y 2 @ o . . O - i f f f f p i i i i i q                       ",
"                    t s z | =.m.Z.9.[ [ c 4 = = = 2 5 ! } ;.s.k.n.m.m.G.M.D.M.M.k.@.p , # o X o % p f f a i i i i i u q                     ",
"                  t s s N 4.m.n.;.} } 5 : = = 4 s [ ;.s.M.F.L.L.L.L.L.L.D.M.k.e.6.[ g d f < % o X O % i i i i i i i i i q                   ",
"                9 y s c -.M.k.@.[ b 2 = = 2 x [ 9.b.F.F.L.L.L.L.L.G.k.e.;.@.@.[ g f f f f f f i # X . + , , , i i i i i w 8                 ",
"              8 < y z J M.s.@.[ b : = = 5 [ @.k.F.K.K.K.L.D.L.M.i.=.[ c e t t 4 4 f f f f f f f a , o X O % % , q i w i i q 7               ",
"              < w r C b.s.X.[ s : = 2 b [ 9.M.F.F.K.K.F.L.M.e.@.| | U 2 3 3 3 1 ; f f f f f f f f f i @ . X % ; 8 q w i i w 8               ",
"            0 w w < p.s.[ } s = = 2 m X.d.F.K.K.K.K.K.M.q.@.[ [ | | e l j < = - ; f f f f f f f f f f a # X o % 8 8 0 w i i 0 7             ",
"          8 q q < d s.} } s = = 5 ! -.M.L.L.L.L.L.C.p.-.[ [ [ [ [ 4 R y.i % o % % f f f f f f f f f f f i # X o % % , , i p w % 7           ",
"          q q w < [ Q } N 1 = 4 [ @.k.L.L.L.L.L.b.-.[ S S [ } } 4 6 y.f i % o % , f f f f f f f f f f f a < + X + % % w % p a % 7           ",
"        8 < w q 4 g f d 2 = 1 ! @.b.L.L.L.L.D.s.[ [ [ [ [ [ [ r 6 k.f f i % o % % f f f f f f f f f f f a i q @ X + % % % i i % ; 7         ",
"        q w q q p f f - & : s X.h.D.L.L.L.b.6.[ [ [ [ [ [ [ 5 6 N.~ f f i % o % , f f f f f f f f f f a i i i % o o % % w % i % 0 ;         ",
"      8 < q , w a f < X O 5 [ s.L.L.L.L.b.@.[ [ Q } } } [ s 5 M.;.f f f i % O % % f f f f f f f f f f a i i i q % X X % % i % w 0 ; 7       ",
"      8 w q , i f p @ . # a 6.L.L.L.L.p.@.[ [ [ } } } } s 3 x.@.f f f f i % O % , f f f f f f f f f f i i i i i % O X o % % % % ; ; -       ",
"    - 0 < , ; p f % X o i Q D.L.L.L.p.@.S [ [ S } } } s 2 2.d a f f f f i % o % % f f f f f f f f f a i i i i i i % o X % % i % , ; - $     ",
"    7 ; , - < i < o X % g k.L.L.L.p.@.[ [ [ [ [ } O.s 2 2.C , a f f f f i % o % , f f f f f f f f a i i i i i i a % + X o % % w ; 8 - %     ",
"    ; ; ; # < p % X X i 9.D.L.L.h.g g g ! } [ [ X.N 2 1.c ; # p f f f f i , o % % f f f f f f f f a i i i i i i i i % O o + % % , - - -     ",
"  7 ; ; % % < < + X @ f M.K.L.M.g a f f f g g g d 2 ,.E , + @ p f f f f < % o % , f f f f f f f a i i i i i i i i i % @ X O % % ; - - - $   ",
"  8 0 ; @ % < % o X < O.L.L.D.[ f f f f f f f f > ,.E , @ + % 4 f f f f i % O % , f f f f f f f i i i i i i i i i i % % X X @ % ; - - - %   ",
"  - 0 - @ % ; @ X o a d.L.L.p.f f f f f f f a 4 l R , # + % % l [ f f f i % o % % f f f f f f a i i i i i i i i i i i % X X O % - - - - -   ",
"  ; ; - @ - - O X @ d M.L.D.! f f f g f f f < 6 ,., - @ # , < l ~ a f f w % + % % f f f f f i i i i i i i i i i i i a % O X O O # - - - -   ",
"7 ; ; % @ - % o X % -.L.L.e.f f f f a f f < - 5 - # % # ; f i l [ f f f < % O % % f f f a i i i i i i i i i i i i i i i @ X o O @ - - - - $ ",
"7 ; ; % + % @ o X , 9.L.D.! f f f f f f f a i p p p p a f f i 1.;.f f f i % O % % f f i i i i i i i i i i i i i i i i % % X o O + - - - - $ ",
"7 , ; # + % @ o X < <.C.k.f f f f f f f f f f f f f f f f f i 1.;.f f f w % o % % f i i i i i i i i i i i i i i i i i w % X o O O # - - - $ ",
"- ; ; # + % + X o , ,.2.d a f f f f f f f f f f f f f f f f i l ;.f f f < % @ % % a i i i i i i i i i i i i i i i i i i % o o O O # - - - # ",
"; , ; @ + @ + . o ; R ,.p a a f f f f f f f f f f f f f f g < l 7.f f f < % O % % i i i i i i i i i i i i i i i i i i w % o X O O @ - - - % ",
"- ; ; @ + @ + X o ; k ,.w i i i a f f f f f f f f f f f f f i l 7.f f f i % o % % i i i i i i i i i i i i i i i i i w , % o X O O + - - - # ",
"- ; ; @ + @ + X o 8 j E i i i i i i p p a a f f a f f a f f < l y.f f f w % o % % i i i i i i i i i i i i i i i i , % w % X X O O O - - - - ",
"; ; ; # + + + X o ; 5 s i i i i i i i i i i i i p i i i i i , l [ f f a % % @ % % i i i i i i i i i i i i i i i w w w w % X X O O + % - - % ",
"- , ; # + + O X o - 4 p i i i i i i i i i i i i i i i i i i , 6 ;.f f f i % O % % i i i i i i i i i i i i i i , % w % % % X X O O + # - - # ",
"- ; ; # + + + X X % > 4 i i i i i i i i i i i i i i i i i i < 6 7.f f a w % O % % i i i i i i i i i i i w i % , w w i % % X X O O O % - - $ ",
"- - ; # + + @ X X # > , q i i i i i i i i i i i i i i i i p < l y.f f a w % o % % i i i i i i i i i i w % i w , w % % % + X o O O O % % - % ",
"$ - - - + + + O X @ ; 0 0 w i i i i i i i i i i i i < i i i < l y.f f f w % + % % i i i i i i i i i w , , , , w w % w % @ X o O O + % - - $ ",
"  - - # + + O O X + ; ; 0 q i i i i i i i i i i i i p p i i < 6 y.f f f i % O % % i i i i i i i i , , , , , , , w w % % O X O O O + - - -   ",
"  - - - + + + O X X ; ; ; 0 w i i i i i i i i i i i i i i i , l 8.f f a i % X % % i i i i i i i , , w , , , , , % % % % X X O O O @ - - #   ",
"  # - - @ O O + X X # ; ; ; 0 w i < i i i i i i i i i i i i , 6 u.f f a % % o % % i i i i i % % , , , , , , , , w % % % X o O O O @ - - 7   ",
"  # - - # O O O O . O ; , ; , w i i i i i i i i i < p i i i , l u.f f a , % O % % i i % w w % i , , , , , , , w % % % O X o O O O # - - #   ",
"    - - * O O + O X X % ; ; ; % , i i i i i i i i i p i i i , 6 8.f f a < % o % % % w , w % w i , , , , , , , % % % % X X O O O + % - -     ",
"    % - % @ O O + X X + % ; , , % , < i i i i i i i i i i i , l u.f f p , % + % % % i , w w % % w , , < , , % % % % O X o O O O @ - - %     ",
"    # - % # + O O o X X % - % % % , , < i i i i i i i i i i , l 8.f f p , % O % % w , , % w w w , , , , w , % % % % X X O O O + # - - $     ",
"      - - % + O O O o . O - - - % % ; ; , < < < i w < w < < , l ~ f f i w % o % # < , < < , , , , , , % % % % % % + . X O + O + % - %       ",
"      $ - - # O O O O . . @ - - % ; % % % % , , , , < , , , ; 6 [ f f i % % o % # , < , , < , , , , , % % % , % @ X X O O O O % - - $       ",
"        % - - O O O O O . o # - % % % ; ; % ; ; , , , , < < - l [ f f i w % o % % , , , < , , ; , % % % % % % % O X O O O + + % - %         ",
"        $ - - # O O O + o o o # ; % % % % % % % % % % , ; , ; l [ f f i i % o % # , , , , - - - % % % % % % % X . X O O O + @ % - $         ",
"          % - % + O O O O o . o % % % % % % % ; % % % % % , - 6 [ f f < , % O % # % ; % - - - - % % % % % % O . X O O O O + % % %           ",
"          # - - # + O O O O o X O % % % % ; % % % % % % % % - 6 g f a < , , O % @ % % % - - - - , % % % % @ . X O + O O + % % % $           ",
"            $ - - @ O + O + o o X O % % ; % % % % % % , % , % s f f i , % % o % # ; ; % - % - - % % % % + X X O O O O + # % % %             ",
"              - 7 % + O O O O o X o o % ; % % % , % % % % % # 5 f a w % , # o % @ % - % - - - - % % % + X X O O O O + + % % %               ",
"              $ % - # O O O O O O X X o + % % % % % , % % % % < f < % , % o o % @ - - - - - - - - + o . o O O + O O O # - -                 ",
"                # - % # + O O O O O o . X O # % % % % % % % # % % % % % % @ @ % @ - - - - - % # O . . o O O O O O O # % - #                 ",
"                  $ - - # O + O O O + o X X X O % % % % % % % # % % % % % % # # # - - - - # O X . . O O O O O O O @ - % #                   ",
"                    $ - % # + O + O O + O X X . o + @ % % % % % % % % % % % % % - - # + O . . . o O O O + O O O @ % - %                     ",
"                      # - - @ + + o + + O + o o o o X X o O # # % % % % % % @ @ + o o . . . o O O O + O O O O @ - - $                       ",
"                        # - - # + + + o O O + + o o o X X X X X X X X o X X X X . . o o O O O + O O O O O O # - - #                         ",
"                            - - % @ + + O + O O O O O O o O o o X X X X X X X o o O O O O O O O O O O + + # - %                             ",
"                              $ % % # + O O O + O O + O O O O O O o O O O O O O O O O + O O O O + O O # - 7 #                               ",
"                                $ % - % # + O O O O O O O + O O + O O O O O O O O O O O O + O O + @ % - % #                                 ",
"                                    # % - - # # + O O O O O O O O O O + + O O O + O O + O O @ # - - % $                                     ",
"                                        $ % - - - # # + + O + O O O O O O + O O O O + @ # # - - % #                                         ",
"                                            $ % % - % - - # # # @ # @ @ @ @ # # # * - - - % % #                                             ",
"                                                  # # - - - - - - - - - - - - - % % % % $                                                   ",
"                                                            $ # 7 # # # # - # $                                                             "
};
