/* XPM */
static char *result[] = {
/* columns rows colors chars-per-pixel */
"70 70 240 2 ",
"   c #1D0100",
".  c #021B02",
"X  c #1D1F09",
"o  c #240202",
"O  c #2B0304",
"+  c #290B0A",
"@  c #390605",
"#  c #2C1414",
"$  c #2F140F",
"%  c #02240B",
"&  c #042709",
"*  c #0A3614",
"=  c #143B18",
"-  c #11270D",
";  c #2C2B13",
":  c #3A2E2A",
">  c #133E20",
",  c #440103",
"<  c #4A0005",
"1  c #4A0309",
"2  c #45050B",
"3  c #500107",
"4  c #4A0B11",
"5  c #4A1317",
"6  c #500710",
"7  c #52122B",
"8  c #4B2828",
"9  c #483A39",
"0  c #543735",
"q  c #631C3E",
"w  c #094617",
"e  c #055A19",
"r  c #0C4F15",
"t  c #03631B",
"y  c #036B1C",
"u  c #036319",
"i  c #03731E",
"p  c #154A21",
"a  c #175927",
"s  c #0E5920",
"d  c #265C2C",
"f  c #295934",
"g  c #314F2D",
"h  c #0C6622",
"j  c #0C6C24",
"k  c #076F22",
"l  c #116A26",
"z  c #146C2A",
"x  c #166428",
"c  c #0E7328",
"v  c #097725",
"b  c #13742B",
"n  c #137C2D",
"m  c #19772F",
"M  c #1B7C34",
"N  c #1A7732",
"B  c #196F30",
"V  c #236A34",
"C  c #237B39",
"Z  c #267839",
"A  c #25692F",
"S  c #2C401D",
"D  c #41483B",
"F  c #6C3352",
"G  c #2E7941",
"H  c #387B48",
"J  c #3F6045",
"K  c #385A41",
"L  c #584847",
"P  c #54524D",
"I  c #635856",
"U  c #634348",
"Y  c #487754",
"T  c #6A6967",
"R  c #73736D",
"E  c #617062",
"W  c #94316C",
"Q  c #A73679",
"!  c #856E78",
"~  c #905F7C",
"^  c #0C8B2C",
"/  c #0B8329",
"(  c #13832E",
")  c #118B2F",
"_  c #1B8335",
"`  c #158C33",
"'  c #1A8B35",
"]  c #1C8C39",
"[  c #198435",
"{  c #149433",
"}  c #1D943A",
"|  c #1D9B3C",
" . c #189637",
".. c #0F9130",
"X. c #22843C",
"o. c #238C3D",
"O. c #2A853E",
"+. c #22943E",
"@. c #219C3F",
"#. c #1EA13E",
"$. c #20A23F",
"%. c #1F9D40",
"&. c #2B8442",
"*. c #2B8C43",
"=. c #278E41",
"-. c #358849",
";. c #259541",
":. c #2A9345",
">. c #239D42",
",. c #2A9B46",
"<. c #2D9C4A",
"1. c #2E9449",
"2. c #33944B",
"3. c #339B4C",
"4. c #38934E",
"5. c #3E8A51",
"6. c #3B9852",
"7. c #24A344",
"8. c #29A346",
"9. c #2CA44A",
"0. c #2CAB4C",
"q. c #27A949",
"w. c #32A44E",
"e. c #31AA4E",
"r. c #35A551",
"t. c #34AB52",
"y. c #3AAB55",
"u. c #3BA757",
"i. c #34B454",
"p. c #3BB459",
"a. c #36B959",
"s. c #3BBB5C",
"d. c #37B857",
"f. c #2EB14F",
"g. c #3EBF61",
"h. c #468957",
"j. c #47965B",
"k. c #53885E",
"l. c #41B55E",
"z. c #41BB5E",
"x. c #42AF5C",
"c. c #578B64",
"v. c #589868",
"b. c #4F9B62",
"n. c #639C72",
"m. c #6B9B76",
"M. c #688F71",
"N. c #54A468",
"B. c #46BC63",
"V. c #5EA671",
"C. c #50B16A",
"Z. c #68A377",
"A. c #66B87B",
"S. c #72A67F",
"D. c #3CC25D",
"F. c #3EC160",
"G. c #3FCA63",
"H. c #44C464",
"J. c #45CA65",
"K. c #46CC69",
"L. c #4BCD6B",
"P. c #49C867",
"I. c #4ED26D",
"U. c #48D167",
"Y. c #50D46F",
"T. c #53D86F",
"R. c #4ED470",
"E. c #4EDC72",
"W. c #52D571",
"Q. c #54DB74",
"!. c #56DC78",
"~. c #5BDC7B",
"^. c #5AD878",
"/. c #53CA71",
"(. c #61D77E",
"). c #5AE17B",
"_. c #57E278",
"`. c #41C35F",
"'. c #3A5D97",
"]. c #2F57A7",
"[. c #476797",
"{. c #526E9E",
"}. c #4E71B1",
"|. c #3768C5",
" X c #4571CA",
".X c #B43C86",
"XX c #CB3B93",
"oX c #B34B8A",
"OX c #9E6E89",
"+X c #AB6A91",
"@X c #D1449B",
"#X c #D957A7",
"$X c #E75EB3",
"%X c #E86AB7",
"&X c #F374C1",
"*X c #7B9B82",
"=X c #7AA785",
"-X c #78B786",
";X c #7D92AD",
":X c #68DC86",
">X c #75D08B",
",X c #68E689",
"<X c #77EC96",
"1X c #7DF19A",
"2X c #5EE181",
"3X c #6599FC",
"4X c #78AAFF",
"5X c #618FE9",
"6X c #878C88",
"7X c #8C9790",
"8X c #A6919B",
"9X c #85A58D",
"0X c #83B18D",
"qX c #88AC91",
"wX c #8CB396",
"eX c #94B69B",
"rX c #96AD9D",
"tX c #96B1AF",
"yX c #A8B7B0",
"uX c #AF8CA0",
"iX c #85C494",
"pX c #80F19D",
"aX c #99C7A4",
"sX c #A4C3A8",
"dX c #B4C9BA",
"fX c #8BF8A6",
"gX c #97FDB3",
"hX c #A9BEED",
"jX c #FA86CB",
"kX c #B8CDC4",
"lX c #AFCFFE",
"zX c #CADBCC",
"xX c #D2EDD8",
"cX c #D8F2DB",
"vX c #CBE6CE",
"bX c #DEF8E3",
"nX c #E7FEEA",
"mX c #ECFAF7",
"MX c #E2FCDF",
"NX c None",
/* pixels */
"NXNXNXNXNXNXNXNXNXNXNXNXNXNXNXNXNXNXNXNXNXNXNXNXNXNXNXNXNXNXNXNXNXNXNXNXNXNXNXNXNXNXNXNXNXNXNXNXNXNXNXNXNXNXNXNXNXNXNXNXNXNXNXNXNXNXNXNXNXNX",
"NXNXNXNXNXNXNXNXNXNXNXNXNXNXNXNXNXNXNXNXNXNXNXNXNXNXNXNXNXNXNXNXNXNXNXNXNXNXNXNXNXNXNXNXNX=XZ.=XNXNXNXNXNXNXNXNXNXNXNXNXNXNXNXNXNXNXNXNXNXNX",
"NXNXNXNXNXNXNXNXNXNXNXNXNXNXNXNXNXNXNXNXNXNXNXNXNXNXNXNXv.-.NXNXNXNXNXNXNXNXNXNXNXNXNXNXeXa.>.} 9.6.NXNXNXNXNXNXNXNXNXNXNXNXNXNXNXNXNXNXNXNX",
"NXNXNXNXNXNXNXNXNXNXNXNXNXNXNXNXNXNXNXNXNXNXNXNXNXNXZ e b ( NXNXNXNXNXNXNXNXNXNXNXNXNXNXaX1X1.t X.s.6.NXNXNXNXNXNXNXNXNXNXNXNXNXNXNXNXNXNXNX",
"NXNXNXNXNXNXNXNXNXNXNXNXNXNXNXNXNXNXNXNXNXNXNXNXNXu m *.6.NXNXNXNXNXNXNXNXNXNXNXNXNXNXNXNXB.~.=.h C W.eXNXNXNXNXNXNXNXNXNXNXNXNXNXNXNXNXNXNX",
"NXNXNXNXNXNXNXNXNXNXNXNXNXNXNXNXNXNXNXNXNXNXNXNXNXj.h.} V.NXNXNXNXNXNXNXNXNXNXNXNXNXNXNXNXp.Q.I.r.8.) NXNXNXNXNXNXNXNXNXNXNXNXNXNXNXNXNXNXNX",
"NXNXNXNXNXNXNXNXNXNXNXNXNXNXNXNXNXNXNXNXNXNXNXNXNXNXNXb.6.NXNXNXNXNXNXNXNXNXNXNXNXNXNXNXV.,XL.+.G m.NXNXNXNXNXNXNXNXNXNXNXNXNXNXNXNXNXNXNXNX",
"NXNXNXNXNXNXNXNXNXNXNXNXNXNXNXNXNXNXNXNXNXNXNXNXNXNXNXNXo.NXNXNXNXNXNXNXNXNXNXNXNXNXNXNX^.J.6.NXNXNXNXNXNXNXNXNXNXNXNXNXNXNXNXNXNXNXNXNXNXNX",
"NXNXNXNXNXNXNXNXNXNXNXNXNXNXNXNXNXNXNXNXNXNXNXNXNXNXNXNXo.NXNXNXNXNXNXNXNXNXNXNXNXNXNXA.R.v.NXNXNXNXNXNXNXNXNXNXNXNXNXNXNXNXNXNXNXNXNXNXNXNX",
"NXNXNXNXNXNXNXNXNXNXNXNXNXNXNXNXNXNXNXNXNXNXNXNXNXNXNXNXu.b.NXNXNXeXeXeXeXNXNXNXNXNXN.I.b.NXNXNXNXNXNXNXNXNXNXNXNXNXNXNXNXNXNXNXNXNXNXNXNXNX",
"NXNXNXNXNXNXNXNXNXNXNXNXNXNXNXNXNXNXNXNXNXNXNXNXNXNXNXNXB b O.o.>.,.9.9.,.@.;.2.5.5.G.C.NXNXNXNXNXNXNXNXNXNXNX5.h NXNXNXNXNXNXNXNXNXNXNXNXNX",
"NXNXNXNXNXNXNXNXNXNXNXNXNXb.;.6.NXNXNXNXNXNXNXNXNXM.M ;.B.:X~.Q.Q.!.!.~.~.W.o.o.[ P.L.C *XNXNXNXNXNXNXNXNXNXNXV.j B NXNXNXNXNXNXNXNXNXNXNXNX",
"NXNXNXNXNXNXNXNXNXNXNXNX2.[ o./.NXNXNXNXNXNXNXc.n l.<XgXgX1X^.L.I.L.I.L.W.z.3.w.E.W.p.z.9.m M.NXNXNXNXNXNXNXNXn C e NXNXNXNXZ.` :.=XNXNXNXNX",
"NXNXNXNXNXNXNXNXNXNXNX,.] h o.b.NXNXNXNXNX9Xz l.fXgX<X(.W.L.L.R.I.Y.R.I.R.I.L.Q.R.W.p.y.).R.| h NXNXNXNXNXNXt S.NXNXNXNXNXNX-X+.M 7.Z.NXNXNX",
"NXNXNXNXNXNXNXNXNXNXr.;.t o.l.C.NXNXNXNXH ' ,X1X^.L.J.U.Y.Y.Y.R.I.I.Y.I.I.Y.W.R.R.W.L.g.I.I.Q.a.u h.NXNXm.y NXNXNXNXNXNXNXNXNX0.h M t.NXNXNX",
"NXNXNXNXNXNXNXNXNXA.9.e :.L.Q.:XNXNXNXB 0.~.R.I.E._.Q.T.L.I.I.Y.I.Y.I.I.I.I.I.I.I.I.W.!._.Q.Q._.K.v V Z._ NXNXNXNXNXNXNXNXNXwXd.>.h +.A.NXNX",
"NXNXNXNXNXNXNXNXNXB.u.>.0.L.E.,XA.qXz p.).d.s.L.V G u.L.E.E.L.Y.W.H.:X^.R.R.L./.Q.!.B.1.V V V B.W.K.` r NXNXNXNXNXNXNXNXNXqX7. .n / i 4.NXNX",
"NXNXNXNXNXNXNXNXNXu.D.C.m.2.i.W.1Xm p.).Y.Y.Q.u.* % % > G P.!.R.L.y.fX!.L.L.E.!.u.a * % % . % w Z W.F.` s NXNXNXNXNXNXNXS.q.] NXNX=XZ.NXNXNX",
"NXNXNXNXNXNXNXNXNXNX0XNXNXNX=Xr.2X<X*.P.H.H.u.* . % % % % = *.!.P.p.fXI.W.!.x.a % . % & % * * = p u.W.i.) e NXNXNXNXNXj.a.o.NXNXNXNXNXNXNXNX",
"NXNXNXNXNXNXNXNXNXNXNXNXNXNXNXx +.,X:XO.O.=.B.x.2.&.V * & % & x p.u.1XI.R.&.- . % p K p 6.p.H.P.H.P.E.K.0.j B NXNXn.<.K.+.NXNXNXNXNXNXNXNXNX",
"NXNXNXNXNXNXNXNXNXNXNXNXNXNXH ;.l.+.,X:XL.p.B._.E.2Xt.=XdXE > . * M <XP.a . % Y sXxXbXG D._.R.I.W.W.I.Q.9.] t.B <.D.Q.] NXNXNXNXNXNXNXNXNXNX",
"NXNXNXNXNXNXNXNXNXNXNXNXNXNXt :X~.w.p.Q.W.p.L.I.R.F.H cXbXmXzXc.% * y.a . * eXtX{.kXmXc.} Q.L.Y.L.F.R.W.t.] L.R._.I.^ NXNXNXNXNXNXNXNXNXNXNX",
"NXNXNXNXNXNXNXNXNXNXNXNXNXs P.1XR.p.w.Q.H.W.I.I.2X=.=XbXcXtX}.tXsXw * % f zXtX X3X'.nX*XM Q.W.L.L.i.K.W.a. .H.W.d.` =XNXNXNXNXNXNXNXNXNXNXNX",
"NXNXNXNXNXG NXNXNXNXNXNXc.( fX^.Y.w.H.w.B.E.I.I.R.N kXbXtX;XlX].yXj.:.s kXcX}.mXhX'.vXS.n ^.L.R.E.B.R.Q.J.| 7.s.) H NXNXNXNXNXNXNXNXNXNXNXNX",
"NXNXNXNXe k NXNXNXNXNXNXe ^.<XL.Q.p.X.z.W.Y.Y.Q.p.V xXbX[.lXlX|.tXv.E.3.kXyX X4X3X'.vXc.n !.L.W.I.W.P.z.W.a.} >.} c NXNXNXNXNXNXNXNXNXNXNXNX",
"NXNXNX-.w C j.NXNXNXNXM./ fXL.P.Y.Y.W.W.U.Y.L.Q.8.d xXvX[.3X3X{.yXh.Q.:.dXtX|.4X3X'.vXd ;.E.L.E.I.<.&.*.M B.d.| 7.t c.NXNXNXNXNXNXNXNXNXNXNX",
"NXNXNXe p r.9.&.qXNXNXh B.<Xa.W.I.I.I.I.U.Y.I.^.>.r zXxX'.3X3X{.yX1.).i.m.kX].5X].tX0Xr g.W.R.L.x r R.!.P.*.H.%.7.n s NXNXNXNXNXNXNXNXNXNXNX",
"NXNXS.r X._ _ ' ' *.V l <X~.P.L.I.I.I.T._.Q.T.).9.r 0XmX;X].}.kXh.d.T.T.l 0XkX;XkXsXr ( R.R.R.u.O.+ A E.W.L.P.7.| 7.e NXNXNXNXNXNXNXNXNXNXNX",
"NXNXv.u -.NXNX=X&.>.h 1.1XI.W.I.I.I.W.P.r.*.O.p.s.t a dXnXzXcXm.m Q.U.Q.e.w h.-Xv.e j P.W.Y.Y.W.z.2 + t.W.I.W.0.@.7.y c.NXNXNXNXNXNXNXNXNXNX",
"NXNXNX=XNXNXNXNXNXn.r /.,XK.Y.I.I.E.P.1.m O ; i.L.o.e x =XaXY j I.W.Y.I.E.,.e e e M H.W.I.I.L.Q.w.@ < d E.I.W.i.} 7.) V NXNXNXNXNXNXh.NXNXNX",
"NXNXNXNXNXNXNXNXNXNXe ,X~.W.I.I.I.Y.L.R.S 3 ; R.W.I.:.c u u ` I.W.I.I.Y.I.Q.P.p.H.Y.W.I.I.I.Y.Q.A , 3 ; H.Y.W.d.| >.} e NXNXNXNXNXV.^ n.NXNX",
"NXNXNXNXNXNXNXNXNXNXj ,XL.i.L.R.I.I.Q.y.@ 6 @ t.Q.Y.Q.L.P.I.W.W.I.I.R.I.I.I.W.W.W.Y.R.Y.I.I._.p.g 6 3 @ 3.Q.R.s.| 7.$.e NXNXNXNXv.;.N &.NXNX",
"NXNXNXNXNXNXNXNXNXqXv ,Xa./.W.I.T.U._.Z , 1 3 p I.W.U.Y.W.Y.L.I.I.I.I.Y.I.I.I.I.U.Y.Y.Y.Y.Q.t.A 7X4 1 , Z Q.T.`.@.@.7.h l &.-.X.;.r.r C NXNX",
"NXNXNXNXNXNXNXNXNXm.( ).F.f.L.R.P.I.T.S < 1 3 @ z Q.W.I.Y.Y.W.I.W.I.Y.I.R.Y.I.Y.Y.Y.L.W.Q.:.f dX8X2 1 < d Q.Y.H.@.@.7.j ( >.} +.y.:.p C NXNX",
"NXNXNXNXNXNXNXNXNXM.} Q.I.L.I.I.d.T.J.$ 3 1 , 7 E M ^.W.L.L.I.I.I.I.R.I.I.Y.I.U.Y.Q._.z.z - dXNX7X, < < d _.Y.`.@.@.7.k G NXNXqX*.<.x 2.NXNX",
"NXNXNXNXNXNXNXNXNXc.>.Q.L.R.Y.I.P.Q.i.@ < 4 , 5 NX*Xh H.Q.Q.W.W.I.I.I.I.U.Y.Y.~.Q.p.m * @ , ! NXT 4 L L G W.W.H.@.@.8.i m.NXNXNXNX] ` v.NXNX",
"NXNXn.=XNXNXNXNXNXc.>.~.U.Y.Y.Y.Y.Q.3., 1 1 1 5 NXNX6Xs X.p.L.W.Q._.Q._.Q.Q.P.9.a d M.0 < , 5 I 8 I NXNX3.Q.Y.H.@.| 7.i m.NXNXNXNXNX-.NXNXNX",
"NXNXk :.NXNXNXNXNXG <.Q.I.W.Y.I.Y.Q.2.@ 4 4 1 , NXNXNXL o = r h y l b ( N x w g rXxXzXF , 2 1 1 < NXNX9Xi.Q.Q.`.| >.q.i =XNXNXNXNXNXNXNXNXNX",
"NXV.w =.' X.&._ [ h 3.Q.I.d.L.Y.Y.T.r.@ I T 1 , I NXM.6 3 @   M.yX9X6XP + @ O I NXNXdXU , 1 1 1 < I NXc.H.W.3.] | >.8.y qXNXNXNXNXNXNXNXNXNX",
"NXk.* *.p.] C *.5.z o._.s.(.(.I.Y.T.z.D NXNX2 < 6 L 8 < O +   ! NXNXNXR < @ o + dXNXdX8 < 1 1 1 < 5 R 2.Q.U.0.n ' >.7.y NXNXNXNXNXNXNXNXNXNX",
"NXc.w :.=.NXNXNXNXNXv !.D.^.Q.Y.I.T.D.n.NXNX4 < 2 1 , O o + o 9 NXNXNX0 @ o O   I NX*X+ @ 1 1 1 < 1 ; H.L.L.P.( ( 8.7.h NXNXNXNXNXNXNXNXNXNX",
"NXNXe } NXNXNXNXNXNXj L.L.0.f.K.Y.U.R.5.NXNX4 1 1 1 O o O O o + 7XNX6X$ o o o o # P : o o 2 1 , 1 @ C E.y.I.Q.F.n [ $.x NXNXNXNXNXNXNXNXNXNX",
"NXNX-.-.NXNXNXNXNXNXB d.^.L.P.Y.Y.Y.Q.w.*XNX@ < 1 @   O   o o o : T 8 o + O O o o o o : # o 2 1 1 X F.P.t.Q.p.L.K.] k H NXNXNXNXNXNXNXNXNXNX",
"NXNXNXNXNXNXNXNXNXNXk. .Q.I.Y.I.Y.Y.Y.Y.H T 1 1 2 o # P : o o           o   o O + o 8 *XR # O 3 @ Z !.H.N :.b n y.R. .Z NXNXNXNXNXNXNXNXNXNX",
"NXNXNXNXNXNXNXNXNXNXwXk L.Y.I.I.Y.Y.L.Q.s.= 3 1 +   T NXR O # 5 7 7 7 7 9 9 O O O   T NXNXT + 1 = L.Y.T.7.` 7.@.M ,.!.0.c c.NXNXNX&.^ i 0XNX",
"NXNXNXNXNXNXNXNXNXNXNXh d.W.I.R.Y.L.Y.L.Q.w.X 3 o # NXNXNXF W .X.XoX.XW yXNX# o +   L NXNXNXL . y.Q.L.Y.W.P.>.@.7._ ] ^.P. .v l ;.;.C  .N.NX",
"NXNXNXNXNXNXNXNXNXNXNXh.{ I.Q.P.O.;.B.E.L.!.:.X O 8 NXNXNX+X&XjXjXjX%X+XNXNX~ 7   o : NXNXNXJ _ Q.L.Y.Y.W.s.| >.7.` V r.Q.Q.i.9.=.h M #.-XNX",
"NXNXNXNXNXNXNXNXNXNXNXNXi s.~.:.<.P.P.W.R.R.E.:.- U NXNXNX+X&X&X&X%X$X+XNXNX7X.Xq     NXNXY M Q.Y.Y.Y.Y.I.8.@.@.7.i NX=Xf.Q.W.<.c ( [ +.NXNX",
"NXNXNXNXNXNXNXNXNXNXNXNXZ | R.,.w.U.W.Y.Y.Y.Y.Q.w.p 9XNXNXOXXX#X#X$X$X8XNXNXrXoX.X7   : d o.Q.Y.L.Y.I.W.s.@.7.7.` H NXNX*.L.z.b n z 7.V.NXNX",
"NXNXNXNXNXNXNXNXNXNXNXNXNXk +.y.W.Q.L.L.Y.Y.Y.L.Q.H.l f M.~ XXXX@X#X@XuXNXNXNXoXXXF * h p.!.Y.L.d.I.Y.I.q.| ` 8.k NXNXNX9Xi.*.u m a.3.NXNXNX",
"NXNXNXNXNXNXNXNXNXNXNXNXNXZ e.Q.I.f.9.W.Y.Y.I.W.Y.Y.Q.y.b p 9 F W Q Q OXNXNXM.D > x y.W.W.I.Y.U.I.I.W.a.@.+.` k h.NXNXNXNXU.y.3.I.<.NXNXNXNX",
"NXNXNXNXNXNXNXNXNXNXNXNX0Xz.~.K.] b p.t.L.Y.Y.U.L.Y.Y.Q.!.H.8.n h e p p a s l o.p.W.W.I.I.I.I.Y.R.I.L.>.D.U.b e NXNXNXNXNX7.J.D.4.NXNXNXNXNX",
"NXNXNXNXNXNXNXNXNXNXNXN.D.Q.f.v ' ] ] ) F.W.Y.s.L.Y.Y.Y.Y.W.Q.Q.Q.L.J.H.P.U.~.).Y.Y.L.Y.L.d.Y.Y.I.W.0.} r.y.` 9XNXNXNXNXNXwXv.=XNXNXNXNXNXNX",
"NXNXNXNXNXNXNXNXNX=Xw.U.~.7.j.-.{ 7.@.i.I.Y.Y.d.L.Y.W.U.P.W.E.I.Y.Y.T.^.Q.Q.L.f.F.Y.I.Y.Y.U.Y.Y.W.d.@.@.M j ) Z.NXNXNXNXNXNXNXNXNXNXNXNXNXNX",
"NXNXNXNX=X=XNXZ.3.D.Q.^.$.b.NXNXB | 7.J.Q.L.W.P.P.W.I.W.8.| d.G.L.Y.L.J.a.$.| D.W.I.I.I.I.Y.I.W.D.| @.7.{ H NX{ m.NXNXNXNXNXNXNXNXNXNXNXNXNX",
"NXNXNXiX{ ] [ 8.Q.W.Q.q.v.NXNXNXNXb | 9.P.W.U.Y.Y.I.I.Y.W.q.^ / ^ ^ ^ ^ ..0.I.Q.I.I.Y.I.I.I.Q.H.7.@.7.} m NXNXB.$.G NXNXNXNXNXNXNXNXNXNXNXNX",
"NXNXNXA.a.h X.l.W.Q.s.6.NXNXNXNXNXNXb | 7.P.Q.I.Y.Y.I.Y.Y.Q.L.F.d.d.p.J.W.Q.Y.I.I.Y.I.I.I.Q.H.@.@.9.{ B NXNXNX>XE.a./ t &.NXNXNXNXNXNXNXNXNX",
"NXNXNXA.a.b v m p.i.| NXNXNXNXNXNXNXNXN { 7.s.W.Y.Y.U.I.I.I.Y.W.Q.T.W.W.Y.Y.Y.I.I.I.I.W.W.a.@.@.7.^ Z NXNXNXNXiXJ.9.b b b NXNXNXNXNXNXNXNXNX",
"NXNXNXNXD.:.v n _ ` 4.NXNXNXNXNXNXNXNXNX&./ 7.0.P.I.Q.Y.Y.I.U.Y.U.Y.U.Y.Y.Y.U.Y.R.W.W.P.0.@.7.7.v h.NXNXNXNXNX>X#.h n v &.NXNXNXNXNXNXNXNXNX",
"NXNXNXNXj.I.X.j m ` b.NXNXNXNXNXNXNXNXNXNXm.v  .7.0.a.L.W.W.W.Y.Y.Y.Y.Y.Y.W.W.W.R.H.f.%.@.8.{ v =XNXNXNXNXNXNXC.( b v y NXNXNXNXNXNXNXNXNXNX",
"NXNXNXNXNX:.Q.w.l _ 6.NXNXNXNXNXNXNXNXNXNXNXNX-./ | 7.7.0.d.D.L.L.R.R.I.L.P.s.f.7.7.@.7. .v h.NXNXNXNXNXNXNXNXb.^ t m sXNXNXNXNXNXNXNXNXNXNX",
"NXNXNXNXNXNX1.i.s.a.} NXNXNXNXNXNXNXNXNXNXNXNXNXNXC v ^  .%.7.7.0.0.0.0.8.7.7.7.#.|  .c 5.NXNXNXNXNXNXNXNXNXNXNXeXeXNXNXNXNXNXNXNXNXNXNXNXNX",
"NXNXNXNXNXNXNXNXv.4.NXNXNXNXNXNXNXNXNXNXNXNXNXNXNX4.h.=X-._ ) ^ ^ ..{ ....^ / / _ h.G ` S.NXNXNXNXNXNXNXNXNXNXNXNXNXNXNXNXNXNXNXNXNXNXNXNXNX",
"NXNXNXNXNXNXNXNXNXNXNXNXNXNXNXNXNXNXNXNXNXNXNXNXZ.+.NXNXNXNXNXwX=Xn.n.v.n.=XeXNXNXNXNX,.o.S.NXNXNXNXNXNXNXNXNXNXNXNXNXNXNXNXNXNXNXNXNXNXNXNX",
"NXNXNXNXNXNXNXNXNXNXNXNXNXNXNXNXNXNXNXNXNXNXNXZ ;.<.NXNXNXNXNXNXNXNXNXNXNXNXNXNXNXNXNX<.r.;.[ _ h.NXNXNXNXNXNXNXNXNXNXNXNXNXNXNXNXNXNXNXNXNX",
"NXNXNXNXNXNXNXNXNXNXNXNXNXNXNXNXNXNXNXNXNXNXo.h a _ =.NXNXNXNXNXNXNXNXNXNXNXNXNXNXNXNXo.u.1.C M v NXNXNXNXNXNXNXNXNXNXNXNXNXNXNXNXNXNXNXNXNX",
"NXNXNXNXNXNXNXNXNXNXNXNXNXNXNXNXNXNXNXNXNXNXZ.y h j v NXNXNXNXNXNXNXNXNXNXNXNXNXNXNXj.o.x s e u -.NXNXNXNXNXNXNXNXNXNXNXNXNXNXNXNXNXNXNXNXNX",
"NXNXNXNXNXNXNXNXNXNXNXNXNXNXNXNXNXNXNXNXNXNXNXNXZ.n.NXNXNXNXNXNXNXNXNXNXNXNXNXNXNXNX( n t b C =XNXNXNXNXNXNXNXNXNXNXNXNXNXNXNXNXNXNXNXNXNXNX",
"NXNXNXNXNXNXNXNXNXNXNXNXNXNXNXNXNXNXNXNXNXNXNXNXNXNXNXNXNXNXNXNXNXNXNXNXNXNXNXNXNXNXNXZ.NXNXNXNXNXNXNXNXNXNXNXNXNXNXNXNXNXNXNXNXNXNXNXNXNXNX",
"NXNXNXNXNXNXNXNXNXNXNXNXNXNXNXNXNXNXNXNXNXNXNXNXNXNXNXNXNXNXNXNXNXNXNXNXNXNXNXNXNXNXNXNXNXNXNXNXNXNXNXNXNXNXNXNXNXNXNXNXNXNXNXNXNXNXNXNXNXNX"
};
