/* XPM */
static char *_324bea46c2f448eb6be0f5a0efcf8f2g6ws89k0ShC6I9ux[] = {
/* columns rows colors chars-per-pixel */
"70 70 193 2 ",
"   c None",
".  c #0B1F14",
"X  c #0C2216",
"o  c #0D2418",
"O  c #0C2C1B",
"+  c #092815",
"@  c #14271C",
"#  c #0D321E",
"$  c #192C20",
"%  c #0C3520",
"&  c #0D3C22",
"*  c #103724",
"=  c #293B30",
"-  c #25352C",
";  c #6B3B2C",
":  c #7C362C",
">  c #0E4A27",
",  c #0F4429",
"<  c #0F4728",
"1  c #134926",
"2  c #144A2A",
"3  c #124727",
"4  c #0E522C",
"5  c #13552D",
"6  c #1A562C",
"7  c #145B2E",
"8  c #1A5D2F",
"9  c #165531",
"0  c #1B5534",
"q  c #165B31",
"w  c #1B5B33",
"e  c #1D5639",
"r  c #1E5839",
"t  c #25492C",
"y  c #2E462E",
"u  c #374C2C",
"i  c #245C2F",
"p  c #33433A",
"a  c #215636",
"s  c #225C35",
"d  c #215639",
"f  c #21593A",
"g  c #2E5C30",
"h  c #375A32",
"j  c #17612E",
"k  c #1A612F",
"l  c #176231",
"z  c #1B6432",
"x  c #1E6934",
"c  c #226433",
"v  c #236C35",
"b  c #296E35",
"n  c #2A6539",
"m  c #236E38",
"M  c #2A6D38",
"N  c #226738",
"B  c #366935",
"V  c #247236",
"C  c #2A7336",
"Z  c #277937",
"A  c #2B7B37",
"S  c #267439",
"D  c #2B7439",
"F  c #2B7C39",
"G  c #267838",
"H  c #32763A",
"J  c #347C3B",
"K  c #3A7B3B",
"L  c #3E723B",
"P  c #47452D",
"I  c #52442C",
"U  c #47733D",
"Y  c #2F5742",
"T  c #2E6746",
"R  c #3F7B41",
"E  c #32684C",
"W  c #45544C",
"Q  c #4D7D42",
"!  c #4C745F",
"~  c #636F68",
"^  c #63786B",
"/  c #88211F",
"(  c #9C2D2C",
")  c #9C2126",
"_  c #96312A",
"`  c #83382C",
"'  c #AE2225",
"]  c #B4212A",
"[  c #BC282F",
"{  c #B8262D",
"}  c #A3362B",
"|  c #C01E2B",
" . c #CB242E",
".. c #C6262E",
"X. c #D7232F",
"o. c #DB222E",
"O. c #DC302B",
"+. c #DB2430",
"@. c #E3372B",
"#. c #81462A",
"$. c #9A4D28",
"%. c #B0402A",
"&. c #AB4828",
"*. c #C14426",
"=. c #DB472A",
"-. c #E74F2A",
";. c #EA6727",
":. c #2E833B",
">. c #32843D",
",. c #3A833D",
"<. c #348A3E",
"1. c #3B8B3F",
"2. c #42873E",
"3. c #418B3F",
"4. c #338441",
"5. c #3E8541",
"6. c #368B41",
"7. c #3C8D42",
"8. c #379143",
"9. c #3B9343",
"0. c #3F9A45",
"q. c #3F9748",
"w. c #458E42",
"e. c #588A48",
"r. c #469142",
"t. c #439343",
"y. c #4B9544",
"u. c #429B46",
"i. c #4C9B45",
"p. c #439D48",
"a. c #4A9B4A",
"s. c #529C45",
"d. c #509A49",
"f. c #5A9849",
"g. c #45A346",
"h. c #45A249",
"j. c #46A549",
"k. c #46A549",
"l. c #46A549",
"z. c #4AA549",
"x. c #47A848",
"c. c #4BA94A",
"v. c #4BA546",
"b. c #54A549",
"n. c #5AA649",
"m. c #54AB4B",
"M. c #5CAC4B",
"N. c #57A647",
"B. c #5BB24D",
"V. c #5AAF51",
"C. c #5CB250",
"Z. c #63AD4E",
"A. c #64B44D",
"S. c #69B64E",
"D. c #66B94E",
"F. c #6CBB4E",
"G. c #71BF4F",
"H. c #6AA751",
"J. c #71A554",
"K. c #64B551",
"L. c #69B653",
"P. c #6DBD51",
"I. c #64B851",
"U. c #71BE51",
"Y. c #7BB653",
"T. c #78817C",
"R. c #678D7A",
"E. c #6DC04F",
"W. c #73C04F",
"Q. c #6FC051",
"!. c #72C052",
"~. c #7BC255",
"^. c #7EC258",
"/. c #91BE60",
"(. c #83C456",
"). c #83C558",
"_. c #88C75C",
"`. c #93CB5E",
"'. c #97CD60",
"]. c #9CCD64",
"[. c #9CD061",
"{. c #A2CA66",
"}. c #A2D166",
"|. c #ABD267",
" X c #ABD469",
".X c #B2D66C",
"XX c #A9B0AC",
"oX c #B1B6B3",
"OX c #A2A9A5",
"+X c #BDC3C1",
"@X c #D8DDDB",
"#X c white",
"$X c #F6F9F7",
/* pixels */
"                                                                                                                                            ",
"                                                                                                                                            ",
"                                                                                                                                            ",
"                                                                                                                                            ",
"                                                                                                                                            ",
"                                                                                                                                            ",
"                                              n N w                                                                                         ",
"                                          n w.m.>.0                                                                                         ",
"                                        c t.M.>.q                                                                                           ",
"                                        w D c q 9                                                                                           ",
"                                            r z v                               f w r                                                       ",
"                                                D c                             b b.s.F e                   0 e                             ",
"                                                M D e                           0 V >.>.9                   9 K c                           ",
"                                                s w.x e                         e q 5 5 w                 f 5 A t.c                         ",
"                                                w r.<.k 0                       z V 9                     7 k 7 4.J                         ",
"                                                r y.t.Z 7 5 q 8 z z x z z q w 9 V v f                   6 V S 7 8 c e                       ",
"                                                s J S 8 v >.<.0.<.F F 4.>.A Z w w.z 9 r               w D m q r   e                         ",
"                              w w w             e 7 Z 9.k.x.x.j.8.>.:.0.g.u.V M b.z z z 9         0 c w.C 0                                 ",
"                            s r.6.9           e v 6.h.k.0.0.p.x.k.k.p.k.p.G M M.v.q S A V 7 9 9 b r.M.,.9                                   ",
"                            ,.L.b 9         w :.9.8.g.h.<.:.8.z.k.k.k.z.F D A.I.9.j >.6.F A z q r.m.<.l                                     ",
"                          e 3.,.z 4.w     z 8.x.h.k.z.k.h.p.g.k.k.k.k.k.4.S z.p.:.w F k.9.:.A x 7 S G q                                     ",
"                          w w 0 w J 7.N 5 V 6.7.7.g.C.D.m.k.k.k.k.k.k.k.h.S z c z 5 G k.0.<.F A v 7 q e                                     ",
"                                    R b.1.C k 7 7 u.D.!.D.k.k.k.j.k.k.k.k.k.6.F F <.0.k.1.F J A F x 4               0 8 f                   ",
"                                    5 y.P.V.8.D w z.Q.G.B.k.k.k.j.j.j.k.k.k.k.x.x.k.k.x.g.<.F A F F x w             q ,.b                   ",
"                                  e z C G.F.z.V v S.F.F.P.I.B.c.k.j.k.u.<.g.g.g.x.B.B.k.k.h.p.8.F F A q         w w 7 :.y.s                 ",
"                                  w 9.b Z.F.7.7 d.G.F.F.Q.A.Q.I.z.j.j.g.<.g.k.z.m.Q.P.B.k.k.h.F x V A v 9   s N ,.1.q v i.b                 ",
"                                e Z K.H 5.,.k r.W.~.'.`.~.V.C.P.c.k.k.j.h.k.x.I.P.F.!.F.c.k.u.z F c z 7 8 b D :.V k 5 7 7.v                 ",
"                                8 b.G.,.c K n.U.!.`. X.X}.P.B.L.B.m.k.j.k.k.c.P.W.!.P.A.z.h.0.z M.S.n.s.7.S 8 0 r     0 8 s                 ",
"          e                   e b S.F.I.S.!.!.F.,.B Q H.{.'.U.U.P.F.c.k.k.k.k.I.U.n.J w 7 x q.z w.C.c.,.k 5                                 ",
"        c v e               0 4 t.W.C.m.!.F.U.f.e.M 2 t L Y.!.U.Q.F.c.k.h.k.k.z.9.g P t N F <.S x :.F 7 w z s                               ",
"      f 2.d.9 e         6 c H w M.!.I.D.Q.!.~.]./.B $.*.: h b.!.F.m.z.k.8.h.k.4.u } =.%.h 8.g.:.5 V v 7 Z V 0                               ",
"      0 i.i.7 D A C H K i.V.s.b S.U.!.(.!.P.(. Xe.: ;.@.X.( h M.A.D G G x q.:.P [ X.O.-.#.G k.0.x q 5 x F Z 9                               ",
"      9 i.7.5 G D J D >.6.8.D D U.U.~.}.~.P.(. XU &.@.| ' o.( g b k ,.,.w 7 u { o./ ] =.} b k.h.4.k l F F A 7                               ",
"      w ,.A 4 e       f 0 q 7 J U.U.).}.~.P.). X2._ +.] ) o...y 8 H.].^.t.4 y ..o... .@.` D k.k.p.6.:.:.A F w                               ",
"        7 7 d               2 6.~.(.!.~.U.Q.~.|.J.;  .o.o.o.: 2 D _.'.P.0.7 5 ; ..o.X.{ u 1.k.0.g.k.<.F F F z                               ",
"          r                 r 2._.].!.Q.U.U.!.].}.e.P _ ( ; B 5.b M.B.c.>.7 c c P : ; y m u.<.:.0.j.p.:.F Z 8 e                 w w         ",
"                              ,.(.}.!.!.!.!.Q.).|.].s.K L f.I.A.z V 6.>.z 7 F u.:.x x G :.8.F :.g.j.g.:.A G q w 0           f 5 w.D         ",
"                              K _.}.G.y.n.!.!.G.(.~.W.F.n.s.n.P.u.5 q 5 7 V >.F j 7 x G :.9.:.8.j.1.9.:.A A 8 ,.r.K D D D H v 5 ,.w.r       ",
"                              M Y.`.d.6 z n.W.W.Q.!.S.,.w T T K b.6.S G A A l E R.! > l 9.h.9.k.g.:.9.:.A G 9 Z >.5.J J J A V 7 >.,.r       ",
"                              c D.S.c r.,.C S.!.W.S.D # ^ $X@XY 7 J 6.4.m 5 % +X#XOXO > 6.k.x.g.g.p.8.:.F S 7 x q 7 0 0 0 0 5 5 >.H         ",
"                              w s.J V M.0.k s.!.U.1., + ^ #XXXo O # 1 1 * O X ~ #X^ @ # v h.h.9.g.p.:.F F x 4 0               9 S c         ",
"                              d 8 v i.p.:.z J !.K.i O . p @XW X X X o o X X X = oX- X O 7 0.g.8.p.<.F A A 8 e                   0 s         ",
"                d w         s c J y.7.:.A V v G.N.3 o X X p $ X X o o X X o o o @ X @ X 2 9.k.p.J z V F S 9                                 ",
"                M r.7 q M M J J Z 8 7 7 z z c F.i.& X X X X O # # # # O O o o o o X X X 1 8.6.k b b z F z r                                 ",
"                J L.Z v 9.J N w 0 5 v >.,.b J U.t.& o o # 6 V G D V v v 8 3 % o X @ X O 5 A k y.C.7.z S 5                                   ",
"                n c.,.5 w 0       0 x J n.P.F.!.y.1 & 2 K m.c.9.u.k.z.D.Z.>.q , O X O & q q y.B.0.A 7 w f                                   ",
"                0 G A 5 e           q V >.N.!.!.Z.k N i.M.c.x.h.g.k.k.c.c.j.v.J 6 , > 7 z v A.u.F F j 5                                     ",
"                  0 7 0             r 7 Z >.N.D.A.z.v.z.u.8.1.g.k.k.k.k.j.x.z.m.u.4.4.4.V k ,.S v Z V w                                     ",
"                                    e q z Z :.<.h.k.h.G k N c z 8.j.k.k.k.h.h.k.k.j.g.>.G z l z 7 7 x N 0     0                             ",
"                                    z 4.l k S F :.0.p.z >.B.A.y.z q.k.k.9.<.u.h.p.p.<.F Z A F G 9 f a z m 5 k m f                           ",
"                                    Z 8.Z w 7 G F A >.v v q.c.A.C >.z.0.:.>.8.<.A :.F F A F V 7         5 q 6.K                             ",
"                                  w 6.4.V z 4 5 v Z F x l :.>.S v 0.k.h.u.<.:.F A F A F A x 9           9 Z w.s                             ",
"                                e S 4.q 5 e     0 w V x z Z w z :.6.6.9.<.F F A F F A x q 0             0 D c                               ",
"                              0 c S 6 r             0 7 x v q A F F F F :.F F Z S x 7 q w                 f                                 ",
"                      9 q 5 7 V m 5                   w x z 7 z x x V v v x z q 4 w V F D                                                   ",
"                      0 4.>.7 x 7                     9 V 9     r e e w w f     w 9 A >.D                                                   ",
"                        v 8.x 4 r                 e 9 q z w                         c 5.J                                                   ",
"                        w z m 5                   5 x z 7 e                           N J w                                                 ",
"                          r 7 9                   0 S :.S 6                             c z                                                 ",
"                                                    w z w 9                             w x r                                               ",
"                                                                                          z 7 7 w w                                         ",
"                                                                                          5 c F ,.s                                         ",
"                                                                                        w >.t.3.M                                           ",
"                                                                                        z R H s                                             ",
"                                                                                                                                            ",
"                                                                                                                                            ",
"                                                                                                                                            ",
"                                                                                                                                            ",
"                                                                                                                                            ",
"                                                                                                                                            "
};
