/* XPM */
static char *_7dee6b671734de1a01db8566bc59c95Ibm33nI9z0efeeUT[] = {
/* columns rows colors chars-per-pixel */
"70 70 232 2 ",
"   c None",
".  c #3C3936",
"X  c #3C3A39",
"o  c #3B3736",
"O  c #443C33",
"+  c #423D3B",
"@  c #4B3E33",
"#  c #5A482D",
"$  c #494139",
"%  c #534535",
"&  c #4E422E",
"*  c #674D2B",
"=  c #72542B",
"-  c #7C5A27",
";  c #725734",
":  c #454442",
">  c #4C4846",
",  c #524C4A",
"<  c #514A47",
"1  c #55504D",
"2  c #5B5654",
"3  c #5B5958",
"4  c #635346",
"5  c #645649",
"6  c #66594B",
"7  c #625D5B",
"8  c #656262",
"9  c #6B6968",
"0  c #726E6E",
"q  c #747272",
"w  c #7D7D7C",
"e  c #797675",
"r  c #716F70",
"t  c #64615F",
"y  c #9C1B1B",
"u  c #A41C1D",
"i  c #A7171D",
"p  c #B1181F",
"a  c #9B241E",
"s  c #96371E",
"d  c #8D291B",
"f  c #A8301E",
"g  c #A91921",
"h  c #BA1A23",
"j  c #983A23",
"k  c #982E21",
"l  c #AC2622",
"z  c #AB2B23",
"x  c #A52C23",
"c  c #B52423",
"v  c #BD2424",
"b  c #B42C25",
"n  c #BB2B25",
"m  c #BA2E29",
"M  c #A33324",
"N  c #AC3423",
"B  c #AA3B24",
"V  c #A63C25",
"C  c #B33425",
"Z  c #B73A27",
"A  c #CA1D27",
"S  c #D41E29",
"D  c #D91F29",
"F  c #E31F2B",
"G  c #E91F2C",
"H  c #CB2327",
"J  c #CC252A",
"K  c #CB2D2A",
"L  c #C42827",
"P  c #D22227",
"I  c #D42229",
"U  c #DC222B",
"Y  c #D32C2B",
"T  c #DC2B2C",
"R  c #D62627",
"E  c #C5332B",
"W  c #C73529",
"Q  c #D4322C",
"!  c #D1382B",
"~  c #DC2B31",
"^  c #CB3B32",
"/  c #D63631",
"(  c #E4222C",
")  c #EA232D",
"_  c #E12B2E",
"`  c #E62630",
"'  c #984726",
"]  c #865B27",
"[  c #985827",
"{  c #884E29",
"}  c #A84728",
"|  c #B4442A",
" . c #B74829",
".. c #A55829",
"X. c #B6562B",
"o. c #B84933",
"O. c #B95837",
"+. c #A85132",
"@. c #8E6225",
"#. c #926525",
"$. c #9B6A26",
"%. c #9D6B29",
"&. c #976729",
"*. c #986E3B",
"=. c #9A713E",
"-. c #986B2D",
";. c #A26E2A",
":. c #A7652A",
">. c #B6682C",
",. c #A4722A",
"<. c #A57228",
"1. c #B4762D",
"2. c #A96934",
"3. c #B66736",
"4. c #AC7437",
"5. c #B87936",
"6. c #92471E",
"7. c #CD4E2D",
"8. c #C5462A",
"9. c #CE502E",
"0. c #C74A33",
"q. c #D24736",
"w. c #CC5634",
"e. c #D45435",
"r. c #D75C3B",
"t. c #D1522E",
"y. c #C86538",
"u. c #C97C36",
"i. c #D76A3C",
"p. c #936F48",
"a. c #A37947",
"s. c #A77E50",
"d. c #BD7C44",
"f. c #827E7F",
"g. c #CA6C41",
"h. c #D86B45",
"j. c #C87944",
"k. c #D67544",
"l. c #7E807E",
"z. c #BD8235",
"x. c #BD823C",
"c. c #BA822D",
"v. c #CC8E3A",
"b. c #C78738",
"n. c #D38C39",
"m. c #D28638",
"M. c #D4923B",
"N. c #DA953C",
"B. c #DD9A3B",
"V. c #CD8E38",
"C. c #E19C3D",
"Z. c #BA8642",
"A. c #81807E",
"S. c #C88B45",
"D. c #DD8242",
"F. c #D98946",
"G. c #CC9148",
"H. c #D49443",
"J. c #DB9A44",
"K. c #DC9C4A",
"L. c #D89647",
"P. c #D89954",
"I. c #E28B4C",
"U. c #E08C42",
"Y. c #E39D43",
"T. c #E39D4B",
"R. c #E19346",
"E. c #E49A53",
"W. c #E3A04B",
"Q. c #EBA54C",
"!. c #E8A447",
"~. c #F2AB4E",
"^. c #F0A64D",
"/. c #E8A759",
"(. c #F4AD51",
"). c #F5AD54",
"_. c #F7B45C",
"`. c #FBB763",
"'. c #FDB962",
"]. c #F6B160",
"[. c #DDA155",
"{. c #827F80",
"}. c #848383",
"|. c #8C8C8C",
" X c #898886",
".X c #948E8B",
"XX c #949393",
"oX c #9B9B9B",
"OX c #9A9897",
"+X c #93918E",
"@X c #AF9D91",
"#X c #AAA29A",
"$X c #B4A59C",
"%X c #A4A3A3",
"&X c #ACACAB",
"*X c #A9A8A4",
"=X c #B1ADAC",
"-X c #B2ACA6",
";X c #B8B3AE",
":X c #B4B3B3",
">X c #BBBBBB",
",X c #B9B7B8",
"<X c #9F9FA0",
"1X c #D3AE96",
"2X c #C1BEBC",
"3X c #C3BAB5",
"4X c #CFB8A5",
"5X c #E1B598",
"6X c #C8C2BD",
"7X c #BDBFC0",
"8X c #BFC0C0",
"9X c #C4C4C4",
"0X c #C8C6C4",
"qX c #CCCBCB",
"wX c #C9C8C8",
"eX c #D1CECB",
"rX c #D4D4D4",
"tX c #DDDDDD",
"yX c #D8D8D7",
"uX c #D0D0CF",
"iX c #E1DEDC",
"pX c #E1E1DF",
"aX c #DDDFE0",
"sX c #E4E3E3",
"dX c #EBEBEB",
"fX c #E8E7E8",
"gX c #F5F5F5",
"hX c #F8F7F6",
"jX c #F8F8F8",
"kX c #F7F7F8",
"lX c #EFF0F0",
"zX c #DFE0E1",
/* pixels */
"                                                                      >X0XqXeX;X                                                            ",
"                                                          6XyXaXsXdXlXlXgXgXgXfX6X                                                          ",
"                                                          rXfXgXjXkXhXhXjXkXhXgXrX                                                          ",
"                                                          rXsXgXjXjXkXkXgXhXhXgXyX                                                          ",
"                                              rXtXsXyX    qXsXlXjXgXgXdXgXgXgXgXrX    0XyXeX6X                                              ",
"                                        qXuXsXlXkXjXgXtX  0XpXdXlXdXdXdXgXgXlXdX2X  &XqXaXsXdXdXyX                                          ",
"                                    :XyXfXfXlXgXkXgXhXtX}.OXuXpXdXdXdXdXgXdXdXsX&Xw &XqXpXlXgXgXjXlXfXsX6X                                  ",
"                                  =X8XuXpXlXgXhXkXkXhXpX+XXXqXpXsXdXdXdXdXsXdXtX<X}.=XrXaXdXgXkXjXgXjXlXuX                                  ",
"                                1X&X9XwXzXlXgXjXkXkXkXfXOX<XaXfXdXdXsXsXaXpXfXuXOX XwXaXfXlXgXlXlXlXlXfXwX                                  ",
"                                5X$X>X9XaXdXgXhXkXkXkXdX&X+XtXfXfXdXsXtXtXsXfXqX|.|.rXfXdXdXdXdXfXfXzXrX,X                                  ",
"                              4X1X@X&XwXzXdXlXlXkXkXgXfXqX|.rXzXdXsXpXtXtXfXsX9X}.oXrXdXdXdXfXsXaXyXwX:X+X  3X6X                            ",
"                            sXsX6Xl.OX8XtXdXdXlXkXkXlXfXrXXXqXaXsXzXtXtXaXzXaX>Xl.&XrXfXdXdXaXrX7X*X<X Xw :XdXlXtX                          ",
"                          sXgXgXsXXXl.&XyXdXfXdXlXdXdXsX9XXX9XaXtXtXaXpXtXtXyX&X|.>XtXfXfXdXaXyX>X*X<Xw XXzXkXgXlXtX                        ",
"                        yXgXgXgXgXwX X|.9XsXdXdXdXsXzXzXaX&X&XyXtXtXtXpXaXyXwXoXOXqXsXfXfXdXsXaXuX&Xl.}.wXgXkXkXkXlXyX                      ",
"                    ;XyXdXgXhXgXkXdX:X}.XXuXsXfXsXtXtXtXaX:XoX>XwXaXaXaXyX9X,X|.:XtXsXdXdXfXzXtX9X<Xl.,XdXkXkXkXkXlXdXzX                    ",
"                  ,XyXfXlXdXgXhXgXlXaX%X}.>XtXrXrXtXtXaXuX*X}.OXoX%X=X=X%XOXXXw *XwXtXaXzXaXtXuX,X|.*XzXlXkXgXgXlXdXsXyX>X                  ",
"                  ,XtXsXdXdXdXkXkXfXzXwX|.=XuX:XuXaXaXqX%Xr 2 > : + $ : $ : : , t l.%X9XrXyXyX8X%X|.8XsXdXkXlXfXfXfXaX9X9X&X                ",
"                  -X9XyXsXdXdXdXgXdXzXrXoXXX7X:X>X:X+X8 : . X . X . X X X . . . X X : 3 XX>X9X:X|.9XaXsXdXlXzXzXfXfXrX7X,X                  ",
"              ;X#X+XoX>XyXsXfXfXdXdXsXyX,XXXXXl.8 : X X X . & # * = = = = = # # O X . o + 8  X|.XXyXaXtXzXfXzXfXfXaX9X*X.X                  ",
"            6XsXqX%Xw XX,XrXtXtXdXfXzXyX7XoX8 : . X . % = @.#.<.,.,.,.$.,.,.<.$.#.- * O X . X 1  XwXaXaXtXzXdXdXfXwX#X}. XuXlXdX            ",
"            sXgXsXrX>X|.|.&X7XtXzXaXaXaX:X2 X X O # @.$.<.<.<.<.%.$.#.@.&.$.;.,.,.,.$.#.= & X X : |.yXzXqXwXzXzXwXXXl.#XuXlXhXgXiX          ",
"          tXgXhXgXgXlXwX|.l.%XrXtXyXuX&X1 X X $ ] %.,.;.$.[ ' 6.@.#.@.] #.#.] 6.[ &.%.,.,.#.* + X : XXrX9X:XyX7X XXX7XsXhXhXhXgXsX          ",
"        6XfXlXhXkXgXgXdXwXoX}.&X9X9X|.> X O * $.<.<.&.' d u i s $.&.$.&.&.-.#.u i a s @.$.,.%.] & X : l.=X:X,X}.XXqXaXdXgXhXgXdXfXqX        ",
"        tXdXdXdXlXkXgXdXzXuX,X|.OX}.: X O - ;.,.$.' d i x k p s ] #.@.#.] @.[ u u k i d s &.;.;.#.# X X 9 XX|.oX9XtXsXlXhXhXlXdXsXyX        ",
"      yXaXsXdXdXdXlXlXlXfXsXzX>Xe : X $ ] %.,.[ s p p A } O.D 8.z.1.z.c.,.<.$.u d { u i i y 6.-.,.$.# X X 3 <X7XrXaXfXgXgXdXdXdXsXtXwX      ",
"      qXaXsXdXdXzXzXsXdXdXfXtX&X1 X O - <.<.[ l A ( P ( H R ( 7.B.N.M.V.B.B.m.R h u h y i p y s $.,.$.# X X }.uXtXsXdXdXfXdXdXfXsXtXuX      ",
"      -XwXrXqX>X,XyXaXdXdXsXqX9 X X = ;.$.[ v 8.t.( I ( ) ) ( 7.N.B.N.V.C.!.n._ ( ( U h h a ' a s &.,.#.& X 2 qXzXzXfXfXsXsXzXrXrX0X,X      ",
"      $X@X#XXX#X:XqXaXzXaXtXOX+ . # ;.,...Y R | 0.( S ) ) ( F 7.N.B.B.J.(.).R._ ) ( ) S D l j g y d %.,.- $ X |.rXtXzXzXyXrXqX:X*X*X#X      ",
"    sXsXeX@XA.}.|.&X7XuXrX7X7 o & @.,.>.C ) ( S D ) P ) ) ) ( 9.!.^.Q.W.(.~.R._ ) ) ( S ( F P A u y j ;.;.* . 1 &XuXtXrX7X*XOX}. X-XyXfXtX  ",
"  yXgXhXgXdXyX9X%X|.XX*X,XXX+ O = ,.z.! D U ( ( ) ) P ) ) ) ( e.W.L.[.W.Y.K.F._ ) ) ( A ( ) ) ) H A g [ ,.#.& X l.,X:X%X|.OX,XqXaXdXgXhXfX  ",
"  iXgXhXhXhXlXsXtX9XoXXX|.3 X @ -.z.3.! U D ( ( ( ( I ( ) ( ( t.b.Z.L.T.z.G.n.` ) ( ) J ( ) ) ) P U L x -.,.= . : l.XXoX:XuXaXdXgXkXhXjXlX  ",
"  yXdXgXgXhXhXdXaXtXqX:X|.: + * c.b. .j.K U ) ( ( ) I ) ) ) ( e.J.H.W.T.H.K.R._ ( ) ( A ( ( ) ( S E j.^ X.1.&.O X 9 &X9XtXaXfXdXhXjXhXjXdX  ",
"  yXfXlXlXgXhXgXdXpXaXrX|.. $ #.M.y.H Z I U ) ) ( ) S ( ( ) G e.(.(.Q.W.(.~.R._ ) ( ( S ` ` ` ` S S m ~ ! H.H.; o 2 9XaXaXsXlXgXgXgXgXgXdX  ",
"  rXsXfXdXlXlXlXdXfXaXaX}.o # b.M.! ( ( I n n E U ( I ) ) ) F e.~.(.^.T.~.Q.m.T ( F ( S F ` K m l I ) ) _ k.).Z.. > wXaXzXdXdXdXlXdXdXdXdXqX",
"8XtXsXdXfXdXfXsXfXpXaXqX8 X ; B.u.W m b j c J C o.~ I ) ( ( F e.~.Q.Y.H.!.^.I._ ) U ( S ` 0.V v c z C b K w.(.L.% : %XaXzXsXfXsXdXfXfXdXsXqX",
"9XrXtXzXpXzXaXaXzXaXyX&X, . 4.Y.5.Z J V ' J U U o.^ I ( ( ( G e.Y.C.Y.T._.'.E._ ) ( ( I F O.J ~ J C ' v m ..L.K.; > XXuXtXzXtXaXpXsXpXpXaXuX",
"  >X7X7X9XqXqXuXrXrX8X<X: + S.^.>.K L  .Z E n K o.Q S G ) ( G e.H.P././.K.[.P._ ) ( ( A ( o.E b b N  .N I } b.Q.p., }.7XuXrX7X9XqXwX9X8X9X:X",
"      +X|.XXXXoX=X&X%Xl.+ % G.Y.+.} } ..| | | ..+.E H ) U F ( r.G.S.P./.b.S.L.~ ` ) U H Y Z [ ..B B o.' } } j.`.p., 7 <X*X&XXXOX*X&XXX*X-X  ",
"        <X&XwXuXtXaX9XA.X @ 4.2.5.5.4.,.:.[ 5.5.5.b.3.o.Z J G r./.E.]./.E.E.E.~ ( m  .3.5.x.u.1.:.[ 2.2.5.5.2.5.p.> 8 :XqXuXqXuXsXsX9X      ",
"      =XwXrXsXlXgXkXdXoX+ % x.4...=.2...' :...;...} s E J U G r._.`.`./.'.`.E.~ ( I L M } ..:.:...[ ..2.=...:.S.p., q 9XaXsXlXgXhXgXsX      ",
"      =XrXpXfXgXjXhXgX>X, 5 T.L.| V k } Z o.z ' } R A ) ( ) F r.`.'.]./.`._.E._ ) ( ) A U Z ' s x o. .k j | i._.Z., r 9XaXfXgXkXgXhXsX      ",
"      OXuXpXdXlXgXgXgXqX7 5 T.T.} L A } Z m v I  .! S ) ) ( ( r._._.]./._.~.F._ G ) ) I `  .K v c B  .c D B j.'.s., r wXaXfXlXkXgXlXtX      ",
"      -XrXpXfXdXdXlXlXqX7 5 T.T.Z N n j j J ( ~  .R P ( ) ( F r._.(.^.L.Y.Y.m.T ) ( ( A ` | Y ( J z { c C b h.'.s., q rXsXfXdXlXdXsXwX      ",
"      2XtXpXsXsXsXdXdX7X1 4 L.n.T J c v k x m z C ( I ( e.q.F e.M.S.H.L.H.L.U.T ~ r./ I ) L N m z M c v H U k.(.p.1 r rXsXfXdXfXsXtX>X      ",
"      3XyXaXaXaXtXtXrX+X< 4 v.n.Y ( ( ) U A L J ) ) R Q L.P.Y q.z.x.J.K.5.S.F.T 9./.h.J ` G D J v S ) ) ( ( w.C.p., 7 :XqX9XrXaXtXrX:X      ",
"        XX*X%X<XOXoXXXr , 4 J.R.Q Y w.T ~ U ) ) ) ) P Z 5.Z.^ e.W.J.Q.W.K.Y.R.K ..Z.j.L ` ( ( ) D ) ) Y w._ y.C.*., 3 |.oXoX<X<X%XoXf.      ",
"      OXOX:X9XuXwXyXyX|., 6 K.T.Q E y.R D U ) ) ) ( Z 3.:.:.3.g.~.).~.W.(.(.F.w...>.:.O.` ( D ( U ( ) m 3.T w.B.*., 3 :X9XrXrXrXyXyX>X      ",
"      :XqXzXfXdXgXgXlX,X1 5 T.Y.Q D S ( U ( ) ) ( Y j.8.>.X.} G.W.(.Q.W.).~.v.j. .1.} 3.r.` U ( U U ) H P ` w.J.*., 9 uXuXfXgXkXjXjXdX      ",
"      9XaXaXdXgXgXjXlX,X, 5 K.R.Q ) ) ( U F ) ) ) 8.S.U W ! c b.K.(.Q.Q.(.W.S.h.R 8.K Z u.( ( ) U U ) ( ) ) w.C.*., 0 9XqXfXkXkXkXgXzX      ",
"      =XyXsXdXgXkXkXgX,X, 5 n.n.Q ( ` ` D U ) ( F Z S.~ F F L S.W.(.Q.W.~.N.5.h.F G F o.k.) ) ) U U ( U ( ) w.C.*., A.uXtXdXgXkXgXgXrX      ",
"      =XyXsXlXgXgXgXgX,X< 5 v.n.T W j.~ U ( ) ( ( h y.g.^ o.u.G.L.G.J.H.v.Z.<.S.0.0.0.S.q.` ) ) U U ( E u.T e.C.*., +XtXtXdXlXlXlXgXrX      ",
"      =XrXsXdXdXfXfXyX<X> 5 K.T.Q L | U D F ) ) ( A d ..5.S.X.w.x.5.b.V.1.x.:.s ..G.d.| U ( ) ) F D ( v  .( y.C.=., |.tXtXsXfXdXdXlXrX      ",
"      &XqXtXpXpXaXuX,X{.< 6 /././ F G ) U J J ~ D ( A g x l A 7.M.V.M.V.n.M.u.c p f c A ( ) U Y H P ) D F ) i.~.a.< 9 rXtXtXrXtXzXyX9X      ",
"        oX*X<X<X<XoXXX9 , 6 /././ ~ Y I N x z B 8.U I F A D ) q.B.B.N.V.B.B.m._ I S F U F / } z z f K K R ( i.).a., 2 oX=XoXXXoXoXXX}.      ",
"        &XwXwX9XqXaXaX|., 6 /./.8.Z b V s I ) A +./ D ) ) G G 9.B.B.M.V.B.C.u._ ) ) ( U U O.K U P M ' z C E i.(.a.< 8 *X>X8XwXqXrXrX:X      ",
"      =XrXpXfXgXgXgXkX0X2 6 /./. .K I } B E m I o.^ D ` ) ) G 7.N.B.N.V.C.Y.m._ ) ) ) I U O.K L L V } L I | y.(.a., l.qXtXfXfXlXkXlXaX      ",
"      :XyXzXdXkXhXgXkX0X7 5 /.E.V | V | Z Z Z +.} L S ) ) ) ) 0.B.M.M.V.B.M.m.T ( ( ) P U Z +.} E N o.M Z } y.(.a.< {.yXpXfXgXgXkXgXaX      ",
"      >XaXdXlXkXhXgXgX:X, 4 G.Z.2.2.2.2.....>.4.4.3.o.^ Y U ) 9.b.S.b.V.b.G.u.T F T / o.3.3.4.3.....:.2.2.3.2.n.p.< q qXzXdXgXhXgXgXsX      ",
"      0XaXfXdXlXdXdXzXoX, 4 a.[ 2.4.4.,.[ :.:.1.>.2...| m R F 9.c.5.V.V.4.b.u.T ( L Z } :.>.4.>.<.[ &.4.4.4.:.<.] , 0 9XpXdXlXgXgXgXdX      ",
"      >XtXsXdXdXdXsXyX|.< 4 S.u.V [ j } Z o.B ' [ v v U ( ( F 9.V.V.C.N.W.!.R._ ( ) ( A L N [ ' C o.| j ' } X.B.p., 0 uXsXdXlXdXdXaXuX      ",
"        7XuXuXyXpXaXyX}.< 4 v.m.} L c } E E l v | Q D ) ( U F w.!.~.Q.T.~.~.U._ ) ( ) D U o.m z m B 8.x H B >.C.p., 9 9XtXpXsXpXtX:X*X      ",
"        |.XXXX<X*X%XoXq 1 5 v.m.Z C J V ' H P ) Z W D ( ( ( F e.~.~.Q.Y.!.C.m._ ) ( ( P R  .I I H M ' v K N y.^.a., 3 OX&X&X*X&XoX|.l.      ",
"        &XqXrXrXuXuXwXOX1 4 v.n.Y m c x j n I m N U I ) ( ( G e.^.!.B.V.B.C.m.T ( ( ( P U n N L L j M z b I h.`.s., t %X&X:X:XwXrX,XoX      ",
"        qXsXgXkXkXkXjXyX7 4 v.n.Y ( ( F I l z c J ) I ) ) ( F 7.B.M.n.V.N.M.m.T ) ( ( I ( ( A l l v ) ) ( ) h.`.s., e 9XqXaXdXgXkXdX0X      ",
"        uXfXlXgXjXjXgXuX7 4 v.n.Q K y.T ) S I y./ ) I U 0.w.D 9.x.G.v.b.z.G.u._ U y.q.S F F 0.r.S U ) Q g.T h.'.s.< e uXzXsXlXgXhXgXtX      ",
"        yXdXfXgXjXjXgX9X2 4 V.m.T n X.T ) I J X./ ) U U Z 0.F 7.c.1.v.V.1.z.u._ I X.^ S F F Z 0.S U G m o.( h.'.s.< 9 wXzXfXdXdXgXgXsX      ",
"      2XzXsXdXdXgXgXgX0X2 4 M.L./ I H U U J U H T ` J R H I U 0.v.V.v.b.v.V.b.Y D J F J ~ ~ S ~ J S ~ I I ) k.'.s.< 9 eXzXsXdXfXdXdXsX      ",
"      0XyXsXsXdXdXdXdXqX8 4 K.^.D.D.D.D.D.D.D.D.D.D.D.D.D.D.D.m.M.V.b.z.v.v.V.F.I.I.I.I.I.I.I.I.I.I.I.I.I.F.R.^.=.< 0 yXiXzXpXpXsXdXsX      ",
"        yXiXtXrXpXsXzX,X3 5 K.(.(.(.~.(.~.(.(.(.(.(.~.(.^.Q.!.B.N.B.M.H./.)._.`.`.`.`.`.`.`.`.`.`.`._.)./.Y.B.N.*., 9 rXtXyXaXtXaXrX0X      ",
"        0XeX2X-X2X2X3X.X                                                                                            7 ;XqXeX0X6X:X#X        "
};
