/* XPM */
static char *_9fc3d5d5e704d56c1ce0dc26a8d6220wgmAOxFCbPqheJLs[] = {
/* columns rows colors chars-per-pixel */
"70 70 244 2 ",
"   c None",
".  c #010101",
"X  c #0B090A",
"o  c #1C150D",
"O  c #181717",
"+  c #21180E",
"@  c #241911",
"#  c #231B18",
"$  c #282726",
"%  c #3B3936",
"&  c #3C3A39",
"*  c #393634",
"=  c #342F2B",
"-  c #553C19",
";  c #473219",
":  c #7B2418",
">  c #77381C",
",  c #6D391C",
"<  c #413C3C",
"1  c #453C33",
"2  c #4F3D29",
"3  c #793D22",
"4  c #724B1E",
"5  c #59472D",
"6  c #46413A",
"7  c #574738",
"8  c #664C28",
"9  c #754822",
"0  c #755123",
"q  c #7F5B2C",
"w  c #785527",
"e  c #745834",
"r  c #5B411B",
"t  c #4F4A49",
"y  c #464543",
"u  c #514B4B",
"i  c #595757",
"p  c #564E4C",
"a  c #6D5C4D",
"s  c #6A6868",
"d  c #7D7D7C",
"f  c #767575",
"g  c #716F6F",
"h  c #931C1A",
"j  c #9C191B",
"k  c #841E17",
"l  c #A31C1D",
"z  c #A6161D",
"x  c #B5181F",
"c  c #8D231C",
"v  c #8A2B1B",
"b  c #97291D",
"n  c #8D321D",
"m  c #92361F",
"M  c #A5281F",
"N  c #A8351F",
"B  c #AD1B21",
"V  c #BB1B22",
"C  c #B51921",
"Z  c #9B2922",
"A  c #963825",
"S  c #8B3A22",
"D  c #AC2422",
"F  c #AB2C23",
"G  c #A52A22",
"H  c #B42324",
"J  c #B42B25",
"K  c #BB2A25",
"L  c #BB2424",
"P  c #A93825",
"I  c #B73727",
"U  c #C91D26",
"Y  c #D41E26",
"T  c #D41E29",
"R  c #DB1F2A",
"E  c #D81E27",
"W  c #E51E2D",
"Q  c #CD2B2A",
"!  c #C82827",
"~  c #D42227",
"^  c #D4222A",
"/  c #DC222B",
"(  c #D42B2A",
")  c #DD2B2B",
"_  c #D72527",
"`  c #C9362A",
"'  c #D1332D",
"]  c #DB342D",
"[  c #CB3931",
"{  c #D63533",
"}  c #DD2D31",
"|  c #E4232C",
" . c #EA222C",
".. c #E3292E",
"X. c #E12327",
"o. c #E42731",
"O. c #834725",
"+. c #984826",
"@. c #845C23",
"#. c #825B2B",
"$. c #895B27",
"%. c #985626",
"&. c #8A5932",
"*. c #A74627",
"=. c #BB442C",
"-. c #B64628",
";. c #A45D2B",
":. c #A65729",
">. c #B9572D",
",. c #B94A35",
"<. c #B95935",
"1. c #A85130",
"2. c #8A622A",
"3. c #9C6D29",
"4. c #98662A",
"5. c #856135",
"6. c #996C37",
"7. c #A7682A",
"8. c #B46A2B",
"9. c #A3722B",
"0. c #A67227",
"q. c #AB6A35",
"w. c #B96637",
"e. c #AC7537",
"r. c #B57632",
"t. c #B47932",
"y. c #BB7D33",
"u. c #B8773A",
"i. c #B9792D",
"p. c #874C1D",
"a. c #C5452D",
"s. c #D64A39",
"d. c #CC5C33",
"f. c #D35937",
"g. c #CA4C2F",
"h. c #CB6538",
"j. c #CC7536",
"k. c #C87839",
"l. c #D07934",
"z. c #D57C3A",
"x. c #D36A39",
"c. c #866641",
"v. c #8B6B48",
"b. c #92714D",
"n. c #916E4A",
"m. c #847F7C",
"M. c #B57840",
"N. c #CA6945",
"B. c #D86B44",
"V. c #C57541",
"C. c #D67644",
"Z. c #E16F47",
"A. c #D75F41",
"S. c #BD8234",
"D. c #BE8439",
"F. c #BD802F",
"G. c #C38435",
"H. c #CB8C3D",
"J. c #C98739",
"K. c #D4863C",
"L. c #D5943B",
"P. c #DA953B",
"I. c #DD993C",
"U. c #D79537",
"Y. c #CD9039",
"T. c #E1993E",
"R. c #BB8543",
"E. c #81807E",
"W. c #CD8D42",
"Q. c #C48A43",
"!. c #DA8744",
"~. c #CB9346",
"^. c #D3934B",
"/. c #D89846",
"(. c #D79252",
"). c #E2844B",
"_. c #E38E4B",
"`. c #E28745",
"'. c #E49D43",
"]. c #E2954A",
"[. c #E69553",
"{. c #EAA44B",
"}. c #E9A449",
"|. c #F3AB4E",
" X c #F1A74E",
".X c #EAAA58",
"XX c #F4AC51",
"oX c #F6AD56",
"OX c #F9B35B",
"+X c #CEA56B",
"@X c #FBB761",
"#X c #FCB962",
"$X c #CF9E62",
"%X c #848383",
"&X c #8C8C8C",
"*X c #898686",
"=X c #928E8C",
"-X c #949393",
";X c #9C9B9B",
":X c #999695",
">X c #96908F",
",X c #A79F9B",
"<X c #A7A29E",
"1X c #A5A4A4",
"2X c #ACACAC",
"3X c #ACA8A4",
"4X c #B6AEAB",
"5X c #B8B1AC",
"6X c #B4B3B3",
"7X c #BCBCBC",
"8X c #BAB7B5",
"9X c #ADAFB0",
"0X c #C2BDB7",
"qX c #D2BEA1",
"wX c #CEAE82",
"eX c #C7C2BD",
"rX c #CEC4B5",
"tX c #BDC2C1",
"yX c #C3C3C3",
"uX c #CBCBCB",
"iX c #CAC8C5",
"pX c #D2CCC9",
"aX c #D5D1CD",
"sX c #D4D4D4",
"dX c #DCDCDC",
"fX c #D9D7D5",
"gX c #CFCFD0",
"hX c #E5E2DC",
"jX c #DFE1E0",
"kX c #E5E5E5",
"lX c #E3E3E3",
"zX c #E9E9E9",
"xX c #EAEAEA",
"cX c #EDEDED",
"vX c #EBEBEB",
"bX c #E8E8E7",
"nX c #F1F1F1",
"mX c #F7F7F7",
"MX c #F5F5F5",
"NX c #F4F4F4",
"BX c #F8F8F8",
"VX c #F7F8F8",
"CX c #EEF0F1",
"ZX c #E1DFD8",
/* pixels */
"                                                                5X8X8X0X0XrXpXaXsX0X                                                        ",
"                                                                sXjXcXCXMXMXmXmXVXxXeX                                                      ",
"                                                                dXCXVXVXmXmXmXVXmXmXsX                                                      ",
"                                                                dXcXVXVXmXmXmXmXmXmXgX      8X                                              ",
"                                                    fXkXcXfX    fXbXNXmXNXcXCXmXNXmXuX  3XsXfXgXiX                                          ",
"                                              aXfXkXcXBXVXNXyX  gXbXcXxXxXxXCXNXvXzX9Xm.6XsXjXcXnXbXaX                                      ",
"                                          3XuXkXvXcXmXBXmXmXyXd 2XsXkXbXxXxXnXxXxXjX1X%X6XsXlXnXmXBXMXcXbXiX                                ",
"                                        <XtXyXdXvXmXBXBXmXmXuX*X6XdXlXxXxXxXxXbXxXfX:X*X7XdXlXCXmXBXBXBXMXsX                                ",
"                                        3XyXyXdXxXmXmXmXmXmXdX&X7XkXxXxXvXkXdXdXvXgX>X&XgXlXxXnXNXcXcXcXzXiX3X                              ",
"                                          8XtXdXzXNXmXmXmXMXlX:X9XlXzXzXkXdXdXlXxXuX&X;XdXzXxXCXzXkXkXlXfX7X                                ",
"                                          ;XtXdXzXcXNXmXmXCXkX9X1XjXkXzXlXdXdXkXkXyX%X1XdXzXxXzXlXdXdXiX7X=X=X0XeX                          ",
"                                  aXxXjX=X*X8XfXxXxXcXmXmXcXlX7X1XdXdXjXdXjXdXlXdX6X%X6XdXzXxXkXdXuX9X1X&Xf 2XcXMXfX                        ",
"                                eXxXmXNX7Xd ;XsXkXxXxXnXCXbXjX6X:XfXdXdXjXjXdXdXdX1X&XyXlXxXxXlXdXuX9X1Xd &XlXmXmXcXsX                      ",
"                              0XkXmXmXmXlX;X%X6XkXxXxXzXkXjXjXsX;XuXdXdXdXlXdXdXuX;X;XsXkXxXxXkXjXfX8X&Xd yXmXmXBXmXzXaX                    ",
"                            5XZXCXVXMXMXNXgX*X*XyXkXkXlXjXdXdXdX;X9XyXfXjXjXdXyX6X-X6XdXkXxXxXkXjXsX6X%X1XzXmXmXmXmXcXkXfX                  ",
"                          4XfXxXvXCXMXMXCXkX7X%X9XdXfXfXdXdXdXiX-X&X;X1X6X6X2X;X;Xd 9XgXdXlXlXdXdXtX;X-XdXxXmXmXmXcXcXlXpX4X                ",
"e.t.                      7XdXkXzXvXCXVXCXlXsX=X1XuX6XsXjXdXyX:Xg i u t y 6 6 y p i s >X6XuXdXdXuX6X&X9XdXvXVXCXkXkXkXsXyX7X                ",
"t.G.I.I.W.                4XyXdXbXvXzXCXnXlXdX2X-XtX9XtX7X&Xi < & & & & & % & % & % % < p f 3XeX7X;X1XfXkXzXcXkXjXkXkXuXtX9X                ",
"t.S.I.T.I.P.~.        5X,X>X3XeXdXkXbXvXvXkXdXtX;X:X=Xg y % % & & & = = $ 6 8 8 5 6 6 % & & t d ;X*XyXjXdXkXbXjXkXzXdX7X<X                  ",
"r.e.G.J.P.I.I.P.    eXZXiX;XE.1XiXdXdXkXzXkXdXuX1Xg t & & & % = # O X X X r 0.0.9.3.2.8 5 % % % u f 7XdXjXdXjXzXvXkXyX;Xd :XkXvXfX          ",
"r.S.U.H.y.k.L.T.U.~.rXnXjXuX3XE.;X7XuXjXjXjXdXuXg y & & % $ O X . . . . . - 0.0.9.0.0.0.3.q 5 % & y d gXjXgXuXkXkXiX-X%X1XdXNXmXkX          ",
"r.S.Y.Y.k.) g.K.I.U.+XZXNXNXvX8X%X&XtXdXdXsXuXf & & & $ O . . . . . . . . ; $.2.@.p.4.3.9.0.3.0 1 & & *XsXuX6XfXtX*X&XyXzXmXmXmXcX          ",
"r.y.y.Q.j...W ( h.U.I.$XZXBXmXhX9X*X-XyXuX7Xs * & * O X . . . . . . . . . - 3.3.%.j M b %.3.0.0.4.5 & & E.6X9X7X&X-XuXlXcXmXmXnXzXaX        ",
"r.S.G.G.j...a.s.~ d.U.I.+XbXNXvXdXtX;X-X1Xs & & * O X . . . . . . . . . . - $.6.$.z l Z j v %.9.9.4.8 % & g 1X&X:XyXdXlXNXmXmXcXzXdX5X      ",
"r.k.I.T.l.| -.g.X./ g.U.U.wXvXvXkXkXsX:Xs & & * O . . . . . . . . . . . . r 4.@.%.M v %.j j z m 4.0.3.8 & & s ;X7XsXjXxXMXNXCXkXzXjXyX      ",
"r.G.T.}.K...~ _ / W X.d.U.I.rXbXbXzXsX&Xy & & O . . . . . . . . . . . . . 0 P.Y.i.L j h B j B z b 4.3.3.5 & < &XgXdXkXxXxXxXxXxXkXdXsX      ",
"r.H. X|.`. .|  ./ | | ( h.I.^.fXxXjX8Xi & < O . . . . . . . . . . . . . . 0 T.'.K...E ~ C j z Z b b 4.0.4.6 * s sXdXkXxXkXkXkXjXdXsXyX      ",
"t.H.XX|.K.| |  ./  .a.h.' k.I.+XdXsXd & & $ X . . . . . . . . . . . . . . w |.oX].X.|  .W U C O.A z n 3.0.q < 6 1XdXdXjXjXdXfXuX8X9X3X      ",
"t.H. X}.`...|  ./ R ! =.| ` U./.rX6Xt & * X . . . . . . . . . . . . . . . #.oXXX_...X. .| ^ / V C z j m 3.3.8 % s tXfXdXsXtX9X:X*X:X0XfXpX  ",
"t.H.~.^.!... . .R / o.W  .Q h.U.+X%X% < $ . . . . . . . . . . . . . . . . #. X}.(... . .| ^ |  .| U z M %.9.2.1 < 1XyXyX2X&X-X1X0XfXcXNXlX  ",
"t.H.J.Q.!.o. . ./ R  . ./ / ] U.R.p & * X . . . . . . . . . . . . . . . . #.W.~.W.}  . . .^ |  . ./ Y V b 3.9.5 * i :X-X&X9XsXkXcXmXBXmXxX  ",
"t.W.'.}.`.| |  ./ / |  ./ / | d.P.e & $ . . . . . . . . . . . . . . . . . q H.Q.!.)  . .| ^  . . .R ~ h.I +.9.2.< y d 9XyXdXdXkXmXmXBXmXcX  ",
"t.H.XXXX`... .| / / |  .R ^ d.a.P.6.* O . . . . . . . . . . . . . . . . . q XXXX_.)  . .R ^ | |  ./ ^ -.' ` t.9.7 * f iXfXjXkXnXmXBXmXmXvXiX",
"t.H. X{.z.| | | R | |  .R U >.' j.9.= X . . . . . . . . . . . . . . . . . q XXXXP... .| W R o.| ) ! ^ ^ | / z.}.5.* g dXjXbXcXCXCXcXCXcXxXyX",
"t.G.'.{.!.| | | T |  .Q ! ! / | g.e.; . . . . . . . . . . . . . . . . . . w '.'.!.] W | / ^ | [ P G G ! ^ ) f.|.R.1 i uXjXkXzXzXxXxXxXxXzXyX",
"t.W.OX@X[... ./ / / a.P H G Q / ' e.- . . . . . . . . . . . . . . . . . . w XXOX[.)  .| W T { ,.^ T K +.F P <.}./.t p 6XdXdXkXdXkXkXkXlXlXgX",
"t.^..X.X[.W  .o./ / <.! T K A J P 7.0 X . . . . . . . . . . . . . . . . . 5.@X.X[.}  .X.W R { =.^ L I P I ~ -.Y.^.a p 1XgXdXsXuXfXfXsXgXgXeX",
"t.^.Q.~.!.o.W W Y | ,.! J F *.! b 2.0 X . . . . . . . . . . . . . . . . . 5.(.~.(.}  ...R T ( *.*.F P a.P I P Q.oXv.u *X6X7X6X1X9X9X2X2X6X3X",
"t.^.(.(._.} | | ^ ^ I 1.P P -.P Z O.#.o . . . . . . . . . . . . . . . . . 5.(.Q.(.) W / [ I <.q.e.:.:.:.7.7.1.M.$Xv.t g 1X8X2X1X7XiX1X      ",
"t.^.OX#X_...^ I >.u.u.M.8.:.1.%.9 9 6.+ . . . . . . . . . . . . . . . . . 5.@X@X[.) / I -.q.r.i.i.8.%.4.e.M.u.3.r.a u &XgXjXkXzXcXnXjX      ",
"t.^.@X#X_.| X.( J +.7.8.i.;.3.M.&.9 9 o . . . . . . . . . . . . . . . . . 5.#X#X[.) | X.T L J +.%.P 1.*.+.1.+.<..Xn.p &XfXjXcXmXmXmXvX      ",
"t.^.@X@X_.o.X.| / ^ I +.A *.+.+.3 > $.@ . . . . . . . . . . . . . . . . . 5.#X@X[.)  .| | / ] -.G F P =.A J I C.OXb.u *XsXjXxXMXmXmXkX      ",
"e.~.|.}.z.|  . .^ | a.K D P =.b : 9 6.@ . . . . . . . . . . . . . . . . . q |.}.K.)  . .| R ] I W U H *.K Q P j.#Xb.u -XfXlXcXNXCXvXfX      ",
"t.G.I.'.K... . ./ X.-./ ^ F *.l c S n.@ . . . . . . . . . . . . . . . . . w T./.!.) | ) / / ( I Q ^ J S G P ! Z.OXb.u ;XjXbXxXzXvXjXiX      ",
"t.H./.^.!.o. . ./  .K I ^ J Z c : A 6.@ . . . . . . . . . . . . . . . . . q W.^.K...a.(.[ R  .! F G G ^ / /  .x.'.c.u *XsXjXlXbXkXjXeX      ",
"t.H.J.W.z. .f.f.^ W ..K F D ! B z A 4.+ . . . . . . . . . . . . . . . X . #.W.G.!.) h./.N.E o.W  .R ^  .W ^ W h.I.c.t g 2X6X6XyXgXiX3X      ",
"t.H.'./.).( z.(.Q  .W W W / R B z v @.+ . . . . . . . . . . . . . . . . . q XX X_.` :.t.w.!  .| | | /  .( k.] h.I.c.t s :X1X1X1X1X;X&X      ",
"t.W.XXoX!.` q.R.I  .o./ o./ T A A n @.o . . . . . . . . . . . . . . . . . q oXXX~.h.;.8.:.N.o.R / | /  .! -./ f.I.c.t E.gXsXkXcXnXnXfX      ",
"t.H.XXoXK.w.;.0.w.] o./ W / Y c b m @.o . . . . . . . . . . . . . . . . . q oX XQ.C.I j.F k.s. .| / ^  .R T  .d.T.c.t &XsXsXNXmXmXmXkX      ",
"e.H.oX XW.h.>.>.1.f.W W o.T U z z n @.o . . . . . . . . . . . . . . . . . q oX}.G.f./ Q ^ <.f. . .| ^  . .W W d.T.c.u -XyXdXnXmXmXmXjX      ",
"t.H.XX}.Q.s.Q ' I x.o. . .T V z z m @.o . . . . . . . . . . . . . . . . . q XX/.u.C.o.| ~ k.s. .o.W ^  .) [ ..d.I.c.p 1XdXlXcXmXmXmXdX      ",
"e.J.}.H.G.s. .W a.x.o. .| U V l j n @.+ . . . . . . . . . . . . . . . . . 0 J.Q.4.y.<.N.k.V.}  . . .^  .! V.] d.I.c.p 8XdXlXvXCXCXCXdX      ",
"t.S.G.R.9.!.a.g.z.s.| |  .U C Z A n w + . . . . . . . . . . . . . . . . . 0 y.y.u.Z *.k.1.K  .o. . .~ | ~ J o.f.'.v.u 1XjXlXlXkXzXvXdX      ",
"t.S.y.t.7.*.M.Q.1.^  . . .U x h h n 2.+ . . . . . . . . . . . . . . . . . 0 /.U.J.! B M U T  .| ` ! L |  .X. .x.XXn.t E.fXsXuXuXsXsX8X      ",
"t.S.U.P.k.B G F U /  .Q K G V C z A 4.+ . . . . . . . . . . . . . . . . . 0 T.T.l.) R / o.R o.,.F L b I ! ` ) B.|.v.t s 1X;X&X-X:X;X*X      ",
"t.S.I.'.k.^ U R | W [ P ! h v c c A 2.+ . . . . . . . . . . . . . . . . . 0 T.I.J.)  . .| T { ,./ W K +.J J I x.XXn.t E.7XiXsXdXjXlXiX      ",
"r.S.T.T.l... . ./ / g.Q / b > h c S 2.@ . . . . . . . . . . . . . . . . . w T.T.l.) X. . .~ [ =.` ! P P I ^ I h.XXv.u 1XfXlXzXcXmXMXlX      ",
"t.S.T.T.l./  . .| ^ ,.Q K Z v c c 3 2.@ . . . . . . . . . . . . . . . . . w P.U.J.)  . .W ~ Q *.%.I I =.*.*.*.h.|.n.u 1XjXlXcXmXmXmXlX      ",
"r.S.T.I.l.X. . .| ~ I %.P A S > > 3 2.@ . . . . . . . . . . . . . . . . . 0 G.~.k.) X.! a.q.w.u.u.8.;.7.7.e.q.q.J.c.u &XfXkXcXmXmXmXzX      ",
"t.S.Y.W.k.| | ] a.<.u.u.8.p.O.$.#.9 4 o . . . . . . . . . . . . . . . . . 0 y.S.K.) X.! I *.7.8.8.8.%.;.q.e.q.7.e.e u &XsXkXCXMXMXnXzX      ",
"r.S.t.H.j.X._ I -.7.q.r.4.O.p.w 9 , 4 o . . . . . . . . . . . . . . . . . w {.{.].)  .| | U L *.+.F ,.-.+.A *.>.T.c.t =XdXkXvXxXzXlXuX      ",
"r.G.Y.~.`.X.|  .Y V P +.b A n : v > @.o . . . . . . . . . . . . . . . . . q XXXX!.)  .X.| Y ` -.H H I =.P ^ P w.P.c.t %XsXdXjXjXdX7X<X      ",
"t.H.|.XX`. .| | / ^ =.J G Z n h k > $.@ . . . . . . . . . . . . . . . . . w {.'.K._ | | | Y ` =.W T D +.J ! J h.{.n.t s 1X2X1X1X;X&Xd       ",
"t.W.XX XK.| |  ./ ^ =.^ V h > k : S 6.@ . . . . . . . . . . . . . . . . . 0 T.T.K.)  .| | Y / P K ` F Z D J _ B.@Xb.t d 9X6X6XtXsXiX1X      ",
"t.J.}.T.l... .| _ / I I H c h h j A 6.@ . . . . . . . . . . . . . . . . . 0 I.U.K.) | X.| Y  ./ H D H |  .|  .B.@Xb.u -XuXsXlXNXmXNXiX      ",
"t.S.I.I.l.|  .| X./ W H b h V B j A 6.@ . . . . . . . . . . . . . . . . . 0 G.H.k.) ^ h.{ T  .( N.' T  .) h.} Z.#Xb.t -XfXjXxXNXmXmXkX      ",
"t.S.U.L.l.../ ' _ / | a.I C C A A A 6.# . . . . . . . . . . . . . . . . . 0 y.t.j.) Q >.[ T  .Q >.( R  .! >.] Z.@Xn.t %XfXlXxXxXnXVXkX      ",
"t.S.G.~.j...` V.( / / -.I C C j h A q.@ . . . . . . . . . . . . . . . . . 0 Y.Y.k.) T T / ^ / / T / ~ / | ^ o.B.@Xn.t *XdXlXxXzXxXxXlX      ",
"r.S.r.S.l...! ! ~ R | U ! C H G Z 1.6.+ . . . . . . . . . . . . . . . . . 4 Y.J.H.!.).).).!.).).).).!._.).).C.[.{.c.u >XdXdXjXjXkXxXkX      ",
"t.G.Y.Y.l.X.| ( ' [ s.h.N.u.V.u.e.6.#.o . . . . . . . . . . . . . . . . . 0 }.XXOX@X#X#X#X#X#X#X#X#X#XOXOX.X}.I.I.c.t :XjXdXdXdXlXkXgX      "
};
