/* XPM */
static char *result[] = {
/* columns rows colors chars-per-pixel */
"70 70 220 2 ",
"   c #0D0C0E",
".  c #1C0A0A",
"X  c #0E0D12",
"o  c #100F14",
"O  c #1C0F14",
"+  c #121116",
"@  c #15141A",
"#  c #18171D",
"$  c #1A191E",
"%  c #1D1313",
"&  c #220C0B",
"*  c #2B0D0C",
"=  c #2A110E",
"-  c #33110E",
";  c #3B140F",
":  c #251414",
">  c #2B1314",
",  c #2D1817",
"<  c #2D161B",
"1  c #2C191C",
"2  c #24181C",
"3  c #341412",
"4  c #3A1612",
"5  c #341B1E",
"6  c #3B1B1C",
"7  c #381816",
"8  c #2B0F10",
"9  c #1D1C23",
"0  c #1F1E28",
"q  c #201E26",
"w  c #211F29",
"e  c #2B1C26",
"r  c #351C22",
"t  c #3B1D22",
"y  c #341720",
"u  c #1D2529",
"i  c #222227",
"p  c #22212A",
"a  c #2A282D",
"s  c #3D2224",
"d  c #36232C",
"f  c #2B2C34",
"g  c #272830",
"h  c #352B35",
"j  c #2C3A3C",
"k  c #283537",
"l  c #37343B",
"z  c #2D312E",
"x  c #441C1A",
"c  c #471B18",
"v  c #46211E",
"b  c #411F22",
"n  c #432225",
"m  c #452429",
"M  c #4B262B",
"N  c #4D292C",
"B  c #492726",
"V  c #542926",
"C  c #522B2C",
"Z  c #5A2D2D",
"A  c #532626",
"S  c #5D312F",
"D  c #492D35",
"F  c #542D31",
"G  c #5A2E32",
"H  c #44333B",
"J  c #553234",
"K  c #5C3234",
"L  c #5B3439",
"P  c #5B3A3B",
"I  c #54353C",
"U  c #633434",
"Y  c #683637",
"T  c #63363A",
"R  c #643B3D",
"E  c #6D3A3B",
"W  c #6A3838",
"Q  c #723C3C",
"!  c #622D30",
"~  c #6E413F",
"^  c #393B43",
"/  c #493947",
"(  c #583B46",
")  c #6C3D42",
"_  c #633C43",
"`  c #753E41",
"'  c #7A3F42",
"]  c #344343",
"[  c #3A4A4A",
"{  c #3A4447",
"}  c #3E5150",
"|  c #45464B",
" . c #594249",
".. c #4C4356",
"X. c #484759",
"o. c #544552",
"O. c #594B58",
"+. c #435454",
"@. c #4B5B5B",
"#. c #495658",
"$. c #53595C",
"%. c #40514E",
"&. c #6D4A4B",
"*. c #674446",
"=. c #744143",
"-. c #7C4244",
";. c #7C4549",
":. c #734C4D",
">. c #7C4A4D",
",. c #714848",
"<. c #614C59",
"1. c #784F50",
"2. c #695259",
"3. c #7A5252",
"4. c #4D605F",
"5. c #51605F",
"6. c #5B5265",
"7. c #585A66",
"8. c #4E4C61",
"9. c #635769",
"0. c #645D75",
"q. c #695F74",
"w. c #765760",
"e. c #536464",
"r. c #556867",
"t. c #566669",
"y. c #5B6469",
"u. c #576969",
"i. c #5A6C6C",
"p. c #596566",
"a. c #5D706F",
"s. c #5F7171",
"d. c #58696B",
"f. c #676779",
"g. c #637575",
"h. c #667679",
"j. c #667A79",
"k. c #6B7D7C",
"l. c #687677",
"z. c #707E7F",
"x. c #70747B",
"c. c #6A6574",
"v. c #824546",
"b. c #834649",
"n. c #844A4C",
"m. c #8A4C4D",
"M. c #8E504F",
"N. c #854D52",
"B. c #8C4E51",
"V. c #924F52",
"C. c #8D5153",
"Z. c #885358",
"A. c #935254",
"S. c #99575A",
"D. c #93585A",
"F. c #9B5A5D",
"G. c #965558",
"H. c #904C4F",
"J. c #9D5E61",
"K. c #A15D61",
"L. c #A46265",
"P. c #A8666A",
"I. c #916D6F",
"U. c #6C807F",
"Y. c #6D6A83",
"T. c #6E6E89",
"R. c #6A6681",
"E. c #716C89",
"W. c #757888",
"Q. c #7E7D9A",
"!. c #777793",
"~. c #6E708B",
"^. c #817E9E",
"/. c #6E8281",
"(. c #728584",
"). c #738886",
"_. c #768A89",
"`. c #7A8D8C",
"'. c #778688",
"]. c #7B908F",
"[. c #7F8E92",
"{. c #7F8099",
"}. c #7E9191",
"|. c #808B8D",
" X c #82849D",
".X c #848D94",
"XX c #839494",
"oX c #899597",
"OX c #86969A",
"+X c #8A9698",
"@X c #869A99",
"#X c #8B9B9C",
"$X c #849897",
"%X c #919C9F",
"&X c #8283A3",
"*X c #888AA6",
"=X c #8D9EA1",
"-X c #919EA2",
";X c #9496AA",
":X c #9798B3",
">X c #8EA2A1",
",X c #94A3A4",
"<X c #98A5A6",
"1X c #9AA6AA",
"2X c #9CAAAC",
"3X c #96A5AA",
"4X c #A0ADAF",
"5X c #A0A3A5",
"6X c #A2ADB2",
"7X c #A9AFB3",
"8X c #A4B2B4",
"9X c #AAB4B6",
"0X c #ABB6BA",
"qX c #ADB9BB",
"wX c #B2BCBE",
"eX c #8CA09F",
"rX c #B3BFC3",
"tX c #B6C1C3",
"yX c #BBC5C8",
"uX c None",
/* pixels */
"uXuXuXuXuXuXuXuXuXuXuXuXuXuXuXuXuXuXuXuXuXuXuX(.z.+.i.U.z.uXuXuXuXuXuXuXuXuXuXuXuXuXuXuXuXuXuXuXuXuXuXuXuXuXuXuXuXuXuXuXuXuXuXuXuXuXuXuXuXuX",
"uXuXuXuXuXuXuXuXuXuXuXuXuXuXuXuXuXuXuXuX).)./.U.g.@.(.U.U.k.k.uXuXuXuXuXuXuXuXuXuXuXuXuXuXuXuXuXuXuXuXuXuXuXuXuXuXuXuXuXuXuXuXuXuXuXuXuXuXuX",
"uXuXuXuXuXuXuXuXuXuXuXuXuXuXuXuXuX_.} 4._.oX`.).g.U.U.U.(.).j.k.e.uXuXuXuXuXuXuXuXuXuXuXuXuXuXuXuXuXuXuXuXuXuXuXuXuXuXuXuXuXuXuXuXuXuXuXuXuX",
"uXuXuXuXuXuXuXuXuXuXuXuXuXuXuX).].).s.} (.'.k.h./.k.j.l.U././.s.i.).).uXuXuXuXuXuXuXuXuXuXuXuXuXuXuXuXuXuXuXuXuXuXuXuXuXuXuXuXuXuXuXuXuXuXuX",
"uXuXuXuXuXuXuXuXuXuXuXuXuXuXk.XX@X$X(.+.@.k.`.`.U.s.s.g.).}.).r.h.}.XX].e.uXuXuXuXuXuXuXuXuXuXuXuXuXuXuXuXuXuXuXuXuXuXuXuXuXuXuXuXuXuXuXuXuX",
"uXuXuXuXuXuXuXuXuXuXuXuXuXU._.#XeX@X].4.} XX}.}.)./.U._.@X@X/.@._.@X$X@X@.e.(.uXuXuXuXuXuXuXuXuXuXuXuXuXuXuXuXuXuXuXuXuXuXuXuXuXuXuXuXuXuXuX",
"uXuXuXuXuXuXuXuXuXuXuXk.).`.}.XXeX>XXXu.#.`.@X>X@X@X@XeX>X@Xr.+.].XX}.}.r.i.(.j.uXuXuXuXuXuXuXuXuXuXuXuXuXuXuXuXuXuXuXuXuXuXuXuXuXuXuXuXuXuX",
"uXuXuXuXuXuXuXuXuXuXk.).].`.`.`.}.@X$Xh.+./.@X@X}./.].#XeX_.} u.XX@X).].s.i._.U.j.uXuXuXuXuXuXuXuXuXuXuXuXuXuXuXuXuXuXuXuXuXuXuXuXuXuXuXuXuX",
"uXuXuXuXuXuXuXuXuXk./.}.]././.).].$X@X).+.j.`.j.e.+.t./.].g.#.`.}.`./.k.s.s._.)./.h.uXuXuXuXuXuXuXuXuXuXuXuXuXuXuXuXuXuXuXuXuXuXuXuXuXuXuXuX",
"uXuXuXuXuXuXuXuXk.(.`.(.j.i.r.s.].@X@X_.+.@.e.t.|.l._.g.g.#.a.$X]./.s.a.i./.}.}.].s.uXuXuXuXuXuXuXuXuXuXuXuXuXuXuXuXuXuXuXuXuXuXuXuXuXuXuXuX",
"uXuXuXuXuXuXuXk.)._.U.g.a.a.a.a.U.]._.k.j j k.=X>X,X#X#X/.#.k.XX]._.).s.j._.}.}.(.a.u.uXuXuXuXuXuXuXuXuXuXuXuXuXuXuXuXuXuXuXuXuXuXuXuXuXuXuX",
"uXuXuXuXuXuXuX/.]._.j.g.s.j.j.s.u.g.g.j [ _.=X=XqXyXqX=X@X}.h.g.U.W.].`._._.).j.s.r.r.uXuXuXuXuXuXuXuXuXuXuXuXuXuXuXuXuXuXuXuXuXuXuXuXuXuXuX",
"uXuXuXuXuXuX[ g./.)./.U./.U./.s.a.i.j @.#XOX,XwXwXW.<XtX3XXX`.@.] s.).}.`._.s.@.e.k.j.j.uXuXuXuXuXuXuXuXuXuXuXuXuXuXuXuXuXuXuXuXuXuXuXuXuXuX",
"uXuXuXuXuXk.%.] s./.k.)./.)././.u.k e.eX@X1XtX6X$.w h |.tX6X(.g.s.r.k.)./.i.} 4.j._.U.g.l.uXuXuXuXuXuXuXuXuXuXuXuXuXuXuXuXuXuXuXuXuXuXuXuXuX",
"uXuXuXuX}.].`.i.[ @.4./.`.]./.a.] i.l..X2XyX1X| 0 w q a c.qX4XXX@X).i.u.4.r.k.`.(.).).U.g.uXuXuXuXuXuXuXuX& uXuXuXuXuXuXuXuXuXuXuXuXuXuXuXuX",
"uXuXuXuX}.>X>X@X4.] k r././.s.[ W.=X`.2XtX%X^ 9 q 9 0 9 u 6.7X0X@X}.).[ i.`.}.}.j.s.g.U.g.a.uXuXuXuXuX& * * = s uXuXuXuXuXuXuXuXuXuXuXuXuXuX",
"uXuXuXXX$X}.XXXX4./.s.j @.s.} W.#X@X6XtXOXl u 0 9 9 9 9 0 w $.7XqXOX[.g.[ j.}.@X_.U.j.s.g.a.uXuXuXuX& 8 x B 3 & m uXuXuXuXuXuXuXuXuXuXuXuXuX",
"uXuXuX]._.(.U./.5.].XXr.g k j.=XOX6XrXOXl 9 q 9 9 9 9 9 9 w w #.7X9X'.g.g.} /.h.e.U.).).U.r.u.uXuX& 8 B U Y V & & N  .uXuXuXuXuXuXuXuXuXuXuX",
"uXuX(.`./.a.a.j.u.).@X/.] +.@XOX2XqX-X^ 9 q 9 9 9 # # 9 9 9 0 0 $.9X6X_.}.j.[ [ _.]._.U.g.s.i.uXuX- v ! Q ` K < : - J  .uXuXuXuXuXuXuXuXuXuX",
"uX(._.).u.@.r.a.s.}.}.@.4.j.k.2XqX3X| 0 w q 9 9 # # # 9 9 9 0 w w 7.9X6X[.OXu.#.).].].].}.U.u.l 3 v U Q ' E K r 6 v ; J *.uXuXuXuXuXuXuXuXuX",
"uX/.).U.a.r.u.s.].XX@.[ =X+X-X4X6X$.w 0 q 9 9 9 # @ @ # # 9 9 9 w p x.qX1X[.}.} e._.@X].U.4.a = A U ` ` Q W N r J W 4 , P  .uXuXuXuXuXuXuXuX",
"uX/._.)././.).].}.t.k ).-X-X9X9Xl.w w 0 9 9 9 # 9 @ + # @ # # 9 0 0 f .X8X-Xh.s.+.U.U.r.] u   4 ` E ;.Q ` W m r ) m.K & s ~ uXuXuXuXuXuXuXuX",
"uXW.(.)._.`.}.}.j.k t.>X#X7XqXoXf w 0 9 9 9 9 + # + + # + 9 9 9 9 w 9 { 1X9XXXOXg.[ #.l.$.% . U ;.` -.E ' Y t t C.C.=., = B &.uXuXuXuXuXuXuX",
"uX#.@.4.u.s./.U.[ j #X=X1X0X6XX.w 9 9 9 9 # # @ + + + + + + @ 9 9 9 9 q y.7X1X#X@X[ e.|.H . : =.n.v.) E ' T m t D.H.=.n v = P &.uXuXuXuXuXuX",
"uXk.(.k.s.i.u.5.u 4.>X>X8X9Xx.p w 9 9 9 9 + 9 + + + o + + @ 9 @ # 9 9 9 g +X7X;XeXk.%.| - 3 1 ;.B.b.R G Q E m t Z.M.) K U 3 : *.&.uXuXuXuXuX",
"uX].>X#X}.`.(.g.] j.k.2X9X-X^ w w 9 9 $ + 9 + + + + o + + + + @ @ 9 9 9 9 #.6X1X%X%X| = v v 1 =.B.H.T M =.Q B t N.n.n.=.Q B . m :.uXuXuXuXuX",
"uX`.eX$X_.)./.u.t.3X=X4X2Xl.p w 9 9 $ # 9 + + + o o o o + + o 9 # # 9 9 9 g `.1X,XU.d ; S A 5 ) A.b.) M -.Q N t n.m.C.m.;.Z & . ~ &.uXuXuXuX",
"U.U._._.`.).(.4.(.3X1X8X2X{ w w 9 9 # # + + 9 + o o o o o + + + @ # # 9 9 9 $.7X2X$.3 V E C 5 _ S.;.=.N -.E Z t >.G.;.b.n.K 1 . n 3.uXuXuXuX",
"(.k.g.a.W.)./.@.OX;X1X0X|.g w 0 9 9 @ @ @ + + + o o X X o o + + @ @ @ 9 9 9 f ;X5XB c Q Q F y T J.' ;.G -.Q G t ;.F.;.v.b.U 5 : - =.:.uXuXuX",
"(.U.t.5.j.).U.5.,X3X6X9X7.0 0 9 9 9 9 # @ @ + + o X X X X o + + + @ @ # 9 9 0 k.'.- V ~ ' U r T J.' b.` -.Q T t ` K.b.v.n.U t < 3 A 3.uXuXuX",
").U.i.e.a.U.s.r.3X3X6X2X^ w w 9 9 9 + @ + + + + o X X X X o o + + @ @ # 9 9 9 $. .- U b.n.U y U J.' n.b.-.` T t ) L.n.-.n.U s 6 n 4 :.,.uXuX",
"uXU.g.s.s.j.a.i.,X3X8X=Xf w w 9 # @ @ + + + + + X X     X X o o o @ @ @ @ 9 9 f 5 x Q B.b.U t L J.' b.N.-.` U m R L.b.n.m.U s t A 4 K :.uXuX",
"uXuX#.$.#.#.@.a.}.oX#Xk.p q q $ 9 + 9 @ + o o X X X X     + X X + @ + @ # $ 9 e - V ~ V.v.Y n L A.-.-.n.-.-.! n U L.m.B.b.R s s Z x n 3.uXuX",
"uXuX(.`.).k.j.U.XXoX.Xe.w q q $ 9 9 o + + o o X           X X + o o + @ @ 9 9 : 3 ! v.A.v.Y M K B.-.-.;.;.=.S s K L.B.n.;.Z 5 m Q B 7 3.uXuX",
"uXuXz.(.U.g.U.#X2X4X%X7.w w q # @ @ @ + o o X X             X X o + @ @ # # 9 % 6 Y m.m.b.E B F D.-.-.b.v.` K t G P.C.B.-.M 5 C >.B 3 :.uXuX",
"uXuXU.XX.X,X4X5X#X1X2Xy.w w q $ 9 @ + o o o o o X   X       X X o + + @ @ # 9 O 7 Z -.v.~ Y m M C.' ` ;.;.=.Z r J P.C.B.E m 5 T n.v ; 1.uXuX",
"uXuX.X,X2X4X4X4X>X|.2Xp.w q 9 $ @ @ + o + o o o X X X   X X X X X + + @ @ # 9 f ..O.<.<.O.( l H *.( L _ L G m < N N.;.' Y t 5 ` ,.v ; >.:.uX",
"uXuXl.(.'.'.U.i.e.e.l.#.w 9 9 # @ + @ + + o o o X X X X X X X X X X + + @ # 9 X.!.;X X:X&X^.^.Q.!.!.E.E.f.q.9.8.6.9.<.O. .l h ( I d 1  .<.uX",
"uXuXl.h.U.g.#.@.i.g.s.%.q 9 9 # 9 @ + + o + o X X X X X X X X o o o + + @ # 9 ^ 0.f.E.!.!.^.^.&X^.&X&X&X:X&X;X&XQ.!.!.~.E.E.E.!.0.Y.6.X...uX",
"uXuXXX#X,X2X>X+X+X#X#X$.q 9 9 # + @ @ + + o o X X X X X X X o X X o o + + # 9 # 1 m F L I I H / o.o.O.O.9.6.7.0.0.0.f.R.R.f.f.^.R.{.R.X.X.uX",
"uXuXoX2X,X8X,X|.@X#X#Xp.i 2 9 # 9 + @ + + + + + o X X o X X X X + X o + + # $ % 7 S ~ m.-.Y n 6 E U U ! U N < r ( G J I H h h H / / ^ o.o.uX",
"uXuXXX4X9X2X$X+X,X+X#Xp.u 9 9 # 9 @ @ + + + + + o o X X X + o o X + o + + # $ : v ~ m.S.V.~ C n N.n.b.B.B.=.n M C.m.v.v.U b , F E 6 8 ,.:.uX",
"uXuX`.,X2X>X+X+X+X>X#Xp.q q 9 $ + @ @ + + + + + X X X o o o o o + o + + + # # : c Q M.F.H.-.C n N.M.b.A.m.' F M D.G.M.A.Q M 5 ) C.V 4 3.:.uX",
"uX(.l.p.+.e.e.+.#.p.i.{ q 9 $ # 9 + @ @ 9 @ + + +   + o o o o + o + + + + # $ : c Q A.S.A.-.F n N.n.b.A.n.-.N M G.G.M.b.! 6 < T A.A 4 >.:.uX",
"#X<X5X#X`.XXXXe.e..XoX@.9 9 9 9 9 + @ @ + @ + + +   + X X + + + + + + + @ @ 9 : c ~ M.A.S.~ J b N.b.M.C.n.Q N F F.A.M.E N H d K C.B 4 3.:.uX",
"#X,X%X2X9X9X2Xj.g.9XqXl.9 9 9 9 9 9 @ + + + @ + + + o + + + + + + + + @ @ # 9 : c Q M.M.K.v.Z n n.b.C.V.m.Q M F J.A.b.C <.W.6.L M.A 4 3.:.uX",
"oXoXoX7X9XoX<XU.i.,X+Xg.0 0 9 + @ @ 9 + @ @ @ + + + + + + + + + + + @ + @ $ $ : c ' H.n.S.~ Z n C.b.A.H.m.W B K J.A.-.A / c...M M.V 7 1.:.uX",
"|.|.2X4X$X|.@X4.k.%XOXf.0 0 9 9 9 9 + 9 @ @ @ + + X + + + + + + + @ @ @ @ $ 9 : c ' M.m.A.Q V M C.b.G.H.m.Y m K L.G.-.J 2.y.o.I N.V 4 1.:.uX",
"uX$X).U.U.l.@.j r.g.i.] i q q 2 9 $ # @ # @ + @ + + + + + + @ @ + @ @ @ # $ 9 : c Q F.A.V.=.M M F.m.G.V.m.U t R K.D.b.2.O.1 a <.Z.V 4 1.:.uX",
"uXuXg.U.U.j.i.g.p.i.i.{ q q 9 9 $ $ # @ # @ @ @ + + + + + + @ + @ @ @ @ # 9 9 > c Q K.F.m.Q m F J.C.A.A.b.U t E K.n.B.w.D & O  .Z.V 4 1.:.uX",
"uXuX|.,X<X2X+X.XoX,X@Xe.w 9 9 $ $ $ # # # @ @ @ @ + @ + + @ @ @ @ @ @ # # 9 9 > c Q F.S.m.E m G L.A.V.A.b.Y t R J.=.J.Z.2.l a ( D.A 4 >.:.uX",
"uXuX+X4X8X8X%X`.'.%X#X$.w q q 9 $ $ $ $ @ # # @ @ + @ @ @ + @ @ @ @ @ # # 9 u > c Q G.G.n.E t L P.G.V.A.B.T t T D.L J.B.n.*.m C M.V 3 :.:.uX",
"uXuX|.+X1X4X2X,X#X}.@X@.w w q 9 $ $ $ $ # # # # @ @ @ @ @ # @ # @ # # # $ q q > c Q A.S.b.Y t ) P.A.V.A.m.Q t T Z.F K.V.n.~ n n ;.Z 4 ,.:.uX",
"uXuX'.XXXX+X>X,X#XOX}.7.w w 9 9 u 2 $ $ $ # # $ @ @ @ # # @ # # # # # $ $ 9 q : c W H.H.v.U t =.K.A.B.V.n.Q s K J.b J.S.m.E n t E S ; ,.:.uX",
"uXuXU.l.+.[ u.g.h.g.u.^ p w w 9 $ $ 9 $ $ $ $ $ # # # # # # # $ $ $ $ $ $ 9 q h D ( *._ P D r ( ~ =.-.' ~ K t N Z.r Z.V.n.E n y T K 3 &.&.uX",
"uX#X2X%XXXoX<X,X+X).@.0 p w w 9 i $ 9 $ $ $ $ $ # $ $ $ $ $ $ $ $ $ $ 9 9 q w X.W. X^.&X!.!.T.E.f.c.q.q.9.O./ / <.^  .*._ J d e M M > *.&.uX",
"uX+X,X9XqXtXqX8X%Xe.#.k w w w q 9 9 9 9 9 $ 9 $ $ $ $ $ $ $ $ $ $ 9 2 u 9 q p 8.T.Q.^.*X X&X*X*X*X*X&X&X:X^.;XQ.!.E.E.E.R.R.0.0.7.7.../ 8.uX",
"uXXXoX,XqX4X8X<Xi.a.+X{ w w q q q w 9 9 $ 9 $ 9 i $ $ $ 9 $ 9 9 9 $ $ 9 9 w p e d D  .( o.o.X.6.9.0.q.f.Y.f.E.T.E.T.E.E.~.T.~.&XY.*Xf.X.X.uX",
"uX#X<X<X<X2X>Xg.a.1XoXj w p w q 9 9 0 9 9 9 9 $ $ $ $ i 9 9 9 9 u 9 u 9 0 p p : c ! Q Q U n > F F L N L J N d d ( / / ( ( ( / X...O.X...o.uX",
"uX`.(.(.(.U.#.e._.oX).j p w w q w w 9 9 9 9 9 9 $ i $ q $ i 9 9 2 9 9 q 0 p i , c Q V.m.n.T 5 =.b.C.-.V.B.E m t ;.U ) ' ) U b e 1 6 > ( *.uX",
"uXuX$.e.i.p.#.g.t.i.e.] p p w w w 0 0 9 q 9 w 9 i q 9 q 9 q q q w w w w w p p < c W H.m.n.U 5 ) B.A.B.G.V.-.M b A.>.A.S.B.n.T t s v ; ~ =.uX",
"uXuX`.$X#X>X>X,X[.=XXX7.p p g w w w w w w w 0 0 w 0 w 9 w w 9 w w w w w w p i 1 c W m.H.m.Y 5 R B.A.B.A.B.-.N t N.n.A.S.V.m.W t s v 3 R *.uX",
"uXuXoX>X,X>X=X[.[.=X=Xy.e g w w w w w 0 w w w q q w w w w w w w w w w w p p p , c W m.m.m.Y r L B.G.G.V.m.-.F b N.D.S.S.A.m.E s 5 v 3 P ~ P ",
"uXuXOX,X,X,X@X.X'.OX2Xy.w w g w w p p p w p w p w w w w w w p p w w p w p p i , c Q m.b.B.Y t F A.V.D.V.m.-.F t b.F.F.S.V.B.=.m r 6 ; P ~ P ",
"uXuX.X#X#X,XoX>X`.XX-Xy.u p p p p p p p p p p w p p p p i w w p p p p p p p p 1 4 E m.v.b.E s M C.B.F.C.b.-.G t ;.L.K.S.V.H.' M y 7 ; P ~ P ",
"uXuXuXuXuXuXuXuXuXuXuX$.i p p p i p i p i i a p p i p i i i i p i p p i p p i 1 4 E n.v.b.Q m m B.B.S.B.b.v.G t -.L.F.A.V.A.v.Z e 7 4 K P I ",
"uXuXuXuXuXuXuXuXuXuXuXuXuXuXuXuXuXuXuXuXuXuXuXuXuXuXuXuXuXuXuXuXuXuXuXuXuXuXuXuXuXuXuX;.>.) m s n.m.A.b.v.-.U t =.P.S.A.V.V.v.G < 3 4 Z P P ",
"uXuXuXuXuXuXuXuXuXuXuXuXuXuXuXuXuXuXuXuXuXuXuXuXuXuXuXuXuXuXuXuXuXuXuXuXuXuXuXuXuXuXuXuXuXuXuXuXuXuXuX;.=.` G 5 U F.H.m.v.n.~ Z < 8 3 J P uX",
"uXuXuXuXuXuXuXuXuXuXuXuXuXuXuXuXuXuXuXuXuXuXuXuXuXuXuXuXuXuXuXuXuXuXuXuXuXuXuXuXuXuXuXuXuXuXuXuXuXuXuXuXuXuXuXuXuXuXuXU ! Z A 6 & . - J uXuX",
"uXuXuXuXuXuXuXuXuXuXuXuXuXuXuXuXuXuXuXuXuXuXuXuXuXuXuXuXuXuXuXuXuXuXuXuXuXuXuXuXuXuXuXuXuXuXuXuXuXuXuXuXuXuXuXuXuXuXuXuXuXuXuXuXuXuX= uXuXuX"
};
