/* XPM */
static char *result[] = {
/* columns rows colors chars-per-pixel */
"70 70 222 2 ",
"   c #170909",
".  c #1A1617",
"X  c #240C0C",
"o  c #2B0D0C",
"O  c #2B110E",
"+  c #26140D",
"@  c #32120E",
"#  c #39140F",
"$  c #2B1314",
"%  c #2D161B",
"&  c #2D1B1B",
"*  c #261414",
"=  c #331413",
"-  c #3B1513",
";  c #32161B",
":  c #331A1C",
">  c #3A1C1E",
",  c #3D1913",
"<  c #2B0F0F",
"1  c #2C201B",
"2  c #34221C",
"3  c #38211F",
"4  c #2C1C23",
"5  c #351D22",
"6  c #3B1E21",
"7  c #1A292A",
"8  c #29272A",
"9  c #352221",
"0  c #3C2123",
"q  c #35292C",
"w  c #3A2C38",
"e  c #253435",
"r  c #2B3B3B",
"t  c #283637",
"y  c #393639",
"u  c #2F2A33",
"i  c #431A16",
"p  c #431C1B",
"a  c #461A1A",
"s  c #4A221E",
"d  c #431F22",
"f  c #432225",
"g  c #45252A",
"h  c #4A252A",
"j  c #4D2A2C",
"k  c #4B2626",
"l  c #532B2C",
"z  c #5B2D2C",
"x  c #542727",
"c  c #452C34",
"v  c #542D31",
"b  c #5A2E31",
"n  c #45363C",
"m  c #5C3134",
"M  c #57373A",
"N  c #5D302D",
"B  c #622E2D",
"V  c #63302F",
"C  c #612E32",
"Z  c #643434",
"A  c #6A3535",
"S  c #643639",
"D  c #6A363A",
"F  c #65393B",
"G  c #6C3A3B",
"H  c #683836",
"J  c #733B3D",
"K  c #753A3D",
"L  c #76413F",
"P  c #383B43",
"I  c #363740",
"U  c #4C3B44",
"Y  c #453845",
"T  c #533D4A",
"R  c #573C45",
"E  c #453F50",
"W  c #6A3D41",
"Q  c #743D41",
"!  c #7B3F41",
"~  c #344444",
"^  c #3B4C4C",
"/  c #384747",
"(  c #394C4C",
")  c #4A4749",
"_  c #58424D",
"`  c #494653",
"'  c #544554",
"]  c #5B4B5B",
"[  c #5A4654",
"{  c #435454",
"}  c #465959",
"|  c #4C5C5C",
" . c #4A5656",
".. c #525A58",
"X. c #4E514F",
"o. c #754143",
"O. c #7C4344",
"+. c #7D454A",
"@. c #7D494D",
"#. c #77454A",
"$. c #634855",
"%. c #774A52",
"&. c #6B4C52",
"*. c #57615F",
"=. c #4D605F",
"-. c #595A68",
";. c #565F6A",
":. c #685E6B",
">. c #4E6161",
",. c #536464",
"<. c #5B6464",
"1. c #566969",
"2. c #5B6C6C",
"3. c #596868",
"4. c #5C706F",
"5. c #5C6972",
"6. c #5E7272",
"7. c #626C6B",
"8. c #6D6B6D",
"9. c #676779",
"0. c #637474",
"q. c #647877",
"w. c #667A79",
"e. c #6B7C7C",
"r. c #697676",
"t. c #717E7E",
"y. c #717175",
"u. c #726F72",
"i. c #824445",
"p. c #824649",
"a. c #854A4C",
"s. c #8A4B4D",
"d. c #89474C",
"f. c #844D52",
"g. c #8C4E51",
"h. c #924D52",
"j. c #8D5153",
"k. c #88535A",
"l. c #935255",
"z. c #955559",
"x. c #9A565A",
"c. c #95595C",
"v. c #9C5A5D",
"b. c #985556",
"n. c #8A504F",
"m. c #A1595C",
"M. c #9C5D62",
"N. c #975C60",
"B. c #A25E62",
"V. c #9E6264",
"C. c #A46266",
"Z. c #A8666A",
"A. c #6C807F",
"S. c #71817E",
"D. c #6E6E8B",
"F. c #6B6B85",
"G. c #726D88",
"H. c #6E7884",
"J. c #73738D",
"K. c #727C82",
"L. c #7C7A94",
"P. c #7D7E9B",
"I. c #767693",
"U. c #7F7FA0",
"Y. c #827F95",
"T. c #6E8281",
"R. c #738484",
"E. c #798586",
"W. c #748887",
"Q. c #758689",
"!. c #788789",
"~. c #768A89",
"^. c #7B8C8C",
"/. c #788887",
"(. c #7C908F",
"). c #7E8E92",
"_. c #7D819D",
"`. c #7E9292",
"'. c #7F80A2",
"]. c #818E8F",
"[. c #81918F",
"{. c #818E91",
"}. c #83839C",
"|. c #89859D",
" X c #839494",
".X c #899596",
"XX c #849897",
"oX c #859699",
"OX c #899699",
"+X c #869999",
"@X c #8B9C9C",
"#X c #889897",
"$X c #929E9F",
"%X c #92A19E",
"&X c #8DA09F",
"*X c #8385A2",
"=X c #8A8BA5",
"-X c #8E9EA1",
";X c #919FA1",
":X c #9293AC",
">X c #8EA1A2",
",X c #8EA2A8",
"<X c #94A3A4",
"1X c #99A6A7",
"2X c #96A5A9",
"3X c #99A6A9",
"4X c #9CAAAB",
"5X c #97A8A8",
"6X c #9EACB0",
"7X c #A2ADAE",
"8X c #A1AEB2",
"9X c #A4B2B3",
"0X c #A9B4B6",
"qX c #AAB5BA",
"wX c #ADBABC",
"eX c #A6B5B9",
"rX c #B1BDBE",
"tX c #A0B1AD",
"yX c #B2BEC1",
"uX c #B5C2C3",
"iX c #BCC6C8",
"pX c None",
/* pixels */
"pXpXpXpXpXpXpXpXpXpXpXpXpXpXpXpXpXpXpXpXpXpXpXpXpXpXpXpXpXpXpXpXpXS.,.r e.S.pXpXpXpXpXpXpXpXpXpXpXpXpXpXpXpXpXpXpXpXpXpXpXpXpXpXpXpXpXpXpXpX",
"pXpXpXpXpXpXpXpXpXpXpXpXpXpXpXpXpXpXpXpXpXpXpXpXpXpXpXpXR.R.R.e.H.e.^ 1.R.e.e.e.6.A.pXpXpXpXpXpXpXpXpXpXpXpXpXpXpXpXpXpXpXpXpXpXpXpXpXpXpXpX",
"pXpXpXpXpXpXpXpXpXpXpXpXpXpXpXpXpXpXpXpXpXpXpXpXe.t ,.R.(.XX(.~.~.6.2.~.T.T.R.W.T.A.A.R.pXpXpXpXpXpXpXpXpXpXpXpXpXpXpXpXpXpXpXpXpXpXpXpXpXpX",
"pXpXpXpXpXpXpXpXpXpXpXpXpXpXpXpXpXpXpXpXpXW.W.R.R.| ~ R.`.`.W.e.w.A.T.w.w.w.e.T.A.A.A.6.,.R.W.pXpXpXpXpXpXpXpXpXpXpXpXpXpXpXpXpXpXpXpXpXpXpX",
"pXpXpXpXpXpXpXpXpXpXpXpXpXpXpXpXpXpXpXw.~.`.+X`.R.A./ =.4.4.w.R.W.A.w.w.q.6.A.T.(.(.A.>.A.(.(.(.W.t.pXpXpXpXpXpXpXpXpXpXpXpXpXpXpXpXpXpXpXpX",
"pXpXpXpXpXpXpXpXpXpXpXpXpXpXpXpXpXpXA.A.`.+X&X+X`.E.1.e q.XX+X`.R.A.w.6.6.A.~.`.`.(.1.( ~.`.`.`.XXA.r q.pXpXpXpXpXpXpXpXpXpXpXpXpXpXpXpXpXpX",
"pXpXpXpXpXpXpXpXpXpXpXpXpXpXpXpXA.W.W.(.`.>X>X&X+X~.q.t q.[.XXXXXX`.(.(.`.XX>X&X`.~.( 1.(.`.`.`.`.~.e w.R.0.pXpXpXpXpXpXpXpXpXpXpXpXpXpXpXpX",
"pXpXpXpXpXpXpXpXpXpXpXpXpXpXpXe.W.(.(.(.`.`.+X,X&X`.w.~ 0./.+X@X&X+X+X+X+X+X>X&X(.4.t A.`.`.(.~. X(.~ A.).T.q.pXpXpXpXpXpXpXpXpXpXpXpXpXpXpX",
"pXpXpXpXpXpXpXpXpXpXpXpXpXe.e.(.`.~.~.~.(.~.`.+X+XXXW.^ | R.XXXX(.T.1.1.R.XX@X+XR./ >.~.+X`.~.W.W.W.=.q.~.W.S.q.pXpXpXpXpXpXpXpXpXpXpXpXpXpX",
"pXpXpXpXpXpXpXpXpXpXpXpXe.e.~. X~.W.T.6.A.~.`.`.+X+XW.2.~ T.W.0.>.1.=.>.2.6.R.^.1.( R.+X^.W.R.T.w.6.6.0.^.^.~.W.r.pXpXpXpXpXpXpXpXpXpXpXpXpX",
"pXpXpXpXpXpXpXpXpXpXpXw.T.^.~.T.6.4.1.1.,.A.(.`.+X+XW.0.e ,.} >.W.@XR.A.@XR.2.2./ 6.`.+X(.~.T.6.2.1.q.R. X(.[.`.q.0.pXpXpXpXpXpXpXpXpXpXpXpX",
"pXpXpXpXpXpXpXpXpXe.e.^.`.T.w.0.4.4.4.6.4.4.6.~.~.W.e.r 7 ^ K.>X@X@X7X4XOX@X@Xw.{ w.~.`.(.~.^.W.w.w.W.W.XX~.^.A.6.1.| pXpXpXpXpXpXpXpXpXpXpX",
"pXpXpXpXpXpXpXpXpXA.R.`.(.T.w.w.6.6.A.6.e.6.>.4.A.,.e r 0.@X-XOX1XuXiXiXrX1X XOXXXe.2.0.0.q.T.`.W.~.W.~.R.A.6.4.1.1.4.pXpXpXpXpXpXpXpXpXpXpX",
"pXpXpXpXpXpXpXpXt >.A.T.W.T.T.A.A.T.T.T.T.6.6.q.^ e | XX-X X@X0XiXuX@X@XuXiX0X#X`.XX0.^ ~ 2.w.^.(.(.(.W.w.,.( 1.A.w.q.A.pXpXpXpXpXpXpXpXpXpX",
"pXpXpXpXpXpXpXe.} r ( q.T.A.w.R.T.R.W.W.T.w.5.r e H.<X-XOX8XuXuX7X8.q q u.tXiXuX4X!.1.R.q.} 6.A.W.W.A.1.{ ^ 2.A.W.W.w.6.r.pXpXpXpXpXpXpXpXpX",
"pXpXpXpXpXpX^.^.~.e.{ ~ =.>.1.T.^.(.^.T.w.1.r =.0.0.).-XeXuXrX.X) * o X * X..XwXyX8X.X).-X).5.2.4.=.} ,.w.~.~.T.W.W.W.A.6.r.pXpXpXpXpXpXpXpX",
"pXpXpXpXpXXX&X>X>X+X+X=.r t e 4.R.W.A.A.=.r w.<X XK.2XyXuX8Xr.e   = k p @ o n r.<XyXrX4X).{.XX0.~ =.A.^.`.`.~.w.6.q.w.A.w.4.q.pXpXpXpXpXpXpX",
"pXpXpXpX[.+X`.XXXX`.+X} 4.W.} e { q.w.} ^ ^.<X+X@X9XuXyX@X*.8   = l Z D x > X q 7.$XuXuXqXoX!.@Xq.~ =.W.oX@X+X^.A.q.6.6.6.q.4.pXpXpXpXpXpXpX",
"pXpXpXpX(.`.W.W.A.A.~.( A.>X~.=.e e t } XX-XoX,XqXuXqX^.X.& X X > Z K G D l p o & ..].wXyXqX@Xe.2.0.{  .T.XX0.1.0.T.R.A.e.q.>.1.pXpXpXpXpXpX",
"pXpXpXE.`.(.T.6.4.A.A.} T.`.+X~.| 7 { #X@X{.2XeXwX9Xt.) = a > % d S J ! Q D Z a # : ` Q.yXuXwX#Xe.[. X} { | / ~.(.^.~.W.q.6.1.,.0.pXpXpXpXpX",
"pXpXT.^.(.A.1.=.1.q.4.2.T.XXXXq./ | 1.w.oX4XqXqX4Xr.y * i D m 9 5 S J D J Q J A x p   / R.0XrXqX;X~.).oX| e w.`.~.^.~.W.W.~.T.6.6.pXpXpXpXpX",
"pXpXT.~.A.2.>.} >.1.2.T.+X(.2.e 3.-X).Q.2X8XyX2X7.y   > D f.o.f 4 h J K Q Q O.J Z H O   ~ A.0XyXqX7X).).oX| ^ w.~.`.+X).^.^.6.^ / r pXpXpXpX",
"pXe.W.~.T.A.q.6.q.A.~.`.`.,.e ;.:X@X@X8X8X9X2X9.y o O f d.g.c.c % 0 A ! Q D +.! L a.x     y R.0XyX0X3X).Q.6.( } T.`.^.T.1.^ ~ } 4.4.pXpXpXpX",
"pXK.T.^.~.W.W.~.(.(.`.^.,.7 ^ ,X>X+X8XeXyX4X7.y X , k f j.p.C.m % g Z ! @.C o.p.L j.G $   X n ^.wX0X0X3XH.H.`.^ 1.6.1.>.{ ^ w.W.~.~.R.pXpXpX",
"pXpX0.w.A.T.R.^.`. X~.2.e I `.,X+X4XqXqX9Xr.y   # z M k f.s.M.v ; j J J o.v D f.K x.o.& $ O + ) .XwXwXeX;XoX-X!.~ t 2.W.`.(.XX+X`.`.W.A.pXpX",
"pXpX} } } } =.1.4.4.3.r 7 !.4X>X2X0XqXqXS.P   X x L o.F g.i.M.j : j L o.D 0 W l.o.v.F % : f , * X.3XyX8X6X-X).;X6.t w.+X&X`.`.`.W.(.W.A.pXpX",
"pXE.!.XX`.W.A.w.6.6.| 7 ^ !. X;X9X0X8X{.X..   = Z p.i.v.p.d.V.h 5 v J O.D 5 Q g.! V.m 5 f l l # ; 7.9XwXqX4X@XOX>X{ { W.XX~.T.A.6.1.=.1.pXpX",
"pXR.+X,X&X`.~.`.W.e.3.r !.w.K.6X7X9X1X-.8     d F a.O.g.L l.c.0 0 S D i.W d #.d.O.V.m ; g Z G s @ q E.qXqX4X3XOX<X~.r 0.~.T.6.1.2.w.1.~ r pX",
"pXR.XX@X`.(.~.T.W.w.{ 1.4X-X;XeX7X1Xt.n X + * g G a.O.p.i.m.j.f d S Q p.W x @.+.p.V.v : h A L H a O ) 1XqX5X4X<X!.e.~ } T.T.4.1.A.W.~.~.,.pX",
"pXw.W.R.R.(.W.R.~.q.( `.2X-X6XqX0X.XX.: @ = % h G a.i.+.a.C.f.0 g D W ! Q S d.! a.V.v : v J o.O.N # $ u.9X9X0X4X XXXq.r w.(.W.W.~.T.T.W.R.pX",
"S.A.w.4.1.A.T.~.~.2.} 2X-X:X4XqX9Xr.q i i > % j G g.i.O.g.Z.f.> j W Q ! Q +.g.! g.V.l ; v Q a.p.H a o n $X9X9X8X<X;X<X/ 1.W.`.~.W.W.W.W.w.pX",
"A.T.w.>.>.4.T.~.E.| 2.4X-X6X9XqX@X .O s x 0 4 j H s.d.+.s.Z.#.0 j D Q p.! k.d.! f.M.j : v J n.s.O.z @ & y.8X8X9X2X;X5X>.| ~.`.~.~.W.(. Xw.r.",
"E.T.w.>.>.1.6.A.e.} R.2X:X8X8XqXE.y X l v d 4 j G p.l.a.g.Z.o.> h D K ! i.s.+.! p.c.l 6 m G d.j.p.Z a = X.%XqXqX7X;X4Xr.} R.`.XX^.~.^.`.T.e.",
"R.R.e.0.6.6.w.H.R.^ ^.2X<X8X8X8X7.4 o b S d ; d Z +.p.a.s.Z.D ; d C K Q ! +.! K +.f.j 6 b H O.g.! G s o q t.eXqX8X;X6XR.~ q.W.R.T.e.w.w.w.R.",
"pXpX .} } } { | | ^ ~.OXOX;X<XOX| u 4 c R w 8 q c R R M _ %.n q w c M R R M R M R W w w n M R W R R c 5 u ;.-X<X;X-X-XK.r ^ } | }  .{ pXpXpX",
"pXpX2.w.R.A.0.q.q.r.K.^.{.{.~.r.` -.9.G.:.9.F.9.9.F.F.F.G.G.D.D.J.Y.G.Y.Y.J.I.I.L.L.I.P.L.Y.I.*XY.J.Y.9.-.5.Q.).{.oXoXoX.X`.H.+X.X^.t.pXpXpX",
"pXpXE.~.W.^.w.0.0.Q. X4X4X1X Xe.| -.J.=X9.L.=XF.G.D.I.I.I.I.I.I.=X:XL.:X=XY.*X*X*X=X*X*X*X*X*X:X}.Y.:XJ.5.9.XXXX@X1X7X4X4X4X#X9X9X1X~.pXpXpX",
"pXpXpX0.^.R.K.^.-X2X2X;X4X7X%Xe. .E Y E ' ) E E E T ' T ] ] ] ` E ` ' ' [ ] ] ] ] ] ] ` ] -.] ] $.[ ' P P 2.).Q.e.S.^.@X4X9X1X4X4X1X^.pXpXpX",
"pXpXpX X5X<X4XtX9X4X4X-X^.9X5XR. .* o a Z m : * ; l S b Z G H 0 * ; 6 b C Z v x Z m ; ; k z Z G D z k X . 3. XQ.R.^.W.^.<X4XtX9X3X@X].pXpXpX",
"pXpXpX~.@X<X<X1X5X<X@X Xr.[.@Xw. .; - z j.a.g ; k J g.a.j.l.v.W 5 5 z p.p.g.+.Q j.@.g x D o.n.z.j.G H , & 1.Q.T.~.`. X^.^..X$X+X@X~.R.pXpXpX",
"pXpXpX2.5.0.0.4.| ^ ^ ^ | { 2.|  .& - C l.p.g : l J j.s.l.h.v.o.5 6 D g.s.d.a.! z.o.g l G p.l.b.s.! z , & | 6.4.0.7.3.} | 7.2.,.>.,.pXpXpXpX",
"pXpXpXR.R. X].^.0.2.R.Q.E.E.S.4...2 i B l.o.g : m K s.n.h.l.M.Q 6 h Q s.l.d.a.p.z.Q 6 l G p.l.b.g.p.V - & 3.).!.OXXX^.R.~. X X^.`.^.R.pXpXpX",
"pXpXE.OX1X@X7X7X4X$XXX.X@X<X#Xw...2 i V l.Q 9 5 v o.d.l.s.x.B.F > v o.d.h.h.i.i.x.Q 5 l Q p.l.v.l.a.V i & 5.@XXX;X4X1X X X{. X@X+X.XE.pXpXpX",
"pXpXE.@XtX%X4X9X1X^.^.@X@X#X@Xe.*.2 # V c.W U T M o.d.l.s.x.C.Z 9 m L a.h.z.a.i.M.W 5 l Q p.x.v.z.a.z i 1 7. X@X9X9X4X5XOX!.e.^.>X.XR.pXpXpX",
"pXpXE..X4XwX9X4X.XXX@X<X%X X&XA.<.2 i z %.$.9.I.8.W i.g.h.h.Z.W 0 v J a.g.z.s.L M.W : v Q p.B.h.z.a.H i 1 7.^.-X2X4X4X6X8X6X). X2XXXe.pXpXpX",
"pXpXt.].<X1X<X$X.X@X X.X%X&X#XA.<.> , l Z c ;.y.) z ! s.l.g.Z.W f j G a.d.z.l.K z.D 6 v ! p.Z.a.j.p.A i 1 3.W.`.^. XoXQ.Q.oXQ.oX+X^.R.pXpXpX",
"pXpX0.0.3.{ } | >.{ ^ } | <.1.{ | 0 i x m T -.9.] _ Q d.b.h.Z.Q g j D a.s.g.z.L k.Q 6 j Q i.C.+.j.a.V i 2 ..5.2.3.{ ^ / ^ 3.3.7.2.2.pXpXpXpX",
"pX1X3X1X@X^.R.OX.XR.^ ,.~. X X2.*.3 > v &.) 4 : R u.%.d.h.h.Z.p.g g S d.s.l.z.i.z.+.6 h G i.v.+.s.s.A i 2 3.~.].R.H.Q.K.-XOX-X@X X!.t.pXpXpX",
".X1X$X%X4X9XwX9X9X@X=.0.9XrXwX[.7.3 , v [ 1     % :.k.d.h.h.Z.k.d g b p.d.l.x.d.z.f.d g G i.z.g.x.n.V i 2 2.&X%XXX$X@XXXXX8X4X3X<X@Xt.pXpXpX",
".X$X.X.X7XwXtX#X1X%X1.,.4X%X$X[.3.0 # b _ w . 4 U :.@.s.z.d.B.z.g 5 C p.g.x.l.g.M.j.g 6 D ! x.z.Z.d.V i 2 7.@XOX;X;X.X<X;X3X3X3X5X.XE.pXpXpX",
"{.].].4X0X1X/.^.%X(.^ q.5X/.@X].7.9 # H n.j 8 y M F p.l.M.Q N.z.d 6 C +.j.x.h.h.B.M.h 5 D O.z.x.C.d.V i 2 2.(..X<X4X8X5X@X X<X<X<X.XK.pXpXpX",
"pX#X@X#X X^.].W.r./ / W.^.W.R.3.<.6 , A c.N & % v i.d.b.B.v k.z.6 6 S a.l.l.h.h.C.V.l 6 S o.g.b.x.n.B i 2 3.W. X].@X.X~.^.R.E.^.`.W.e.pXpXpX",
"pXpX<.1.2.r.0.,.} ^ { ^ } } { ~ <.9 , G f.l > v ! g.g.m.M.d k.k.6 6 G s.h.z.h.h.C.C.M 5 m o.s.b.l.j.N , 2  .6.r.e.0.w.0.| ,.,.3.0.6.e.pXpXpX",
"pXpXpX^.@X+X<X;X X)..X X@XXX~.q.3.9 - F S : % h J O.O.x.f.; %.f.: 6 D o.+.h.+.d.a.v.b $ h D o.s.a.@.x # 1 7.@X5X1X!.<X>X7.2.@X4X7X3X4X$XpXpX",
"pXpXQ.OX4X4X9X9X;X XR.R.,X5X.Xw.3.w w Y Y w w Y T T T &.T I T T c Y T _ ] T $.] $.$._ P U [ [ $.$.[ M w y t.@X+X;X2X1XtX@X3.A.<X$X3X9X<XpXpX",
"pXpXE.<XtX9X9X4X3XoXOX[.^.@X.X3.1.9.G.Y.9.I.L.F.F.G.I.D.I.I.P.I._.=XI.=X*XU.Y.U.Y.Y.}.*X*X}.}.:X}.L.:XD.5.K.@Xy.e.4X1X9X9XXX,.q.R.R.$XpXpXpX",
"pXpXr.!.]. X%XtX7X4X3X<X XOX Xr.6.5.F.L.9.J.L.F.F.G.D.D.D.I.J.J.}.|.J.|.}.L.P.P.U._.P.Y.U.'.P.*X_.L.}.G.9./.4X$XK.1X{.4X9X>X=.A.oX).pXpXpXpX",
"pXpXpX!.{.^.w.S.!. X.X X^.^.R.0.,.y w n I u w Y Y U T T P y _ Y w P Y R R T T _ R U T I P Y T R _ T n w y 7.[.@X].@X0.!.oXH.{ ^. X!.R.pXpXpX",
"pXpX[.t.w.<.^ { 2.0.r.w.0.0.} r *.& = k ; < 5 x D J W a.v h f.h $ 6 b A o.K b @.Z Z S $ 6 b D J J H k O &  .,.2.3.7.7.5.>.=.1.4.0.7.3.pXpXpX",
"pX.X4X9X4X%X%X4X9X8X4X<X^.e.~ 7 *.3 i N d 5 h J d.d.l.B.#.W C.b 6 v K s.b.c.Q c.a.f.o.% j ! d.s.h.a.Z # 2 7. X<X%X1X4X2X<X1X1X<X<X@X~.pXpXpX",
"pX#X@X$X9XqXrXuXwX9X8X@X,.{ <.~ | 3 a x 0 : l K s.h.l.B.#.#.M.v > v L s.l.c.i.v.a.j.G : j O.s.s.n.s.V i 3 7.@X9X<X4X<XoX@X4X<X<X5X<X^.pXpXpX",
"pX[. X.X$X9XrX1XtX8X+X,.| @X@X^ | 0 i s 5 5 b O.s.h.l.m.a.f.N.v > z O.s.l.c.a.v.p.l.m % l L s.s.s.n.B , 3 7.+X<X<X-X^.Q.W.!.e.W.<X@X!.pXpXpX",
"pX.X$X4X5X<X4X1X<X~.1.3.7X;X].r | 0 i f 5 5 m O.s.h.z.m.j.l.c.h 6 v i.d.j.z.j.M.p.l.l & z O.s.s.a.s.z # 9 2.).<X,X@XOX-X+X X~. X@X@XR.pXpXpX",
"pXpXE.R.W.~./.R.} } 7.^.@XOXE.~  .> , > 5 6 Z p.h.h.b.m.v.v.z.h > m i.i.n.l.z.x.a.k.g > m O.s.s.a.s.z # 2 ,.e.R.~.~.Q.0.1.r.T.K.e.e.e.pXpXpX",
"pXpX..} | >.1.,.^ ,.r.| 5.,.| ^  .3 , > % f F a.h.h.l.x.B.B.l.k > Z +.i.g.g.v.b.s.k.d 6 m O.a.a.a.a.z # > | e.E.R.E.Q.3.e.e.E.q.2.1.t.pX X].",
"pXpXpX^. X X@X@X@X@X5XT.XX-X~.e...3 - > & g G s.l.l.l.v.B.Z.g.f 6 S p.i.s.s.v.h.g.+.6 6 N i.p.p.a.a.z # > 7.1X9X9XwX1X XrX9X1X@X#X X@X%X$X$X",
"pXpXpX@X@X<X1X@X,XXXoXoX{.3X).w. .0 - = % j K s.l.h.l.b.m.Z.a.f 6 D p.K s.a.x.s.j.o.: d Z i.p.O.p.@.z , 2 r.9X7X%X1X/.5XrXwX4XE.t.S.].[.#X;X",
"pXpXE.@X&X<X<X<X+XoXW.!.Q.8X@Xe. .> @ $ % l Q d.g.s.h.l.b.C.#.> d Z O.K p.+.s.a.f.S ; f m O.o.K @.L x i 2 y.0X9X1X.X#X#X3XwX0X%XE.w.r.e.S.[.",
"pXpXR.OX<X<X<X1X.X<X@X^.R.9X%Xe.X.: o   + 3 l B A V A H H O.l O = k z x z l z V Z f X = f l l x N x a # 1 8.&X%X%X4X4X&X&X9X9X9XtXtX5X+X.X+X",
"pXpXpXE.^. X{. X]..X.X!.0.$X].0.) 1       X = - # - , = , p O     O @ @ = @ # - : X   X O @ @ O = @ @ @ & <.XX5X4X5X1X1X1X5XtX5X5X<X5X4X4X5X"
};
