/* XPM */
static char *_7c9278fd1bc4b65ef9adaefb9f5826cKQQafydKnMbrmfAW[] = {
/* columns rows colors chars-per-pixel */
"62 70 256 2 ",
"   c None",
".  c #17191D",
"X  c #140F1E",
"o  c #321E19",
"O  c #29231D",
"+  c #39231C",
"@  c #1A1C24",
"#  c #171926",
"$  c #11182D",
"%  c #231E25",
"&  c #1C2328",
"*  c #1B2235",
"=  c #242225",
"-  c #28252B",
";  c #37292A",
":  c #272834",
">  c #372D34",
",  c #2D3438",
"<  c #363439",
"1  c #37332F",
"2  c #4E1F13",
"3  c #48291B",
"4  c #572918",
"5  c #532F1A",
"6  c #68361D",
"7  c #7B3B18",
"8  c #692D14",
"9  c #492B25",
"0  c #552D24",
"q  c #54322C",
"w  c #5A352A",
"e  c #4B3B3D",
"r  c #473537",
"t  c #573B37",
"y  c #48322A",
"u  c #673928",
"i  c #793A27",
"p  c #663E32",
"a  c #6D372E",
"s  c #53423E",
"d  c #5B4239",
"f  c #4F433E",
"g  c #6C412D",
"h  c #784328",
"j  c #684639",
"k  c #774937",
"l  c #7C523B",
"z  c #7C411C",
"x  c #383945",
"c  c #323750",
"v  c #463C44",
"b  c #4F3B50",
"n  c #633F4B",
"m  c #3C4349",
"M  c #384458",
"N  c #3E4966",
"B  c #4A434B",
"V  c #484549",
"C  c #5B4443",
"Z  c #5C4B4C",
"A  c #554649",
"S  c #434553",
"D  c #4B4B54",
"F  c #4B4C5C",
"G  c #484756",
"H  c #534B54",
"J  c #5B4D52",
"K  c #544D5B",
"L  c #584657",
"P  c #4C5558",
"I  c #53545D",
"U  c #5C535D",
"Y  c #595657",
"T  c #4E514A",
"R  c #6C4C43",
"E  c #664A49",
"W  c #734D43",
"Q  c #764C46",
"!  c #6D534C",
"~  c #69534A",
"^  c #7C5343",
"/  c #77564B",
"(  c #644C55",
")  c #635354",
"_  c #6B5555",
"`  c #63545C",
"'  c #6C5A5C",
"]  c #675958",
"[  c #745C5C",
"{  c #765856",
"}  c #796258",
"|  c #776552",
" . c #4A4C62",
".. c #554D64",
"X. c #4D5264",
"o. c #4A5569",
"O. c #535364",
"+. c #5B5563",
"@. c #5B5A65",
"#. c #525469",
"$. c #5C5A6C",
"%. c #585769",
"&. c #5C5C73",
"*. c #595772",
"=. c #5C4F70",
"-. c #625562",
";. c #645B64",
":. c #645B6B",
">. c #6B5B65",
",. c #755B65",
"<. c #625B74",
"1. c #655874",
"2. c #765D76",
"3. c #5A6367",
"4. c #5B6274",
"5. c #5B7376",
"6. c #64636C",
"7. c #68656B",
"8. c #78656A",
"9. c #656775",
"0. c #796873",
"q. c #6A7679",
"w. c #757C7E",
"e. c #777065",
"r. c #3D443F",
"t. c #813C24",
"y. c #803815",
"u. c #874929",
"i. c #944D29",
"p. c #97542C",
"a. c #864D36",
"s. c #83523C",
"d. c #8A5437",
"f. c #985837",
"g. c #8C542D",
"h. c #A35C37",
"j. c #A95D2D",
"k. c #9B653B",
"l. c #A8653A",
"z. c #B96B39",
"x. c #BB723C",
"c. c #B87239",
"v. c #AB6B34",
"b. c #8C461D",
"n. c #C36F3A",
"m. c #865947",
"M. c #965D45",
"N. c #855C56",
"B. c #8D554B",
"V. c #88644A",
"C. c #9B6344",
"Z. c #98664B",
"A. c #886659",
"S. c #936553",
"D. c #976A58",
"F. c #997259",
"G. c #91734C",
"H. c #AC6C45",
"J. c #A56B4B",
"K. c #AB6D4C",
"L. c #A66645",
"P. c #B36D44",
"I. c #B46D4A",
"U. c #B96E47",
"Y. c #AB7349",
"T. c #B27244",
"R. c #BB7245",
"E. c #B4734C",
"W. c #BC744B",
"Q. c #B97A4C",
"!. c #A36C53",
"~. c #A86B54",
"^. c #AC7253",
"/. c #A77558",
"(. c #B57453",
"). c #BB7452",
"_. c #BB7A54",
"`. c #B67958",
"'. c #BB6E52",
"]. c #866864",
"[. c #956B65",
"{. c #997468",
"}. c #8B7272",
"|. c #A67666",
" X c #A9786A",
".X c #A25F46",
"XX c #C2754B",
"oX c #C57849",
"OX c #C47953",
"+X c #C46D4B",
"@X c #71807A",
"#X c #AE8271",
"$X c #A3846C",
"%X c #C18163",
"&X c #6C7C83",
"*X c #747C85",
"=X c #756A83",
"-X c #7B5E80",
";X c #7C8B8D",
":X c #788487",
">X c #798993",
",X c #6D8388",
"<X c #7E98A1",
"1X c #82888C",
"2X c #838D92",
"3X c #898C98",
"4X c #849394",
"5X c #899395",
"6X c #8C9B9C",
"7X c #88969A",
"8X c #939C9D",
"9X c #999C9F",
"0X c #84918F",
"qX c #8D9CA3",
"wX c #899BA4",
"eX c #949EA3",
"rX c #969CA7",
"tX c #94A3A4",
"yX c #9BA4A5",
"uX c #95A5AA",
"iX c #9BA5AB",
"pX c #9CABAC",
"aX c #98A9A9",
"sX c #9CACB2",
"dX c #98AAB4",
"fX c #9DB1B5",
"gX c #9FB0BB",
"hX c #91A4A7",
"jX c #A2ACAD",
"kX c #A4A6A9",
"lX c #A3ADB2",
"zX c #A8AFB7",
"xX c #A4B2B4",
"cX c #AAB3B5",
"vX c #A4B4BB",
"bX c #ABB4BB",
"nX c #ACBABC",
"mX c #A8B9B7",
"MX c #B1BBBD",
"NX c #B1B4BB",
"BX c #A3B2AD",
"VX c #93A19F",
"CX c #B2C2BE",
"ZX c #ADBBC3",
"AX c #A8B7C2",
"SX c #B2BDC2",
"DX c #B2BECA",
"FX c #B4C2C4",
"GX c #B3C3CB",
"HX c #BCCACC",
"JX c #BBC4C6",
"KX c #B2C4CB",
"LX c #C2CCCD",
"PX c #C4CED3",
"IX c #C9D6D8",
"UX c #D0DCE1",
/* pixels */
"                                                                                                                            ",
"                                                  tX:XtXJXJXcXcXSXMXcX                                                      ",
"                                              pXxXcXiX5XMXIXLXIXIXIXIXLXVX:XyX                                              ",
"                                          7XcXpXsXtXxXMXeXMXMXHXPXUXIXjX6XmXMXnX:X                                          ",
"                                    xXHXqX7XlXyXuX7XpXHXbXxXtXuXpXxXMXSXFXmXMXnX:XmXfX                                      ",
"                                2XbXPXIXHX:XuXbXaXdXrXSXSXSXsXsXxXjXbXMXcXcXHXVX7XCXCXmXjXzX                                ",
"                            lXtX7X7XxXnXpXq.qXAXvXzXiXDXSXrX:X4XlXbXNXMXDXLXLX;XtXnXFXmXmXmXxXcX                            ",
"                        q.@XtXqXmXlXtXlXlXrX2XzXZXzXiX*XO., * - m 9.3XzXLXIXcX2XZXmXdXaXaXpXBXtX3.                          ",
"                    zXBXeXP ;XtX7X3XrXkXbXbX&X3X*X .: # . @ - = # # & x 9.3X0.5XbXcXeX5X7XqXBX3.9.nXbX                      ",
"                  kXcXMXMX2Xq.iXrX3XrXkXkXeXc $ $ X * x v D A J V m : # X % # 6.cXNXkX5X4XjX6X9.nXIXnXpXyX                  ",
"                jXcXjXlXbXbX,XwXlX3XtXhXq.: # : : v H H K I G D D I D v x - @ @ F wXbXsXuXgX,XaXPXIXIXBXkXlX                ",
"              BXzXjXyXuXfXvXiX>XsXsX,Xm & & , b _ A.R e B S  .o.G B B y C ) v : $ * &.dXAX>X>XhXxXcXkXcXNXcXzX              ",
"            cXcXlXsXqX7XwXuXdXrX&XP & . : ..,.,.D.Z.g t A X.o.o.F V d 4 g / E Z v , # c *.>XdXvXKXhX6XFXMXSXcX              ",
"            kX8X2XuXZXdX<X4XrX;X, # , T ( ].}.Q D.Z.g w A X.o.o.K B u 2 h m.k [./ ( e - # #.gXIXFX>XtXyXnXcXMXBX            ",
"          5.w.5XeXsXbXFXnXaX:X, . r ) ! / [.N.a M.C.w w ' $. . .$.` t 2 u.d.k D.N./ W C > X @.hX,XtX6XtXkXkXBX6X            ",
"          P 7.pXSXbXMXnXcX:X< - V _ A.^ m.|.B. XD.V.d y ` @.K +.-.L C 4 k k s.V.k D.S./ A > = r.:XpX6XeXiXcX0X3.I           ",
"        jXVXw.3.8XBXMXnX:X: = T ] { |..XL.K.M.~.[.S.n e J ` ` +.-.L ( 9 E N. XD.k F.F.D.{ Z 1 . P hXpXsXlX:X3.8XMXCX        ",
"      cXMXMXcX0Xq.5XkX$X1 & m ] j h ~.K.P.'.I.t.K.K.w n U @.K +.>.U J 5 k Z.Z.J.d.Y.(.E.d.j Z < & T yXyXq.@.4XcXMXjX0X      ",
"    cXMXFXnXbXMXiXq.Y - - m Y ].l i H.I.R.oX+Xi.R.l.a t L #.#.@.Y H H 5 h R.W.W.f.T.x.R.g.g 8.B < . V 3.>XiX6Xq.q.4XBX      ",
"    NXmXpXZXmXMXSX8X* $ e ) A.F.l u.P.U.oXoX+Xi.W.P.a t 7.9.%.+.7.6.Z 4 z W.U.W.g.E.R.P.d.g {._ V & . o.vXiXmXBXBXxXmXBX    ",
"  aXmXmXfXfXCXCXCX:X$ c K m.H.E.d.t.P.W.XXoXU.i.).K.u t -.4.#.+.>.@.J 5 z W.W.).i.(.R.T.p.h |.A.W f & M wXhXVXtXaXpXnXcX    ",
"  aXCXCXBXfXhXsXaXf * N J g.z.n.d.y.U.XXXXoXR.i.(.^.g C -.4.%.+.7.+.) 5 h OXXX).p.(.Q.R.p.u.K.K.d.j x $ ,XsXVX4X7XVXcXcXcX  ",
"  BXVXaXhX7X;XhX;XO m I ! g.n.c.a.t.W.W.XXXXU.i.(.K.a t -.9.#.+.7.@.` 5 h W.XXW.f.E.W.R.i.i.Q.T.k.u f : G BXVXtXhXVXpXjXjX  ",
"  BXCXaX;X;X;XhX3.O V ] A.g.Y.L.k t.E.W._.OXW.i._.K.a t +.%.#.I ;.U Z 5 a.).W.).f.(.W.W.u.g.^.Y.L.6 j > : 0XpXtXhXhXcXxXbX  ",
"  cXcXpX4X2X8XeX, x Z N.S.l / j u a '.).).OXU.i.W.H.a t :.9.#.F 7.7.Z 4 h OX).).h.I.W.(.k u ^ S.Z.g W e = 3.jXaXtXBXbXSXlX  ",
"  yXkX8X5X6XiXq.& x E m.M.W ) _ ,.k `.`.OXOXW.i.OXH.a t -.&...K 7.;.J 3 a._.OX'.M.(.W./.j t ~ ! | j { E 1 < VXBXfXpXlXZXkX  ",
"  BXBXtXtXsXpXm ; s R { } ! Z ' { ^ /.OXOXOXH.u._.Y.h t ` 1.#.X.:.;.J 3 k OXOX'.L.K.K.!.Q { -.K ` d A.s.y @ :XxXfXpXxXnXjX  ",
"  VXVXpXaXuX*X: < ~ } / | j | ]./ / `.`.XXOXl.u.Q.l.h w >.<.#.F 6.;.Z 3 a.OXoXW.h.H.H.K.l N.].( ) R S.k.f = D rXpXsXuXtXjX  ",
"  8X;X:X3.q.m # < ! ].} / j {.$X/ k |._._.%Xk.z %Xv.u w ( &.o. .$.L n 8 i.XXoXT.k.L.P.'.s.^  XA.^ ^ S.S.C % @ o.&X*X*X3X    ",
"  LXPXHX;XpXO.. < ( ,.[ E E A.A./ j D.D.F.G.| k `.P.i q ,.9.o.F 7.>.b 4 d.OX(.G.m.S.~.|.k ^  X{.N.W } }.L % % rXAXAXAXDXzX  ",
"  LXPXUXmXsX9.& v :.L >.8.8.} ] } [ ,.{ | _ ] A.D.~.a w ( &.o.N 6.+.( 2 m.F.A.| ! { N.{ _ _ ].{ } ' 6.#.b % $ dXDXGXDXAXbX  ",
"  JXHXIXHXmX7.# x <.K :.8.7.} } } [ ,._ ] ` ;.,.[.~.a p ( -Xo.b 7.+.b 9 / } | ] >.>.,.,.0.,.' 7.0.9.4.o.=.% * dXAXGXDXzXNX  ",
"  jXFXHXlXkXq.@ x 8.8.>.( C A.].| j A.F.[.[.8.E |.!.a w ( <.#.S 6.+.b 9 ^ |.A._ _ [ / { ( { 0.>.>.;.;.6.Y = : pXZXGXZXiXzX  ",
"BX7XaXFXnXAXq.@ > ,.}.A.W p {.|.s.l %Xc.`.`./.i ^.T.i 0 ( &.#.G :.U Z 4 a.%X`.!.m.|.J./.a N.#X}.[ / A.[.Z & - pXGXsXyXeXcX  ",
"jX5X;XcXvXlXq.@ r N.{.S.m.g m.N.l l %Xc.oXP.).i W.c.u 0 -.&. .M 6.U E 8 i.oXXX'.f.`.T.`.a.^ $XA./ s.Z.F.~ O : sXfX7XpX8XlX  ",
"kX5X:X6XpXAX=X* e s./.!.S.E L U [ ~ /.T.c.l.).t.I.P.7 0 @.<...b 3.7.n u i.oXn.U.f.%X(.F.R [ 7.) W s.Z.!.~ O , fXwX:XyXiXlX  ",
"BX9X0X0XxXSX*X# > l !.Y.Z.k ! _ ~ ^ /.%Xz.f.'.i K.U.i w I &...G 3.U n a p.oXn.XXh.`.OXJ.k _ ] ~ / d.J.!.j = x gX;X*X8XyXvX  ",
"BXjX6XVXpXvX*X# > s.^.E.C.k m.Q u l ^.c.l.f. Xi ~.I.i w Y 9.+.G 6.-.n a a.oXXXW.B.`.OX(.k p ! / V.f.K.J.j O , dX&X:X8XtXbX  ",
"aXVXBXaXpXcX*X@ > s.!.E.l.g././.g.f.Q.Q.K.d.[.p !.Y.i 0 D *.1.G @.Y ( w u._._.C.a.(.oXoXs.k A.!.K.h.I.J.j O r.wX4.q.8XtXqX  ",
"0X3.3.:X:X*Xx # 1 s.K.T.l.p.(.`.p.h.Q.Q.L.m.}.A.F.l.i 0 H &.=.G 3.@.n 0 i K.Z.S.S.^.W.W.d.M.`.(.P.l.E.J.j O & P 3.9.q.q.q.  ",
"cXCXq.tXpXjXP X 1 m.K.P.j.p.E.E.p.j.c.c.d.A.0.}.$Xv.i 9 I <.=.S 9.:.n 4 h Z.^ ].[. XI.+Xp.f._.T.z.z.T.!.j . : >XgXBXBXcXbX  ",
"MXIXaXxXGXnX:X@ 1 ^ !.P.v.p.E.Y.p.j.%XT.V._ 0.0.F.Y.i q D *.1...3.D ( 4 k |./ 8.2.[.`.).p.f._.R.z.z.H.^.d O m AXKXFXHXbXnXbX",
"SXPXtXGXHXJX1X. > k !.T.v.g.Y.`.f.j.n.Q.m.J 0.+.V.Y.i q D *.1.#.$...n 4 k D.( :.-X]. XOXh.f.R.+Xn.z.J.F.d O m vXGXHXHXFXAXcX",
"NXkXiXnXFXFX1X@ 1 W K.x.k.g.c.T.f.f.E.Z.m.E [ n ^ D.i q A %.<.=.:.L n 4 k B.k _ { ( S.`.f.f.U.x.n.x.v.J.d O m uXsXGXFXMXnXcX",
"8X4XaX>X7XhX>X& , R H.x.g.f.T.c.g.Z.Y.s.k m.A.w w Q a 9 J :.=.=.>.U s 3 p a.s.S.Q n Q !.f.f.'.P.x.T.H.!.C . D cXdXvXbXsXjXcX",
"w.VXhX7XhXdX0X& < ~ Y.T.u.d.Q.c.g.C.J.a.m.|. Xj q W p 0 ] @.<.&.2.;.A + w m.[.$XN./ p S.C.f.'.I.R.T.J.!.d = D cXKXKXaXtXjXNX",
"8XBXqXsXfXxX5X= , Z !.H.k.d.XXz.z C.L.u.s.|.5Xs.9 j g 0 A I <.1.:.J v + u a.S. XN./ u S.C.d.'.I.E.T.J.J.s = S nXKXfXqXuXNXNX",
"aXxXpXgXgXAX4X= 1 ~ Y.z.l.g.U.z.7 l.E.f.k s.B.a p { p 0 Z +.&.<.:.-.e 3 j B.a.m.j p l /.C.a.(.I.Q.c.l.K.e O D mXfXdXiXxXMXMX",
"cXBXfXfXfXAX2X- 1 j x.z.l.p.U.n.i.f.`.J.f.a.k a k [.i 0 s I 4.9.1.L r 0 B.M.d.k u k /.(.h.i.'.U.x.c.x.l.t % V BXfXvXfXmXlX  ",
"MXq.q.5.&X&XI @ > j U.z.l.f.U.U.d.d.(.E.E.J.~.d.m.!.i 0 Z 3.4.<.+.:.v 4 C.(.I.~.d.C.`.E.h.d.(.I.z.x.XXj.d - : q.,X,X,X@Xq.  ",
"CXaX6X5.dXnX3X% > j P.P.^.^ M.a.j k I.(.W.W.).L.f.~.i u Z I 4.&.1.-.r 4 M.I.)._.h.K.OXI.M.h M.`.H.Q.z.L.d - T pXpXdXhXqX6X  ",
"aXaXfX,XHXIXkX% 1 E ~.L.S./ W ~ J j H.I.R.R.W.H.f.K.i w A F 4.&.1.G e 8 f.W.+X'.h..XOXK.Q u Q m.Z.Y.J.J.t & P BXdXKXKXnXzX  ",
"aX6XgX>XZXHXkXO + j D.D.| W E ` >.{ !.(.z.n.R.H.f.L.z 0 J O.3.4.<.K f 5 d.'.+X'..X.X`.G.U <.+.) [ G.k.!.A = T CXSXGXAXbXcXMX",
"VX4XfX<XdXIX9XO + d [.[.m.j Q { [ Q !.W.n.n.U.T.f.L.7 0 b F 3.4.=.G f 4 a.'.+X+Xh.h.Q.C.j 8._ j W V.G.D.B & T CXqX>XdXZXnXcX",
"VX5XhXdX<XgXqX% > A }.].{ g F.D.m.h J.I.W.U.H.P.j.j.y.0 L 4.@.@.-X:.f 4 a.I.R.U.j.j.n.z.g.N.D.| R | G.A.v = m 3.q.vXGXSXcXcX",
"kX:X7XhXdXhX4X= > D w.8.W R A.D.F.k S./.~././.Z.l.v.7 u L X.O.4.&.K C 0 u.Y.`.(.k.h.n.n.f.B.F.D.{ / G.e.B - < 7.lXAXZXpXcXjX",
"cXyXuXxXvXvXeX= : L +.,.>.{ } } } _ ! / / _ } A.M.L.7 a L F 3.$.=.G C u k Z.F.A./ A.S.S./ { A.} ,.( | ' b - V yXZXAXAXsXaXkX",
"eXpXpXsXiXiX1X@ : >.A ,.0.0.7.7.7.7.,._ ] ] 7.e.N.B.7 0 b  .3.%.1.L C a k B.| | ` ;.>.,.2.-X[ 8.-X0._ Z #.: P yXiXgXgXsXyXyX",
"8X1X4X;X*X>X9.# > >.[ ' _ Z ' >.8.J ! / ^ | / j [.S.7 w b F @.$.=.b v p l s.V.~ ] ( [ ,.1.1.{ { 2.2._ _ $.* x :X>X*X>X9.:X  ",
"mXLXLXFXMXIXzX, - J 8.} W j [.D.[.l m.Y.c.Y.J.l M.~.i a L 9.@.$.1.1.C g l J.C.Z.s.m.C.S.].p k.A.].( | e...: 9.SXDXvXAX4.aX  ",
"NXLXLXIXIXUXZXx : B }.A./ p m.S.m.i f.R.z.c.c.u.f..Xt.u b ..+.&.=.K s g h Q.Q.H.h.f.+XK.F.k G.V.,.{ } } b x =XJXHXvXAX&XcX  ",
"NXLXIXIXIXDXAXM - w D.D.m.E J -.-.R V.Y.c.c.c.u.s.N.a 6 t H &.%...A C 6 h G.k.J.f.h.P.J./ E d E Q l G.A.t ; w.CXFXfXvX;XMX  ",
"MXPXLXIXGXdXvXG - p S.D.S./ ) ) { j m.^.T.H.I.h p { a u t A %.%.@.B s j g k d.C.M.M.~.Z.k _ E E Q l S./ e ; w.nXFXFXmX7XFX  ",
"JXPXCXnXuXvXnXM ; t N.M.S.W R j Q u d.!.L.H..Xk {.[.5 u e J %.%.+.J s t 0 V.$XV.a.d.Z.M.Q W ( { m.k N./ t 1 1XmXfXCXmXtXuX  ",
"JX5X6XaX;XBXmXm : q k l k 5 j j g 6 i a.g.d.l w W / 0 3 t ;.%.F @.` e q y j l k 6 h g.l g g d j l g Q j r > 1XkXlXtXmXuXtX  ",
"0Xq.CXVX;XVXAXP % r t p w 2 w w u 4 5 6 6 g 6 3 3 y 3 + v D I F U v e 9 + p g w 5 6 6 6 6 w + 5 g 5 u q v x 3XzXiXeXvXbXcX  ",
"@XVXCX;X:XtXbXF : < y 9 9 + 9 y 3 3 3 5 3 5 9 + o 9 o - V G %.F +.H r 9 3 9 9 5 3 3 5 5 5 1 + + 5 + 3 y b x 3XzXlX8XxXSXnX  ",
"BXCXCX0X7XtXbXI , S B B s A V A C d Z T V Z Z J C A L H %. .#.X.$.$.+.( ( ( Z ) Z U ] Y ] T Y Z ~ ~ Z D G b 3XNXzXiXlXMXmX  ",
"CXmXCXBXxXxXcXI , M X.V V D M @.D H  .#.#. . ...L L U %.#.*.#.*.#.+.-.$.$.%.%.$.@.4.4.o.%.*.4.@.;.-...*.G c 3XZXbXbXbXMXcX  ",
"CXBXnXbXnXcXjXD : c D , < x x P x x b  . .M S G .. .b G G #. . .G K =. . .F X.#.o.o.o.X.F X.%.F D b S #.b x 3XzXNXzXzXcXxX  "
};
