/* XPM */
static char *result[] = {
/* columns rows colors chars-per-pixel */
"70 70 229 2 ",
"   c #0B0A0E",
".  c #07060B",
"X  c #0E0D12",
"o  c #0F0F19",
"O  c #100F14",
"+  c #121116",
"@  c #15141A",
"#  c #18171E",
"$  c #19181E",
"%  c #3C201D",
"&  c #1C1B23",
"*  c #1E1E28",
"=  c #171821",
"-  c #201F27",
";  c #211F2A",
":  c #1E2228",
">  c #212026",
",  c #23222A",
"<  c #29272E",
"1  c #252531",
"2  c #2B2A35",
"3  c #2A2935",
"4  c #32313C",
"5  c #38393E",
"6  c #352E30",
"7  c #3A1401",
"8  c #481D0C",
"9  c #55240E",
"0  c #4C2411",
"q  c #552815",
"w  c #552C11",
"e  c #642D14",
"r  c #693419",
"t  c #743A1C",
"y  c #6A2D0E",
"u  c #482A25",
"i  c #512E25",
"p  c #583429",
"a  c #553A37",
"s  c #493636",
"d  c #673A27",
"f  c #743D24",
"g  c #7A3D25",
"h  c #773E29",
"j  c #673E33",
"k  c #7D441E",
"l  c #5C4239",
"z  c #7C4324",
"x  c #794529",
"c  c #6B4334",
"v  c #67463B",
"b  c #794937",
"n  c #7B533D",
"m  c #6E4228",
"M  c #353342",
"N  c #3B3B45",
"B  c #3B3C4C",
"V  c #373847",
"C  c #3B3E51",
"Z  c #433E4B",
"A  c #483C43",
"S  c #4F3F50",
"D  c #3C424A",
"F  c #3E4153",
"G  c #44424E",
"H  c #48464D",
"J  c #57464A",
"K  c #444453",
"L  c #4A4554",
"P  c #4B4A55",
"I  c #4D4C5B",
"U  c #464859",
"Y  c #524E5D",
"T  c #584A54",
"R  c #4C545A",
"E  c #53515E",
"W  c #5B535C",
"Q  c #674B45",
"!  c #6B524A",
"~  c #74554C",
"^  c #7A5649",
"/  c #654D56",
"(  c #63535B",
")  c #695759",
"_  c #765A56",
"`  c #734F48",
"'  c #7A605A",
"]  c #4C4E61",
"[  c #454C67",
"{  c #514E62",
"}  c #4D5164",
"|  c #4C546B",
" . c #535264",
".. c #5B5965",
"X. c #54546A",
"o. c #5A566C",
"O. c #55596D",
"+. c #5B5A6D",
"@. c #575864",
"#. c #555B73",
"$. c #5C5C72",
"%. c #575B78",
"&. c #4F5A70",
"*. c #625C6C",
"=. c #675B66",
"-. c #605E73",
";. c #755B63",
":. c #5C6169",
">. c #596468",
",. c #5C6377",
"<. c #5F7173",
"1. c #65646D",
"2. c #786569",
"3. c #636274",
"4. c #64637A",
"5. c #676977",
"6. c #6B757A",
"7. c #697779",
"8. c #71777D",
"9. c #756A78",
"0. c #854D2D",
"q. c #864928",
"w. c #8B522D",
"e. c #86502D",
"r. c #96562D",
"t. c #884E32",
"y. c #8C5233",
"u. c #885538",
"i. c #935634",
"p. c #955A35",
"a. c #9C5B34",
"s. c #9C5D3A",
"d. c #965838",
"f. c #924D29",
"g. c #A25D35",
"h. c #A35F3A",
"j. c #A3592D",
"k. c #9E6038",
"l. c #A3633C",
"z. c #AB653C",
"x. c #AC693D",
"c. c #A86135",
"v. c #B46B3C",
"b. c #BB6D3D",
"n. c #B46636",
"m. c #BB723D",
"M. c #C2733D",
"N. c #C16F39",
"B. c #875A47",
"V. c #955D43",
"C. c #8A5E56",
"Z. c #8E6249",
"A. c #9B6549",
"S. c #896458",
"D. c #996855",
"F. c #9D735D",
"G. c #AC6A43",
"H. c #A76846",
"J. c #B46D43",
"K. c #B96E43",
"L. c #B36D4A",
"P. c #B57145",
"I. c #BC7344",
"U. c #BD744A",
"Y. c #B9754A",
"T. c #B87653",
"R. c #8A6C69",
"E. c #A17969",
"W. c #C37344",
"Q. c #C2764B",
"!. c #C47A4C",
"~. c #C97A49",
"^. c #C57A51",
"/. c #CA7D52",
"(. c #C36F41",
"). c #CC8153",
"_. c #D38151",
"`. c #5E6583",
"'. c #676B86",
"]. c #6C7287",
"[. c #737C83",
"{. c #6E6F8B",
"}. c #8C7C85",
"|. c #788589",
" X c #7C8B92",
".X c #7F9194",
"XX c #858C94",
"oX c #85959A",
"OX c #8B9A9D",
"+X c #879598",
"@X c #919B9F",
"#X c #838A8E",
"$X c #8C9DA1",
"%X c #8D93AD",
"&X c #929DA2",
"*X c #9394B3",
"=X c #8EA1A4",
"-X c #92A2A5",
";X c #94A5A9",
":X c #9AA6AA",
">X c #96A8AC",
",X c #9BAAAE",
"<X c #99A4A6",
"1X c #9DAEB2",
"2X c #9EB1B3",
"3X c #A1AEB2",
"4X c #A3B3B5",
"5X c #A9B3B6",
"6X c #A5B5B9",
"7X c #AAB5BA",
"8X c #A6B9BB",
"9X c #ABBABD",
"0X c #B2BBBD",
"qX c #A0ABAE",
"wX c #ACBDC1",
"eX c #A7BAC0",
"rX c #B2BFC2",
"tX c #AEC1C3",
"yX c #B3C2C5",
"uX c #BAC6CA",
"iX c #BCCACD",
"pX c #B7C5C8",
"aX c #BDCCD0",
"sX c #BED1D3",
"dX c #C9D5D9",
"fX c #C6CFD2",
"gX c #D2DEE3",
"hX c #E7ECEE",
"jX c None",
/* pixels */
"jXjXjXjXjXjXjXjXjXjXjXjXjXjXjXjXjXjXjXjXjXjXjXjXjXjXjXjXjXjXjXjXjXjXjXjX0XyX0X0X5X5X0X0XpXfXjXjXjXjXjXjXjXjXjXjXjXjXjXjXjXjXjXjXjXjXjXjXjXjX",
"jXjXjXjXjXjXjXjXjXjXjXjXjXjXjXjXjXjXjXjXjXjXjXjXjXjXjXjXjXjXjXjXjXjX7X1XXX[.yXfXyXrXfXpX0X0X,X|.jXjXjXjXjXjXjXjXjXjXjXjXjXjXjXjXjXjXjXjXjXjX",
"jXjXjXjXjXjXjXjXjXjXjXjXjXjXjXjXjXjXjXjXjXjXjXjXjXjXjXjXjXjXjXjX5XqX3X1XeX1XOXfXdXdXdXgXhXiX|.+X3X0XjXjXjXjXjXjXjXjXjXjXjXjXjXjXjXjXjXjXjXjX",
"jXjXjXjXjXjXjXjXjXjXjXjXjXjXjXjXjXjXjXjXjXjXjXjXjXjXjXjXjXjXyX3.@X5X-X$XoXaX8X>X,XqXyXpXrX+XtXyXpX@X6.jXjXjXjXjXjXjXjXjXjXjXjXjXjXjXjXjXjXjX",
"jXjXjXjXjXjXjXjXjXjXjXjXjXjXjXjXjXjXjXjXjXjXjXjXjXjXjXjX0XrXdX:X+X4X1X=XoXeXtXeX<X&X,X,X9XiX9X5XfX+X-XwX2XjXjXjXjXjXjXjXjXjXjXjXjXjXjXjXjXjX",
"jXjXjXjXjXjXjXjXjXjXjXjXjXjXjXjXjXjXjXjXjXjXjXjXjXjX X7.8XdXgX9X7.7X8X2X>X2XtXpX4X,X9X4X1X7X5XuXfX6.4XtXtXwX4XjXjXjXjXjXjXjXjXjXjXjXjXjXjXjX",
"jXjXjXjXjXjXjXjXjXjXjXjXjXjXjXjXjXjXjXjXjXjXjXjXjXqX3X4XOX$X&XOX7.<X8X4X8XwX9XOX6.1.+X8XyXiXiXdX3X|.uX4X4X2XtX8X3XjXjXjXjXjXjXjXjXjXjXjXjXjX",
"3.B E jXjXjXjXjXjXjXjXjXjXjXjXjXjXjXjXjXjXjXjX XD -X+X>X6X1X7XrX<X#XyX8XOX5.N & $ $ : 5 1.&XyXdX#X<X9X1X;X=X;X1X<XD +XjXjXjXjXjXjXjXjXjXjXjX",
"$.L F B Z ..jXjXjXjXjXjXjXjXjXjXjXjXjXjXjXjX1XyX5.>.6X.X X$X:XwX7X>.5.D * & 4 P ....R M : : V 3.1.9X6X=XOX.XoX9XR 7.dX2XjXjXjXjXjXjXjXjXjXjX",
"1.U U X.O.{ K ..jXjXjXjXjXjXjXjXjXjXjXjX<X8X8XtX9X,.<X>XXX$X3X7X5., * 2 P +.3.1.Y Y +.3.O.U 4 : 1 5.9X9X=X.X1X-X>.fXgXiX1X+XjXjXjXjXjXjXjXjX",
"$.L U ;.-.,.4.o.K 1.jXjXjXjXjXjXjXjXjX<X7X4X,X2XwX-X[.6X-X1X+XB & 4 R 5.3.Y M 1 & 4 K P _ =.*. .5 : D +XtX6X5X8.,XgXdXfX;X4XqXjXjXjXjXjXjXjX",
"+. .I t.H.R.4.4.4.o.L #XjXjXjXjXjXjXjX,X>X-X=X,X1X4XXX&X6X:.& 3  .5...N < & - > & 5 I P r w B.*.,.@.4 , :.7X+X7.+X@X-X+XwXyX7XjXjXjXjXjXjXjX",
"$.O.{ d n.v.H.R.].'.5.I *.jXjXjXjXjX8X2X,X4XOXoX.X-X4X[.2 * I 5...N - & , > , - & 4 U L d 8 g.t Z.1.+.Y 3 3 7.tXfXsX$X=XyXwXwX1XjXjXjXjXjXjX",
"-.{ U f J.K.M.m.n 9.{.].+.L jXjXjX<X X[. X1XwX>X.X-X|.1 3 ..1.Z , $ , > - - & & = 2 4.I d 0 H.h n.d.~ *. .M 3 XXdX8X|.>X$X6X1X8X9XjXjXjXjXjX",
"$.X.{ f v.H.y.I.z z.F.9.].-.U jXjXR OX1XtX8XwXyX6X|.1 M *...2 & - - - - & & & & # 2 -.Y d 0 h.S ;.q.h.D.:.>.D 2 |.7.>X$X$X;X1X9X1.jXjXjXjXjX",
"-.X.{ f x.R.,.z.e.z.M.u.;.].,.Y |.>.>.4X9X4X5X9XXX: M 3.Y , , > - * & & & & $ & @ 4 o.{ r 0 t.{.%Xm l.m.A.) O.G : ].6X$X=X6X4X..P +XjXjXjXjX",
"-.{ L f v.F.}.G.0.H.Q.c.r.F.].4.P +X8.R qX9X0X+X: N 1.G , - > * - & & & & = = = + 3 $. .d 9 H.D.F.w.z.K.m.i.Y +.H 4 oX6X2X>X} |.sXdX8XjXjXjX",
"+.%. .f (.K.H.U.0.x.I.G.z.v.v 5.3.I 6XXX..$X$X1 2 *.G * , , > & & & # & # = = @ o 4 X.{ d 0 J.(.W.d.z.I.I.w.d =.X.5 2 +X&X..<.oX-X1X|.jXjXjX",
"$.$. .t U.!.!.U.0.J.Q.P.J.v.e u.{.X.:.aX$X>.2 ; ..U ; , ; - * & & # & # # @ @ @ O 1 '.{ d q J.T.^.d.G.U.Q.y.z G.W | 2 < :.<X8XOX7.<.,X4XjXjX",
"$.O.{ f U.!.I.Q.0.J.!.Y.P.J.d a.A.4.U #XsX:.o I W , ; , * * & $ # # @ @ @ o O @ O < -.X.h 9 K.T.^.d.J.I.I.y.x W.B. .E & >.9X$X8XyXwXyX2XjXjX",
"$.+. .f U.!.Q.!.t.J.^.U.Y.G.r s.b.S.#.} <X2 4 ..4 - , - - & $ # # # o @ + + O +   < -.o.h 9 L.U.^.d.G.U.Q.t.0.I.n._ | N 4 2X>XoX.X>X4X7X9XjX",
"+.$. .f Q.!.Q.!.t.K.^.U.I.P.d s.m.z.;.X.K , I K - , - - & & $ # @ @ @ O @ + O +   1 3.X.j q L.Q.^.d.J.U.!.w.x Q.b.i.P U , [.4XOXOX.X,X8XqXjX",
"*.X.Y f Y./.U./.u.J.^.U.Y.K.r s.I.n.b ,.D M E 2 > , - - & # # # @ @ @ O + + O O   3 o.X.h q L.^.^.d.P.^.Q.t.e.!.m.r.l R M H 8X=X;X=X$X2XqXjX",
"$.-.E f I./.!.!.y.G./.Y.U.U.d h.Y.n.z =.I P G ; > - - & # # # # @ @ O O + O X O . ; 4. .j q T./.^.d.I.Y.!.q.f z.m.p.m ( K 4 OX2X;X=X>X9X3XjX",
"o.-...g U.!.^./.t.G./.Y.!.K.q g.!.P.0.S.} I 2 - ; - & & & # # # @ + + @ O + X X X ; 4.O.d q U.Q./.s.L.G.!.h s W B.u.k B.U 2 5.9X<X<X8X9X2XdX",
"$.O.{ g Q.!.Q.).u.H.).Q.K.b s ` x.v.q.Z.| Z < , - * & & # # + + + O + + X X X X X , $.o.d q T.Q.T.s.L.L.P.=.%.X.+.J k A.U V D 4X2X>X;X8X5XdX",
"o.-.E g Q.^.~./.t.H.)./.B.X.$.+.) c.w.A.{ L 1 ; * & & & # # @ @ @ + + X X X   X . ; -.o.d q ^.^.!.s.J.H.P.[ _ n  .#.b v.W D : XX0X8X2XtX5XfX",
"-.-. .g Q.^.^./.e.s.).!._ #.J H ,.^ f.H.{ L 3 ; & & & # @ @ + O O O O X X X   X . ; o.X.p q Q.^.U.s.G.H.Q.=._ I.y.X.2.n.^ F : G OX$XOX.X@XhX",
"-. .T g Q.^.^./.b s././.S.o.p w.T O.x L.} P 2 ; - & & # @ + @ O + X X X X X   X   ; 4.o.p q ^./.!.a.G.z./.0.B./.N._ #.J.B.F < : <.|.|.|.<XhX",
"o.-.{ g Q.^.^./.x p._.!./.D.l W.s.#.C.b.@.U 3 * & & # # # + O + + + + X X X X X   ; -.$.i e Q.L.S.B.B.B.A.c B.Z.V.^ &.S./ U : 4 tXtXyXpX5XfX",
"o.$.{ g U./.~.L.n b L.H.L.J.d H.l.@.R.A.P I 3 & & & # # # O O O O + X X   X X X   ; $.O.i r D.9.,.o.%.%.%.'.'.,.'.{.4.] X.} : 4 tXyXpX8XqXfX",
"+.+.{ g (.T.R.5.o.*.1...-.-.$.3.5.4.#.I X.L 3 * - & # # @ @ + + + O + O X X X X . 1 %.O.u r H.5.$.o.....*.*.1.*.3.1.'.I 4.R & 5 qX8XfX8XqXiX",
"+.+.Y g W.T.;.'.X.%.#.$.4.,.`.4.5.'.O.| 5.L 2 * - $ $ @ @ + + + + O + X X X X X   ; -.o.p e W.Q.D.t.l.s.L.d d.P.l.B.| S.R.I & N 8X8XpX2X2XpX",
"+.+.Y h I./.L.D.l t.D.Z.A.A.c u.V...=.S.%.L 2 & - $ $ $ @ @ @ + + + O + X X X X X ; o.] j r T./.Q.i.^.L./.h ^ ).n.~ 3.L.s.H * N pX8X=X>X>XtX",
"+.o.Y h U.^.!.).x l.).!./.L.c v.g.o.2.b.( K 2 * $ $ @ $ @ @ + + + + O + + X X X X ; 4.O.d r U.^.U.d.U.K.Q./ _ c.x X.;.K.k.L : N pX.X=X=X>X0X",
"$. .L h U.^.U.~.m H.^.!.A.+.c i.Q O.c M._ K 1 & & & $ $ @ @ + + + + + O X X + X   < -.| j r K.^.U.y.U.Q.L. .1.Q  .O.u.W.s.L : D pX|.$X=X2X9X",
"o.-. .g U.^.^.^.m H.U.~._ %.l a %.) f W._ F 3 & & & & # # @ + + + + + + + O + X   1 -.] j r L.^.^.y.Y./.P./ X.#.+.^ a.M.V.L * G tX<.oX$X,X8X",
"$.o.Y h U.^.^.!.f J.x.I.Z.O.O.X...A.z I._ F 3 & & $ $ # # @ @ + + + + + X + + X X 1 o.{ j e L./.Q.i.L.^.!.x a _ D.h.h.I.s.L : H 8X>.+X=X4X4X",
"O.o.I g U./.I.x.r Y.k.J.P.c I ( A.v.m M.~ K < & & & & # # @ @ @ + + + + + O + +   1  .] j 9 L.(.l.^ H.^.!.e.r.I.I.z.l.m.k.K : P <XR $X3XOX5X",
"o.o.L g Q.T.}.9.i Y.s.l.~.I.m s.~.G.z W.~ K , - & & = # $ @ + + @ + + + + + X X o 1 -.$.d q z.i.9.[.E.T.Q.y.a.!.K.J.x.m.p.D 1 : @.@.<.1.>.<X",
"+.o.I h (.E.{.{.A v.s.G.Q.!.t.h.Q.G.x ~.~ F < & & & & # # # @ @ + + + + + + + O X < =.I j 8 G.B.'.4.[.L.^.i.p.Q.K.I.J.m.s.K < 1 ;X7X4X7XrX4X",
"+. .S h K.E.4.5.s J.l.J.U.!.0.s.I.v.z W.~ F < & & & & # # # @ @ @ + + + + + + O X < o.I j 8 K.d.=.{.2.K.^.i.p.Q.J.I.v.b.V.D * R iXtXpXtX4X4X",
"o.-. .g W.J.9.*.8 Y.H.K.I.!.y.h.I.x.e.W.~ C , & - & & & # @ + @ + + + + + + + O X , +.} p 9 L.y.Q 9.^ v.~.d.d.U.I.I.J.n.A.D , R iXiXiXiX9X4X",
"$.X.L g K./ =.*.A g.G.U.U.Q.w.g.Q.J.0.W.~ B , * & & = # # # # @ @ @ @ + + + O + X 1 Y U p q r.( ( =.S ~ Q.a.i.Q.v.U.v.v.d.G , E 1X9XpXtXyXqX",
"o.o.I g C.S V.d.T ^ z.Q.I.!.w.k.I.L.0.W.~ C , & & & & & # # @ @ @ @ + + + + + + + ; -.,.q 9 ` ;.v.u.q.J D.g.i.Q.I.Y.v.n.Z.Z - :.7X,X9X4X4XqX",
"O.o.L q./ q.Q.v.s / g.Q.Y.Q.y.k.I.J.w.W.~ V , : & & & # # # @ @ @ @ @ + + @ + + + 1 X. .i 9 ) S.~.h.f.S C.g.t.W.v.U.v.n.Z.K > :.iXpXwX-X>XqX",
"o. .U g ;.j W.K.a / n.Q.I.I.i.l.I.G.0.Q.! B , , - & & & $ # @ # @ @ @ + + + + + o , X.] u y ` =.M.a.k S D.g.w.!.J.Q.x.v.B.F > 1.iXpX$X$X2X4X",
"o.{ S g D.S t.u.{ B.v.U.U.!.f.a.Q.Y.d K.~ B , * & & & $ $ # @ @ @ @ @ + + @ + + O ,  .} 6 t i.( / j A ;.W.s.t.!.v.I.P.J.u.K , :.yX,X;X2X4XqX",
"X.-. .g U.S.J J S z.I.Y.Q.p.p b l.I.m c.~ B , > * & * $ & @ @ # @ @ @ + O @ O O O < ] U u k J.l.B.Q _ U.(.s.t.Q.v.K.I.v.B.K , 5.yX8X7X5X9X4X",
"X.{ S h I.~.Q.s.r !.I.Q.H.T #.#.) H.k v.! B > * & & & & & # @ @ @ @ @ @ @ @ @ o @ ; O.4.% q.L.U.I.g.g.!.Q.g.t.Q.K.v.K.b.u.C , 5 |.8.8.8.<.+X",
"X.} L g K.U.!.k.q.!.U.Q.S.&.W H %.~ q.b.! V , , - * & & & # # # @ @ @ @ @ O o @ @ ,  .] % t K.U.^.h.h.!.U.d.r s.n.v.K.b.u.C < >.4X<X&XOX+X@X",
"{ { L f I.Q./.k.t.Q.K.I.D.X.j h / O.b W.! V 1 * > > & & & # # # @ @ @ @ @ @ @ o @ , ] U u t J.U.U.h.a.^.N.Q I o./ H.I.b.^ B ; 6.9X5XiXyX0X5X",
"o.] K h K.U.Q.k.y.~.I.W.m.S.v n.i.%.S.N.! V , - - * & & & $ # # $ @ $ @ @ + @ # # < { I i r J.U.Q.l.i.~.H.X.%.W X.;.z.m.n F , 5.yXpXrX8X4X5X",
" .{ Z h K.Q.I.V.B.H.H.H.l.v.z s.n.( 1.K.L V > , > & & & & & = = $ @ $ $ # @ # # @ ; Y U p e J.Y.U.h.i.~.H.] _ t.T O.B.b.` D > 6.iX+X#X1X9X7X",
"{ -.{ f K.K.S.'.$.o.-.-.*.1...1.2.3.$.( ] N , , > * & & $ & & @ $ & $ $ # @ # = # ; -.%.a q J.U.U.z.a.Q.I._ _ v.a...2.v.~ D 1 W <.7.iXyX9X9X",
"X.U S f b.Y.;.'.O.#.%.%.,.`.4.4.].'.%.[ $.M , * > - - & & & # & & $ & $ # # # # # , I U j e v.m.Q.g.i.M.W.r.u.b.n.^ ,.P.v D 2 4 7.8X9X2X4X9X",
" .] Z z J.Q.Y.V.B.V.V.B.V.B.v Z.B.=.X._ ,.M 1 , - - - & - = & = & $ # # # # # = # , Y U v e H.A.2.~ ~ ' _ ) ~ ^ C._ +._ T F , R 9X9X9XqX>XqX",
" .] L g J.I.I.x.n.~.I.I.M.A.t.I.r.o.2.G.Y M < : - - - - - & & & & & & & = & = & $ , I K c r ^ ].`.%.,.%.`.'.'.'.'.{.'.} ,.K : 5.4X4X9X9X4X<X",
"I K K g b.I.I.x.l.U.K.m.H.Y u.z.c ,.Z.b.J V : , ; - - - - & & & & & & & & # & & $ < I [ c t V._ *./ T ) ) =.( ) =.=.,.W 5.U , H |.[.7.[.7.@X",
"I $.G g J.U.I.x.h.U.K.K.) | c v  .W d.Y.J M , , ; - - - - - & - & & & & & & & = & , +.O.d t n.v.H.h.t.b.v.n.m z.n.B.O.D._ F 1 |.pX>X4X|.7.0X",
"I O.L g J.K.I.z.s.I.K.m.~ $.( X.,.n r.v.J M , < - ; ; > - - & & & - - # - # & & & , I F c t x.U.(.l.i.I.J.H.T H.j.) 1.n.Q V 2 $XsXpXpXoX#XfX",
"] U Z g J.I.I.v.i.I.I.I.l.J { =.A.a.a.m.S M > , - - , - - - - - - & & - - & & - : , Y K c r s.u.g.l.w.I.z.{ J f v o._ n.! V 2 OXsXtX2X=X+XpX",
"I I Z h v.I.K.x.y.P.v.J.W.q.x J.m.d.i.J.Z M > , , - - > ; - & - - & - - - # = - & , K F c r Q `.S.g.y.I.z.O.-.J X...b b.Q V 4 @XpXtXpX-X-XfX",
"I I L h J.U.I.x.0.m.K.J.I.w.w.W.v.i.i.Y.A M > , - , > ; - - - - - - - - - - - - : , X.[ j y v *XS.w.x x.g.Q X.%.*.b k g.J N 4 OXwXtXpX1XOXiX",
"I K Z g v.a.x.G.z P.I.m.I.t.w.I.v.i.a.J.A M ; , , , > , > > , - , * * > > * * * > ;  .} p 0 f x q.m d f.q.q.p p q.g d q.a V 4 $X6X-X2X8XOX9X",
"U -.K g h.%.B.c.x v.I.v.I.w.e.I.v.i.k.x.B M , , , , > , , * ; > > , > * > > , > & < L F i 7 q e r 8 8 r e e e 7 e q 8 y s B 4 $X8X=X-X9X>XyX",
"I I Z z h.XXR.j.x P.m.v.Y.e.w.I.v.e.c.l.Z 4 , , , , , , , > > , > : , , > > , , , 1 P Y s % i i i u u i i i p % i i u i A U V <X8X;X&X8X8XuX",
"I K Z h h.s.G.z.x m.v.v.I.r.r.W.M.e.c.Z.B M ; , , , , , , , * , , > , , , * , , - , E .. .$.$.+...X.$.-.:.1.+.X.*.O.X.] K U K :X6X,X<XeX7XuX",
"I L Z h v.L.K.a.k v.P.m.I.u.b B.! H Z B D 4 , < , < , , , , < , , , , , , , , < , , Y ..$.+.-.+.+.3.-.-.3.-.O.4.+.$.@. .$.Z K :X9X5X3XtX7XuX",
"I K Z z n.b.Y.i.m Z.^ J J D B B M +.Z V Z M , , , , , , , < , , , , , < , , , , , , K E ..P Y I @. .Y Y E R @. .I Y P I Y B H :X9X8X4X8X4XfX"
};
