/* XPM */
static char *result[] = {
/* columns rows colors chars-per-pixel */
"70 70 217 2 ",
"   c #0C0D0F",
".  c #1F120C",
"X  c #3A1507",
"o  c #231D1A",
"O  c #351E12",
"+  c #312D28",
"@  c #460C01",
"#  c #431603",
"$  c #611102",
"%  c #682202",
"&  c #7D2801",
"*  c #474741",
"=  c #6D695A",
"-  c #96120A",
";  c #A70D0E",
":  c #A81C02",
">  c #B71507",
",  c #A51314",
"<  c #AC1515",
"1  c #AD1A19",
"2  c #A41B1A",
"3  c #B21515",
"4  c #B21E1E",
"5  c #BD1A1A",
"6  c #B71718",
"7  c #BC0C0D",
"8  c #8F2D0E",
"9  c #A83702",
"0  c #B73C03",
"q  c #B72A1A",
"w  c #BE3610",
"e  c #93273B",
"r  c #B12E2C",
"t  c #C61D00",
"y  c #CB1E00",
"u  c #C31309",
"i  c #D21F00",
"p  c #C41312",
"a  c #C41B1B",
"s  c #CC1D1D",
"d  c #CB1815",
"f  c #D31E1F",
"g  c #D61819",
"h  c #C10F0E",
"j  c #C62102",
"k  c #CB2202",
"l  c #CA2B05",
"z  c #C92B0A",
"x  c #D42201",
"c  c #DC2400",
"v  c #DD2A01",
"b  c #D12803",
"n  c #CC3405",
"m  c #CC3309",
"M  c #CE3B0B",
"N  c #C8370B",
"B  c #D33B04",
"V  c #D23C0C",
"C  c #D73405",
"Z  c #C4241B",
"A  c #CA251B",
"S  c #C52A1B",
"D  c #C43516",
"F  c #D1241E",
"G  c #E02600",
"H  c #E12B01",
"J  c #E43301",
"K  c #E73A02",
"L  c #E93E02",
"P  c #D41F20",
"I  c #D91E20",
"U  c #E21F21",
"Y  c #D52221",
"T  c #DC2123",
"R  c #E42426",
"E  c #E82627",
"W  c #E92628",
"Q  c #BB4414",
"!  c #814330",
"~  c #CA4206",
"^  c #DC4202",
"/  c #D2430B",
"(  c #D74708",
")  c #C2441A",
"_  c #C94717",
"`  c #D14A15",
"'  c #C7571A",
"]  c #D35414",
"[  c #D65B12",
"{  c #D75D15",
"}  c #D6540F",
"|  c #E34502",
" . c #EA4402",
".. c #E54903",
"X. c #EE4E01",
"o. c #E14A0B",
"O. c #F04F01",
"+. c #EF5001",
"@. c #F15001",
"#. c #D96719",
"$. c #CF781A",
"%. c #DA7A18",
"&. c #E07B19",
"*. c #CA4822",
"=. c #C85A25",
"-. c #C95935",
";. c #D45636",
":. c #D64E25",
">. c #CB6E2B",
",. c #CB6525",
"<. c #D66C20",
"1. c #DB7C25",
"2. c #CB643D",
"3. c #E46629",
"4. c #A43640",
"5. c #943E67",
"6. c #BD5D54",
"7. c #B65247",
"8. c #BE6259",
"9. c #A64760",
"0. c #B76D6D",
"q. c #975178",
"w. c #C75044",
"e. c #C0675E",
"r. c #D27B5B",
"t. c #CF7A5C",
"y. c #C97271",
"u. c #D5861F",
"i. c #E58D1D",
"p. c #E6971D",
"a. c #EBA61C",
"s. c #FBAD14",
"d. c #F1A51B",
"f. c #FCB416",
"g. c #FBB619",
"h. c #FBBC1B",
"j. c #FAB719",
"k. c #FDAC0F",
"l. c #DD8429",
"z. c #DA8828",
"x. c #DC9624",
"c. c #D69F36",
"v. c #E39A29",
"b. c #E29A31",
"n. c #D9A838",
"m. c #DDB53E",
"M. c #EEAB24",
"N. c #E5A524",
"B. c #EAB528",
"V. c #F3BA25",
"C. c #FBBB22",
"Z. c #F3B624",
"A. c #E3A335",
"S. c #E7B23A",
"D. c #E9BA3E",
"F. c #FBC11E",
"G. c #FBC421",
"H. c #FBCC26",
"J. c #F2C42A",
"K. c #F6CB2B",
"L. c #FACE29",
"P. c #F9C52F",
"I. c #FBD52C",
"U. c #FCD92E",
"Y. c #F5D02D",
"T. c #FADA33",
"R. c #F8DE39",
"E. c #F5DB3C",
"W. c #EFC229",
"Q. c #F7E23E",
"!. c #F8E13C",
"~. c #888478",
"^. c #DDB640",
"/. c #E0BC41",
"(. c #CB8579",
"). c #D38C76",
"_. c #D69070",
"`. c #ECC441",
"'. c #EDCB44",
"]. c #E3C543",
"[. c #EED647",
"{. c #F0DB4A",
"}. c #F2D944",
"|. c #F7E543",
" X c #F6E947",
".X c #F3E44C",
"XX c #F5EB4C",
"oX c #F8E844",
"OX c #F5EF51",
"+X c #F5F152",
"@X c #EEE14C",
"#X c #A26D8C",
"$X c #929081",
"%X c #A39E8D",
"&X c #BEAD9A",
"*X c #B4B2A1",
"=X c #D59486",
"-X c #D59789",
";X c #D69A8B",
":X c #D89B88",
">X c #D1968B",
",X c #CEB1B5",
"<X c #E4BFB8",
"1X c #E5C29C",
"2X c #D7D2BA",
"3X c #EACBAF",
"4X c #CBC4CE",
"5X c #E2D0D2",
"6X c #E9E5CA",
"7X c #F7E8C8",
"8X c #FFFBDD",
"9X c #F6F1D5",
"0X c #D5DEE7",
"qX c #FFFEE1",
"wX c #F6FBFC",
"eX c #EAE9EE",
"rX c None",
/* pixels */
"rXrXrXrXrXrXrXrXrXrXrXrXrXrXrXrXrXrXrXrXrXrXrXrXrXrXrXrXrXrXrXrXrXrXrXrXrXrXrXrXrXrXrXrXrXrXrXrXrXrXrXrXrXrXrXrXrXrXrXrXrXrXrXrXrXrXrXrXrXrX",
"rXrXrXrXrXrXrXrXrXrXrXrXrXrXrXrXrXrXrXrXrXrXrXrXrXrXrXrXrXrXrXrXrXrXrXrXrXrXrXrXrXrXrXrXrXrXrXrXrXrXrXrXrXrXrXrXrXrXrXrXrXrXrXrXrXrXrXrXrXrX",
"rXrXrXrXrXrXrXrXrXrXrXrXrXrXrXrXrXrXrXrXrXrXrXrXrXrXrXrXrXrXrXrXK.L.rXrXrXrXrXrXrXrXrXrXrXrXrXrXrXrXrXrXrXrXrXrXrXrXrXrXrXrXrXrXrXrXrXrXrXrX",
"rXrXrXrXrXrXrXrXrXrXrXrXrXrXrXrXrXrXrXrXrXrXrXrXrXrXs.rXrXrXrXrXK.}.rXrXrXrXrXrXrXrXrXrXrXrXrXrXrXrXrXrXrXrXrXrXrXrXrXrXrXrXrXrXrXrXrXrXrXrX",
"rXrXrXrXrXrXrXrXrXrXrXrXrXrXrXrXrXrXrXrXrXrXrXrXrXrXf.rXrXrXrXrXC.}.P.rXrXrXrXrXrXrXrXrXrXrXrXrXrXrXrXrXrXrXrXrXrXrXrXrXrXrXrXrXrXrXrXrXrXrX",
"rXrXrXrXrXrXrXrXrXrXrXrXrXrXrXrXrXrXrXrXrXrXrXrXrXrXF.h.rXrXrXrXrXG.rXrXrXrXrXrXrXrXrXrXrXrXrXrXrXrXrXrXrXf.rXrXrXrXrXrXrXrXrXrXrXrXrXrXrXrX",
"rXrXrXrXrXrXrXrXrXrXrXrXrXrXrXrXrXrXrXrXrXrXrXrXrXrXH.H.rXrXrXrXrXrXrXrXrXrXrXrXrXs.rXrXrXrXrXrXrXrXrXrXG.G.rXrXrXrXrXrXrXrXrXrXrXrXrXrXrXrX",
"rXrXrXrXrXrXrXrXrXrXrXrXrXrXrXrXrXrXrXrXrXrXrXrXrXrXI.I.G.rXrXrXrXrXrXrXrXrXrXrXrXg.j.rXrXrXrXrXrXrXrXG.R.I.rXrXrXrXrXrXrXrXrXrXrXrXrXrXrXrX",
"rXrXrXrXrXrXrXrXrXrXrXrXrXrXrXrXrXrXrXrXrXrXrXrXrXF.I.I.G.rXrXrXrXrXrXrXrXrXrXrXrXF.G.rXrXrXrXrXrXrXC.T.OXY.rXrXrXrXrXrXrXrXrXrXrXrXrXrXrXrX",
"rXrXrXrXrXrXrXrXrXrXrXrXrXrXrXrXrXrXrXrXrXrXrXrXh.I.I.I.h.rXrXrXrXrXrXrXrXrXrXrXf.I.I.j.rXrXrXrXrXrXC.T.OXL.rXrXrXrXrXrXrXrXrXrXrXrXrXrXrXrX",
"rXrXrXrXrXrXrXrXrXrXrXrXrXrXrXrXrXrXrXrXrXrXrXh.H.T.I.I.rXrXs.rXrXrXrXrXrXrXrXrXh.I.I.F.rXrXrXrXrXrXrXL.!.G.rXrXrXrXrXrXrXrXrXrXrXrXrXrXrXrX",
"rXrXrXrXrXrXrXrXrXrXrXrXrXrXrXrXrXrXrXrXrXrXh.H.I.R.U.H.rXrXf.j.rXrXrXrXrXrXrXrXF.I.U.H.rXrXrXrXrXrXrXrXG.h.rXrXrXrXrXrXrXrXrXrXrXrXrXrXrXrX",
"rXrXrXrXrXrXrXrXrXrXrXrXrXrXrXrXrXrXrXrXrXrXH.I.I.|.T.I.h.rXF.C.rXrXrXrXrXrXrXrXh.U.I.I.F.rXrXrXrXrXrXrXrXf.rXrXrXrXrXrXrXrXrXrXrXrXrXrXrXrX",
"rXrXrXrXrXrXrXrXrXrXrXrXrXrXrXrXrXrXrXrXrXf.I.U.I.XX!.I.I.H.I.h.rXrXrXrXrXrXrXrXf.I.I.I.L.f.rXrXrXrXrXrXrXrXrXrXrXrXrXrXrXrXrXrXrXrXrXrXrXrX",
"rXrXrXrXrXrXrXrXrXrXrXrXrXrXrXrXrXrXrXrXrXF.I.I.R.XXXXQ.I.I.L.f.rXrXrXrXrXrXrXrXrXG.U.I.I.H.g.rXrXrXrXrXrXrXrXrXrXrXrXrXrXrXrXrXrXrXrXrXrXrX",
"rXrXrXrXrXrXrXrXrXrXrXrXrXrXrXrXrXrXrXrXrXG.I.I.!.OXOXOX XR.I.f.rXrXrXrXrXrXrXrXrXj.H.U.I.U.H.F.g.rXrXrXrXrXrXrXrXrXrXrXrXrXrXrXrXrXrXrXrXrX",
"rXrXrXrXrXrXrXrXrXrXrXrXrXrXrXrXrXrXrXrXrXG.I.I.!.OXOXOXOXOXR.h.rXrXrXrXrXrXrXrXrXrXh.L.I.I.U.I.L.G.h.rXrXrXrXrXrXrXrXrXrXrXrXrXrXrXrXrXrXrX",
"rXrXrXrXrXrXrXrXrXrXrXrXrXrXrXrXrXrXrXrXrXh.I.I.T.XXOXOXOXOX XL.f.rXrXrXrXrXrXrXrXrXrXh.I.I.I.I.I.I.I.G.rXrXrXrXrXrXrXrXrXrXrXrXrXrXrXrXrXrX",
"rXrXrXrXrXrXrXrXrXrXrXrXrXrXrXrXrXrXrXrXrXrXH.U.I.|.OXOXOXOXXXT.H.h.rXrXrXrXrXrXrXrXrXrXh.H.U.I.I.U.I.I.F.rXrXrXrXrXrXrXrXrXrXrXrXrXrXrXrXrX",
"rXrXrXrXrXrXrXrXrXrXrXrXrXrXrXrXrXrXrXrXrXrXh.I.I.T. XOXOXOXXXT.L.I.h.rXrXrXrXrXrXrXrXrXrXg.H.I.I.I.I.I.I.g.rXrXrXrXrXrXrXrXrXrXrXrXrXrXrXrX",
"rXrXrXrXrXrXrXrXrXrXrXrXrXrXrXrXrXrXrXrXrXrXrXF.I.I.T.XXOXOX|.T.N.i.G.j.rXrXrXrXs.rXrXrXrXrXF.I.I.I.I.I.U.G.rXrXrXrXrXrXrXrXrXrXrXrXrXrXrXrX",
"rXrXrXrXrXrXrXrXrXrXrXrXrXrXrXrXrXrXrXrXrXrXrXrXF.I.I.oXOX|.T.I.K.} [ d.rXrXrXrXj.rXrXrXrXrXrXG.I.U.I.I.I.I.F.rXrXrXrXrXrXrXrXrXrXrXrXrXrXrX",
"rXrXrXrXrXrXrXrXrXrXrXrXrXrXrXrXrXrXrXrXrXrXrXrXrXG.I.!.XXT.I.I.I.M.l B rXrXrXrXF.G.rXrXg.rXrXh.I.I.I.U.I.I.I.j.rXrXrXrXrXrXrXrXrXrXrXrXrXrX",
"rXrXrXrXrXrXrXrXrXrXrXrXrXrXrXrXrXrXrXrXrXrXrXrXrXrXH.R.oXI.T.I.I.I.{ t y rXrXrXf.G.L.I.G.rXrXrXH.I.I.I.U.I.I.I.h.rXrXrXrXrXrXrXrXrXrXrXrXrX",
"rXrXrXrXrXrXrXrXrXrXrXrXrXrXrXrXrXrXrXrXrXrXrXrXrXrXh.T.T.I.I.I.I.U.M.k y m rXrXrXh.I.I.F.rXrXrXL.I.I.T.U.I.U.I.I.F.rXrXrXrXrXrXrXrXrXrXrXrX",
"rXrXrXrXrXrXrXrXrXrXrXrXrXrXrXrXrXrXh.rXrXrXrXrXrXrXrXL.U.I.I.I.U.I.L.] t x y rXrXC.I.H.f.rXrXrXH.I.T.|.I.I.I.I.U.I.G.rXrXrXrXrXrXrXrXrXrXrX",
"rXrXrXrXrXrXrXrXrXrXrXrXrXrXrXrXrXh.H.h.rXrXrXrXrXrXrXI.I.I.I.L.V.I.U.i.t c x t rXG.I.G.rXrXrXrXL.I.!.|.U.I.U.I.I.U.I.f.rXrXrXrXrXrXrXrXrXrX",
"rXrXrXrXrXrXrXrXrXrXrXrXrXrXrXrXrXG.I.H.rXrXrXrXrXrXg.L.I.I.M.] i.U.U.M.l x c k rXh.I.H.rXrXrXj.I.T.XXR.I.I.I.I.I.I.I.j.rXrXrXrXrXrXrXrXrXrX",
"rXrXrXrXrXrXrXrXrXrXrXrXrXrXrXrXrXC.I.I.j.rXrXrXrXrXF.I.L.&.l l V.U.I.V.l c G c k d.U.H.rXrXg.H.U. XXXI.I.I.I.I.U.I.U.h.rXrXrXrXrXrXrXrXrXrX",
"rXrXrXrXrXrXrXrXrXrXrXrXrXrXrXrXrXrXH.I.G.rXrXrXrXj.I.J.{ y y M K.I.I.Z.m x c c i [ Y.M.C.G.L.T. XOX|.U.I.U.U.I.I.I.I.h.rXrXrXrXrXrXrXrXrXrX",
"rXrXrXrXrXrXrXrXrXrXrXrXrXrXrXrXrXrXH.I.H.j.rXrXF.I.K.[ y c x l M.I.L.B.l c J H c k p.i.%.I.T.XXOXOXR.I.I.I.I.I.I.I.I.h.rXrXrXrXrXrXrXrXrXrX",
"rXrXrXrXrXrXrXrXrXrXrXrXrXrXrXrXrXh.I.R.I.I.I.L.G.K.&.t y G G x / p.C.#.x H  .J G i V #.m V.|.OXOXOX|.I.I.U.I.I.U.I.L.g.rXrXrXrXrXrXrXrXrXrX",
"rXrXrXrXrXrXrXrXrXrXrXrXrXrXrXrXh.I.I.Q.!.I.I.J.#.i.l y x G G c c b C x c H  . .H c t x i %. XOXOXOX XI.I.I.I.I.I.I.F.rXrXrXrXrXrXrXrXrXrXrX",
"rXrXrXrXrXrXrXrXrXrXrXrXrXrXh.H.I.I.I.|.oXI.U.i.l / j y c G G H G G c G H H  .O.H G x v i V {.+XOXOXOXR.I.I.I.U.I.F.rXrXrXrXrXrXrXrXrXrXrXrX",
"rXrXrXrXrXrXrXrXrXrXrXh.G.I.I.I.I.I.T. XoXI.I.#.t t t k G G H L H G G G G J @.@.L G v G y j S.+XOXOXOXOXT.I.I.U.F.rXrXrXrXrXrXrXrXrXrXrXrXrX",
"rXrXrXrXrXrXrXrXrXrXh.I.I.I.I.I.I.I.Q.+XoXI.H.` t t j x G G L X.J G G G H  .+.@. .G G H x t 1.+XOXOXOXOXXXT.U.G.rXrXrXrXrXrXrXrXrXrXrXrXrXrX",
"rXrXrXrXrXrXrXrXrXF.I.I.I.U.I.U.I.Q.OX+X XI.K.( t t t i G J  .+. .K H J  .+.X.@.X.H K H y t ] OXOXOXOXOXOX XI.j.rXrXrXrXrXrXrXrXrXrXrXrXrXrX",
"rXrXrXrXrXrXrXrXj.I.U.U.I.U.I.I.T.XX+XOXXX!.E.] t t y i c  .@.@.@.@.X.X.+.X.X.X.X. . .H i t / {..X.XOX+XOX+X}.C.rXrXrXf.rXrXrXrXrXrXrXrXrXrX",
"rXrXrXrXrXrXrXrXH.J.x.N.I.I.I.U.Q.OX{.XXOXOX+X1.t y x y H X.@.@.@.+.X.+.X.+.+.X.@.+. .H x t M {.{./.+X+XOXOX.XC.rXd.' N rXrXrXrXrXrXrXrXrXrX",
"rXrX< 5 q rXrXf.V.) f Z x.U.R.!.XX.Xl.@X+X+X+XA.t y c c v @.@.@.+.+.+.X.@.X.O.@.@.@. .G c t M [..Xl..X+XOXOXXXG.F.z.s R a rXrXrX< s Y 1 rXrX",
"rXrX1 T T a rXG.$.s R S x.T. XOX+X'./ '.+XOX+XS.j : - @ # 8 Q ..@.@.@.@.@.@.@.( 9 % # $ : t l S.{.` `.OX+XOX XI.I.B._ T Y - rX, s P a , rXrX",
"rXrXrX2 5 5 6 Q D Y D v.I.!.OXOX+X'.z b.+XOX+Xb.t : - ! = + . # & 0 ~ 0 ~ 9 % X o * = 8 : j t ` <.j l.OXXX+XQ.I.I.I.J.Q Y f 5 a , 2 rXrXrXrX",
"rXrX1 4 1 < T I R R ) Y.U. X+XOX+X`.l { OX+X.X] t t y t.8X6X~.  + + X # O o   $X5X9X7XD G G c i x c ] OX+X+X XI.I.I.J.D R W W R a 5 a a 6 rX",
"3 Y R R Y T W W R R S B.!.OX+XOX+X'.l j 1.S.<.t t y k -.7X8X6X%X2X6X0.8 &X*X%X9X8XqX1XV G G c G c c m '.+XOX XU.I.I.u.S W W W R s f R R T 6 ",
"1 a a a 1 1 U U U g d ) n.OX+XOX+X[.M y t k t t t k c l _.7XqXqX8X1X:...t.7XqXqX8X3X2.| J H K H G c k S.+X+XXXU.M.,.d u p d d g < - 1 4 1 rX",
"rXrXrXrX1 P h 3 w Q N p s ,./..X+X.X` c k y t t t t c J ^ r.).).t._ ..X.^ -._.)._.' | O.X.X.^ J G c k b.+XOX].>.A p z $.%.rX2 6 U a rXrXrXrX",
"rXrXrX1 g g ; rXj.Y.J.z.D p Z ,.^.OX#.x G x x k > > c K +...^ ^ ..+.+.+.@...| ^ | ..@.O.X.| B J G G y <.].>.S p D u.J.I.g.rXrXrXp g 1 rXrXrX",
"rXrXrX1 6 ; rXrXF.I.I.I.E.n.) p Z =.,.k H J H c x t c ..+.+.@.@.+.+.+.+.X.@.@.@.O.X.@.@...n | J G c y N S d D $.W.I.U.I.f.rXrXrXrX; rXrXrXrX",
"rXrXrXrXrXrXrXrXh.I.I.I.R.+X.Xn.*.Z d k c J  .K J C l ..+.+.X.+.@.X.+.X.+.+.+.+.X.X.+...n | X.J G c t t *.c.[.T.I.I.U.L.f.rXrXrXrXrXrXrXrXrX",
"rXrXrXrXrXrXrXrXg.I.U.I.T.XXOXOXOX^.,.j x H X.X.O.@.| n ..+.@.X.X.+.X.@.X.+.+.+.@.X.B n | @.X.J G x j z.OX+XXXT.I.U.I.L.f.rXrXrXrXrXrXrXrXrX",
"rXrXrXrXrXrXrXrXrXH.U.I.I. XOXOXOX+XOXl.y c  .+.O.X.@./ 7._ ..@.O.@.@.@.+.+.+.^ B B ^ X.+.X. .H c i D '.+XOX XI.I.I.U.F.k.rXrXrXrXrXrXrXrXrX",
"rXrXrXrXrXrXrXrXrXG.I.I.I.!.OXOXOXOX+X'.m c J X.X.O.O...>X4X(.-.` ( o.^ ^ B B B ^ X.@.X.+.X.L c i t <.OXOXOXR.I.I.U.I.h.rXrXrXrXrXrXrXrXrXrX",
"rXrXrXrXrXrXrXrXrXh.I.I.I.T.XXOXOXOXOX.X<.t H  .+.+.+.X.;.0XwXeX5X4X<X,Xw...+.+.X.+.X.+.O. .H c i m `.OXOXXXT.U.I.I.H.f.rXrXrXrXrXrXrXrXrXrX",
"rXrXrXrXrXrXrXrXrXrXH.I.I.T.!.OXOXOXOXOX`.M x J X.X.X.@...(.wXwXeX4X,X_.3.+.+.+.X.X.+.X.X.J G x t b.OXOXOXoXI.I.I.I.F.rXrXrXrXrXrXrXrXrXrXrX",
"rXrXrXrXrXrXrXrXrXrXrXI.I.I.T. XOXOXOXOX+XA.z c L X.X.X.+.o.0.#X#X5.4.` X.+.X.+.X.+.X.X.J G i t l.OXOXOXOXT.I.I.U.H.f.rXrXrXrXrXrXrXrXrXrXrX",
"rXrXrXrXrXrXrXrXrXrXrXG.I.I.I.R.OXOXOXOXOXOXz.k c L X.+.+.@.| q e 9.y.y.D | @.X.+.+. .J c i z b.OXOXOXOX|.I.I.I.I.h.rXrXrXrXrXrXrXrXrXrXrXrX",
"rXrXrXrXrXrXrXrXrXrXrXrXH.I.I.I.R.OXOXOXOXOXOXz.l x K X.+.X.O.X.c F w.:. . .@.@.X. .v i y / S.OX+XOXOX XT.U.I.I.F.rXrXrXrXrXrXrXrXrXrXrXrXrX",
"rXrXrXrXrXrXrXrXrXrXrXrXrXH.I.I.I.|.OXOXOXOXOXOXS.` x H  .X.X.+.@.@.@.@.O.O. . .H c i M 1.{.+XOXOXOXXXT.I.I.I.G.rXrXrXrXrXrXrXrXrXrXrXrXrXrX",
"rXrXrXrXrXrXrXrXrXrXrXrXrXrXH.I.I.I.!.XXOXOXOXOX+X{.l.V x v J L  . . . .K J H c x / l.'.+X+XOXOXOXXXT.I.I.I.G.rXrXrXrXrXrXrXrXrXrXrXrXrXrXrX",
"rXrXrXrXrXrXrXrXrXrXrXrXrXrXrXG.I.I.I.R. X+XOXOXOXOXOX[.b.{ V b b c x x x x m <.A.}.OX+XOXOXOXOX XT.I.I.I.F.rXrXrXrXrXrXrXrXrXrXrXrXrXrXrXrX",
"rXrXrXrXrXrXrXrXrXrXrXrXrXrXrXrXh.I.I.I.T. XXXOXOXOXOXOX+XXX[.S._ > #.) 7 z.[.OX+XOXOXOXOXOXXX|.I.I.I.H.h.rXrXrXrXrXrXrXrXrXrXrXrXrXrXrXrXrX",
"rXrXrXrXrXrXrXrXrXrXrXrXrXrXrXrXrXf.F.I.I.I.R.oXOXOXOXOXOX+XOX+X=.7 ^.>.7 n.+XOXOXOXOXOXXX|.T.I.I.I.F.rXrXrXrXrXrXrXrXrXrXrXrXrXrXrXrXrXrXrX",
"rXrXrXrXrXrXrXrXrXrXrXrXrXrXrXrXrXrXrXf.F.I.I.I.T.|. XOX+XOX+XXX,.s m.>.a n.+X+XOXXX X!.T.U.I.H.F.g.rXrXrXrXrXrXrXrXrXrXrXrXrXrXrXrXrXrXrXrX",
"rXrXrXrXrXrXrXrXrXrXrXrXrXrXrXrXrXrXrXrXrXf.F.G.I.I.U.R.Q.oX X.X=.P n.,.a n. X X!.R.U.I.I.G.h.f.rXrXrXrXrXrXrXrXrXrXrXrXrXrXrXrXrXrXrXrXrXrX",
"rXrXrXrXrXrXrXrXrXrXrXrXrXrXrXrXrXrXrXrXrXrXrXrXj.N.N.N.N.N.W.Y.' s x.=.a x.K.B.N.N.p.p.d.rXrXrXrXrXrXrXrXrXrXrXrXrXrXrXrXrXrXrXrXrXrXrXrXrX",
"rXrXrXrXrXrXrXrXrXrXrXrXrXrXrXrXrXrXrXrXrXrXrXrX4 Z A Y Y A D Q q f x._ a Q ) S A F F S q , rXrXrXrXrXrXrXrXrXrXrXrXrXrXrXrXrXrXrXrXrXrXrXrX",
"rXrXrXrXrXrXrXrXrXrXrXrXrXrXrXrXrXrXrXrXrXrX3 P T W W R W R W T Y Y _.w.f f R R W W E E W T a rXrXrXrXrXrXrXrXrXrXrXrXrXrXrXrXrXrXrXrXrXrXrX",
"rXrXrXrXrXrXrX;X;X=XrXrX;X-X;X-X;XrXrX=X(.r a g Y P P f P Y Y Y Y A e.r s Y f f f f f F f f f 3 7.=X=XrX;X;X-X=X;X=X;X=X=X;X;X=X;X;XrXrXrXrX",
"rXrXrXrXrXrXrXrX;XrXrXrXrXrXrXrXrX-X=X=X=X8.8.e.6.6.6.6.6.6.6.6.e.e.y.y.8.6.6.6.6.6.6.6.6.8.8.6.y.=X-X-X;XrXrXrXrXrXrXrXrXrXrXrXrXrXrXrXrXrX",
"rXrXrXrXrXrXrXrXrXrXrXrXrXrXrXrXrXrXrXrXrX;X;X;X;X=X;X-X-X=X=X;X;X=X=X=X-X;X;X-X=X=X=X;X=X;X;X;XrXrXrXrXrXrXrXrXrXrXrXrXrXrXrXrXrXrXrXrXrXrX"
};
