/* XPM */
static char *result[] = {
/* columns rows colors chars-per-pixel */
"70 70 225 2 ",
"   c #260204",
".  c #2B0205",
"X  c #2A090A",
"o  c #390507",
"O  c #28190B",
"+  c #3B130B",
"@  c #34180C",
"#  c #331918",
"$  c #360D17",
"%  c #04290E",
"&  c #02270E",
"*  c #062C10",
"=  c #0B3615",
"-  c #143818",
";  c #1C2D10",
":  c #2F2F16",
">  c #3A2525",
",  c #2E3F21",
"<  c #450207",
"1  c #490107",
"2  c #440408",
"3  c #490208",
"4  c #48090D",
"5  c #4B0D11",
"6  c #4D1317",
"7  c #521C24",
"8  c #561431",
"9  c #4D1724",
"0  c #532729",
"q  c #493939",
"w  c #563A39",
"e  c #42292A",
"r  c #0C481B",
"t  c #17491D",
"y  c #0A5B1F",
"u  c #15511F",
"i  c #164C23",
"p  c #0C5D21",
"a  c #145A25",
"s  c #195828",
"d  c #264929",
"f  c #25572A",
"g  c #344E31",
"h  c #0D6323",
"j  c #0D6C25",
"k  c #0F6F28",
"l  c #116526",
"z  c #146C2A",
"x  c #19662B",
"c  c #0F7227",
"v  c #13742B",
"b  c #18722F",
"n  c #137A2D",
"m  c #1B7532",
"M  c #1D7C34",
"N  c #187D32",
"B  c #266935",
"V  c #217B37",
"C  c #237D39",
"Z  c #277639",
"A  c #326933",
"S  c #24481D",
"D  c #444F3D",
"F  c #6D3853",
"G  c #651C40",
"H  c #3A5E43",
"J  c #397746",
"K  c #2C7F40",
"L  c #564A47",
"P  c #485043",
"I  c #665656",
"U  c #664949",
"Y  c #4A6F50",
"T  c #69615F",
"R  c #6A6967",
"E  c #766464",
"W  c #71796D",
"Q  c #5F7F66",
"!  c #94396F",
"~  c #A8397B",
"^  c #817976",
"/  c #836072",
"(  c #8A5F76",
")  c #168131",
"_  c #1A8334",
"`  c #1B8A36",
"'  c #1F8338",
"]  c #1D8C39",
"[  c #1E933B",
"{  c #1F993D",
"}  c #149434",
"|  c #23843B",
" . c #248A3D",
".. c #28863D",
"X. c #22933E",
"o. c #209B3F",
"O. c #268D41",
"+. c #2A8C42",
"@. c #2C8342",
"#. c #328A45",
"$. c #269442",
"%. c #2B9345",
"&. c #229E41",
"*. c #2A9A46",
"=. c #2E9B49",
"-. c #2C9548",
";. c #32944A",
":. c #329D4C",
">. c #3A974B",
",. c #3B9E52",
"<. c #359F51",
"1. c #23A143",
"2. c #2DA34B",
"3. c #2CAB4C",
"4. c #28A347",
"5. c #32A14E",
"6. c #31AA4F",
"7. c #35A451",
"8. c #3BA354",
"9. c #35AA52",
"0. c #3AAC56",
"q. c #3DAC59",
"w. c #34B354",
"e. c #3DB35B",
"r. c #3BBC5C",
"t. c #38B758",
"y. c #2FB151",
"u. c #3FBF61",
"i. c #4B8B5A",
"p. c #4D8D5C",
"a. c #43A95C",
"s. c #41B45E",
"d. c #41B95E",
"f. c #559363",
"g. c #5A8B66",
"h. c #798979",
"j. c #699673",
"k. c #64836B",
"l. c #43BC62",
"z. c #4EBC6A",
"x. c #47B964",
"c. c #55B76E",
"v. c #72A47D",
"b. c #6DA378",
"n. c #3FC161",
"m. c #3FC05F",
"M. c #44C364",
"N. c #48C566",
"B. c #49C668",
"V. c #47C968",
"C. c #4CCC6C",
"Z. c #46C767",
"A. c #4ED06F",
"S. c #54C972",
"D. c #4FD170",
"F. c #51D371",
"G. c #5BDA7C",
"H. c #5AD479",
"J. c #61D37E",
"K. c #81887F",
"L. c #5675A4",
"P. c #4B71B9",
"I. c #486CAC",
"U. c #57769F",
"Y. c #4E78CA",
"T. c #B43D84",
"R. c #C53F91",
"E. c #AD4A86",
"W. c #AE6E95",
"Q. c #907181",
"!. c #CD499A",
"~. c #D04C9D",
"^. c #E668B5",
"/. c #EA6EB9",
"(. c #DD5CAC",
"). c #F37DC4",
"_. c #7BA584",
"`. c #6F8EAE",
"'. c #6C8B9D",
"]. c #66DA84",
"[. c #6BE38A",
"{. c #71E48E",
"}. c #79E895",
"|. c #7895CA",
" X c #5D8FF1",
".X c #679AFD",
"XX c #6C96E9",
"oX c #7AA7FC",
"OX c #938E8E",
"+X c #A98C9C",
"@X c #83A88C",
"#X c #8EB298",
"$X c #8CA6AC",
"%X c #9BB6B6",
"&X c #95B0AE",
"*X c #ACABAA",
"=X c #A5B9A9",
"-X c #B9B5B5",
";X c #A0BCBB",
":X c #A49FA1",
">X c #A4C4AC",
",X c #A9C5B8",
"<X c #B3D2BA",
"1X c #B6C8BA",
"2X c #8AF3A5",
"3X c #91D9A2",
"4X c #97B7EF",
"5X c #F681C8",
"6X c #BDD8C9",
"7X c #A0C1FC",
"8X c #C8CAC8",
"9X c #D3D3D2",
"0X c #DBDEDB",
"qX c #C7D6CD",
"wX c #C6E3CC",
"eX c #CCE6D4",
"rX c #D6EADB",
"tX c #D8F3DD",
"yX c #EAECEB",
"uX c #E3E4E4",
"iX c #F4F5F5",
"pX c #FEFEFE",
"aX c #EFF1EF",
"sX c #C6D9F6",
"dX c None",
/* pixels */
"dXdXdXdXdXdXdXdXdXdXdXdXdXdXdXdXdXdXdXdXdXdXdXdXdXdXdXdXdXdXdXdXdXdXdXdXdXdXdXdXdXdXdXdXdXdXdXdXdXdXdXdXdXdXdXdXdXdXdXdXdXdXdXdXdXdXdXdXdXdX",
"dXdXdXdXdXdXdXdXdXdXdXdXdXdXdXdXdXdXdXdXdXdXdXdXdXdXdXdXdXdXdXdXdXdXdXdXdXdXdXdXdXdXdXdXdXdXb dXdXdXdXdXdXdXdXdXdXdXdXdXdXdXdXdXdXdXdXdXdXdX",
"dXdXdXdXdXdXdXdXdXdXdXdXdXdXdXdXdXdXdXdXdXdXdXdXdXdXdXdXz b dXdXdXdXdXdXdXdXdXdXdXdXdXdXdXz.7.-.5.O.dXdXdXdXdXdXdXdXdXdXdXdXdXdXdXdXdXdXdXdX",
"dXdXdXdXdXdXdXdXdXdXdXdXdXdXdXdXdXdXdXdXdXdXdXdXdXdXz z C +.dXdXdXdXdXdXdXdXdXdXdXdXdXdXdX{.-.k | q.8.dXdXdXdXdXdXdXdXdXdXdXdXdXdXdXdXdXdXdX",
"dXdXdXdXdXdXdXdXdXdXdXdXdXdXdXdXdXdXdXdXdXdXdXdXdXV m O. .dXdXdXdXdXdXdXdXdXdXdXdXdXdXdXdXz.D.%.v ' S.dXdXdXdXdXdXdXdXdXdXdXdXdXdXdXdXdXdXdX",
"dXdXdXdXdXdXdXdXdXdXdXdXdXdXdXdXdXdXdXdXdXdXdXdXdXm m -.-.dXdXdXdXdXdXdXdXdXdXdXdXdXdXdXdXN.F.N.5.5.*.dXdXdXdXdXdXdXdXdXdXdXdXdXdXdXdXdXdXdX",
"dXdXdXdXdXdXdXdXdXdXdXdXdXdXdXdXdXdXdXdXdXdXdXdXdXdXdX..%.dXdXdXdXdXdXdXdXdXdXdXdXdXdXdXa.].B.5.z l dXdXdXdXdXdXdXdXdXdXdXdXdXdXdXdXdXdXdXdX",
"dXdXdXdXdXdXdXdXdXdXdXdXdXdXdXdXdXdXdXdXdXdXdXdXdXdXdXdXO.dXdXdXdXdXdXdXdXdXdXdXdXdXdXdXJ.B.O.dXdXdXdXdXdXdXdXdXdXdXdXdXdXdXdXdXdXdXdXdXdXdX",
"dXdXdXdXdXdXdXdXdXdXdXdXdXdXdXdXdXdXdXdXdXdXdXdXdXdXdXdX%.dXdXdXdXdXdXdXdXdXdXdXdXdXdXz.S.O.dXdXdXdXdXdXdXdXdXdXdXdXdXdXdXdXdXdXdXdXdXdXdXdX",
"dXdXdXdXdXdXdXdXdXdXdXdXdXdXdXdXdXdXdXdXdXdXdXdXdXdXdXdX-.O.dXdXdXdXdXdXdXdXdXdXdXdX;.S.-.dXdXdXdXdXdXdXdXdXdXdXdXdXdXdXdXdXdXdXdXdXdXdXdXdX",
"dXdXdXdXdXdXdXdXdXdXdXdXdXdXdXdXdXdXdXdXdXdXdXdXdXdXdXdXm M  .-.5.0.0.0.7.5.-. .z ..N.0.dXdXdXdXdXdXdXdXdXdXdXV z dXdXdXdXdXdXdXdXdXdXdXdXdX",
"dXdXdXdXdXdXdXdXdXdXdXdXdXC -.8.dXdXdXdXdXdXdXdXdXl M 7.z.H.G.D.D.F.F.F.F.V.%.O.-.Z.N.C dXdXdXdXdXdXdXdXdXdXdX+.m l dXdXdXdXdXdXdXdXdXdXdXdX",
"dXdXdXdXdXdXdXdXdXdXdXdX%. . .z.dXdXdXdXdXdXdXl +.x.{.2X2X}.H.D.F.F.F.F.F.N.7.0.C.F.e.r.0.M h dXdXdXdXdXdXdXdX| b z dXdXdXdXV -.-.M dXdXdXdX",
"dXdXdXdXdXdXdXdXdXdXdX:.| c  .+.dXdXdXdXdXdXM z.}.2X{.].H.F.D.D.F.F.F.F.F.C.B.F.F.F.e.e.F.C.=.z dXdXdXdXdXdXm z dXdXdXdXdXdX-.=.M 5...dXdXdX",
"dXdXdXdXdXdXdXdXdXdX7. .k O.s.s.dXdXdXdXl ;.G.{.].F.D.D.F.D.F.F.F.F.F.F.F.F.D.F.F.F.C.N.F.F.F.r.N p dXdXb m dXdXdXdXdXdXdXdXdX9.j M 0.dXdXdX",
"dXdXdXdXdXdXdXdXdX:.7.k  .N.F.[.dXdXdXz 0.D.F.F.F.F.F.F.F.F.F.F.D.F.D.F.F.F.F.F.F.F.F.F.F.F.F.F.l._ h m | dXdXdXdXdXdXdXdXdXdXw.[ c %.*.dXdX",
"dXdXdXdXdXdXdXdXdXs.7.-.0.N.F.[.c.dXv e.F.n.M.x.Z K <.B.F.F.D.F.F.V.].H.F.F.F.F.F.S.x.#.m B B l.C.l.] j dXdXdXdXdXdXdXdXdXdX2.X._ _ ` M dXdX",
"dXdXdXdXdXdXdXdXdX0.N.0.m %.l.F.{.-.0.D.F.F.D.,.- & * i @.x.F.D.D.l.}.H.F.F.F.C.,.x = * * * * i C D.r.` h dXdXdXdXdXdXdX| 9.$.dXdXdXl dXdXdX",
"dXdXdXdXdXdXdXdXdXdXdXdXdXdXdX7.H.].8.N.N.l.8.i * * * * * i @.B.C.l.2XD.F.F.a.x * & & * * = = i s q.A.w._ h dXdXdXdXdX%.e.$.dXdXdXdXdXdXdXdX",
"dXdXdXdXdXdXdXdXdXdXdXdXdXdXdXl =.G.].;.$.-.l.8.;.@.x - = * = B 8.8.}.F.C.K - * = d H s ;.q.x.N.x.C.D.N.4.v z dXdXM 7.l.$.dXdXdXdXdXdXdXdXdX",
"dXdXdXdXdXdXdXdXdXdXdXdXdXdXh -.e.5.G.].B.e.l.F.F.F.8._.>Xk.d * = C [.x.x * - Y $X6XwXi.e.F.F.F.F.F.F.F.y.] 3.| 5.N.C.$.dXdXdXdXdXdXdXdXdXdX",
"dXdXdXdXdXdXdXdXdXdXdXdXdXdXM H.F.9.l.F.F.l.A.D.F.N.i.eXtXtX,Xk.- r :.s & d @X`.`.%XtXg.=.F.F.F.A.Z.D.F.9.[ M.C.F.M.$.dXdXdXdXdXdXdXdXdXdXdX",
"dXdXdXdXdXdXdXdXdXdXdXdXdXh z.{.F.s.9.C.C.F.F.F.F.-.@XtXrX%X`.`.#Xi r * H ,X&X|.XXU.rXv.O.D.F.F.C.r.C.D.t.{ m.A.t.[ dXdXdXdXdXdXdXdXdXdXdXdX",
"dXdXdXdXdXb dXdXdXdXdXdXy %.}.G.D.q.u.7.N.F.D.F.V.K <XtX%X|.4XY.%Xi.$.B ;X6X`.sXoXI.qXv.| D.F.F.D.M.A.F.Z.1.4.t.[ j dXdXdXdXdXdXdXdXdXdXdXdX",
"dXdXdXdXl m dXdXdXdXdXdXz S.{.D.F.e.*.d.F.F.F.F.s.Z wXrX'.4X4XY.$Xf.A.,.<X%XY.oX.XI.6Xg. .F.F.F.F.F.B.l.C.t.&.&.[ v dXdXdXdXdXdXdXdXdXdXdXdX",
"dXdXdXb s V ..dXdXdXdXp O.{.F.C.F.F.C.F.F.F.F.F.2.A wXwXL..X.XP.&Xp.D.,.>X$XY..X XL.<XB -.F.F.F.B.:.%.%...s.w.1.o.v y dXdXdXdXdXdXdXdXdXdXdX",
"dXdXdXx s -.=.| dXdXdXh z.[.M.D.F.F.F.F.F.F.F.F.*.x <XeXL. X.XL.#X8.F.r.j.,XP. XI.&X_.h t.F.F.B.V s l.F.N.:.m.1.&.) y dXdXdXdXdXdXdXdXdXdXdX",
"dXdXb a M O. .%.%.| l m ].G.V.A.F.F.F.F.F.F.F.F.5.p @XtX$XP.L.%Xf.M.F.A.| @X%X`.%X#Xx ' C.F.D.q...O A A.F.B.V.4.1.{ j dXdXdXdXdXdXdXdXdXdXdX",
"dXdXz m m dXdXdXM -.v ;.{.F.F.F.F.F.F.B.0.#...s.t.j B >XtX6X6Xj...D.F.F.5.z i.b.f.z v m.F.F.F.A.a.+ @ 7.F.F.F.3.&.&.v y dXdXdXdXdXdXdXdXdXdX",
"dXdXdXdXdXdXdXdXdXz h z.[.F.F.F.F.F.B.:.B @ , 0.N. .h B b.#Xp.' N.F.D.F.C.*.j h j ) d.F.F.F.F.F.>.+ 3 f C.F.F.w.&.&._ y dXdXdXdXdXdXb dXdXdX",
"dXdXdXdXdXdXdXdXdXdXz J.G.A.D.F.F.D.C.N.S 1 : M.F.C.*.n c v $.V.F.F.F.F.F.D.d.t.d.C.F.F.F.F.F.F.A 2 3 : r.F.F.t.&.&.[ h dXdXdXdXdX| -.C dXdX",
"dXdXdXdXdXdXdXdXdXdXM ].C.r.A.D.F.F.F.8.+ 1 5 5.F.F.F.V.M.Z.A.D.F.F.F.F.F.F.F.F.F.F.F.F.F.F.F.a.A 5 1 4 :.F.F.r.&.&.{ h dXdXdXdXb -.m C dXdX",
"dXdXdXdXdXdXdXdXdXdX .F.r.C.F.F.F.F.F.A 1 1 4 S N.F.F.F.F.F.F.F.F.F.F.F.F.F.F.F.F.F.F.F.F.F.0.Y h.6 1 1 A F.F.m.&.&.&.j v M M | -.-.a V dXdX",
"dXdXdXdXdXdXdXdXdXdX%.F.M.w.C.F.C.F.C., 1 1 1 @ Z C.F.F.F.F.F.F.F.F.D.F.D.F.F.F.F.F.F.F.C.%.p.qXOX6 1 1 A F.F.N.&.&.&.c M 5.=.=.7.%.a C dXdX",
"dXdXdXdXdXdXdXdXdXy =.F.A.C.F.A.r.F.d.: 1 4 1 7 h.;.C.F.F.F.F.F.D.F.D.F.F.F.F.F.D.F.D.a.B , -XpXOX4 1 2 A S.F.M.1.&.1.v l dXdXdX .-.z ..dXdX",
"dXdXdXdXdXdXdXdXdXy 5.F.F.F.F.A.C.F.a.+ 1 1 1 0 9X=X@.d.F.F.F.D.F.F.F.F.F.F.F.F.C.s...t @ 4 ^ 9XE 7 I I ..F.F.M.&.&.1.) a dXdXdXdXO.+...dXdX",
"dXdXm dXdXdXdXdXdXy 5.F.F.F.F.F.F.F.>.4 1 1 1 7 9XpX=Xf ..q.N.C.A.D.D.A.A.A.N.:.V J Q w 1 1 7 I w E 0XqXa.A.F.m.1.&.1.n y dXdXdXdXdXb dXdXdX",
"dXdXM O.dXdXdXdXdXp 5.F.F.A.F.F.F.F.>.+ 5 5 1 6 -XpX9XL O - i x V M C M m x t A =XyX8XU 1 1 < 4 4 OXpX1Xs.F.F.m.&.1.1.n dXdXdXdXdXdXdXdXdXdX",
"dXx s | +.| M ' ..v =.F.A.n.A.F.F.F.7.+ E E 4 3 E 8XOX6 3 o O W 1X=X#XI @ @ o I pXpX8XU 1 1 3 1 1 E aXv.N.A.7. .[ 1.1.n dXdXdXdXdXdXdXdXdXdX",
"dXx i O.7.$.| M m z $.F.M.M.A.F.F.F.s.Q uX-X6 1 6 L 0 o .     ^ pXpXiXE 1 o   > -XpX8Xw < 1 1 3 1 7 K.a.F.A.6.) ` 1.1.v dXdXdXdXdXdXdXdXdXdX",
"dXl i O.O.dXdXdXdXdX' A.M.Z.A.F.F.F.N.#XpX-X6 1 3 3 2 .   .   L iXpX0Xw o     X T 8XOX# o 1 1 1 3 3 , l.C.A.n.` _ &.&.v dXdXdXdXdXdXdXdXdXdX",
"dXdXz %.dXdXdXdXdXdXv M.C.t.t.C.F.F.F.f.aX-X6 1 3 < .         # *XuXOX#         # L >   . o 1 1 1 2 Z B.e.D.D.r.` ` o.j dXdXdXdXdXdXdXdXdXdX",
"dXdXM C dXdXdXdXdXdXh t.D.A.V.A.F.F.F.s.=X-X5 1 < o       .     , T q               X > # . 2 < 3 : s.M.9.C.e.Z.m.[ n h dXdXdXdXdXdXdXdXdXdX",
"dXdXdXdXdXdXdXdXdXdXh *.A.F.F.F.F.F.F.C.p.K.4 1 2   > L >       X X                 q OXR > . < + Z D.M.] %.) ' 9.n.$.j dXdXdXdXdXdXdXdXdXdX",
"dXdXdXdXdXdXdXdXdXdXdX_ V.F.F.F.F.F.F.F.d.g 3 3 o X W 9XQ.$ 5 9 8 8 8 8 q P X       T iX8XR $ o S l.F.A.4.[ &.o.` 2.N.9._ k dXdXdX' ` ) dXdX",
"dXdXdXdXdXdXdXdXdXdXdXv w.F.F.F.C.C.F.F.A.o.: 1   > 9XpX-XF ! ~ T.T.T.! *X*X>       I iXiX-XL - 7.F.F.F.A.m.1.1.1.` $.C.n.*.) z $.$.M o.] dX",
"dXdXdXdXdXdXdXdXdXdXdXl o.B.F.m.X.>.M.F.F.F. .;   w yXpX1XW./.).5X).(.W.0X9XE 8     > 0XpXqXY @.D.F.F.D.F.r.1.&.1.` l :.F.D.9.2.] k M 4.dXdX",
"dXdXdXdXdXdXdXdXdXdXdXdX) t.F.:.6.N.C.A.F.F.F...; I aXpX8XW././.).^.^.W.aXuX+XT.G   O :XyXj.K B.F.F.F.F.C.3.o.&.&.n dXdXr.F.C.*.n n _ $.dXdX",
"dXdXdXdXdXdXdXdXdXdXdXdXj o.N.-.6.A.F.F.F.F.F.D.:.A =XiX8XW.!.(.(.^.^.+XiXyX*XE.~ 8 . g J %.A.F.C.D.F.F.r.&.1.o.[ l dXdX$.N.s.n n n 2.' dXdX",
"dXdXdXdXdXdXdXdXdXdXdXdXdX_ o.e.D.F.A.A.A.F.F.F.F.s.Z i._.( T.R.R.~.~.W.iXyX=XE.~ F - x a.F.F.C.r.D.F.C.3.o.[ { n dXdXdXdXd.%.c M 9.-.dXdXdX",
"dXdXdXdXdXdXdXdXdXdXdXdXdXb 0.D.C.w.6.A.F.F.F.F.F.F.A.8.V f D F ! ! ~ ^ rX-Xh.P g x 5.C.F.F.D.A.C.F.F.r.1.o._ n l dXdXdXdXB.9.=.l.7.dXdXdXdX",
"dXdXdXdXdXdXdXdXdXdXdXdXdXd.F.m.X.N 9.9.B.F.F.A.D.F.F.F.D.d.:.| B f f x B B V X.a.C.F.F.D.A.F.F.F.F.Z.4.r.m.n y dXdXdXdXdXe.N.d.:.dXdXdXdXdX",
"dXdXdXdXdXdXdXdXdXdXdX;.N.A.t._ ` ` ] X.M.F.D.u.C.F.F.F.F.F.F.F.C.C.N.l.Z.C.A.F.D.D.F.F.A.m.F.F.F.A.y.o.5.5.[ dXdXdXdXdXdXdXM dXdXdXdXdXdXdX",
"dXdXdXdXdXdXdXdXdX..e.C.A.9._ j [ 1.1.y.C.F.D.r.C.F.F.D.N.D.F.F.F.F.F.F.F.F.Z.t.M.D.F.F.A.A.F.F.A.t.&.{ ) n  .' dXdXdXdXdXdXdXdXdXdXdXdXdXdX",
"dXdXdXdXdXdXdXC 7.N.F.C.6._ dXdXv { 1.M.F.D.F.V.V.F.D.D.y.1.t.m.C.A.V.M.t.4.1.d.D.F.D.F.F.F.F.F.m.1.&.&.X.j ..*.v dXdXdXdXdXdXdXdXdXdXdXdXdX",
"dXdXdXdX5. .O.9.F.F.D.w._ dXdXdXdXn { 3.Z.F.F.F.F.F.F.F.A.3.} } } } } } { y.C.F.F.F.F.F.D.F.F.n.1.&.&.{ z dXdXs.3.b dXdXdXdXdXdXdXdXdXdXdXdX",
"dXdXdXq.e.c ' 0.D.F.u.] dXdXdXdXdXdXn o.3.M.F.F.F.F.F.A.F.A.V.m.t.t.m.n.A.F.F.F.F.F.F.F.F.F.n.4.&.&.[ v dXdXdXe.D.w.` n z dXdXdXdXdXdXdXdXdX",
"dXdXdX:.r.n c _ w.9.4.dXdXdXdXdXdXdXdXb { 1.r.D.F.F.F.F.F.F.A.F.F.D.F.F.D.F.F.F.F.F.F.F.A.r.1.1.1.[ z dXdXdXdXq.C.*.n c n dXdXdXdXdXdXdXdXdX",
"dXdXdXdXd.$.v n _ ] ` dXdXdXdXdXdXdXdXdXv [ 1.3.M.A.F.F.F.F.F.F.D.F.D.F.F.F.F.D.D.F.D.Z.y.1.&.1.` z dXdXdXdXdXq.*.c n c b dXdXdXdXdXdXdXdXdX",
"dXdXdXdX:.N.X.v n X.b dXdXdXdXdXdXdXdXdXdXl ) { 1.y.r.C.A.F.F.F.F.F.F.F.F.F.F.F.C.n.w.1.{ 1.[ n dXdXdXdXdXdXdX0.` j c v dXdXdXdXdXdXdXdXdXdX",
"dXdXdXdXdX7.B.-.v  . .dXdXdXdXdXdXdXdXdXdXdXdXv ` o.&.1.3.t.M.C.C.C.A.C.A.Z.m.w.4.1.1.o.{ _ z dXdXdXdXdXdXdXdX%.X.v v dXdXdXdXdXdXdXdXdXdXdX",
"dXdXdXdXdXdX%.e.e.t.$.dXdXdXdXdXdXdXdXdXdXdXdXdXdXn ` [ { 1.&.1.3.3.3.3.4.1.&.&.&.&.[ ) z dXdXdXdXdXdXdXdXdXdXdXdXdXdXdXdXdXdXdXdXdXdXdXdXdX",
"dXdXdXdXdXdXdXdXM  .dXdXdXdXdXdXdXdXdXdXdXdXdXdXdX .m z n _ ` [ [ { { { o.[ } ` ) v b O.| dXdXdXdXdXdXdXdXdXdXdXdXdXdXdXdXdXdXdXdXdXdXdXdXdX",
"dXdXdXdXdXdXdXdXdXdXdXdXdXdXdXdXdXdXdXdXdXdXdXdXM %.dXdXdXdXdXdXdXk v v j dXdXdXdXdXdX5.-.z dXdXdXdXdXdXdXdXdXdXdXdXdXdXdXdXdXdXdXdXdXdXdXdX",
"dXdXdXdXdXdXdXdXdXdXdXdXdXdXdXdXdXdXdXdXdXdXdXb %.:.dXdXdXdXdXdXdXdXdXdXdXdXdXdXdXdXdX:.7.-.| ' m dXdXdXdXdXdXdXdXdXdXdXdXdXdXdXdXdXdXdXdXdX",
"dXdXdXdXdXdXdXdXdXdXdXdXdXdXdXdXdXdXdXdXdXdX| z x M O.dXdXdXdXdXdXdXdXdXdXdXdXdXdXdXdX-.5. .M m | dXdXdXdXdXdXdXdXdXdXdXdXdXdXdXdXdXdXdXdXdX",
"dXdXdXdXdXdXdXdXdXdXdXdXdXdXdXdXdXdXdXdXdXdXm m z m ..dXdXdXdXdXdXdXdXdXdXdXdXdXdXdXM O.z a a z v dXdXdXdXdXdXdXdXdXdXdXdXdXdXdXdXdXdXdXdXdX",
"dXdXdXdXdXdXdXdXdXdXdXdXdXdXdXdXdXdXdXdXdXdXdXdXz z dXdXdXdXdXdXdXdXdXdXdXdXdXdXdXdXO.| v m N dXdXdXdXdXdXdXdXdXdXdXdXdXdXdXdXdXdXdXdXdXdXdX",
"dXdXdXdXdXdXdXdXdXdXdXdXdXdXdXdXdXdXdXdXdXdXdXdXdXdXdXdXdXdXdXdXdXdXdXdXdXdXdXdXdXdXdXM dXdXdXdXdXdXdXdXdXdXdXdXdXdXdXdXdXdXdXdXdXdXdXdXdXdX",
"dXdXdXdXdXdXdXdXdXdXdXdXdXdXdXdXdXdXdXdXdXdXdXdXdXdXdXdXdXdXdXdXdXdXdXdXdXdXdXdXdXdXdXdXdXdXdXdXdXdXdXdXdXdXdXdXdXdXdXdXdXdXdXdXdXdXdXdXdXdX"
};
