/* XPM */
static char *result[] = {
/* columns rows colors chars-per-pixel */
"70 70 68 1 ",
"  c #9F7100",
". c #A27400",
"X c #A77800",
"o c #AB7C00",
"O c #AF8000",
"+ c #B28300",
"@ c #B78900",
"# c #BB8C00",
"$ c #B59200",
"% c #BF9000",
"& c #BD9D00",
"* c #C39400",
"= c #C79800",
"- c #CA9B00",
"; c #D09F00",
": c #C5A400",
"> c #CFA000",
", c #CBAC00",
"< c #D3A300",
"1 c #D5AB00",
"2 c #DCAC00",
"3 c #CEB600",
"4 c #D4B300",
"5 c #DBB400",
"6 c #D6BC00",
"7 c #DCBA00",
"8 c #D6BE0C",
"9 c #D4BA11",
"0 c #E3B300",
"q c #E8B700",
"w c #E4BC00",
"e c #ECBC00",
"r c #DDCB01",
"t c #D8C20E",
"y c #E5C300",
"u c #EAC500",
"i c #E3CB00",
"p c #ECCA00",
"a c #F3C300",
"s c #F8C700",
"d c #F1CE00",
"f c #FFCE00",
"g c #E3D300",
"h c #ECD300",
"j c #E5D800",
"k c #ECDB00",
"l c #E3D50B",
"z c #F5D300",
"x c #FDD300",
"c c #F5D800",
"v c #FFDD00",
"b c #F5D40B",
"n c #FFDD0E",
"m c #EDE400",
"M c #F1E100",
"N c #FFE301",
"B c #F3EA00",
"V c #FFEC00",
"C c #FFE40B",
"Z c #FFEE0D",
"A c #FFF300",
"S c #FFFD01",
"D c #FEF40B",
"F c #FFFE0C",
"G c #F5ED16",
"H c #FCF214",
"J c #FFFD11",
"K c None",
/* pixels */
"KKKKKKKKKKKKKKKKKKKKKKKKKKKKKyyppdddduq02KKKKKKKKKKKKKKKKKKKKKKKKKKKKK",
"KKKKKKKKKKKKKKKKKKKKKKKKKydzxvvvvvvvvvxffsae0KKKKKKKKKKKKKKKKKKKKKKKKK",
"KKKKKKKKKKKKKKKKKKKKKKyzcvvvvvvvvvvvvvvffffffse2KKKKKKKKKKKKKKKKKKKKKK",
"KKKKKKKKKKKKKKKKKKKKpzvvvvNNNZZAAVVVNNvxffffffxfsqKKKKKKKKKKKKKKKKKKKK",
"KKKKKKKKKKKKKKKKKKpxvvvvVAFJFJJSSSSSSSSAVNxfffffffs2KKKKKKKKKKKKKKKKKK",
"KKKKKKKKKKKKKKKKyzvvvvVSJFFFJDAVVVVVNVNNVNVVNxffffxs0<KKKKKKKKKKKKKKKK",
"KKKKKKKKKKKKKKKyvvvvVDFFSFDCCNvvxzzzxcvvxffxvvvffffsee2KKKKKKKKKKKKKKK",
"KKKKKKKKKKKKK4uvvNNDJFFDZCvzu74,,::::,,450afxfxxxfffaee0<KKKKKKKKKKKKK",
"KKKKKKKKKKKK5pcvvVSFDZCCzy4:&&&:::::::&&@.o%1affxfffaeeeq<KKKKKKKKKKKK",
"KKKKKKKKKKK7pzvNASACvvd7:&&:37ypzzcvczzi4#o .o-effffaeeeee1KKKKKKKKKKK",
"KKKKKKKKKK7pdvNASVvNz5:&:,yzvNVAASSSSASSAvu2#..X-affseeeeee1KKKKKKKKKK",
"KKKKKKKKK7ppxNSSNvvy:&:4dvNADFFSSSSSSSVVNvxxfe*X o;eeqeeeeee1KKKKKKKKK",
"KKKKKKKK<uyzNSANvz4&&4pvNDJFFJFSSSAVNNvvvffffxfq#..@<12qeeeee<KKKKKKKK",
"KKKKKKK-5upNSVvvz,&:yvNAFFSFJSSSVNvxw777effffffxf1o o-<20eeee2*KKKKKKK",
"KKKKKKK20wzAVvvp:&1dNCJFSFJFSSVNvvv4333,>fffffffffe# X-<<2qeeq<KKKKKKK",
"KKKKKK<00qVANvp:&4cCZJFFJFSSVvvvvc4ji4=:<xfffffffffa*..-<<20ee2-KKKKKK",
"KKKKK-000pVvvh:&6cCHJFFSSSANvvvvv7gVq;o*<ffffffffffxa#.X-<<1qe0<*KKKKK",
"KKKKK2000cvvz,&4vNASSSSSANvvvvvv7rAx0<o=<fffffffffffae# o-<<<eq<;KKKKK",
"KKKK<002qxfx1&3xvASSSSSVNvvvvvvwrVxfe-O*<ffxfffxffffee0+.+<<<2q<<-KKKK",
"KKKK2000uff>$:zvASSSSAVvvvvvvvytHxff0<o*<fffffffffffeee<X.*<<<22<<KKKK",
"KKK<0020sf5.owNVSSSSANvvvvvvvu8Hnfff0<o*<ffffffffffaeeeq*..*<<2<<<-KKK",
"KKK<021wfa+ *xNSSSSANvvvvvvNp9Hnffff0<o*<ffffffffffaeeee2+ o-<<<<<<KKK",
"KK=<221ef-.XevSSSSAvvvvvvvNp4Gbsffxf0<o*<fffffffffseeeee0-..+-<2<1>%KK",
"KK-<2;2e0o =xVSSSANvvvvvvvz4Bz2sffff0<O*<fffffffffaeeeeeq2@ o*<<<<-*KK",
"KK<<;*0e-.XeNSSSVxxxvvvvvz4mz1*affff0<o*<fffffffffeeeeeee0-X.+-<<<--KK",
"K=<<**02o.*fSSSSxffxfxxxx4mz<##affffe-o*<ffffxfffeeeeeeeee<o o*<<---#K",
"K-<<**2-X.2vSSSvfffffffs1jk1#+*yxfff0;o-<fffffffeeeeeeeeee0*.X+=<---*K",
"K;2<*-;#.oaVSSVffffffff5jc2*+**gvfff0<o*<ffffffaeeeeeeeeeeq;..o*----*K",
"K<<;#-;o #xSSSxfffffff5rk2<#*<0jNfff0-o-<fffffaeeeeeeeeeeeq2o o@*---=K",
"*<<-@-*o <NSSVfffffff0=6--=*1f0lCfffq<o*<fffseeeeeeeeeeeeee2#.o+#----#",
"=<<=+-*X.1VSSvfffffffaaaaaaaffelCfff0<o*<ffseeeeeeeeeeeeeeeq*.Xo+----#",
"-<<=@=@..1cSAffffxfffxfffxffffelCfff0;o-<aaeeeeeeeeeeeeeeeeq-.X++*---*",
";<;#+*@.X2kmxfffffffffffffffffelNfff0;o*-eeeeeeeeeeeeeeeeeeq-..++#---*",
"-<<*+*@.X1kmuasfffffffffffffffqgVfff2<o*-eeeeeeeeeeeeeeeeee0=X.o+#---*",
";<;*+*@.X<jkeeeasffffffffffffxqjNfff0;o-;eeeeeeeeeeeeeeeee02-X.++#---*",
";<;*@++.X<iheeeeeuaasffffffsfs0gVfff2<o*-eeeeeeeeeeeeeeee022-X.o++*--*",
"-<<*+@+.X<7peeeeeeeeeaeueaeeee2gVfff0;o*-eeeeeeeeeeeeeee0222=X.o+@*--*",
"-<;*@@+.X-4yeeeeeeeeeeeeeeeeee2jVffs0;o*-eeeeeeeeeeeeeq0222<*..+++=--*",
"=<<*@+@X.-15eeeeeeeeeeeeeeeeee2gVfff0-o*-eeeeeeeeeeeeq22222<*.X+++*--%",
"*;<*@+@X.*<1qeeeeeeeeeeeeeeeee2gVfff2<o-;eeeeeeeeeee0222221-#..+++*--#",
"#=--@@@o #<<2eeeeeeeeeeeeeeeea1gVfff2<o*;eeeeeeeeqq2222002<-+.X+++--=#",
"K=-=@+@o.+<<<0eeeeeeeeeeeeeeee2gVxfs2<o=-eeeeeeeq022222222;=o.o+++---K",
"K=-=@+@+..;<<2qeeeeeeeeeeeeeee2gVffs2;o*-eeeqeq0220202222<;*..+++#--*K",
"K*--*+++X.*<<<2qeeeeeeeeeeeeee2jVffs2;o=-eeeq022222222222--#..+++#--*K",
"K*--*+o@o.+<<2<2eeeeeeeeeeeeee1gVffa2<o*-eq0220220222222;--o o+++*--#K",
"KK==*o++o..=<<<<2eeeeeeeeeeeee2gVffs1<o=-22222222222222<--*..o+++--=KK",
"KK*==*o@+X +;<<<<2eeeeeeeeeeee2gVffa1<o**2222022222222;---+ X+++#--*KK",
"KK*--=o++o..*---;;<qeeeeeeeeee1gVffe2;o=*220222222201;-=-*X.o+++*--#KK",
"KKK=--++++X.o------><000e0q0q0<gNffe2;o*=2222222222<-----o.X++++--*KKK",
"KKK*--*++++..#--------<2225222<gNffq2;o==202022022;;----#..o+++*--%KKK",
"KKKK*-*#+++X..*--------><22222-gNffq2;o=*222222<;------*..o++++--=KKKK",
"KKKK*--#+++oX o*----------<<12>gvff02;o=*221<<--------*X.X++O+*--%KKKK",
"KKKKK*-=#++++..O*------------;*gvff2<<o**;;-----------+ .++++@--=KKKKK",
"KKKKK#--*++++o..+=------------*ivfs22;o=#-----------*+..O++++*--#KKKKK",
"KKKKKK*-=#++++o..o*-----------*rxfe12-o=#----------*o..o++++#--%KKKKKK",
"KKKKKKK--*+++++o..o#----------*yxa22<*X=#---------*X..o+++++--*KKKKKKK",
"KKKKKKK#--*++++++...#---------*0s22<-oX=#-------=@...o+++++*--#KKKKKKK",
"KKKKKKKK#--*+++++o...o*=------*=;-==*@#*#------#o..X++++++#--#KKKKKKKK",
"KKKKKKKKK%--*++++++o. .+%=----=***#******----*o...X++++++#--%KKKKKKKKK",
"KKKKKKKKKK#--#+++++++X. .o#**-------=--=-=*#X...oo++++++#*-#KKKKKKKKKK",
"KKKKKKKKKKK%=-#+++++++OX.. .o+##*******@+X....Xo+++++++#--#KKKKKKKKKKK",
"KKKKKKKKKKKK#--*+++++++O+oX... ...XX..   ..Xo+++++++++%--#KKKKKKKKKKKK",
"KKKKKKKKKKKKK#---#+++++++++OooXX.....XXXooo++++++++++*-*#KKKKKKKKKKKKK",
"KKKKKKKKKKKKKKK**-*#++++++++++o+++++o++o+++++++++++#=-*KKKKKKKKKKKKKKK",
"KKKKKKKKKKKKKKKK#*--*#++++++++O++++++++++++++++++#=-*#KKKKKKKKKKKKKKKK",
"KKKKKKKKKKKKKKKKKK%=--*#+++++++++++++OO++++O++#%--=%KKKKKKKKKKKKKKKKKK",
"KKKKKKKKKKKKKKKKKKKK%*---*##+++++++O+++++++#**--*%KKKKKKKKKKKKKKKKKKKK",
"KKKKKKKKKKKKKKKKKKKKKK#*=----**#######%**=---**#KKKKKKKKKKKKKKKKKKKKKK",
"KKKKKKKKKKKKKKKKKKKKKKKKK#***-------------**#KKKKKKKKKKKKKKKKKKKKKKKKK",
"KKKKKKKKKKKKKKKKKKKKKKKKKKKKK##*%%***%*##KKKKKKKKKKKKKKKKKKKKKKKKKKKKK"
};
