/* XPM */
static char *bA__[] = {
/* columns rows colors chars-per-pixel */
"35 25 130 2 ",
"   c #813305",
".  c #893707",
"X  c #8C3C04",
"o  c #923F02",
"O  c #913F0B",
"+  c #954204",
"@  c #9A4503",
"#  c #9E4904",
"$  c #96440A",
"%  c #9A460A",
"&  c #9E4A09",
"*  c #9D4C14",
"=  c #A34C02",
"-  c #A94E02",
";  c #A34D0B",
":  c #A65002",
">  c #AD5302",
",  c #AF5A00",
"<  c #A7510B",
"1  c #AA530B",
"2  c #AF5C0F",
"3  c #B15602",
"4  c #B45B02",
"5  c #BA5E02",
"6  c #B55B0C",
"7  c #B95E0B",
"8  c #A34D10",
"9  c #A75410",
"0  c #AC5510",
"q  c #AD5910",
"w  c #B15911",
"e  c #B76003",
"r  c #BF6104",
"t  c #BD6205",
"y  c #BF6205",
"u  c #BC6104",
"i  c #BE6101",
"p  c #BB6109",
"a  c #BA600A",
"s  c #BB630A",
"d  c #BF6109",
"f  c #BF6409",
"g  c #B9630E",
"h  c #BC610E",
"j  c #BC630F",
"k  c #B9600E",
"l  c #BE6511",
"z  c #BC6611",
"x  c #BB6211",
"c  c #C06200",
"v  c #C16300",
"b  c #C16301",
"n  c #C36300",
"m  c #C36201",
"M  c #C26103",
"N  c #C06202",
"B  c #C06303",
"V  c #C16303",
"C  c #C36203",
"Z  c #C06400",
"A  c #C16500",
"S  c #C06401",
"D  c #C26500",
"F  c #C36501",
"G  c #C26600",
"H  c #C36600",
"J  c #C16502",
"K  c #C26402",
"L  c #C36503",
"P  c #C26603",
"I  c #C46400",
"U  c #C66401",
"Y  c #C46700",
"T  c #C66600",
"R  c #C76700",
"E  c #C76701",
"W  c #C56403",
"Q  c #C56703",
"!  c #C76703",
"~  c #C06105",
"^  c #C06304",
"/  c #C26305",
"(  c #C06306",
")  c #C26404",
"_  c #C26505",
"`  c #C46604",
"'  c #C56705",
"]  c #C46507",
"[  c #C86601",
"{  c #C86706",
"}  c #C56801",
"|  c #C46803",
" . c #C66B02",
".. c #C76A03",
"X. c #C66804",
"o. c #C76905",
"O. c #C96800",
"+. c #C86801",
"@. c #CA6900",
"#. c #C86802",
"$. c #C96903",
"%. c #CA6902",
"&. c #CA6A03",
"*. c #CB6A03",
"=. c #CC6901",
"-. c #CC6B00",
";. c #CD6B00",
":. c #CD6A02",
">. c #CE6E00",
",. c #CD6C03",
"<. c #CB6B04",
"1. c #CB6B05",
"2. c #C96B07",
"3. c #CD6C05",
"4. c #C2670A",
"5. c #C46509",
"6. c #C1660D",
"7. c #C2660F",
"8. c #C4640E",
"9. c #C3680B",
"0. c #C5680B",
"q. c #C76A0D",
"w. c #C66C0C",
"e. c #CA6908",
"r. c #CB6A09",
"t. c #CA6C0A",
"y. c #CA6E0B",
"u. c #CC6C08",
"i. c #CE6D0F",
"p. c #D07000",
/* pixels */
"> p.=.=.=.,.,.1.1.r.5.5 7 8.i.t.=.;.=.1.[ Q [ $.[ #.#.#.C ( 5 5 8.( 7 ",
"& ( ' #.$.X.5 3 > 1 7 6 ; & 6 p 6 4 6 6 w 6 h 6.8.$.) ' #.#.#.X.[ c 5 ",
"q 4.5 4 5 5 ( ( c 5 3 3 7 7 7 h z 6.8.w.y.u.t.$.t.Q ' ) Q P Q Q ' Q ' ",
"- 1.' Q Q Q [ ' #.#.#.X.Q [ $.#.[ [ P Q P c i i c 5 5 5 5 5 4 5 5 5 4 ",
"O & + > 4 5 c c P c Q C P ) i P C P P c P c c i i i i i i 5 c r ( i 5 ",
"1 6 1 1 1 1 1 1 > 1 > > 4 i P i P c P i P i i P P P i P i c i c c f z ",
"- ' ( P Q ( ' C ( ( i i 5 i i i 5 i i i i i 5 i i i i 5 5 i i 5 i c Q ",
"; x p p 5 7 5 5 5 i i i i i i 5 i i i i i i c c c i i ( c c c c i 5 4 ",
"6 Q i ( i i i 5 5 5 5 5 5 5 5 5 5 4 4 4 4 1 > = = = = = = = # = & + . ",
"< 5 5 5 5 5 5 5 5 5 4 5 5 5 5 5 4 4 4 4 4 , > > > > 1 3 3 3 3 3 4 4 1 ",
"+ 4 4 4 4 4 5 4 e 4 5 5 5 4 5 5 5 5 5 5 5 i i 5 5 4 3 3 1 > 3 1 > 3 1 ",
"& e 5 5 e 4 e 5 4 , > : : : < < < = < = : = & & ; # # # = & @ ; & = = ",
". + $ @ # = = 1 4 4 4 3 3 , 4 6 6 7 x x h h 7 6 6 6 3 4 3 3 4 < & & % ",
"$ > > > < : > 4 3 , 3 4 4 3 3 4 , 4 3 3 4 3 3 4 > 3 3 3 1 3 > + $ # # ",
"+ 4 4 4 4 4 4 3 , 3 3 3 > 3 3 3 3 4 > > 3 3 3 3 3 > 3 > 3 > > 1 3 1 3 ",
"$ > = & = = = 3 4 3 3 3 3 > > > > > 3 > > > > > 3 > > > > > 3 > > > 3 ",
"$ ; + + + . X @ @ @ @ # = - > > > > > > > > > > > > > - > > > > > > = ",
"* q 2 1 < & & & + X X o % = > > > > > > > > > > > > > > > : - = & = ; ",
"& 3 > > > > > > > > 3 > > - = > - > = > > : - - = = = = = # = = ; < 1 ",
"$ > = = > : > : - - - - - - > : > - - = > = : > = = - - = > = = > - = ",
"8 < = = : : : : = : : : = = : : = = = = = = = = = > : = - : : : = > = ",
"8 > = = : : = = = = = = = = = : = = = = = = = = # # & = & @ @ @ + X   ",
"o = = = # = # = = = = = # = # # # & # @ + + @ @ @ + + + + + + + + + + ",
"O = = = = = # @ @ @ @ & & & ; < ; ; ; ; & + o @ @ # # # # # = # # = - ",
"; % @ o @ @ # @ + o ; < < 1 9 < + X X X X + + X X + + + @ + @ @ @ @ @ "
};
