/* XPM */
static char *aeaf36505768434d8bbf3dc32d7d46cfZbnkLwFHy6zeuTDA[] = {
/* columns rows colors chars-per-pixel */
"20 25 114 2 ",
"   c #873704",
".  c #8D3C04",
"X  c #923E05",
"o  c #954304",
"O  c #9A4503",
"+  c #9E4903",
"@  c #964308",
"#  c #9D490A",
"$  c #A34D02",
"%  c #A94E01",
"&  c #A34D0B",
"*  c #A65001",
"=  c #AC5302",
"-  c #AE5803",
";  c #A6520D",
":  c #AB540A",
">  c #B15602",
",  c #B45A02",
"<  c #BA5E02",
"1  c #B55C08",
"2  c #B75C0B",
"3  c #B75E0A",
"4  c #B2580C",
"5  c #B0580E",
"6  c #B45A0C",
"7  c #B35C0C",
"8  c #B45A09",
"9  c #BB5F08",
"0  c #B85F0B",
"q  c #BB5F0A",
"w  c #B95E0D",
"e  c #BA5F0C",
"r  c #B85F0F",
"t  c #A35412",
"y  c #B35D10",
"u  c #BA6000",
"i  c #BB6101",
"p  c #BA6201",
"a  c #BD6000",
"s  c #BD6100",
"d  c #BD6001",
"f  c #BE6000",
"g  c #BE6101",
"h  c #BE6200",
"j  c #BF6300",
"k  c #BF6002",
"l  c #BE6102",
"z  c #BC6202",
"x  c #BD6302",
"c  c #BF6202",
"v  c #BF6203",
"b  c #BC6104",
"n  c #BF6004",
"m  c #BE6006",
"M  c #BD610A",
"N  c #BD630B",
"B  c #BF640B",
"V  c #BF650F",
"C  c #B96010",
"Z  c #BA6111",
"A  c #BD6211",
"S  c #BF6710",
"D  c #C16301",
"F  c #C06103",
"G  c #C26103",
"H  c #C06202",
"J  c #C06303",
"K  c #C16303",
"L  c #C36203",
"P  c #C16400",
"I  c #C16500",
"U  c #C06401",
"Y  c #C26400",
"T  c #C36501",
"R  c #C36600",
"E  c #C16502",
"W  c #C26402",
"Q  c #C46400",
"!  c #C76701",
"~  c #C56403",
"^  c #C76502",
"/  c #C46602",
"(  c #C56703",
")  c #C66602",
"_  c #C16204",
"`  c #C16404",
"'  c #C26404",
"]  c #C36505",
"[  c #C06605",
"{  c #C46606",
"}  c #C86700",
"|  c #C56801",
" . c #C76A03",
".. c #C66806",
"X. c #C96800",
"o. c #C86801",
"O. c #C86802",
"+. c #C96903",
"@. c #CA6803",
"#. c #CB6A03",
"$. c #CF6D00",
"%. c #CE6E00",
"&. c #C86804",
"*. c #CB6B04",
"=. c #C86A06",
"-. c #CC6C05",
";. c #CD6C05",
":. c #C1610A",
">. c #C2670E",
",. c #C56A0F",
"<. c #CB6A09",
"1. c #CA6C08",
"2. c #C96D0A",
"3. c #CC6E0E",
/* pixels */
"< $.#.*.*.<.9 N 3.*.$./ } *.} } _ < :.9 ",
": #.#.K = 8 6 & 2 1 8 4 w >.] K *.} } K ",
"w b , v W , > w e >.,.2.*.*.*.B K W Q Q ",
"< | / | W #.| #./ } ] Q v K < 9 < 1 < < ",
"@ + > < W / W / K K W W W j b p < f Q 9 ",
"5 : : : : = = 9 W W W W v j W j v v K V ",
", [ [ _ ] K < < v p v < v < v p < v < _ ",
"5 N 9 < < K v v < v < v v v v v v v v < ",
"N K v K < < < p < < < , : % $ $ $ $ O . ",
"> < < < < , < p , , , > = = = 4 > - , , ",
"% , , , , < , , u , p < p < , > = 8 = = ",
": p , p , > = * * ; * % + & + O + + & & ",
". o + % , , , , 1 9 r V N 7 7 > , = # # ",
"+ = * = > > > , > > > , > > = > - * @ + ",
"% , , - > > > > > > > > > > > = > = - > ",
"& $ + $ , > > > = = = > = = = > = = = = ",
"# o . . o O + $ = = = = = = = = = = = = ",
"t y ; & @ . . $ = = = = = = = = % % + & ",
"* = = = > = = = * * * = % % $ + + + & : ",
"& % % % % % % = = * % * % = $ % % * * % ",
"; $ * * * * $ $ % $ $ % * * = * * * % * ",
"& * % $ % $ $ * $ $ $ + $ + + + O O O   ",
"O $ + $ $ $ $ + + $ O O o o o o o o o @ ",
"O $ $ + O O + + & & & # o o O $ + + + $ ",
"O O O O o o ; ; : @   o o   o o o O O O "
};
