/* XPM */
static char *_9c0b0a78b424ca3a21ba056577610c3a42KYO3Ecjubhadi[] = {
/* columns rows colors chars-per-pixel */
"35 35 175 2 ",
"   c None",
".  c #793227",
"X  c #753A25",
"o  c #7E342C",
"O  c #80352E",
"+  c #853D2D",
"@  c #893F2F",
"#  c #823630",
"$  c #853C30",
"%  c #8A3E32",
"&  c #844328",
"*  c #8A432D",
"=  c #8F4A2F",
"-  c #914A2F",
";  c #8C4133",
":  c #8F4930",
">  c #924B32",
",  c #944F39",
"<  c #9F4D38",
"1  c #955036",
"2  c #9E5332",
"3  c #9B5836",
"4  c #9D523A",
"5  c #A1553C",
"6  c #AA563B",
"7  c #A55A3D",
"8  c #AC5B3B",
"9  c #B25F3D",
"0  c #A4623F",
"q  c #AB603C",
"w  c #B3633B",
"e  c #BA663D",
"r  c #B6693C",
"t  c #BE6A3E",
"y  c #BC713F",
"u  c #C46E3F",
"i  c #C6703E",
"p  c #A65D42",
"a  c #AF5C41",
"s  c #AC6543",
"d  c #B46643",
"f  c #BA6645",
"g  c #B76A43",
"h  c #BC6D44",
"j  c #B46E48",
"k  c #BF6F48",
"l  c #BD7145",
"z  c #BE7348",
"x  c #AE7450",
"c  c #B07954",
"v  c #BD7D51",
"b  c #C46C42",
"n  c #C96E44",
"m  c #C06F48",
"M  c #C57245",
"N  c #CC7344",
"B  c #C67846",
"V  c #CA7C47",
"C  c #C4744A",
"Z  c #CB764A",
"A  c #C5794D",
"S  c #CC7B4C",
"D  c #D17546",
"F  c #D37A46",
"G  c #D97A47",
"H  c #D17748",
"J  c #D27C4B",
"K  c #DB7D49",
"L  c #CC7E51",
"P  c #CA854F",
"I  c #D4814D",
"U  c #DD834D",
"Y  c #C58455",
"T  c #CC8454",
"R  c #C88758",
"E  c #CE8C5B",
"W  c #D18355",
"Q  c #DC8650",
"!  c #D48C56",
"~  c #DD8A52",
"^  c #D38C5C",
"/  c #D59055",
"(  c #DA9155",
")  c #D6905E",
"_  c #DD935B",
"`  c #DD985B",
"'  c #E0814D",
"]  c #E1894E",
"[  c #E3924E",
"{  c #E18D54",
"}  c #E29256",
"|  c #E69B55",
" . c #EA9A57",
".. c #E39559",
"X. c #E49B5D",
"o. c #E89C5D",
"O. c #E7A057",
"+. c #E5A25E",
"@. c #EAA35C",
"#. c #F0A45C",
"$. c #DD9662",
"%. c #D69E62",
"&. c #DD9A64",
"*. c #E39B66",
"=. c #E19B68",
"-. c #D7A265",
";. c #DCA363",
":. c #D9A669",
">. c #E6A462",
",. c #E9A563",
"<. c #E7AC65",
"1. c #EAAB65",
"2. c #E5A769",
"3. c #E6AB6B",
"4. c #EAAD6C",
"5. c #F1AB61",
"6. c #EFB167",
"7. c #E5B16E",
"8. c #EBB26E",
"9. c #EEBB6E",
"0. c #F0B165",
"q. c #F0B56E",
"w. c #E7B470",
"e. c #EBB571",
"r. c #EDBC74",
"t. c #F0B773",
"y. c #F0BA77",
"u. c #F1BD75",
"i. c #F0BE75",
"p. c #F1BF75",
"a. c #F0BD76",
"s. c #F1BF76",
"d. c #F1BB73",
"f. c #EFC173",
"g. c #EFC175",
"h. c #EDC177",
"j. c #EEC076",
"k. c #EFC076",
"l. c #EFC177",
"z. c #EEC377",
"x. c #EFC477",
"c. c #EDC278",
"v. c #EFC278",
"b. c #EEC379",
"n. c #EEC47B",
"m. c #EFC87D",
"M. c #EEC87F",
"N. c #F1C075",
"B. c #F1C275",
"V. c #F0C176",
"C. c #F0C077",
"Z. c #F2C076",
"A. c #F1C277",
"S. c #F1C377",
"D. c #F1C477",
"F. c #F1C278",
"G. c #F1C379",
"H. c #F2C379",
"J. c #F1C37A",
"K. c #F1C478",
"L. c #F2C479",
"P. c #F2C579",
"I. c #F3C579",
"U. c #F1C57B",
"Y. c #F3C57A",
"T. c #F1C67A",
"R. c #F4C47A",
"E. c #F3CD85",
"W. c #F2D086",
"Q. c #F3D088",
"!. c #F1D18B",
"~. c #F2D28B",
"^. c #F4D28B",
"/. c #F4D088",
"(. c #F3D18C",
/* pixels */
"    c v Y E E E E E E E Y Y ^ Y Y E E E E Y Y E E E E Y R R Y Y x     ",
"  q ^ =.) ) ) ^ ^ ) $.$.` *.*.*.$.$.*.*.$.*.*.*.^ ! ^ &.&.$.$.&.T     ",
"  b U  .#.@.@.+.@.@.@.,.1.5.5.5.@.;.4.8.2.q.q.4.&.>.5.r.2.+.| ~ B e   ",
"3 M ] #.B.z.F.F.K.x.x.b.c.K.K.F.K.E./.^.!.!.~.~.~.M.m.W.M.9.9.@.K t   ",
"q i | 7.h.c.b.K.K.Y.F.r.r.z.K.K.Y.Y.R.F.K.K.V.z.F.F.c.r.x.x.r.9.[ i w ",
"e r ;.7.r.r.F.K.V.r.r.z.c.V.R.V.z.V.z.r.r.V.V.V.V.z.V.z.r.r.9.9.O.K d ",
"2 l 6.3.7.r.s.z.r.z.u.V.V.u.r.r.u.V.V.u.s.r.r.r.u.V.r.r.z.z.h.r.6.i 2 ",
"1 V 1.7.:.-.%.:.8.r.r.r.e.w.d.u.d.e.r.r.r.u.r.e.w.d.u.r.r.r.r.9.1.r - ",
"= B 6.9.r.w.3.w.w.e.w.w.w.d.e.w.4.w.w.8.w.w.w.e.u.r.r.s.s.y.r.w.6.l - ",
"& y 1.1.9.e.e.e.w.7.4.w.e.8.7.w.e.9.e.e.e.e.d.r.w.r.e.e.d.d.d.q.0.r * ",
": B +.<.4.8.4.8.e.e.e.4.7.8.8.8.4.4.4.e.e.e.e.e.e.4.e.8.t.t.8.6.+.w = ",
"> B +.+.,.1.4.8.4.4.4.2.2.2.2.2.4.w.e.e.8.8.4.w.e.t.t.8.4.8.4.<.+.h > ",
"> B +.X.>.>.>.,.1.1.<.<.2.1.4.8.8.4.1.4.4.2.4.1.2.2.4.1.,.<.>.,.@.h > ",
"* M o.X.` X.X.` ! T P ! ` 2.2.2.2.2.>.2.>.<.,.<.<.,.,.,.,.o.X.o.X.e * ",
"* h |  . .*. .X.( _ X.o.*.+.o.X.X.` $.X.` *.X.X.>.*.*.o.X. .o...[ w * ",
"* M ~ }  .........o.o.*.X.X.` X.X.o.*.o.X.X.X.` ...._ } ....{ } ] 8 * ",
"= M ] U ~ } } } } *.......X.o...X._ } ............~ Q Q Q ~ ~ } ] 9 * ",
"* i i I U U ~ ~ } } _ ....} } _ _ } ....} } ~ Q Q ~ Q ~ ~ ~ ~ U U 9 * ",
"* r N F F F I ~ { } } ~ { } ..~ ~ { } } } { ' ' U U U Q I N N U U 9 * ",
"+ h K G F F F I Q Q Q { { Q ~ ~ ~ Q Q U ' ' ' K K K K K i i F G D 6 + ",
"* h N N i N I I S I I I Q ' ~ U U ' K K G G G G G H N i N F N u D 8 @ ",
"* d N N F I I I I S I J V I U U J D D n i i N N i i M i i u u D J 8 @ ",
"+ k F N B Z Z J I I B B I S M N H D n u u e w w w 9 8 w e n D H H 8 $ ",
"+ q M h M S P S S S Z B S H e b D D D J G H S H J S C l M N D D D 6 @ ",
"+ 0 W A P B Z C C C C Z N n n N D Z n b b b b b n N D H Z Z D D M 7 $ ",
"+ z J J J S S S L K S Z Z N H Z n b f b b n n b b b b b n n b n M 7 + ",
"+ j S S Z L T W W W L L J L C l m Z J Z Z C C C C Z C M b b C C b < $ ",
"$ s S A L T T L A m m L S S k g Z L S C k C Z L S S Z S L L Z n b 4 ; ",
", 7 J L W W W W L m k f k A Z C k k C S Z C C C A C Z C m C k m f 7 , ",
"> p A ! W T W L L L Z A m k m C Z C k m m m k k k m C C Z C C Z a 4 > ",
"= 4 p Y ^ T W T L L L L L A A z C A C C C k j d d d d d f f f a 5 4   ",
"  4 4 % % ; ; % % ; ; ; ; ; ; % % ; ; ; % % % % % % % % % # % % 4 >   ",
"  : , O # # # O O O o # # # o O # # # O o O O O O o o # # O O $ , &   ",
"    + O O O O O O . o o . . . O O O O o o O O o O O o o O O o O +     ",
"                            X X X X X X X X X X           X X         "
};
