/* XPM */
static char *_ff963843d054648e0d8a42eb8e8ab71Kc6BGNdkYIPuqZSq[] = {
/* columns rows colors chars-per-pixel */
"70 70 254 2 ",
"   c #5D0000",
".  c #560000",
"X  c #640000",
"o  c #6C0101",
"O  c #740101",
"+  c #7C0101",
"@  c #7E0A00",
"#  c #7C0A09",
"$  c #7F1303",
"%  c #830101",
"&  c #8C0201",
"*  c #840A02",
"=  c #8C0A01",
"-  c #890A0A",
";  c #930200",
":  c #9B0300",
">  c #940B01",
",  c #9B0B01",
"<  c #970D0B",
"1  c #8C1500",
"2  c #861307",
"3  c #941302",
"4  c #9C1301",
"5  c #931B00",
"6  c #9B1903",
"7  c #9C130A",
"8  c #97160C",
"9  c #8F1B12",
"0  c #A30300",
"q  c #AB0300",
"w  c #A30B01",
"e  c #AB0C01",
"r  c #AB0C0A",
"t  c #A6090A",
"y  c #B30400",
"u  c #BB0500",
"i  c #B30B01",
"p  c #BB0C00",
"a  c #B70C0B",
"s  c #A41301",
"d  c #AB1401",
"f  c #A31C02",
"g  c #AD1C01",
"h  c #A3120A",
"j  c #AD150B",
"k  c #AB1D0B",
"l  c #A31C0B",
"z  c #B31402",
"x  c #BC1401",
"c  c #B41B02",
"v  c #BB1C02",
"b  c #B2130A",
"n  c #BD140A",
"m  c #B41C0B",
"M  c #BC1B0B",
"N  c #A41B14",
"B  c #A81B16",
"V  c #B31D13",
"C  c #BA1B13",
"Z  c #992404",
"A  c #9D251B",
"S  c #AB2303",
"D  c #A4240C",
"F  c #AD210C",
"G  c #A72702",
"H  c #B42202",
"J  c #BA2303",
"K  c #BB2A02",
"L  c #B4240B",
"P  c #BC230C",
"I  c #BC2C0D",
"U  c #B52B08",
"Y  c #BA3406",
"T  c #AB2313",
"R  c #AA2718",
"E  c #B32314",
"W  c #BC2314",
"Q  c #BC2C13",
"!  c #BB241A",
"~  c #B42B1B",
"^  c #BC2B1A",
"/  c #B42818",
"(  c #AA311B",
")  c #BD3214",
"_  c #BC341C",
"`  c #B7361A",
"'  c #AB310C",
"]  c #BB2D24",
"[  c #B32922",
"{  c #AC3324",
"}  c #BC3422",
"|  c #B93827",
" . c #AC3126",
".. c #C30401",
"X. c #C30B01",
"o. c #CA0A04",
"O. c #D50A03",
"+. c #C41402",
"@. c #CC1303",
"#. c #C31C04",
"$. c #C41C0B",
"%. c #CB1D0B",
"&. c #C91807",
"*. c #D21B02",
"=. c #DC140B",
"-. c #D51808",
";. c #C61B12",
":. c #D31C12",
">. c #DD1C12",
",. c #E61D0F",
"<. c #C32303",
"1. c #CB2204",
"2. c #C22C04",
"3. c #C3230B",
"4. c #CC230B",
"5. c #C42B0C",
"6. c #C92A0C",
"7. c #CA2B06",
"8. c #D72507",
"9. c #C3330C",
"0. c #C93806",
"q. c #D6370B",
"w. c #C42613",
"e. c #C32B14",
"r. c #CB2C14",
"t. c #C42C1A",
"y. c #CB2C1B",
"u. c #CA2518",
"i. c #D32B13",
"p. c #D3251A",
"a. c #D72A17",
"s. c #C43313",
"d. c #CC3315",
"f. c #CC3B15",
"g. c #C4331C",
"h. c #CB331C",
"j. c #C53B1D",
"k. c #CD3B1B",
"l. c #C43A16",
"z. c #D33213",
"x. c #DB3414",
"c. c #D3351C",
"v. c #D43C1B",
"b. c #DA3C1D",
"n. c #D83818",
"m. c #E42917",
"M. c #E5371A",
"N. c #EE3212",
"B. c #C52C23",
"V. c #DA2D22",
"C. c #C43322",
"Z. c #CB3424",
"A. c #C43925",
"S. c #CC3B23",
"D. c #CD3C2A",
"F. c #C4372B",
"G. c #D33522",
"H. c #D43B24",
"J. c #D43C2A",
"K. c #DB3A24",
"L. c #C73E30",
"P. c #D43E31",
"I. c #E33C24",
"U. c #E63926",
"Y. c #F43927",
"T. c #BC4416",
"R. c #BA4504",
"E. c #B2462E",
"W. c #C64607",
"Q. c #D7450C",
"!. c #CB421B",
"~. c #C94416",
"^. c #D3431C",
"/. c #DB431D",
"(. c #DA4B1C",
"). c #D74816",
"_. c #D7581C",
"`. c #D05A07",
"'. c #E8491B",
"]. c #EC4E19",
"[. c #EE6F1B",
"{. c #CC4223",
"}. c #C84529",
"|. c #D54323",
" X c #DC4323",
".X c #D3442B",
"XX c #DA442A",
"oX c #DD4B2B",
"OX c #D74A26",
"+X c #C6552B",
"@X c #DA5427",
"#X c #CD4B32",
"$X c #C94634",
"%X c #D54331",
"&X c #D44C32",
"*X c #DC4C33",
"=X c #DB4937",
"-X c #DC5837",
";X c #E24424",
":X c #E3442B",
">X c #E34C2C",
",X c #E84827",
"<X c #F4492B",
"1X c #EB532B",
"2X c #E65729",
"3X c #F8582B",
"4X c #E34C33",
"5X c #EA4A34",
"6X c #F54C34",
"7X c #E55333",
"8X c #EC5139",
"9X c #EB5C3A",
"0X c #E85736",
"qX c #F45B35",
"wX c #F35C3B",
"eX c #F75738",
"rX c #DC672B",
"tX c #E9652A",
"yX c #FB652A",
"uX c #E96539",
"iX c #F26434",
"pX c #F3623A",
"aX c #FE6B3C",
"sX c #FA6836",
"dX c #FF743D",
"fX c #F87639",
"gX c #F1772B",
"hX c #D95B46",
"jX c #EA5942",
"kX c #F65B44",
"lX c #D56648",
"zX c #EA6647",
"xX c #F36B44",
"cX c #FA6746",
"vX c #FE7442",
"bX c #FE7B44",
"nX c #FE7A4B",
"mX c #FB7449",
"MX c #FD7856",
"NX c #F3704F",
"BX c #FF7F60",
"VX c #FF8236",
"CX c #FF903C",
"ZX c #FD8548",
"AX c #FF8452",
"SX c #FF8A56",
"DX c #FF9957",
"FX c #F78F41",
"GX c #FF9865",
"HX c #FF8866",
"JX c #FFA466",
"KX c #FFA54E",
"LX c #FFC267",
"PX c #FFA882",
/* pixels */
"& > J I.r.3.J d.fXZ = ; : ; ; & K cX: ; ; ; : ; s .X6 R > j XXeX3., % % % & < 0 6.wX> % % & % % % % + % | & 0 0 : P.P 0 0 r.5.~.uXxXY 7Xs ; ",
"U OXv d.<.b.y.w DXrX) L Q s ; & H (.OX4 ; : : ; s .X} = & > : d 7Xd.& + % % ; 0 J ,Xs % < N R [ ] E > 3 ^ ; t q : e jXK s. XeX6.= G !.!.@XH ",
"VXKXsXK z.5.e 0 f.@X2XbXGXZ & = K _.JX~.#.M.8Xf.iX6 O + 3 T S.s.).aX9XD.A.A.g.c e n.MXg.h & % & w c ).fXv q r 0 0 ; =Xj.~.0X1X#.H.; s l.Y FX",
"R.W.].].'.'.z 0 w v.f.W.).iXs.k.2X[.JX0.x Y.6.H !.-X$X$XF.T f g.qXs f f 6 / j.*X1X1Xv.g ; & + % 0 c.GXgX6.i 0 : ; ; _ = * pX#.p J.s : I uXgX",
"+ = p m.'.3XaXd 0 c g.w (.aXcX'.#.sXq.0 +.M.0 : : w b r : ; & : 4Xd = + O O & 3 G.x q : & & > W G.S.S }.8Xw ; ; ; ; s.f 0Xf.0 y J., & T -X$ ",
"% ; q i d.(.).2Xd 0 t.c w q.8.p ].].q q y U.w ; ; : 0 0 : : & : r.: % O X o O % m w.q : j D.=XB.w ; = % j.Q & > ; d xXqX Xd q i H.s & L.A X ",
"O O + % + ' gXVXvXJ e c.P z M.q.aX7.#.q y U.m ; & ; ; : 0 0 : t u.: + X X X o o 3 j.: 3.5Xa.&.0 : ; ; & , D.; ; , 9XXXd m h.;Xz.r.S > #X$ X ",
"O # O # O 5 vXK (.;Xc.w G.3.x aX2.6.6Xq y I.9Xs ; ; ; : 0 q q q p.e + o o o o o * -XI 5XM i ;.0 : ; ; & > .X; ; 7Xk.: ; & ; K cXoXJ 0 *X$ X ",
"o X o O O h m 0 q w h.H.0 r.(.vXv.z U.u u i.GXZ & & ; ; 0 : : 0 n ;.& % % % = 5 R.JX&X> & ; t : : : ; & Y 2X; _ *X; ; & & % % > 7Xn.+.,X7 O ",
"o X o + 7 < j C j : ; G.K.e f.v.v V.*.@.y q.fX@ & & ; : ; ; ; ; q V.V ; : w OXGXfXrX= % % & ; : ; ; ; : 9X).S cXs & - % % + + + L 8Xz w.hX* ",
"| { ( R 7 < A A  .] j 0 U.x.x +.q x.,.*.1.).DX5 & : ; ; ; & & & q e XXr.z r.8Xh.d j & & % & ; : ; ; ; l.0Xz qXd.0 < & + + - % % t H.d #XlXE.",
"@ { zX3 & % o X o + < r w  XI.1.z 1.Y.x.aXaXtXAXk , ; ; ; ; & ; n 3.,Xb.M.i.e : 0 t & & % & ; ; ; ; s AXc z ,Xw : : % + o # - % : w.} + . . ",
"o o 1 $X8 + + o O o o 2 % 6 cX7Xc 8Xv v 3.c 5.^.vXS > g w.c.^.(.eXeXb.q y q : : : t : ; & % ; ; ; > 2XvX4 g.^ ; < & % + o X o O & ! B o o X ",
"o O o 9  .O - # O o o O O 8 {.> ; 4X.X0 q e <.e _.sXpX>X5.v aX1Xi +.u u p q ; ; ; : t ; & & ; = & |.2XK 6 #X= & ; & % # O X X o % ] B + # O ",
"o o O O A 2 + - # o X o O + -X6 4 -XI P z $.c.K iX(.(.0X; % m K.y u a.U.<X<X5.w ; ; a q & & % 3 (.dXd 9.!.+X+ + & & & % O o X O & F.h % % + ",
"o o o o - ( + % % O X o # + zXl.D F e.cXeXz.|.K ^.9.6.0XT % : q u :.:.X.y v b.8X! : i c., f -XAX'.0.q.^.zX' O + + & & & + O o O s Z.; & = % ",
"X o o O O | 8 % - + o o O % OXf ; ; e.P #.q g %X: : e y..X& ; 0 q y y q 0 0 q y u.p.&.3XSXdXn.<.c q.vXv 2XZ % + % & ; & + O O % W S.% & [ ; ",
"o o o O + N &X& & % + O + + *XH : ; d.w 6.4.: ^ ; : r q Z.g.& 0 ;.y q q C V.;.V.X.y +.<.W.tXq.x <X<X%.z @XG @ % + % ; & + O % 7 h.J.& % ] ; ",
"# O O O % ; =Xk % % % + % 1 SXfXuX^.SXsXaXx.e Z.> ; t 0 s cX5Xe >Xr.z ;.U.V.i &.p.p : ; > g 1X3X&.u q : _.T.+ % + % ; ; & & > t.G.V & & F.; ",
"% + + % = & E D.% * * % & -X~.K ~.Q.).0.<.x.6.3.V ; : 0 , I w.z U cXr 0 q 0 : 0 y +.h.zXoXoX/.c x 0 z 5.DXFX= % % % & ; : j Z.XXm : & 7 F.; ",
"- % % & ; ; , ] ( % % = 0X^.0 q : ; : w q y 8.a.r.m : ; g h.0 e : Q ; ; : : : ; H.pXXXH.J.r.K.i w g.P d tXDXx.e & & & : y a.mX{.; : & [ 7 = ",
"& & & & ; : t ; / &XU xXdXq.:.o.y : ; ; r y 8.3X;Xc.*XL I cXz w s jXl & = & > J.9Xs > > : e m 1X!.@XP d.H Q.1X7.0 : : q X.x.0X2 = & > [ % % ",
"; ; % & q a 0 0 i <.^.2Xq.aX=.=...q 0 t t ; v 1Xs d.*X.X|.|.v K.iX~.OXS F ) &XS.w ; & ; & & : U SXtXs.>Xs ~.2XH i.a.=.+.q.vXG % % + 3 | + + ",
"; < & ; a i 0 0 a.I.wX, q 8.o.O.o.a a : ; ; U xX7Xr.w , K z z :X1X2.;X7X!.OXQ > ; & & & % & ; ; 6 iXU w XXs VXZX;Xp o.a.3X/.: & + O 6 A.+ # ",
"% ; < t : ; : s..X.X, : 8.8.O.m.;.q : & & 7 cXg.w.m z b.@X;XJ y.2XJ i $.f.U T & % & ; & & & ; : > XX*X, t.3 Y GXd : i I.8.8.y q & O | R + + ",
"% % : : h D.oX*Xj., : $.eX-.m.&.q : ; t / $XF > ; ; d 7X>XS ; ; 1XqX#.i 3.7X^ & % * ; & & ; : ; s e.g., t.3 5 nXl.: P 3.m.>...:.> { #X& % + ",
"& & : C t.*X&Xs = s d.K.q y q 0 0 $.B.u.V : & & & & : b.sXH : & d oX|.OXs c.4X4 + % & = = Q L ,  XwXZ.: S.> c 2X^.w ^.J 6Xp y i {.uX% + @ + ",
"; V B.z P L > l | -XuXd.q y : V J.B.r q : ; & & % ; ; g dXQ.w : 0 : = MXb.i.v.OX/ 6 T } j.MXaXi.x.<.e ; oXd s  XqXpXf.5Xi.q y y 9XU + + + + ",
"P.! : c w.d } R * O o * ;.$.y.C.t & ; & & & - & + = : g ZXfXz q : : ; E z 2.3XQ.,Xk.jXf g c.X.o.8.<Xd > P 7Xd v eX4.&.$.q q i e c >XY 6 G T.",
"w ; f 0XZ.^ & o       X s b.:X; ; & & % % % % % % % s iX_.K ;Xi 0 : : s 5.;X1X'.x.z.c , .Xi -.=.o.<Xw.: z  XpXd i i y q 0 M V.c.;XH.7XuXuX_.",
"= ; zX}.3 % o X X   X o G @X2.0 : ; & & % % % % % = _.ZX> & H.6.v h.@XfXfX6.4.*.4.M.3.d y.q X.>.u a.5Xy.M.x.nXdXs 0 0 0 !.2X$.+.y q U.w U G ",
"& A.-X= & + o X X X o o +XDX1Xh.W V B ; % % + % > !.ZXK ; & S 9Xc.d W.DXl.; 0 p -.m.r.d H.w u >.6XJ 0 e y v S ^.wXy.w J iXdXe q q i 4.: _ Z ",
"$X/ % - & % + O O O O Z JX2X3.q ; - [ L._ ( | }.uXAXU ; > + +X-X: i ; ) ` & & : +.M.0Xs uXK y 5X8X= g S , ; ; : e p.a.eXyXW.: 0 u u 8.3X-X$ ",
"R % = & & ; - % % + 3 #XK P z ; + + % ; D T 6 6 _.Y > , & 1 zX' q a : V =X& % & q u ,XSXvX2.i i ; S HXj.^ V ; ; 0 q u +.aXK ; ; q +.v dX+XCX",
"% % & & & & & & - > J.r w : ; - O o & ; ; ; : B.l w i q = #X#Xw :.u y r B.r & & : y i i.2X/.i x K uX*XF E C t.; : 0 0 q z.S.+ % ; z Q.CXCXrX",
"% = & & ; & & & > Z.C q 0 : ; # o O ; < : j D., % : a.e I 9Xz q >...q 0 i t.; ; 0 n %.y 0 pX<X4.XXI ; > G.: C g.S.=Xi 0 e XX+ % ; s gXVXgXZ ",
"; ; ; ; : ; & t }.h : : ; ; & + o + : r s L.- O O O |.0.dXq.p ..o.:.0 ; C.L : m P c.d.g , : eXz.e : : .X6Xq : D.0XF r q 0 C A.+ % > '.q.).> ",
"; ; : 0 t.v s NXNX; ; : ; & & % % & : i %Xl + O O + ~.yXaXn.p...y X.;.L Z.L .X/ L j.OXxXxXU 2.2.: w g.e.$.y M g.A.: : 0 i w t..X` j.#.M.;X; ",
"L |.*Xd 1X9.^ , t.P.: : & & - & - & : y.jX& & % % 3 nX@Xw e r q : ; .X^.H.A.= + + + O * }.SXY G Y 7X|.b.a.y H.C.J.z ; : w =X0 r.nXK +.3XcX;X",
"5.;XMXb.eX/.& & : w.;.: & % & & & & w kXQ & & & , iXxX> : : ; : < : @X^.L & + + + # # O O 5 ZXDXsX~.d c i.#.q : M y.: : : 4Xr.e ).].x.m.#.z ",
"0 i p p y 6.J.m w 0 +.u.g = % & & w =XW ; ; : : (.nX, & & & % & 0 j uX3 & & + # + # + + % + U iXs.e.e ; s.wXi y e B., : 0 w.kXv _.2.8.=.y : ",
"0 q q i %.5Xz W w.;.$.;.H.mX-X_ A.4Xm : : : 0 d.nXH ; & % + % % ; E MX+ > ; % % + + O O + % Y @X> .Xd w l..XV.y 0 B.: : C 0 v ).SX)...m.q : ",
": ; e U.:XI.r.a.r.u.x z 2XuX#X-X.X4 ; ; 0 q 5.8Xm = % % + + % + + ( NXZ & : ; % + + O O + + Q U @X9Xc.z 0 : K.v 0 t.t ; &X= v.).2X3X+.&.: ; ",
": ^ Z.d y u x x e 3.3.h.l.& * * & & ; e e.:XcXc & & % % + O - + O E.5 { > ; > & - - + + + + s.l.0X> ;Xc.e z 8X3.W S.4 & l.NX2.d.z.1.a.v 0 : ",
"9XS.: q X...u i J ;XQ.iX-X-X| F k L b.5Xt.^ *X& % % + + + + - O 1 lXO  .R & % # O # - % % = 2XaXf : 0 8Xz y.n 0 0 J.{.& 6 &X: $.&.p G.m 8XG.",
"OX: 0 i X.X.a.6X:Xn.pXY * 3 D R C.t.n.r.> & } % + + + + + # # o ( E.# 8 R + O O     # - % _ wX2.> ; 0 d.d 5Xy.0 : S.MXL s.|.: i -.y U.t 1.x ",
"xX> q x ;XqX8X1.q %.c.; = & ; ; ; : 0 r ; & R ; + O + O # + o 9 O A { % % + o o     X O % *XM e > & m 6.2.h.j ; m s.e z m :X0 y ,.o.M.#.0.M.",
"7Xw 8.cX'.z q y u U.n 0 : ; ; ; & ; : 0 : & h ] & + + + O o # 9 o @ R > + O o o X X X o | C.0 0 , .X;X XcXs ; / oXC.: : 0 K.W q ,.O.@.8.7.ZX",
"0 x Y.%.q y ..X.u Y.i 0 0 b C V s & & ; : < : ! ] : ; % O # A O + + + - % O O o o $ 1 E.}.: : m *XMXl.oXP > Z.C.: %Xj ; : b 4X0 ..=.O.,.O.*.",
"p.x +.u p x -.M.@.,X+.q V.Z.k T [ $XR % ; ; ; ; u.b t & O | # O + # + + - + O O # $ E.MX> : e 8X) * > {.: W D.; : m =Xs ; : |.h.q =.,.,.,.m.",
"r.q x #.].VXvXaX'.yX<.:XD.% + o O * E.E.* % % % j Z.: : _ &X+ + + + + O - - + O o o #XF ; : c.c.0 s L |.: .Xs : 0 0 n 5XH.S 4 9X%.X.M.x.1.<X",
"s d.1XaXsX0.s g Q.iXe K.; % O o O + + ( hX3 % % , %Xb W s.&X, & % + + + & ; + O 2 E.D & , g.I.%.i K.k.e.v.e.; : 0 q q p c.|.|.XX#.p <X<.q x ",
" XK |.l.; 0 &.p.q #.'.i.0 = O o O O + + ~ -Xk ; w ! E & 6 %XV.;.; + + + % k } } F.6 D }.lXuX>X,Xi.+.;X: ^.@X& : q q y y 0 : : ^ m v n.;Xy.M ",
"|.xXs ; q X.....y %.6Xe : & + O + # + + > _ ^ S.: & R ~ + j V.y ; % % 7 A.Z.m : : _ ' 2 ~.3 > v 6X8.;Xz : zX^ ; i +.$.3.t.: ; w 8XK.5.d.0 n ",
"OXD.; y >.>.y q q K.I.0 ; % % + + + + + = NXzX-Xl % + E.MX0 ;.i , ~ $X~ 4 ; e w.jXm % F k ; ; : : r.qX<.: s *XS.0 K.qXwXs ; ; ; s.5.H.J q U.",
"> : y :.Y.=.q 0 0 M.I.: & % % % + % % * E.' Z D R R 8 T h.q y n 3.BXU & d K.u.x 3.d 9X-XM i : ; ; ; sXQ.e 0 > S.|.H (.s.Q s k {.9XP I k.e 3.",
"k z O.Y.:.0 0 0 q ,X1X: & % % % % % ; ] 2 o O + * & 8 L.8Xp y y x 3.S @X9X,X:.o.+.n.HXS M U.5X5., ; `.VX+.p q ; !.uX{.k. X>X=XQ , E H s.f.^.",
">X0 X.%.0 ; : q u 3XsX: : ; % % % % V 7 o o o O % % % & b.%.y y 4.r.0X!.d x u ..y kXf & : q J  XuXY [.VXsX@.X.x g xX, ; d.f.g : ; ; ^ 9X9X9.",
"2X2.h s ; & ; 0 u *.yXJ z 0 & + + - N % o X o o O % ; : p X.q v |.7X) ; ; ; & : i w.& = % & > > ~.KXgX0.].Y.,.N.<.d.0 : > -XpXK : ; _ k z i ",
"q.bXJX| & > l r p X.].ZX<Xw % % % - & + O o o O % > j $.6Xa.M t.Y 2X> ; % + % & r b & % O + - = > gXKXW.p ,.Y.O.Y.4.i M ; Q 2X1Xe : R l 0 i ",
"*.U.S.= > NX.XD.cX*.+.dXfXc % + + % % % % % = 7 E j.MXpXH.e.g.oXiXK w ; + + % > XXd & % O o O * : ).LX[.....8.3X3Xx i kXc.: ;X(.4.0 h ~ ; e ",
"X.p ; & < fXg > e x p *.yXQ.+ O + % % ; N | B.m h s.` = > > > g vX9.> % + O % > hXf ; N N * o + : v `.yX].@.u 8.vX#.y y p.i v 6Xm.i ; F., , ",
"q K.h.f K fXq.6.0 q i x q.iX5 O + & h ] ] h : e F.N O = > & , s.MXg + O O O + % - % O - R [ B : 0 +.@.*.vX3Xp i vXx.O...y y 0 &.Y.@.0 k 0XS ",
"z l.t.d.).aXQ.wXt.C n a.i.f.zXNXL.[ E : & : s =X7 + O 8 % % f pX^.& o o o o O O + o o o O % l =XI.+.u q s ].].#.q.q.O.O.u y y y N.8.0 ; uX2X",
"2X3 ; : > f bXS ; : b B.r ; , &X< & - & ; s 4XE O O & B % + {.7Xs & O X   X o o o o   X o O O 2 mX/.e 0 : W.FXVX[.tX*.O.u q &.u yX'.s : c.2.",
"/.mXJ.y.b.MXnX* > : : C ! & : ! & + % % , P.F.% + + ] 7 % % -XU t & + o     o o o X     X o o o 1 uX, : > Y LX`.W.sX8.p.u.x x.q.DXW.0 e G.i ",
"3.u.u @.i.M.-X* ; ; : r B.; ; V D.& % l L.t ; < ; } | & % = uX4 0 : + O X     X X X . .   X o O O ( F % 2 rXgXZ iXU q 0 w cXMXiXq., P XXh.: ",
"n y ....@.M.mX* ; ; ; : r : ; ; t.t.}.L., ; ; ; > jX7 % % l xXs : t > + o X   X o X X X X X X O O + }.@XJXFXG ) I > : : g l.@X4 s K.h.: .Xg.",
": q y u +.<XMXD & ; ; ; : : & & d 5XB & % ; ; & & $X3 % & j.0Xf : t B ; O o o o O + - - O o X o # O } 7XrXT.= 9XoX, 0 0 r.3.>X Xi w.5.5.F.= ",
"; : y y -.z., }., & ; ; ; ; & & z P ; & & & ; ; > #X- + T k bX9.0 : : ; + O O o # A B & # o X X o O & 3 ` 5 ; d wXH 0 : z 6.v 5.i p n.pX3 + "
};
