/* XPM */
static char *cA__[] = {
/* columns rows colors chars-per-pixel */
"70 70 133 2 ",
"   c #020000",
".  c #0B0100",
"X  c #140101",
"o  c #1F0302",
"O  c #1E0101",
"+  c #180403",
"@  c #190403",
"#  c #1E0403",
"$  c #1A0104",
"%  c #180204",
"&  c #190305",
"*  c #1D0304",
"=  c #1F0204",
"-  c #1C0306",
";  c #190504",
":  c #180405",
">  c #1A0504",
",  c #190506",
"<  c #1C0404",
"1  c #1D0505",
"2  c #1E0405",
"3  c #1B0101",
"4  c #200000",
"5  c #210000",
"6  c #200100",
"7  c #200001",
"8  c #220000",
"9  c #230000",
"0  c #230100",
"q  c #200200",
"w  c #210200",
"e  c #210301",
"r  c #220301",
"t  c #210102",
"y  c #230102",
"u  c #200202",
"i  c #210303",
"p  c #220203",
"a  c #240000",
"s  c #250101",
"d  c #260000",
"f  c #270000",
"g  c #270001",
"h  c #240201",
"j  c #240002",
"k  c #250302",
"l  c #240203",
"z  c #260202",
"x  c #270303",
"c  c #200403",
"v  c #230402",
"b  c #240503",
"n  c #260403",
"m  c #200305",
"M  c #230304",
"N  c #250304",
"B  c #210504",
"V  c #220404",
"C  c #220605",
"Z  c #220406",
"A  c #240405",
"S  c #250604",
"D  c #230101",
"F  c #280000",
"G  c #280001",
"H  c #2B0000",
"J  c #2A0001",
"K  c #280102",
"L  c #290102",
"P  c #2B0102",
"I  c #290203",
"U  c #2A0202",
"Y  c #2B0303",
"T  c #2C0000",
"R  c #2D0000",
"E  c #2D0100",
"W  c #2D0001",
"Q  c #2E0000",
"!  c #2F0000",
"~  c #2F0101",
"^  c #2D0102",
"/  c #2E0002",
"(  c #2F0103",
")  c #2C0203",
"_  c #2E0203",
"`  c #2A0304",
"'  c #2B0304",
"]  c #2B0206",
"[  c #2C0204",
"{  c #2D0304",
"}  c #2F0304",
"|  c #280404",
" . c #2C0404",
".. c #2C0405",
"X. c #2C0506",
"o. c #2B0102",
"O. c #300000",
"+. c #310101",
"@. c #320000",
"#. c #330100",
"$. c #320001",
"%. c #330102",
"&. c #300202",
"*. c #310303",
"=. c #320202",
"-. c #330303",
";. c #350000",
":. c #340100",
">. c #370101",
",. c #340201",
"<. c #350103",
"1. c #350302",
"2. c #340203",
"3. c #320104",
"4. c #300204",
"5. c #310305",
"6. c #350304",
"7. c #340404",
"8. c #370506",
"9. c #330202",
"0. c #390000",
"q. c #3B0000",
"w. c #390301",
"e. c #390303",
"r. c #3B0302",
"t. c #3A0203",
"y. c #3D0301",
"u. c #3D0302",
"i. c #3E0403",
"p. c #3B0304",
"a. c #3C0405",
"s. c #3F0504",
"d. c #390202",
/* pixels */
"      .   . . . ,     . .   . .                                                                                                             ",
"    .     . . . . . . . .   . . .   ,                                                                                                       ",
"            . .     . . . . . . . . . .                                                                                                     ",
"    . . ,   . . . , , . . . . . . . .                                                                                                       ",
"  . .   X . . .   , . . .   ,   X . .                                                                                                       ",
".   X . . . . . . . ; , . .   ,   . . . .                                                                                                   ",
"  . X . X X . . ; . . . ,     . ,   . .       .                                                                                             ",
". . X X X . X . ; . , . . , . . . , . . , .       ,                                                                                         ",
"X X X : X . X . . . . . + + . . X . . . . . .   . . .           .                                           .             .                 ",
"X : X , . X . . . . . ; . . . + X . . : . . . . . .           . . .                                                         .               ",
". X X X X X X X ; . ; + ; . . . X . X X : . . .   . .       .     ,     .                 .   .                           .                 ",
". + X X X : X X . ; ; ; ; X . + X . X X . . . . . . .               ,         .             .             . .           .   .           .   ",
"X X X $ 3 X X X X + + + X X . X X . > X . . , . . . . .     . . . . .       .   .           .   . .       . .   .     . . .         . . .   ",
"* * 3 3 X X X X X + 3 3 X . X + X X X X .   . . . . . .   . . . . . .     .     .           . .         .   . .         . . .     . .   . . ",
"X X $ X 3 3 X X X 3 B B + X X + $ X X . : . . . . . .       . . ,   .   .   . .   .     . . . . .   .   . . . .   . . . . . . .     . . . . ",
"3 3 3 * 2 * 3 X X 3 3 3 + + X ; X X : : X . . . . . . . .   . . . , . . . . . . . .   .   . . . .     .   . . . .     . . . . .     .   . . ",
"* e * * * 3 X X X 3 3 3 X X X X 3 3 > X : X X X X . . .   . . . X . . . . . . . . .   . . . . . .     . . . . . .   . . . . . . .   . . . . ",
"* * e * e 3 X X 3 * 3 3 $ X X X : 3 3 X X X X X X . . . . . . . . X . .   . . . . .     . . . . .     . . . X . . . . . X . . .   . . . X . ",
"e e z e * * X X * e * * X X 3 X 3 3 X 3 X X : + X X X . . . . X X X . . . X X . . .   . . . X . .   .   . . . . . . . . : . : . . . . X X X ",
"e e z e e 3 X X * e * e 3 X 3 $ > X X X X X X X X X X . . . . X X X X . . X X . . . . . . . . . . . . . . . . . X . . X . X . .   . X X . . ",
"e z J z e e 3 * e e e e 3 3 * * 3 3 3 @ + X X X @ X X X . . X X X X X . X X X X . . . . . . . X . . . . . X X X X . . . X . X . . . X 3 X . ",
"z J ^ [ e * * m e * * * * * e e B * 3 > X . X @ X X X . X X X X 3 X X X . X X X X . . . . . . . . . . . . . X X X X X X X X + X . . 3 X X . ",
"^ +.+.^ z e e e e * * * e e e * * * 3 X X X X 3 3 X X . . X 3 3 3 X X . X X X X X . . X X X X . . . . . X X $ 2 X . . X X X + . . X 3 3 X X ",
"+.7.+.^ J z e * e e * e e e * * 3 3 $ > X : X 3 2 3 X X X > * 3 X $ X X X 3 * + 3 X X . X 3 X X . . . X X X * * X X X @ @ X + X X X 3 * X . ",
"^ +.^ +.^ J * * e * e e z e e e 3 3 * 3 $ X X $ $ X X X 3 3 3 3 * * X X 3 3 X 3 3 X X . X @ X . X . . X X X * e X X X X @ X X X X 3 * 3 X . ",
"^ +.[ 4.4.J z e * e e z e * * e * * * * 3 X X X > X 3 * * * 3 * 3 3 X X 3 3 3 3 * 3 X . X 3 X X X . X X X X e e 3 X X 3 3 3 3 X X 3 e * X X ",
"<.+.<.+.<.^ z z e e z z e * l e * 3 * * 3 X 3 3 3 * e e e * * * 3 3 X X 3 * * * e * X X X X 3 X X X X 3 X X e m 3 3 3 3 3 3 * 3 3 3 e * X X ",
"e.e.<.<.+.+.^  .z z e l z * z l 3 3 e e 3 3 3 * 3 * e e * * e e * * 3 3 3 e * * * * 3 X 3 3 3 2 3 * 3 3 3 * e e * 3 3 3 3 * z * 3 e z * 3 X ",
"y.i.p.<.e.<.^ ^ ^ ^ z z z z e e * 3 3 3 3 3 * * * e z z * * e e e * 3 3 3 * * * * * 3 * * * 3 3 3 3 3 3 e * * e * e e * e e J e e e J e X X ",
"y.y.y.<.<.<.^ ^ 4.+.z z e e z e * 3 * 3 $ 3 * * * e z e * * * * * * * * 3 * * * * * 3 * e * * * * * 3 * * e * e e e * e J J ' J z J [ z 3 X ",
"e.y.y.<.<.+.^ -.<.8.*.J z e e e * * e e 3 * * e * e e * * * e e e * e * * * * * e e * * e z e e e * e * e * * e e e J [ J J ^ J z J J z 3 X ",
"y.y.e.+.+.+.+.<.<.1.^  .z * e * e * e * 3 e z J e * * * * * e e e e e * * e * e e e * e e z z z z * e e * * e e z J [ +.^ ^ +.^ J ^ ^ z 3 X ",
"e.i.<.^ ^ ^ +.+.+.+.J J z z J J z z e e e e J J e * * * * e e * * e e e z e e * e e e e z [ ' ' ' z e e z e z  . .^ 4.<.+.^ <.+.^ [ +.z 3 X ",
"e.r.+.+.^ ^ +.-.<.+.J z z z J [ z z z e z n z J e * 3 3 * * e e e e e e e z e e z e z e [ J z ' l l e ' | J z J J J 4.4.<.<.<.+.+.4.+.J * X ",
"<.e.+.^ ^ ^ +.<.<.-.J z e z [ [ z z e z * z e * 3 * 3 * * * e * e e * 3 e z e z z e z z J z z e * * e ' | J z J [ +.+.<.+.<.<.+.+.^ +.z * 3 ",
"<.<.+.^ ^ ^ ^ +.+.^ z z z z [ J J e z e e e e e 3 3 3 * 3 * * e * e 3 3 e z z e z ' J J z z e * X 3 e J J J z J ^ [ <.p.<.<.<.<.+.+.4.z * 3 ",
"<.<.+.^ J J ^ +.+.^ J z e z ^ J z z e * e e z e 3 3 X 3 * e e e e e * * z J z e e l z z J J z m e e z z J z e J J ^ e.e.e.<.<.+.+.<.+.J * * ",
"<.<.^ J J z ^ +.1.{ z z z e z z * e e * * e z e 3 3 3 X * * e e e * e e z J z * e e e z ' ' z e e z J J ^ z e z J +.<.e.y.e.<.^ +.+.7.J * * ",
"+.+.^ J J J ^ ^ +.+.z e z e z * * 3 e e * * * * 3 3 3 3 3 3 * 3 * * e * e z e * e e e e n | e e * e z z J z z J J ^ <.e.e.<.+.^ ^ ^ -.J e * ",
"+.^ J J z J ^ ^ ^ ^ z e e e e e 3 3 * * 3 3 * * X 3 3 X 3 3 * 3 3 3 * * e e e e z * e e e z e e * e z z e z z J | J +.e.e.<.^ ^ J ^ *.z e * ",
"^ ^ J z z J J ^ ^ | z e * e e e 3 3 3 X $ 3 3 3 3 X 3 X 3 3 3 3 3 3 3 * * * e * * * * e J z e e * e z z z z e J ^ ^ <.1.1.<.^ ^ J J J e * * ",
"^ J J e e z J ^ ^ J e e e e e * 3 3 3 3 3 3 3 $ 3 X 3 3 + X 3 3 X X 3 3 3 * * * * e e z z z e * * * z z z e z z J +.1.r.1.+.+.^ J z n e * * ",
"J J e e e z J J J J e e e e * * X 3 X $ 3 X 3 3 3 X 3 X X + 3 3 3 X X 3 3 3 * 3 * e e l e e e * * * z l e * e z J -.<.r.1.<.+.^ J z e * * * ",
"z z e * * e J z J J e * * e e * $ X X X X 3 3 X X X X 3 3 X 3 X X X X X 3 X 3 X 3 m e e z * * * * e e e e * * z  .+.+.1.1.+.+.^ z e e 3 3 3 ",
"e z * * * * z z z z * * e e e * X X X X 3 3 X X X X X X 3 X X 3 X X X $ 3 X 3 3 3 3 e e e * X 3 e e e * * * e J  .^ +.+.1.+.+.{ z z * 3 X X ",
"e * 3 3 3 * e z z e * 3 * e e * X X X X X 3 X X . X X X + X 3 X X X X X X @ X 3 X 3 * e * * 3 3 e e e e * * e J ^ +.+.+.+.^ ^ [ J * e 3 X X ",
"e * 3 X X * e e e * 3 3 * * m e X X X X X X X X X X X . X X X X . . X X 3 3 @ X 3 3 * * e e * 3 e e e e e e e J ^ +.+.4.J J +.4.z e * 3 X . ",
"* * X X X X * e * 3 X X 3 * e e X X . . X X + X . . . X X X X X . X X X X 3 2 3 X 3 B * * e * 3 3 * * * e B z |  .{ ^ +.z J [ [ e * 3 X . X ",
"* 3 X . X X * 3 3 3 X X 3 * * * X . . . X X X . . . . . X X X X X . X X X 3 3 $ 2 * 3 3 * * 3 $ X X * * e e e z J J J J J J z J e * 3 X . X ",
"3 X X . . X 3 3 3 X X . X X * 3 + . . . . X X X . . . . . X . . . . X X X X : X 3 X 3 3 3 3 X 3 X X * e e e * * z J J J n z J ` z * X X X . ",
"X X X . . X X X X X . X X X 3 3 + . . . . . X . . . . . . X . . . . X X X X . X X X 3 * 3 X X X X X * * * * * e z J J J e z z l e * 3 X . . ",
"X X X . . X X X X . X . . X X X X X .   . . . . .   . . . . . . . . . X . X X . X X X 2 3 X + . X 3 * e 3 3 * * z z z z e * * n n * 3 3 . . ",
"X X . . . . . X X X . . . X X X + . . . . . . .   . . . . . . .   . . . X X . X . X X X + X X X X 3 3 $ X 3 > * * z e z e * * * n B * X . . ",
"X . .   . . X X . . . . . X X X . .   . . . . . .     . . . . .   . . . . . . X X . X X X X X X X X $ X + X 3 X * * z z e * * * B 3 3 X . . ",
". . . .   . . . . . . . . . . X .     . . . . .             . . .   . . . . . X . X X X + ; X + X 3 X $ X 3 3 3 3 * 3 * 3 3 X 3 > > ; ; . . ",
". . .     . . . . .   .   . X . . .     .   . . .   .   . . .       .   . . . . . . X . X X X . X X X X X X X X 3 * 3 3 3 X 3 X ; ; + . . . ",
". .         . . . .   .   . . . .       . .   .   .   .   . .       . . . . .   . : . . . . : . X : X X X . . : X * * 3 X X > X ; . . . . . ",
".   . . .     . .         . . . .         . . .           . . .   .   . . . . . . X . X . . . . . X . X . . . . X 3 X X X X X X , . . .     ",
"              . . .       . .   . .       .   .         . . .     .       . .   . . . . . . . . . . . . . .   : X 3 X > X X X . , . . ,     ",
"  .                         .           .                             . . . . . .     . . . . . . . . . .   . : . X X X X X . . . . .     . ",
"                                                                        . .       .   . . . . .   . . . . . , . X . : X . X .   ,     .     ",
"                            .               .               .                 .       .   .       . . .   .   . . X . . X . . . .           ",
"                                                                                          . .     .       . . . . . . . X .     ,   .       ",
"                                                                              .               .       . .       . . . . .   .         .     ",
"                                                                                                                  . . .             .       ",
"                                                                                                                  .   .     . . ,           ",
"                                                                                                                                            ",
"                                                                                                                      .                     ",
"                                                                                                                                            ",
"                                                                                                                  .                         "
};
