/* XPM */
static char *result[] = {
/* columns rows colors chars-per-pixel */
"70 70 208 2 ",
"   c #060706",
".  c #0E0E14",
"X  c #0F1119",
"o  c #131316",
"O  c #14151A",
"+  c #18171B",
"@  c #19181B",
"#  c #1C201E",
"$  c #28221F",
"%  c #161925",
"&  c #191A22",
"*  c #1A1D2A",
"=  c #141723",
"-  c #1D242C",
";  c #1C2221",
":  c #1E2332",
">  c #1F323A",
",  c #282A27",
"<  c #362B27",
"1  c #3D332E",
"2  c #34312E",
"3  c #252A3D",
"4  c #262939",
"5  c #23333D",
"6  c #2C3834",
"7  c #333532",
"8  c #343A35",
"9  c #393936",
"0  c #42332D",
"q  c #463B37",
"w  c #32423D",
"e  c #4C443D",
"r  c #44433A",
"t  c #53433C",
"y  c #5A463E",
"u  c #5A493F",
"i  c #625B3E",
"p  c #70643D",
"a  c #292D41",
"s  c #272C40",
"d  c #2A3743",
"f  c #33394A",
"g  c #394B46",
"h  c #3D544C",
"j  c #2C4754",
"k  c #394857",
"l  c #3F5654",
"z  c #3B5B6B",
"x  c #365666",
"c  c #3B5F70",
"v  c #464B44",
"b  c #464944",
"n  c #5C4B44",
"m  c #524741",
"M  c #44534E",
"N  c #595346",
"B  c #454856",
"V  c #445B53",
"C  c #4A5C55",
"Z  c #465956",
"A  c #585F5A",
"S  c #634D44",
"D  c #684F46",
"F  c #655148",
"G  c #6C544A",
"H  c #685346",
"J  c #72564B",
"K  c #75594E",
"L  c #785A4F",
"P  c #7A5B50",
"I  c #4C635B",
"U  c #49665E",
"Y  c #58625C",
"T  c #5F6148",
"R  c #7B6C41",
"E  c #686856",
"W  c #445C6B",
"Q  c #4E5261",
"!  c #545766",
"~  c #615D66",
"^  c #4B6C63",
"/  c #556B63",
"(  c #596D65",
")  c #576769",
"_  c #4F7368",
"`  c #5C736B",
"'  c #55766C",
"]  c #4A6374",
"[  c #456476",
"{  c #597973",
"}  c #506D7F",
"|  c #666965",
" . c #63766A",
".. c #767869",
"X. c #656774",
"o. c #627C73",
"O. c #6B7776",
"+. c #727D74",
"@. c #726C68",
"#. c #807041",
"$. c #847D6E",
"%. c #827C71",
"&. c #5B8276",
"*. c #5E867B",
"=. c #7B806E",
"-. c #638076",
";. c #6E8276",
":. c #6A867B",
">. c #628A7E",
",. c #68867D",
"<. c #738171",
"1. c #728679",
"2. c #788776",
"3. c #9B874A",
"4. c #958D71",
"5. c #9A937B",
"6. c #8A846E",
"7. c #A39D7F",
"8. c #516E81",
"9. c #56788C",
"0. c #5B7D93",
"q. c #4E7488",
"w. c #6B6D85",
"e. c #6C7582",
"r. c #72778D",
"t. c #767C93",
"y. c #5C8096",
"u. c #5C849B",
"i. c #648E81",
"p. c #6C8C81",
"a. c #738E82",
"s. c #798886",
"d. c #6C9689",
"f. c #6D998B",
"g. c #679285",
"h. c #739286",
"j. c #74958A",
"k. c #73998D",
"l. c #799A8E",
"z. c #79978A",
"x. c #61879F",
"c. c #7B9E92",
"v. c #759E91",
"b. c #7B8398",
"n. c #7CA295",
"m. c #79A699",
"M. c #7EAB9D",
"N. c #75A294",
"B. c #648CA4",
"V. c #678FA8",
"C. c #6A94AD",
"Z. c #6790AA",
"A. c #6C96B0",
"S. c #85938E",
"D. c #8C9D98",
"F. c #808B9D",
"G. c #81A59A",
"H. c #83AA9D",
"J. c #B6AC89",
"K. c #BCB18D",
"L. c #ABA383",
"P. c #879BA5",
"I. c #85AEA1",
"U. c #8CACA6",
"Y. c #86B2A3",
"T. c #89B3A5",
"R. c #8BB6A9",
"E. c #8DBAAB",
"W. c #91BCAE",
"Q. c #96B2AB",
"!. c #93BEB1",
"~. c #95B8B2",
"^. c #9AABA5",
"/. c #A8BDB6",
"(. c #C6BA93",
"). c #95C4B4",
"_. c #98C7B7",
"`. c #98C8B7",
"'. c #98C7B8",
"]. c #9AC9B9",
"[. c #A1CCBE",
"{. c #AAC1BA",
"}. c #D6C99E",
"|. c #D5C79C",
" X c #CFC299",
".X c #DBCDA1",
"XX c #DFD0A4",
"oX c #EEDEAD",
"OX c #E5D6A8",
"+X c #F0DFAE",
"@X c #F0E0AF",
"#X c #F1E1B0",
"$X c #EFE0AE",
"%X c #A8CFC3",
"&X c #ABD3C6",
"*X c #A8D2C4",
"=X c #B4D9CE",
"-X c #B4D4CA",
";X c #B8DCD0",
":X c #B4CAC3",
">X c #BEE2D6",
",X c #C3DCD4",
"<X c #C3E5DA",
"1X c #C8E7DC",
"2X c #CDECE2",
"3X c #D1EEE5",
"4X c #D2F1E6",
"5X c None",
/* pixels */
"5X5X5X5X5X5X5X5X5X5X5X5X5X5X5X5X5X5X5X5X5X5X5X5X5X5X5X5X5X5X5X5X5X5X5X5X5X5X5X5X5X5X5X5X5X5X5X5X5X5X5X5X5X5X5X5X5X5X5X5X5X5X5X5X5X5X5X5X5X5X",
"5X5X5X5X5X5X5X5X5X5X5X5X5X5X5X5X5X5X5X5X5X5X5X5X5X5X5X5X5X5X5X5X5X5X5X5X5X5X5X5X5X5X5X5X5X5X5X5X5X5X5X5X5X5X5X5X5X5X5X5X5X5X5X5X5X5X5X5X5X5X",
"5X5X5X5X5X5X5X5X5X5X5X5X5X5X5X5X5X5X5X5X5X5X5X5X5X5X5X5X5X5X5X5X5X5X5X5X5X5X5X5X5X5X5X5X5X5X5X5X5X5X5X5X5X5X5X5X5X5X5X5X5X5X5X5X5X5X5X5X5X5X",
"5X5X5X5X5X5X5X5X5X5X5X5X5X5X5X5X5X5X5X5X5X5X5X5X5X5X5X5X5X5X5X5X5X5X5X5X5X5X5X5X5X5X5X5X5X5X5X5X5X5X5X5X5X5X5X5X5X5X5X5X5X5X5X5X5X5X5X5X5X5X",
"5X5X5X5X5X5X5X5X5X5X5X5X5X5X5X5X5X5X5X5X5X5X5X5X5X5X5X5X5X5X5X5X1.S.S.S.S.O.5X5X5X5X5X5X5X5X5X5X5X5X5X5X5X5X5X5X5X5X5X5X5X5X5X5X5X5X5X5X5X5X",
"5X5X5X5X5X5X5X5X5X5X5X5X5X5X5X5X5X5X5X5X5X5X5X5X5X5X5XO.D./.-X1X3X3X4X4X2X1X,X:XQ.s.) + 5X5X5X5X5X5X5X5X5X5X5X5X5X5X5X5X5X5X5X5X5X5X5X5X5X5X",
"5X5X5X5X5X5X5X5X5X5X5X5X5X5X5X5X5X5X5X5X5X5X5X5X5XD.:X1X4X3X1X1X<X<X<X1X1X1X3X3X4X2X,X^. ., 5X5X5X5X5X5X5X5X5X5X5X5X5X5X5X5X5X5X5X5X5X5X5X5X",
"5X5X5X5X5X5X5X5X5X5X5X5X5X5X5X5X5X5X5X5X5X5X5XD.-X>X=X&X*X[.[.].].'.].].].].[.%X=X=X2X2X2X:X+.5X5X5X5X5X5X5X5X5X5X5X5X5X5X5X5X5X5X5X5X5X5X5X",
"5X5X5X5X5X5X5X5X5X5X5X5X5X5X5X5X5X5X5X5X5X( Q.[.]._._._._._._.].'._._._._._._._._._.].[.=X<X1X^.5X5X5X5X5X5X5X5X5X5X5X5X5X5X5X5X5X5X5X5X5X5X",
"5X5X5X5X5X5X5X5X5X5X5X5X5X5X5X5X5X5X5X5Xo.W._._.`._._._._._._._._._._._._._._._._._._._._.].*X<X{.Y 5X5X5X5X5X5X5X5X5X5X5X5X5X5X5X5X5X5X5X5X",
"5X5X5X5X5X5X5X5X5X5X5X5X5X5X5X5X5X5X5Xo.W.]._._._._._._._._._._._._._._._._._._._._._._._._.'.'.&X{.Y 5X5X5X5X5X5X5X5X5X5X5X5X5X5X5X5X5X5X5X",
"5X5X5X5X5X5X5X5X5X5X5X5X5X5X5X5X5X5X` !.'._._._._._._._._._._._._._._._.`._._._._._.`._._.].'.'.'.].U.5X5X5X5X5X5X5X5X5X5X5X5X5X5X5X5X5X5X5X",
"5X5X5X5X5X5X5X5X5X5X5X5X5X5X5X5X5XM Y.'._._._.`._.`._._.`._._._._._._._._.`._._._._.]._.).E.R.!.'.`.'.p.5X5X5X5X5X5X5X5X5X5X5X5X5X5X5X5X5X5X",
"5X5X5X5X5X5X5X5X5X5X5X5X5X5X5X5X5Xh.'.'._._._.'._._._._._._._._._._._._._._._._._._.E.n.d.d.k.v.n.R.'.W.Y 5X5X5X5X5X5X5X5X5X5X5X5X5X5X5X5X5X",
"5X5X5X5X5X5X5X5X5X5X5X5X5X5X5X5XV E.`._.`.].`.`._._._._._._._._._._.'._._._._._.).I.I.~.&X-X=X=X&X~.W.'.z.5X5X5X5X5X5X5X5X5X5X5X5X5X5X5X5X5X",
"5X5X5X5X5X5X5X5X5X5X5X5X5X5X5X5Xp.`._.).R.m.N.m.Y._.]._._._._._._.`._._._._._.]._.[.&X[.].].].].%X-X;X&XW.C 5X5X5X5X5X5X5X5X5X5X5X5X5X5X5X5X",
"5X5X5X5X5X5X5X5X5X5X5X5X5X5X5X5XH.].W.H.m.I.I.D.v.v.E._._._._.`._._.`._._._._.].[.].`.!.G.a.1.1.H._.].&X].-.5X5X5X5X5X5X5X5X5X5X5X5X5X5X5X5X",
"5X5X5X5X5X5X5X5X5X5X5X5X5X5X5XI !.].&X-X;X=X=X=X=X%X~.!.`._._._._._._._.`._._._.'.].I.<.7.(..X(.5.;.!.].].c.5X5X5X5X5X5X5X5X5X5X5X5X5X5X5X5X",
"5X5X5X5X5X5X5X5X5X5X5X5X5X5X5Xo.`._.].).l.1.1.1.j.E.%X]._._._._._._._._._._._._.].T...|.+X#X(.$.K.K.;.).].T.5X5X5X5X5X5X5X5X5X5X5X5X5X5X5X5X",
"5X5X5X5X5X5X5X5X5X5X5X5X5X5X5Xp.].].T.<.L.}.OX.XK.=.n.]._._._._.'._._._._._._._.`.;.(.@X+X+XE   N oX5.c.].W.C 5X5X5X5X5X5X5X5X5X5X5X5X5X5X5X",
"5X5X5X5X5X5X5X5X5X5X5X5X5X5X5Xl.`.)...(.+X+XoX+X#XXX=.I.]._._._.`._._._._._._._.).=.OX#XoX#XK.E J.#X X;.`._./ 5X5X5X5X5X5X5X5X5X5X5X5X5X5X5X",
"5X5X5X5X5X5X5X5X5X5X5X5X5X5X5Xc.].z.L.(.N 4.oXoXoX#X(.1._._._.`._._._._._._._._.E.2.oXoXoXoX+X#X@X@X}.1.`.).( 5X5X5X5X5X5X5X5X5X5X5X5X5X5X5X",
"5X5X5X5X5X5X5X5X5X5X5X5X5X5X5Xc.].1.}.6.  r OXoXoXoXOX=.)._._._.`.`._._._._._._.).+..X+XoXoXoXoXoX@XK.a.`._.` 5X5X5X5X5X5X5X5X5X5X5X5X5X5X5X",
"5X5X5X5X5X5X5X5X5X5X5X5X5X5X5Xc.].1.|.|.4.(.@XoX$XoXoX=.E._._._.].].`.]._._._._.].j.5.#XoXoXoXoX@XOX..I.`._./ 5X5X5X5X5X5X5X5X5X5X5X5X5X5X5X",
"5X5X5X5X5X5X5X5X5X5X5X5X5X5X5Xj.].h.J.#X#X#X+XoXoXoX|.+._._._.`.Y.h.Y.h.).`.`._.`.!.X.5.OX+XoXoX|.$.e.'._.).I 5X5X5X5X5X5X5X5X5X5X5X5X5X5X5X",
"5X5X5X5X5X5X5X5X5X5X5X5X5X5X5X,.].T.@.XX#X#XoXoX#XoX6.c.]._.`.W.w ; ` . ` `._._.`.`.U.X.| 6.5.%.| w.~.]._.W.M 5X5X5X5X5X5X5X5X5X5X5X5X5X5X5X",
"5X5X5X5X5X5X5X5X5X5X5X5X5X5X5X( ).`.s.@.(.OXoXoX X$.O.).`.`.`.j.  , ,.  , E.`._.`.`.`.U.t.w.w.r.b.~.'._.`.H.5X5X5X5X5X5X5X5X5X5X5X5X5X5X5X5X",
"5X5X5X5X5X5X5X5X5X5X5X5X5X5X5X5XY.`.W.b.! @.%...! w.~.'.`.`.`.).h.n.W.h.c._.`.].`.].].`.'.~.Q.Q.).N.R.].`.:.5X5X5X5X5X5X5X5X5X5X5X5X5X5X5X5X",
"5X5X5X5X5X5X5X5X5X5X5X5X5X5X5X5X-._.'.!.P.b.t.t.P.~.`._.`.].].].].`.).).E.I.H.H.H.H.T.).).).N.i.m.M.E.`.T.M 5X5X5X5X5X5X5X5X5X5X5X5X5X5X5X5X",
"5X5X5X5X5X5X5X5X5X5X5X5X5X5X5X5X5Xh.).].].'.!.).].]._.).E.H.l.1. .;.( T Y d.j.j.Y i ( 1.Y.).*.&.d.'.`.R./ 5X5X5X5X5X5X5X5X5X5X5X5X5X5X5X5X5X",
"5X5X5X5X5X5X5X5X5X5X5X5X5X5X5X5X5X5X' m.E.).`.`.R.z.,.:.,.o.p 3.R l.2.p  .`.].).Y T n.`.).`.M.d.I.R.f.V 5X5X5X5X5X5X5X5X5X5X5X5X5X5X5X5X5X5X",
"5X5X5X5X5X5X5X5X5X5X5X5X5X5X5X5X5X5X5Xh { d.m.R.H.G.E.).].l.R 3.p :.H. .z._._._.T.n.).`.).).R.m.g._ w 5X5X5X5X5X5X5X5X5X5X5X5X5X5X5X5X5X5X5X",
"5X5X5X5X5X5X5X5X5X5X5X5X5X5X5X5X5X5X5X5X5Xl ' &.g.Y.`.`._.H. .;.z.T.`.`.].`.`._.`.`.`._.Y.i.&.^ g 5X5X5X5X5X5X5X5X5X5X5X5X5X5X5X5X5X5X5X5X5X",
"5X5X5X5X5X5X5X5X5X5X5X5X5X5X5X5X5X5X5X5X5X5X5Xw l *.Y.`._._.).'.[.].`.`.`.`._._.`.`.`.).*.g 6 5X5X5X5X5X5X5X5X5X5X5X5X5X5X5X5X5X5X5X5X5X5X5X",
"5X5X5X5X5X5X5X5X5X5X5X5X5X5X5X5X5X5X5X5X5X5X5X5X5X_ i.R._._.'.'.`.`.`.`._._._._.`.`.).d.h 5X5X5X5X5X5X5X5X5X5X5X5X5X5X5X5X5X5X5X5X5X5X5X5X5X",
"5X5X5X5X5X5X5X5X5X5X5X5X5X5X5X5X5X5X5X5X5X5X5X5X5X6 ' >.M.).'.).`.).`.).)._._._.).M.>.V # 5X5X5X5X5X5X5X5X5X5X5X5X5X5X5X5X5X5X5X5X5X5X5X5X5X",
"5X5X5X5X5X5X5X5X5X5X5X5X5X5X5X5X5X5X5X5X5X5X5X5X< 9 8 ^ { i.i.i.>.>.>.>.>.>.>.g.*.' l 9 2 5X5X5X5X5X5X5X5X5X5X5X5X5X5X5X5X5X5X5X5X5X5X5X5X5X",
"5X5X5X5X5X5X5X5X5X5X5X5X5X5X5X5X5X5X5X5X5X5X5Xq G F r 8 8 8 7 8 8 8 7 7 7 8 8 8 9 9 9 m F q 5X5X5X5X5X5X5X5X5X5X5X5X5X5X5X5X5X5X5X5X5X5X5X5X",
"5X5X5X5X5X5X5X5X5X5X5X5X5X5X5X5X5X5X5X5X5X5X0 J P P K F S n n n n n n F S H H H G G J L J 1 5X5X5X5X5X5X5X5X5X5X5X5X5X5X5X5X5X5X5X5X5X5X5X5X",
"5X5X5X5X5X5X5X5X5X5X5X5X5X5X5X5X5X5X5X5X5X< G P P P P P P L K P P P P P P K u 9 y P P L K S y 5X5X5X5X5X5X5X5X5X5X5X5X5X5X5X5X5X5X5X5X5X5X5X",
"5X5X5X5X5X5X5X5X5X5X5X5X5X5X5X5X5X5X5X5X5Xu P P L L i L L L P P P P P K n v g q H H n L P P K 0 5X5X5X5X5X5X5X5X5X5X5X5X5X5X5X5X5X5X5X5X5X5X",
"5X5X5X5X5X5X5X5X5X5X5X5X5X5X5X5X5X5X5X5X0 J L P L J 0 J P P P P P P S v ^ V t L P H $ n P P G 1 5X5X5X5X5X5X5X5X5X5X5X5X5X5X5X5X5X5X5X5X5X5X",
"5X5X5X5X5X5X5X5X5X5X5X5X5X5X5X5X5X5X5X5Xb A y u u q , P L P P P J m C ' V y L L P J < , b n E s.5X5X5X5X5X5X5X5X5X5X5X5X5X5X5X5X5X5X5X5X5X5X",
"5X5X5X5X5X5X5X5X5X5X5X5X5X5X5X5X5X5X5X5Xn.).p.&.w @ , J P P P D v _ _ v H P P P P K 0 5X_ I.!.&X( 5X5X5X5X5X5X5X5X5X5X5X5X5X5X5X5X5X5X5X5X5X",
"5X5X5X5X5X5X5X5X5X5X5X5X5X5X5X5X5X5X5XV E.).`.k.g 5X2 G P P G v ' U t J P P P P P G 1 5X^ !.`.%XD.5X5X5X5X5X5X5X5X5X5X5X5X5X5X5X5X5X5X5X5X5X",
"5X5X5X5X5X5X5X5X5X5X5X5X5X5X5X5X5X5X5Xo.Y.g.).i.5X5X2 F P S r U M n L P P P L K n m 1 5XV E.].`.{.A 5X5X5X5X5X5X5X5X5X5X5X5X5X5X5X5X5X5X5X5X",
"5X5X5X5X5X5X5X5X5X5X5X5X5X5X5X5X5X5X5Xl.).m.).-.5X5X7 F K 1 h b S P P P P P G n n F G < g Y.].`.].a.5X5X5X5X5X5X5X5X5X5X5X5X5X5X5X5X5X5X5X5X",
"5X5X5X5X5X5X5X5X5X5X5X5X5X5X5X5X5X5X5XY.`.).).-.5X5X1 J J y D J P P P P P P P L K D y 5Xw M.`.`.'.T.5X5X5X5X5X5X5X5X5X5X5X5X5X5X5X5X5X5X5X5X",
"5X5X5X5X5X5X5X5X5X5X5X5X5X5X5X5X5X5X( _.].Y.i.&.5X5X7 1 n q q e q t t t t e r f 7 g d 5X5XI.`.`.'._.o.5X5X5X5X5X5X5X5X5X5X5X5X5X5X5X5X5X5X5X",
"5X5X5X5X5X5X5X5X5X5X5X5X5X5X5X5X5X5X:.].].E.d.n.5X5XB W W k [ c W x z z [ [ q.y.] q.8.5X5XY.`.`.'.].n.5X5X5X5X5X5X5X5X5X5X5X5X5X5X5X5X5X5X5X",
"5X5X5X5X5X5X5X5X5X5X5X5X5X5X5X5X5X5XH.].`.'._._.,.5X5X9.] 9.A.C.C.C.C.C.C.C.C.C.B.8.k 5X5XT.).m.m._.W.M 5X5X5X5X5X5X5X5X5X5X5X5X5X5X5X5X5X5X",
"5X5X5X5X5X5X5X5X5X5X5X5X5X5X5X5X5X( _.`.`.`._.`.).` , ] y.C.C.C.C.V.B.u.u.C.C.C.C.C.9.5X` ).W.g.f._.].:.5X5X5X5X5X5X5X5X5X5X5X5X5X5X5X5X5X5X",
"5X5X5X5X5X5X5X5X5X5X5X5X5X5X5X5X5Xl.].`.H.E.`.H.H.H.Z V.V.C.C.C.B.k d 5 d 9.C.C.C.C.B.k Y.].`.).).`.`.R.M 5X5X5X5X5X5X5X5X5X5X5X5X5X5X5X5X5X",
"5X5X5X5X5X5X5X5X5X5X5X5X5X5X5X5XC l.l.).:.E.M.w g I.} B.] B.C.C.x.5 5X5X5Xj u.C.C.C.B.{ ).H.E.].).W.`.`.p.5X5X5X5X5X5X5X5X5X5X5X5X5X5X5X5X5X",
"5X5X5X5X5X5X5X5X5X5X5X5X5X5X5X5X( ` o.E.;.).g., w Y.{ B.0.] B.C.u.d 5X5X5X- z C.A.A.B.O.n.6 &.`.l.c.T.n.h.5X5X5X5X5X5X5X5X5X5X5X5X5X5X5X5X5X",
"5X5X5X5X5X5X5X5X5X5X5X5X5X5X5X5XM V h.).o.).v.w 5XI ) V.A.0.9.C.y.5 5X5X5X5Xj 9.0.x.W p.c.; ' `.p.:.W.o.o.M 5X5X5X5X5X5X5X5X5X5X5X5X5X5X5X5X",
"5X5X5X5X5X5X5X5X5X5X5X5X5X5X5X5X5XM :.].C H.E.V 5X] B.C.C.C.C.C.q.> 5X5X5X5X> w U l ^ g V 5X-.].o.` _.-./ 7 5X5X5X5X5X5X5X5X5X5X5X5X5X5X5X5X",
"5X5X5X5X5X5X5X5X5X5X5X5X5X5X5X5X5X6 C c.M o.G.V k Z.C.C.C.C.C.Z.c > 5X5X5X5X5X6 k.k.I.` 5X5Xc.].` ` _.` g 5X5X5X5X5X5X5X5X5X5X5X5X5X5X5X5X5X",
"5X5X5X5X5X5X5X5X5X5X5X5X5X5X5X5X5X5X5X5X5X5X5Xf 0.A.C.C.C.C.A.9.j 5X5X5X5X5X5X5X` )._.T.5X5Xo.n.(  .G.v 5X5X5X5X5X5X5X5X5X5X5X5X5X5X5X5X5X5X",
"5X5X5X5X5X5X5X5X5X5X5X5X5X5X5X5X5X5X5X5X5X5XW V.C.A.C.C.C.A.u.x > 5X5X5X5X5X5X5X5Xc.'.'.p.5X5X5X5X5X5X5X5X5X5X5X5X5X5X5X5X5X5X5X5X5X5X5X5X5X",
"5X5X5X5X5X5X5X5X5X5X5X5X5X5X5X5X5X5X5X5X5X5X0.A.A.A.A.Z.B.9.W > 5X5X5X5X5X5X5X5X5X` !.).T.M 5X5X5X5X5X5X5X5X5X5X5X5X5X5X5X5X5X5X5X5X5X5X5X5X",
"5X5X5X5X5X5X5X5X5X5X5X5X5X5X5X5X5X5X5X5X5X] B.y.8.W k 5 - & = O . 5X5X5X5X5X5X5X5X* g 8 8 - . . 5X5X5X5X5X5X5X5X5X5X5X5X5X5X5X5X5X5X5X5X5X5X",
"5X5X5X5X5X5X5X5X5X5X5X5X5X5X5X5X5X5X5X5X5Xd 4 - = = % 4 f f f a : * X 5X5X5X. O % * * * * * % = X 5X5X5X5X5X5X5X5X5X5X5X5X5X5X5X5X5X5X5X5X5X",
"5X5X5X5X5X5X5X5X5X5X5X5X5X5X5X5X5X5X5X5Xo O = : 3 s a Q X.X.X.B a s * o 5X5X= * a k ! ! f s s 3 * 5X5X5X5X5X5X5X5X5X5X5X5X5X5X5X5X5X5X5X5X5X",
"5X5X5X5X5X5X5X5X5X5X5X5X5X5X5X5X5X5X5X5X. o : s s a a a f f f a 3 3 * . 5X. = : a B Q Q f a a 3 * . 5X5X5X5X5X5X5X5X5X5X5X5X5X5X5X5X5X5X5X5X",
"5X5X5X5X5X5X5X5X5X5X5X5X5X5X5X5X5X5X5X5X@ @ O O & * - * , * * * * & @ + 5X. X * 3 3 3 s 3 3 3 4 O . 5X5X5X5X5X5X5X5X5X5X5X5X5X5X5X5X5X5X5X5X",
"5X5X5X5X5X5X5X5X5X5X5X5X5X5X5X5X5X5X5X5X5X5X5X5Xo O O @ @ @ & @ @ @ + O 5Xo O @ & @ & & @ @ @ @ o + 5X5X5X5X5X5X5X5X5X5X5X5X5X5X5X5X5X5X5X5X",
"5X5X5X5X5X5X5X5X5X5X5X5X5X5X5X5X5X5X5X5X5X5X5X5X5X5X5X5X5X5X5X5X5X5X5X5X5X5Xo + + + + + + O 5X5X5X5X5X5X5X5X5X5X5X5X5X5X5X5X5X5X5X5X5X5X5X5X",
"5X5X5X5X5X5X5X5X5X5X5X5X5X5X5X5X5X5X5X5X5X5X5X5X5X5X5X5X5X5X5X5X5X5X5X5X5X5X5X5X5X5X5X5X5X5X5X5X5X5X5X5X5X5X5X5X5X5X5X5X5X5X5X5X5X5X5X5X5X5X",
"5X5X5X5X5X5X5X5X5X5X5X5X5X5X5X5X5X5X5X5X5X5X5X5X5X5X5X5X5X5X5X5X5X5X5X5X5X5X5X5X5X5X5X5X5X5X5X5X5X5X5X5X5X5X5X5X5X5X5X5X5X5X5X5X5X5X5X5X5X5X"
};
