/* XPM */
static char *cmVlZA__[] = {
/* columns rows colors chars-per-pixel */
"70 70 131 2 ",
"   c #150102",
".  c #1D0101",
"X  c #240101",
"o  c #2C0102",
"O  c #340102",
"+  c #3C0102",
"@  c #440102",
"#  c #4C0102",
"$  c #530103",
"%  c #500202",
"&  c #510303",
"*  c #520203",
"=  c #520101",
"-  c #540000",
";  c #550101",
":  c #570100",
">  c #560200",
",  c #570301",
"<  c #540002",
"1  c #570102",
"2  c #540302",
"3  c #560202",
"4  c #570303",
"5  c #500104",
"6  c #530105",
"7  c #520205",
"8  c #560104",
"9  c #570104",
"0  c #540204",
"q  c #540102",
"w  c #590100",
"e  c #5A0000",
"r  c #5B0000",
"t  c #5B0100",
"y  c #5B0101",
"u  c #5A0201",
"i  c #590002",
"p  c #5A0103",
"a  c #5B0103",
"s  c #5B0302",
"d  c #5C0001",
"f  c #5E0000",
"g  c #5F0101",
"h  c #5C0201",
"j  c #5D0201",
"k  c #5D0102",
"l  c #5F0102",
"z  c #5C0202",
"x  c #5E0302",
"c  c #5E0203",
"v  c #5D0104",
"b  c #5F0004",
"n  c #5C0101",
"m  c #600100",
"M  c #600001",
"N  c #630100",
"B  c #610200",
"V  c #610102",
"C  c #610103",
"Z  c #630102",
"A  c #600202",
"S  c #620203",
"D  c #650100",
"F  c #650101",
"G  c #670001",
"H  c #640201",
"J  c #650103",
"K  c #640203",
"L  c #660202",
"P  c #620204",
"I  c #630102",
"U  c #690100",
"Y  c #6B0101",
"T  c #680102",
"R  c #690102",
"E  c #6A0002",
"W  c #6B0103",
"Q  c #690203",
"!  c #6A0203",
"~  c #6D0101",
"^  c #6F0100",
"/  c #6E0001",
"(  c #6F0102",
")  c #6D0303",
"_  c #6E0202",
"`  c #6B0105",
"'  c #6B0102",
"]  c #710100",
"[  c #730101",
"{  c #700201",
"}  c #720201",
"|  c #710002",
" . c #720103",
".. c #700203",
"X. c #730302",
"o. c #740000",
"O. c #740001",
"+. c #760000",
"@. c #770000",
"#. c #770100",
"$. c #770101",
"%. c #740201",
"&. c #750102",
"*. c #770002",
"=. c #740202",
"-. c #760202",
";. c #720105",
":. c #770004",
">. c #730101",
",. c #790100",
"<. c #7B0100",
"1. c #7A0201",
"2. c #790102",
"3. c #790103",
"4. c #780202",
"5. c #7C0000",
"6. c #7D0100",
"7. c #7D0101",
"8. c #7E0100",
"9. c #7E0001",
"0. c #7C0201",
"q. c #7C0103",
"w. c #7D0103",
"e. c #7F0102",
"r. c #7D0302",
"t. c #7E0202",
"y. c #7B0304",
"u. c #7B0102",
"i. c #810100",
"p. c #810102",
"a. c #820101",
/* pixels */
"O o o X X X O O O O o % ; + o o o O @ @ o # B ..B x @ + @ X.% # T O.7.w.T ; ; # ; ; ; x # @ 7.O.# @ + @ @ # # o 4 v B ; @ o X O # o X @ @ # ",
"O X o X . o O O O O o % % + o o o O + # O # G ;.B i @ @ ; G , @ B <.7.w.~ x 4 # i i i i 4 # 7.O.% # + @ @ 5 # O % P G ; @ O o @ @ O X @ @ # ",
"O o X X . o O O o O O % ; O O o O + @ @ O 5 v ..x x @ @ i % 7 # 7 O.7.w.J 4 4 # i x i # # 7 O...# # + @ @ 7 # O ; x B ; @ o O @ o o X O # # ",
"O X . X X o O + X o O & 4 O X o o + @ @ O # x ;.B x @ # # J 4 % # ~ 7.7.G # 4 # ; x B @ # 4 <...@ @ + + # # # O % x P % @ O O + @ o o o @ # ",
"O X X X . o O O X O + % ; O o o o @ + # + # B ..P i # # # x P i # G 7.4.G 4 i @ i J ; @ x % <.O.@ # + @ 5 @ 4 + # x G % # O O O + + o o @ # ",
"O o o o X o + O o O O # 4 O + O o + + @ + @ B ..G x # % % T G ; , T 7.7.G i T # 4 B 4 @ i # :.O.@ 4 + + 7 @ # O # x J # @ O O + # + O o + # ",
"O o X o . o O O o O O # ; O + O X + @ @ O @ x ..B x @ % 7 ;.G % i ..<.:.B P ( # % B ; % ; # O...# 4 + + # # @ O # x P % @ O + + % O O O @ @ ",
"O X o O . o + O O + O # ; O @ O o @ + # O @ x ..B i % % x T P 4 B O.<.w.Q J Q @ % x 4 x 4 @ O...5 v + @ # @ # O # i J # @ + + @ @ + o + @ @ ",
"O X o O X o + O O O o # ; O @ + o @ O # O @ x ~ B i x 2 T T ; 4 B O.7.w.G B ..# ; B 4 i % # O...# P + + # + # O # x B # @ # + # @ O O + + # ",
"O X o O X o O O O O O % ; O @ + O + O O O @ x ( B i x i x v v v Q ~ 7.7.J B ..% i i # x # # ....# B @ @ @ O + o # x B # @ @ + @ + O O + + @ ",
"O o o O o O + o O + O % % O @ # @ @ o O + # v ( x G i ; x ; T B G ..7.w.G G ..G Q i # i x @ 3.~ # P 7 7 # O + + # i B # # O @ + + @ O + @ # ",
"O o O O o + + o O O o % ; + @ @ # @ o # + # P ( x T @ ; i ~ ;.B G ) 7.w.T ..O.T w.4 # B ; # ..( # J 4 v @ O # O % x G # # o @ @ # + + + + @ ",
"O o O O o + + O O o O % ; + @ @ @ + + ; + # B ..x T % # x O.T x G U r.w.~ <...G ~ ; ; x # # O.~ # x % % @ # % O % x B # % O + # % + O + @ @ ",
"O o O O o O + O X O O % 7 + @ @ + @ O o O # B ~ B T ; # ; <.J x G ) 7.w.) :...B x v @ + # 7 3.~ 7 x % @ # O O + % i B # % + O @ % + O + + @ ",
"O o O O o O @ O o o + % % + + @ + @ O o o % x ;.B G % + # ..T x L T 7.w.;.<.~ x x J # @ @ ; 3.T ; ; # # # + o + ; ; P # 5 O X + 2 + O + + @ ",
"O o O + o O + O + + + % % + + @ + # @ ; @ ; B ;.B G 7 # ; ..G i G ) p.y.~ <...G B G 7 G 4 4 <.~ % % # # # ; # + % x P # # O o + 2 + O + + @ ",
"O o O O O O @ O + O + ; % + + @ + @ # ; O i A ..B G 7 # s O.J x T ~ 7.3.) <...T B ..i T # B 7.~ % % # # # 4 # + ; 4 x # # + O @ 2 + O O + @ ",
"O o + O O O @ O O + @ % ; @ O @ + % O # @ x B ..x G i # 4 <.G P T T p.<.~ 7.O.~ B O.@ ; ; T 7.T % # % # 4 + # + x i G # # @ o @ # O O + + # ",
"O o O O O + @ + O O # ; % + O @ + % # # + x B ..B G L i P w.v x T ~ 7.3.~ 7...~ ~ O.x i i ~ <.Q # # # # 4 7 @ @ i i B # # @ + @ & o O + O # ",
"+ o O o o + @ + O O @ ; 4 O O + O # # + @ B B ..B L G x K w.4 % T ~ w.<...O.i x ;.<.i # @ X.3.~ @ # @ # 7 # O @ i ; B # # # + # 2 o o O + @ ",
"+ o O o o + @ @ O o @ ; 4 O o + o + # + @ B B ..B G G i T <.J i G ~ p.<.....x ; T O.( i + T <.~ @ @ @ + # # + @ i i x # # # + # & O O + + # ",
"O o o O o O @ @ O O # ; ; O O + O + + O + B x O.P G T i ~ O...~ T ~ p.7...B B i B Q O.% # T <.Q @ # @ + @ + O @ i i P # % # + # # @ + O + @ ",
"+ o o o o O @ @ O O # ; ; O O + O @ + O @ B B ..P G G x Q Q P B x B 7.7.) x A i v Q O.2 ; ~ 3.Q + @ @ + # + O @ ; i x # # # + # @ O O O O @ ",
"O o o X . O + # + + @ ; 4 o O o O + @ @ + x x O.B Q x i ( ~ ; ; x i p.w.) & @ @ ; T <.; v ( <.Q + + + @ @ # + @ ; ; B # % + + # @ o o o o @ ",
"+ o o O X o # # + + # % ; o O o O @ # @ + B x O.B T x x T ..B x B J a.7.( 4 P # ; O.O.i B ~ <.J + @ O @ # % + + i , B # # + + # @ + O O o @ ",
"O o o O o O # # + + # ; ; o + O O @ @ @ + x x ..G T x x T ;.J x T ( p.7.~ ; ~ # G p.<.; P ~ :.Q + # O @ @ 7 + + ; , x @ # + + # @ + O O + @ ",
"+ o X O X O # # + + # ; ; o + + O @ @ + @ x B ..B T x i Q ~ P B T ..p.7.Q i ~ @ G p...% B ( O.~ + 7 + @ @ @ + @ ; , x # # + + # @ + O + + @ ",
"O o o + X O # # + + @ ; ; O + + O @ @ @ # B B O.B ~ T i Q ( G G T ~ p.7.Q B O.@ x p.O.; B ( O.Q + 7 @ + @ # @ # 2 u B # # @ + # + O O + O @ ",
"+ o o + X O # # O + @ ; i O O @ O @ @ # 7 9 B ..G T B i T ~ i B T ..7.7.( G ~ @ ; p.O.i B T :.Q + % # + @ # @ # % ; B @ # + @ # + O O + O @ ",
"O o O + X O # # + @ # ; % O + # O + @ # # 9 B ..B ~ i ; ~ ..x G T ~ p.7.Q J ~ # B 7.O.i G ~ O.~ + 7 # + @ # @ @ % ; B # % + O # @ O O O O @ ",
"+ o O O X O % # + + # ; i O + # o @ 7 # # 4 v ..T T x i ~ T ~ P T ~ p.7.U G G # i 7.O.i B T O.T @ ; @ O # % # @ # ; x @ # + + # @ + o + O @ ",
"O o O O o O # # + @ # ; ; + + # o 7 7 # 7 6 P ;.G T x B T ~ ~ B T ..p.y.Q G T ; x <.~ i G ~ <.T @ % # O x % @ # # ; x @ # @ + @ @ @ o + O @ ",
"+ o O O O O # + + @ # ; 4 + + # O @ i # % % B ..G G x P P J i x T ..p.3.~ B G x G T i x G T O.~ @ % % O ; 7 # @ # i i # # @ + + O O O O O # ",
"+ o O O O O # + + @ # i 4 + + + O @ % i ; % G :.B T x G B Q G x ~ ..p.7.~ A Q B B ..x B i ~ <.T @ # + + # ; # @ # , x # # + + + @ o o + O @ ",
"O O O O O O # @ @ + # i 7 @ o X O # # x 2 % B O.G G % B v O.( 4 ~ O.p.7...J ( G G 7.x x % ~ <.~ # O o @ # % i @ # i B # # O + + & O X + + @ ",
"O O + O O + @ @ + + # i % @ + + + # % x % % G <.J J # B x ..Q 4 B ..a.7...B Q J G ..x i i T <.T @ @ @ @ % % ; + @ i B # @ o @ O # O o o O @ ",
"+ o + O O O @ # O @ # x ; @ @ 7 @ # % B ; % G ..G G x G x J O.; B T p.7.O.Q T G ; T ..7 G T 4.~ # # ; # # ; ; @ @ i B # @ + @ o @ @ X O o @ ",
"+ O + O O + @ # + @ # i i # + @ O ; i B ; % B <.G T x x ; x :.x J B p.w.O.U ~ T P Q ~ ; G T 4.) i # @ @ ; x 4 # # ; B # # + + o + + o o o @ ",
"O O O O + + @ @ + + # i 4 % # @ + 4 B B % 7 B <.T T % B x i G x G T a.p.O.x A T B J B ; B T 4.~ B 4 @ # ; B ; @ @ ; v # @ O @ O O O o O O @ ",
"+ O O o O + @ @ O + # x 4 4 + O @ i ~ P 7 @ B <.T T % G ; v Q # J <.a.r.O.G i G v Q B % ; T -.U G + @ @ x G ; @ @ % 4 # @ O @ o + o X O + @ ",
"+ O + O O + # O + + # i , ; O O @ B ~ B % @ x <.T G # B 7 G 4 # B <.p.w.....T G T T # x % T O.) x + @ # G P 4 + O % x # + O + O O X . O + @ ",
"+ O O + O @ # @ + @ # u , 2 + + # x ~ ; % + i O.T G ; x % P G # P ..a.w.O.....B ~ ..i B x U O.U x + # 4 J P # @ o ; B # + O + o + O . O O @ ",
"O O O + O @ # # + @ # u , % @ O # x T @ # O i <.T B ; B @ i ..@ B ~ a.3...~ G T T O...i G T O.T B @ @ ; G ; + @ o ; x @ + + O . + O . o O @ ",
"+ O + o O @ % # + @ # u 4 % # + ; x # # # + x <.T x x ; # ..~ # P T p.7.X.) 4 G ~ O.O.i B T O.T B # # 4 # # @ + o ; i # + + o o @ o . o o @ ",
"+ O + o O @ # # + @ # i ; % @ @ % 7 @ # O & P O.T x x ; # <.~ # x Q a.7.O.( 2 G ~ <...; B T O.T x % # i # @ + o @ % 4 # O + o O 2 O . o o @ ",
"+ O + O O @ % % + @ # x ; # # @ # x @ @ + i u O.G x x ; @ <.:.% P G a.w.~ ( A G T <...; x ~ O.T x # # # ; + + O # 7 v @ + @ X o # O X o O @ ",
"+ o + + O @ % % + + # i i % # @ # B % # @ x 4 ) T B x i # 3.;.i B Q a.w.( O.T A ( 4.X.% x T O.T B # # % x @ @ + # @ 4 # O + o o # + X o o @ ",
"+ O + O O @ % % + @ # x i % # @ # x % ; @ x % ~ T B i ; # p.<.x G Q p.w.( ~ G G ~ O.~ # x T O.T B % # # i # # + # + b 5 O O X O # + o o O @ ",
"+ o + O O @ # % + @ # x i % # @ # B % i % i @ :.T B 7 ; # w.w.P T T p.7.~ ~ P G T <...; x T ..L B % # # x # # @ @ + x # O O o O # + X o O @ ",
"+ O + + O @ % % + @ # i ; % # @ # x x x % % # O.T B # ; # ( w.x G ..a.7.~ ~ G x ..4.O.; i T ..T x % # # x ; # @ + + x # O o o o @ @ X O O + ",
"O O + + + @ % % + @ # i ; % % # # B i i # ; # O.T J @ + 7 J 7.x B ..a.7.~ ..B P ~ O...% i T ..G x ; # # B # # + + + x @ O X . o @ @ X o O + ",
"+ O + + O @ % # O + # x i % # # # x u i # ; 7 <.T Q 4 4 4 Q <.i B ..a.7.....G P ~ O.~ # ; T X.U x % # # B # % + @ @ x @ + O O O + + . o O + ",
"+ O + + + @ % # O O # x ; % % # # x i i # i % :.T G % ; x T O.; x ..a.<.~ ..T G O.~ T % + G O.U i ; # # B # # @ @ @ i @ + O o O + + X o O @ ",
"+ O + @ O @ 7 # + O # x i % ; # # x x i % % # <.T T x % B ..O.B # ~ p.<.~ ..~ B ) ..G ; + G O.T x i # # x # # @ + @ x @ @ O X + + + X . O + ",
"+ O + + + @ # + + O % x i % ; # # B J i # i # O.T T G ; ~ <.x % % 7.p.<...O.~ x ~ ..& @ @ T O.T x i # # B ; # + + @ P @ @ + o @ @ o . X O + ",
"+ O + + O @ # @ + + # x i # i # @ B T , # u # <.T T ~ T T ..G x J 7.7.3.~ ..T B P ~ ; ; ; T ..T i x @ # x i @ @ + + v @ @ @ + + + o X O O @ ",
"+ O @ + O + # + + + # x ; # x @ # B G ; % i # O.U T T G B ;.% ; x <.p.y.T O.T A i ~ + ; # B O.T i i @ % P 4 @ @ + @ x @ @ @ + O + . X o O + ",
"+ O + + O + # @ @ + @ i x % i # # B T x % i # :.T T ~ G x Q Q ..; ..p.3.~ O.~ x i T i B # 4 ..T x B @ ; x 4 # @ + + x + @ @ O O O o o X O @ ",
"+ O @ @ + + # + @ @ @ i x % x @ # G T x % i # <.T T T T x Q B ~ x Q p.3.~ ....B x v % i 7 7 ;.T x x @ % x x # @ + + i @ @ @ O O O o o X o + ",
"@ O + + O + @ + O O + i i % x @ # B T x % # @ <.~ T ~ G i J ; @ # J a.<.~ ..~ ; ; B @ O + # ~ T i x @ # i x @ @ O + i @ @ @ O O O .     o @ ",
"+ O + + O + @ O o + + x ; 7 i # # B ~ x % % # <.T ~ ~ T x B # @ # G p.3.T ~ ~ x ; 4 + + @ # O.T i x @ % x B @ @ O @ x @ @ @ O O o     . o + ",
"+ O @ @ O @ @ + @ @ + i i % i # % x ~ i % # # <.T T ~ G T B i T ; v p.<.~ ~ T x J # # v # @ ~ T i i # # i B # @ O @ i + @ + O + o X O . o + ",
"+ O + + O # @ O @ @ O x x % i % % i x ; 4 % # 7.T B ~ P ..T # ..i x a.w.B G T i ~ 4 @ x % @ ..T x i # # ; ; @ @ O + i @ + + O @ o X O . o + ",
"+ O + + O + @ + @ @ + i x , i # % i # # ; x ; <.T x J x T x % T x i p.w.x x ~ x G % + i % @ T T i x # # % @ + @ + @ v @ O + O + o . o . o + ",
"+ O + + o + @ + + @ O i x ; ; @ # i x # # x i w.T B B 4 7 i % ~ i i r.<.A x T # % % # i % @ ~ T i i @ # # # + + @ # 4 @ O + o o X X o . X + ",
"+ O O + o + @ + @ @ + i i % ; @ # i U # # x B 3.~ P G ; # v ; T i i a.7.B x Q @ # i # i # + T T i ; @ # , i + + @ # x @ O + X X o X o   X @ ",
"@ O O O o O @ + + @ + ; x % i @ # ; L % # % P <.~ B P % # x i B i i 7.<.x v B + # ; @ % # + T G i i + @ # 4 + + + # 4 @ O + X X o X o . X + ",
"+ O O + o O @ @ + @ + i i % i @ @ % x x @ i i w.~ B v % # x i i i x p.3.x ; P + # ; # # # @ ~ Q i ; + @ @ , @ O + # 4 @ O O . X o X . . X + ",
"+ O O + o O @ + O @ + u i % 4 + @ # % i # ; # <.~ i i % # x ; # x x 7.<.x ; B + # 4 @ + # @ Q Q i # O @ @ # @ O + + s @ o O X X o . . . o + ",
"@ O O O X + @ @ o @ + i x ; ; O @ # # # # # 7 w.~ i 7 # # x i # i P p.O.B # % @ # 4 # O 5 @ ( Q i 7 + @ @ @ + O O @ v @ o X . X o . . X o + "
};
