/* XPM */
static char *result[] = {
/* columns rows colors chars-per-pixel */
"70 70 242 2 ",
"   c #020102",
".  c #0B0B0B",
"X  c #080607",
"o  c #150C08",
"O  c #0E0E12",
"+  c #191717",
"@  c #28140A",
"#  c #281A17",
"$  c #381815",
"%  c #35150D",
"&  c #372513",
"*  c #322514",
"=  c #1F2124",
"-  c #292827",
";  c #333334",
":  c #3B3B3B",
">  c #3B3B37",
",  c #372C27",
"<  c #431D13",
"1  c #582A0E",
"2  c #46291A",
"3  c #5A2C10",
"4  c #563619",
"5  c #4D310F",
"6  c #753A0C",
"7  c #662D10",
"8  c #663615",
"9  c #753811",
"0  c #70300D",
"q  c #4E382C",
"w  c #703833",
"e  c #5C1128",
"r  c #7A4717",
"t  c #795716",
"y  c #6A4C13",
"u  c #5B4F3E",
"i  c #514435",
"p  c #684527",
"a  c #744D2B",
"s  c #774B33",
"d  c #775435",
"f  c #6A5334",
"g  c #7C6139",
"h  c #183E48",
"j  c #423943",
"k  c #772C48",
"l  c #3E6072",
"z  c #184251",
"x  c #4B4B4B",
"c  c #484745",
"v  c #594D47",
"b  c #53514B",
"n  c #4F5153",
"m  c #585859",
"M  c #4D4E52",
"N  c #765947",
"B  c #6F5457",
"V  c #726658",
"C  c #5F5F63",
"Z  c #586470",
"A  c #64676A",
"S  c #796C65",
"D  c #7A7366",
"F  c #6C6E71",
"G  c #787879",
"H  c #6D7073",
"J  c #8A320F",
"K  c #A8360B",
"L  c #89123A",
"P  c #892334",
"I  c #9C3031",
"U  c #FD3D03",
"Y  c #EB3A07",
"T  c #86450D",
"R  c #99490C",
"E  c #96530E",
"W  c #894916",
"Q  c #944914",
"!  c #9A5812",
"~  c #835016",
"^  c #A7460E",
"/  c #B64A0C",
"(  c #A75B0B",
")  c #B8590C",
"_  c #AF5413",
"`  c #956912",
"'  c #926E12",
"]  c #BC770D",
"[  c #A77812",
"{  c #B66A0D",
"}  c #835635",
"|  c #914F2C",
" . c #936531",
".. c #BC6F36",
"X. c #B86E25",
"o. c #D84807",
"O. c #C8590A",
"+. c #DB5608",
"@. c #C44909",
"#. c #EA5807",
"$. c #FB5C03",
"%. c #F85A07",
"&. c #F14807",
"*. c #C9670A",
"=. c #D76B09",
"-. c #C8750C",
";. c #D5770B",
":. c #CA6C13",
">. c #CB7414",
",. c #D56F16",
"<. c #E96607",
"1. c #FD6303",
"2. c #FD6C04",
"3. c #F76808",
"4. c #EB7608",
"5. c #FC7304",
"6. c #FC7C03",
"7. c #F47908",
"8. c #E57611",
"9. c #9E1444",
"0. c #AE1449",
"q. c #B71654",
"w. c #B8144F",
"e. c #AD2F63",
"r. c #C31352",
"t. c #917149",
"y. c #A26344",
"u. c #837B72",
"i. c #897264",
"p. c #8D5942",
"a. c #C97E58",
"s. c #AF8514",
"d. c #DB9E0E",
"f. c #CD8F0F",
"g. c #FC8203",
"h. c #FD8A04",
"j. c #FA850B",
"k. c #FD9404",
"l. c #FC9E05",
"z. c #F59608",
"x. c #F88716",
"c. c #E58B0E",
"v. c #D3A10D",
"b. c #FDA305",
"n. c #F8A907",
"m. c #FCB805",
"M. c #EAAC0C",
"N. c #F98529",
"B. c #F68A39",
"V. c #F79A38",
"C. c #DC8B3E",
"Z. c #FDC507",
"A. c #AE8457",
"S. c #878279",
"D. c #9F937A",
"F. c #BE966C",
"G. c #B6A379",
"H. c #F38F4E",
"J. c #F4A548",
"K. c #F6BA5D",
"L. c #C98F63",
"P. c #E99466",
"I. c #CDA67C",
"U. c #F5A476",
"Y. c #F4B26F",
"T. c #D68155",
"R. c #EFC378",
"E. c #1B6086",
"W. c #226EA2",
"Q. c #2B74A7",
"!. c #2D7B99",
"~. c #7C7F82",
"^. c #647589",
"/. c #7E8187",
"(. c #5D8597",
"). c #0999D4",
"_. c #0A88C0",
"`. c #2BA7CF",
"'. c #12A5D8",
"]. c #878689",
"[. c #8D9198",
"{. c #969799",
"}. c #928E92",
"|. c #A19B9A",
" X c #9BAD98",
".X c #A7A897",
"XX c #B2B09A",
"oX c #9A9DA9",
"OX c #8B8FA1",
"+X c #9EA4A9",
"@X c #9CA6B4",
"#X c #A4A4A5",
"$X c #BCBCBC",
"%X c #B3B5B8",
"&X c #AFAFB5",
"*X c #D7AE89",
"=X c #F5B794",
"-X c #F0B58E",
";X c #EDC98C",
":X c #EDD59A",
">X c #EEC98F",
",X c #DAD7BA",
"<X c #CDCCAF",
"1X c #EBD2A9",
"2X c #E6E2B9",
"3X c #EAE3BC",
"4X c #E6E5B7",
"5X c #F0E7AB",
"6X c #CEC48F",
"7X c #B7BCC4",
"8X c #BABFD3",
"9X c #BFC1C3",
"0X c #BCC2D5",
"qX c #C6C6C8",
"wX c #C4C8D9",
"eX c #DADADB",
"rX c #D4D5D7",
"tX c #D3D6D2",
"yX c #ECDFC2",
"uX c #EAE5C2",
"iX c #ECE8C6",
"pX c #F8E7CB",
"aX c #EAF4C4",
"sX c #E8F3C4",
"dX c #F9EAD5",
"fX c #EEE9DF",
"gX c #CFD2E0",
"hX c #D2D6E3",
"jX c #D5D9E5",
"kX c #DBDDE3",
"lX c #CBCFE0",
"zX c #DCE0EA",
"xX c #E4E5E6",
"cX c #EBECEC",
"vX c #E3E5EE",
"bX c #FEF5E8",
"nX c #EAECF2",
"mX c #F3F3F4",
"MX c #FEFEFE",
"NX c #FCFBF7",
"BX c #EFF0F0",
"VX c None",
/* pixels */
"VXVXVXVXVXVXVXVXVXVXVXVXVXVXVXVXVXVXVXVXVXVXVXVXVXVXVXVXVXVXVXVXVXVXVXVXVXVXVXVXVXVXVXVXVXVXVXVXVXVXVXVXVXVXVXVXVXVXVXVXVXVXVXVXVXVXVXVXVXVX",
"VXVXVXVXVXVXVXVXVXVXVXVXVXVXVXVXVXVXVXVXVXVXVXVXVXVXVXVXVXVXVXVXVXVXVXVXVXVXVXVXVXVXVXVXVXVXVXVXVXVXVXVXVXVXVXVXVXVXVXVXVXVXVXVXVXVXVXVXVXVX",
"VXVXVXVXVXVXVXVXVXVXVXVXVXVXVXVXVXVXVXVXVXVXVXVXVXVXVXVXVXVXVXVXVXVXVXVXVXVXVXVXVXVXVXVXVXVXVXVXVXVXVXVXVXVXVXVXVXVXVXVXVXVXVXVXVXVXVXVXVXVX",
"VXVXVXVXVXVXVXVXVXVXVXVXVXVXVXVXVXVXVXVXVXVXVXVXVXVXVXVXVXVXVXVXVXVXVXVXVXVXVXVXVXVXVXVXVXVXVXVXVXVXVXVXVXVXVXVXVXVXVXVXVXVXVXVXVXVXVXVXVXVX",
"VXVXVXVXVXVXVXVXVXVXVXVXVXVXVXVXVXVXVXVXVXVXVXVXVXVXVXVXVXVXVXVXVXVXVXVXVXVXVXVXVXVXVXVXVXVXVXVXVXVXVXVXVXVXVXVXVXVXVXVXVXVXVXVXVXVXVXVXVXVX",
"VXVXVXVXVXVXVXVXVXVXVXVXVXVXVXVXVXVXVXVXVXVXVXVXVXVXVXVXVXVXVXVXVXVXVXVXVXVXVXVXVXVXVXVXVXVXVXVXVXVXVXVXVXVXVXVXVXVXVXVXVXVXVXVXVXVXVXVXVXVX",
"VXVXVXVXVXVXVXVXVXVXVXVXVXVXVXVXVXVXVXVXVXVXVXVXVXVXVXVXVXVXVXVXVXVXVXVXVXVXVXVXVX4 ! >.=.) VXVXVXVXVXVXVXVXVXVXVXVXVXVXVXVXVXVXVXVXVXVXVXVX",
"VXVXVXVXVXVXVXVXVXVXVXVX# W ] -.f.] [ t 5 VXVXVXVXVXVXVXVXVXVXVXVXVXVXVXVXVXVXVXr f.b.h.g.O.VXVXVXVXVXVXVXVXVXVXVXVXVXVXVXVXVXVXVXVXVXVXVXVX",
"VXVXVXVXVXVXVXVXVXVXVXVXVX! n.n.m.m.m.m.v.' 5 VXVXVXVXVXVXVXVXVXVXVXVX* O VXVXy v.b.h.6.3.^ VXVXVXVXVXVXVXVXVXVXVXVXVXVXVXVXVXVXVXVXVXVXVXVX",
"VXVXVXVXVXVXVXVXVXVXVXVXVX2 -.h.h.k.l.b.m.Z.v.t VXVXVXVXVXVXVXVXVX5 s.' a & + s.n.h.6.5.3.Q VXVXVXVXVXVXVXVXVXVXVXVXVXVXVXVXVXVXVXVXVXVXVXVX",
"VXVXVXVXVXVXVXVXVXVXVXVXVXVX6 5.g.h.>.:.k.l.m.M.' VXVXVXVXVXVXVX& f.Z.M.] * y M.z.h.6.5.#.J VXVXVXVXVXVXVXVXVXVXVXVXVXVXVXVXVXVXVXVXVXVXVXVX",
"VXVXVXVXVXVXVXVXVXVXVXVXVXVXVX) 6.h.:.,.k.l.l.b.m.[ VXVXVXVXVXVX' z.l.f.3 VXv.b.] 6 8 <.<.VXVXVXVXVXVXVXVXVXVXVXVXVXVXVXVXVXVXVXVXVXVXVXVXVX",
"VXVXVXVXVXVXVXVXVXVXVXVXVXVXVX0 <.6.g.>.( ( -.z.n.m.[ VXVXVX3 r ;.h.j.T * 4 d.-.4 } ..3.+.VXVXVXVXVXVXVXVXVXVXVXVXVXVXVXVXVXVXVXVXVXVXVXVXVX",
"VXVXVXVXVXVXVXVXVXVXVXVXVXVXVXVX) 5.6.E 2 2 < 7 ] l.n.' y ) <.7.g.6.6.=.f.' y 4 a.U.H.1.O.VXVXVXVXVXVXVXVXVXVXVXVXVXVXVXVXVXVXVXVXVXVXVXVXVX",
"VXVXVXVXVXVXVXVXVXVXVXVXVXVXVXVX8 <.2.7.H.P.a.y.q E z.M.4.1.$.6.6.6.6.6.h.k.-.y a.=XH.1.@.VXVXVXVXVXVXVXVXVXVXVXVXVXVXVXVXVXVXVXVXVXVXVXVXVX",
"VXVXVXVXVXVXVXVXVXVXVXVXVXVXVXVXVX/ 3.7.x.U.U.U.P.d ! l.h.1.3.6.g.g.6.6.g.6.h.;.s *XB.$.^ VXVXVXVXVXVXVXVXVXVXVXVXVXVXVXVXVXVXVXVXVXVXVXVXVX",
"VXVXVXVXVXVXVXVXVXVXVXVXVXVXVXVXVX0 #.2.5.U.=X=XU.P. .-.6.1.5.7.=.*.*.<.6.6.6.6.) s ,.o.9 VXVXVXVXVXVXVXVXVXVXVXVXVXVXVXVXVXVXVXVXVXVXVXVXVX",
"VXVXVXVXVXVXVXVXVXVXVXVXVXVXVXVXVXVX/ %.3.B.-X=X=X-XP...3.1.) a S S.u.N E <.6.=.W v i.S v VXVXVXVXVXVXVXVXVXVXVXVXVXVXVXVXVXVXVXVXVXVXVXVXVX",
"VXVXVXVXVXVXVXVXVXVXVXVXVXVXVXVXVXVX3 +.3.3.H.=X=X=XU.B.3.Q G rXNXMXMXcX#Xa ( V 7XmXMXMXcX#Xx VXVXVXVXVXVXVXVXVXVXVXVXVXVXVXVXVXVXVXVXVXVXVX",
"VXVXVXVXVXVXVXVXVXVXVXVXVXVXVXVXVXVXVX7 O.%.3.7.H.V.N.g.^ S.NXMXMXMXMXMXMX$Xc eXMXMXMXMXMXMXqXc VXVXVXVXVXVXVXVXVXVXVXVXVXVXVXVXVXVXVXVXVXVX",
"VXVXVXVXVXVXVXVXVXVXVXVXVXVXVXVXVXVXVXVX< 0 K / _ O.#.+.N cXMXMXMXNXdXpXbXMX[.&XMXMXbX-X*XdXMX|.VXVXVXVXVXVXVXVXVXVXVXVXVXVXVXVXVXVXVXVXVXVX",
"VXVXVXVXVXVXVXVXVXVXVXVXVXVXVXVXVXVXVXVXVX8 ^ Q / #.$.^ {.MXMXMXNX1Xt.s F.bXtXG MXNXI.i.N A.bXeXc VXVXVXVXVXVXVXVXVXVXVXVXVXVXVXVXVXVXVXVXVX",
"VXVXVXVXVXVXVXVXVXVXVXVXVXVXVXVXVXVXVXVX$ :.6.2.1.1.%.J qXMXMXMXbX} G C & 1XcXG nXbX .[.G 4 pXcXn VXVXVXVXVXVXVXVXVXVXVXVXVXVXVXVXVXVXVXVXVX",
"VXVXVXVXVXVXVXVXVXVXVXVXVXVXVXVXVXVXVXVX3 4.5.1.$.$.%.W rXMXMXMXpXw O O @ *XBXG cXbX .. o p pXeXc VXVXVXVXVXVXVXVXVXVXVXVXVXVXVXVXVXVXVXVXVX",
"VXVXVXVXVXVXVXVXVXVXVXVXVXVXVXVXVXVXVXVX6 6.2.$.1.1.5.W qXMXMXMXbXA.o o a yXxXG mXMX>Xp p I.NX&XVXVXVXVXVXVXVXVXVXVXVXVXVXVXVXVXVXVXVXVXVXVX",
"VXVXVXVXVXVXVXVXVXVXVXVXVXVXVXVXVXVXVXVX( g.2.#.@.K W 4 }.MXMXMXMXdXI.F.1XMX$X}.MXMXNXdXpXNXxXC VXVXVXVXVXVXVXVXVXVXVXVXVXVXVXVXVXVXVXVXVXVX",
"VXVXVXVXVXVXVXVXVXVXVXVXVXVXVXVXVXVXVXVX) 7.^ s F }.oXOXm eXMXMXMXMXMXMXMXmXm ].wXqXqX7XqX$XC VXVXVXVXVXVXVXVXVXVXVXVXVXVXVXVXVXVXVXVXVXVXVX",
"VXVXVXVXVXVXVXVXVXVXVXVXVXVXVXVXVXVXVXVXR } {.lXhXlXwXwX[.H xXMXMXMXMXMXmXS.9 T 9 r T r r 4 3 8 o         X . VXVXVXVXVXVXVXVXVXVXVXVXVXVXVX",
"VXVXVXVXVXVXVXVXVXVXVXVXVXVXVXVXVXVXVXVXC qXvXkXgXgXwX8X@Xq v %XxXcXxX$XS ! 7.6.6.g.g.6.j._ ;.T X = > > ; X   VXVXVXVXVXVXVXVXVXVXVXVXVXVXVX",
"VXVXVXVXVXVXVXVXVXVXVXVXVXVXVXVXVXVXVXc {.7XjXhXjXjX8XOXq Q :.Q a N d Q O.3.g.6.6.6.6.6.6.4.7.<   + ; ; - .   VXVXVXVXVXVXVXVXVXVXVXVXVXVXVX",
"VXVXVXVXVXVXVXVXVXVXVXVXVXVXVXVXVXVXVXx {.hXjXwXjXlXOXq O.6.6.5.5.4.7.6.6.5.5.5.6.5.6.6.6.6.6.6             . VXVXVXVXVXVXVXVXVXVXVXVXVXVXVX",
"VXVXVXVXVXVXVXVXVXVXVXVXVXVXVXVXVXVX: $XBXvXjXwXjX7Xn X.7.7.j.6.6.g.g.h.6.6.7.6.6.6.g.h.g.6.h.4.T % @ @ o . VXVXVXVXVXVXVXVXVXVXVXVXVXVXVXVX",
"VXVXVXVXVXVXVXVXVXVXVXVXVXVXVXVXVXVX/.mXnXvXjXwXwX/.D >X>.T 7.6.6.6.g.g.h.h.6.6.6.6.6.g.g.h.g.6.6.4.H.t.# VXVXVXVXVXVXVXVXVXVXVXVXVXVXVXVXVX",
"VXVXVXVXVXVXVXVXVXVXVXVXVXVXVXVXVXVX%XmXkXvXhX0X0XF .XpXG.o 6 4.g.6.6.h.6.g.6.6.6.g.g.6.6.g.g.x.J.>XD.- VXVXVXVXVXVXVXVXVXVXVXVXVXVXVXVXVXVX",
"VXVXVXVXVXVXVXVXVXVXVXVXVXVXVXVXVX: qX#X].vXlX0XwXA .XiX,Xq   6 4.g.6.6.g.6.6.6.6.6.6.6.j.V.Y.1XuXS.+ VXVXVXVXVXVXVXVXVXVXVXVXVXVXVXVXVXVXVX",
"VXVXVXVXVXVXVXVXVXVXVXVXVXVXVXVXVX; ~.VXm kXwXoXzXOXG iXuX<XS.D L.V.x.x.j.j.j.j.x.V.J.Y.:X3XiX<XC + VXVXVXVXVXVXVXVXVXVXVXVXVXVXVXVXVXVXVXVX",
"VXVXVXVXVXVXVXVXVXVXVXVXVXVXVXVXVXVXVXVX; 7X&X; ].oXx <X3X3X3XuX3X3X1X:X>X;X;X>X:X5X2X2XuX2X{.: VXVXVXVXVXVXVXVXVXVXVXVXVXVXVXVXVXVXVXVXVXVX",
"VXVXVXVXVXVXVXVXVXVXVXVXVXVXVXVXVXVXVXVXVXC ~.VXVX; + c XX,X3X2X2X4X2X2X2X4X2X2X2X3XuX,X.Xv + VXVXVXVXVXVXVXVXVXVXVXVXVXVXVXVXVXVXVXVXVXVXVX",
"VXVXVXVXVXVXVXVXVXVXVXVXVXVXVXVXVXVXVXVXVXVX- VXVXVXVXVX- x u..X<X2X2XuX3X3XuXyX<XXXS.c + VXVXVXVXVXVXVXVXVXVXVXVXVXVXVXVXVXVXVXVXVXVXVXVXVX",
"VXVXVXVXVXVXVXVXVXVXVXVXVXVXVXVXVXVXVXVXVXVXVXVXVXVXVXVXVX@ @ < w f V D D D C x > = VXVXVXVXVXVXVXVXVXVXVXVXVXVXVXVXVXVXVXVXVXVXVXVXVXVXVXVX",
"VXVXVXVXVXVXVXVXVXVXVXVXVXVXVXVXVXVXVXVXVXVXVXVXVXVXVXVX3 -.^ J Y o.O.) X.X.t o VXVXVXVXVXVXVXVXVXVXVXVXVXVXVXVXVXVXVXVXVXVXVXVXVXVXVXVXVXVX",
"VXVXVXVXVXVXVXVXVXVXVXVXVXVXVXVXVXVXVXVXVXVXVXVXVXVXVX1 =.5.K K &.2.h.K.5X5XR.p VXVXVXVXVXVXVXVXVXVXVXVXVXVXVXVXVXVXVXVXVXVXVXVXVXVXVXVXVXVX",
"VXVXVXVXVXVXVXVXVXVXVXVXVXVXVXVXVXVXVXVXVXVXVXVXVXVX@ _ g.@.0 Y %.6.J.5XaXsX4XG.+ VXVXVXVXVXVXVXVXVXVXVXVXVXVXVXVXVXVXVXVXVXVXVXVXVXVXVXVXVX",
"VXVXVXVXVXVXVXVXVXVXVXVXVXVXVXVXVXVXVXVXVXVXVXVXVXVX8 :.%.J K U 1.h.;XaXaXaXaX<X, VXVXVXVXVXVXVXVXVXVXVXVXVXVXVXVXVXVXVXVXVXVXVXVXVXVXVXVXVX",
"VXVXVXVXVXVXVXVXVXVXVXVXVXVXVXVXVXVXVXVXVXVXVXVXVXVX) 6.Y 1 #.U 5.x.:X4X4XaXaXsXf r x ~.VXVXVXVXVXVXVXVXVXVXVXVXVXVXVXVXVXVXVXVXVXVXVXVXVXVX",
"VXVXVXVXVXVXVXVXVXVXVXVXVXVXVXVXVXVXVXVXVXVXVXVXVX& { O.K < o.U 3.j.5X4XaXaXaX4Xd Q oX+XF VXVXVXVXVXVXVXVXVXVXVXVXVXVXVXVXVXVXVXVXVXVXVXVXVX",
"VXVXVXVXVXVXVXVXVXVXVXVXVXVXVXVXVXVXVXVXm G VXVXVX- C S q % o.&.5.6.Y.4XaXaXsX6X8 2 n F {.G VXVXVXVXVXVXVXVXVXVXVXVXVXVXVXVXVXVXVXVXVXVXVXVX",
"VXVXVXVXVXVXVXVXVXVXVXVXVXVXVXVXVXVXVXVXA eX$X#X}.m gXvX7Xq | I  . .A. X XXX XD # = C [.{.M VXVXVXVXVXVXVXVXVXVXVXVXVXVXVXVXVXVXVXVXVXVXVXVX",
"VXVXVXVXVXVXVXVXVXVXVXVXVXVXVXVXVXVXVXVXVX#XNXNXeXH +X+X/.l _.).).).'.`.Z - (.`.z VXH 7XA VXVXVXVXVXVXVXVXVXVXVXVXVXVXVXVXVXVXVXVXVXVXVXVXVX",
"VXVXVXVXVXVXVXVXVXVXVXVXVXVXVXVXVXVXVXVXVXVX{.eXkXG /.[.{.@XE.W.W.W.Q.Q.Z j ^.!.h VXVXVXVXVXVXVXVXVXVXVXVXVXVXVXVXVXVXVXVXVXVXVXVXVXVXVXVXVX",
"VXVXVXVXVXVXVXVXVXVXVXVXVXVXVXVXVXVXVXVXVXVXVXx A A +X%X~.OX- 9.q.q.q.q.e.e.k # VXVXVXVXVXVXVXVXVXVXVXVXVXVXVXVXVXVXVXVXVXVXVXVXVXVXVXVXVXVX",
"VXVXVXVXVXVXVXVXVXVXVXVXVXVXVXVXVXVXVXVXVXVXVXVXVXVXA F n VXVX$ 0.q.0.9.9.9.e VXVXVXVXVXVXVXVXVXVXVXVXVXVXVXVXVXVXVXVXVXVXVXVXVXVXVXVXVXVXVX",
"VXVXVXVXVXVXVXVXVXVXVXVXVXVXVXVXVXVXVXVXVXVXVXVXVXVXVXVXVXVXVX$ q.r.k {.k r.9.VXVXVXVXVXVXVXVXVXVXVXVXVXVXVXVXVXVXVXVXVXVXVXVXVXVXVXVXVXVXVX",
"VXVXVXVXVXVXVXVXVXVXVXVXVXVXVXVXVXVXVXVXVXVXVXVXVXVXVXVXVXVXVX< P P B #Xk I P VXVXVXVXVXVXVXVXVXVXVXVXVXVXVXVXVXVXVXVXVXVXVXVXVXVXVXVXVXVXVX",
"VXVXVXVXVXVXVXVXVXVXVXVXVXVXVXVXVXVXVXVXVXVXVXVXVXVXVXVXVXVX- p d g f , f d t.u VXVXVXVXVXVXVXVXVXVXVXVXVXVXVXVXVXVXVXVXVXVXVXVXVXVXVXVXVXVX",
"VXVXVXVXVXVXVXVXVXVXVXVXVXVXVXVXVXVXVXVXVXVXVXVXVXVXVXVXVXVX; x b b  .X.t c v  .s.t VXVXVXVXVXVXVXVXVXVXVXVXVXVXVXVXVXVXVXVXVXVXVXVXVXVXVXVX",
"VXVXVXVXVXVXVXVXVXVXVXVXVXVXVXVXVXVXVXVXVXVXVXVXVXVXVXVXVXVX> x x u ,.h.d.i d c.l.f.VXVXVXVXVXVXVXVXVXVXVXVXVXVXVXVXVXVXVXVXVXVXVXVXVXVXVXVX",
"VXVXVXVXVXVXVXVXVXVXVXVXVXVXVXVXVXVXVXVXVXVXVXVXVXVXVXVXVXVXVX> > q r r r , q r ~ t VXVXVXVXVXVXVXVXVXVXVXVXVXVXVXVXVXVXVXVXVXVXVXVXVXVXVXVX",
"VXVXVXVXVXVXVXVXVXVXVXVXVXVXVXVXVXVXVXVXVXVXVXVXVXVXVXVXVXVXVXVXVXVXVXVXVXVXVXVXVXVXVXVXVXVXVXVXVXVXVXVXVXVXVXVXVXVXVXVXVXVXVXVXVXVXVXVXVXVX",
"VXVXVXVXVXVXVXVXVXVXVXVXVXVXVXVXVXVXVXVXVXVXVXVXVXVXVXVXVXVXVXVXVXVXVXVXVXVXVXVXVXVXVXVXVXVXVXVXVXVXVXVXVXVXVXVXVXVXVXVXVXVXVXVXVXVXVXVXVXVX",
"VXVXVXVXVXVXVXVXVXVXVXVXVXVXVXVXVXVXVXVXVXVXVXVXVXVXVXVXVXVXVXVXVXVXVXVXVXVXVXVXVXVXVXVXVXVXVXVXVXVXVXVXVXVXVXVXVXVXVXVXVXVXVXVXVXVXVXVXVXVX",
"VXVXVXVXVXVXVXVXVXVXVXVXVXVXVXVXVXVXVXVXVXVXVXVXVXVXVXVXVXVXVXVXVXVXVXVXVXVXVXVXVXVXVXVXVXVXVXVXVXVXVXVXVXVXVXVXVXVXVXVXVXVXVXVXVXVXVXVXVXVX",
"VXVXVXVXVXVXVXVXVXVXVXVXVXVXVXVXVXVXVXVXVXVXVXVXVXVXVXVXVXVXVXVXVXVXVXVXVXVXVXVXVXVXVXVXVXVXVXVXVXVXVXVXVXVXVXVXVXVXVXVXVXVXVXVXVXVXVXVXVXVX",
"VXVXVXVXVXVXVXVXVXVXVXVXVXVXVXVXVXVXVXVXVXVXVXVXVXVXVXVXVXVXVXVXVXVXVXVXVXVXVXVXVXVXVXVXVXVXVXVXVXVXVXVXVXVXVXVXVXVXVXVXVXVXVXVXVXVXVXVXVXVX",
"VXVXVXVXVXVXVXVXVXVXVXVXVXVXVXVXVXVXVXVXVXVXVXVXVXVXVXVXVXVXVXVXVXVXVXVXVXVXVXVXVXVXVXVXVXVXVXVXVXVXVXVXVXVXVXVXVXVXVXVXVXVXVXVXVXVXVXVXVXVX",
"VXVXVXVXVXVXVXVXVXVXVXVXVXVXVXVXVXVXVXVXVXVXVXVXVXVXVXVXVXVXVXVXVXVXVXVXVXVXVXVXVXVXVXVXVXVXVXVXVXVXVXVXVXVXVXVXVXVXVXVXVXVXVXVXVXVXVXVXVXVX",
"VXVXVXVXVXVXVXVXVXVXVXVXVXVXVXVXVXVXVXVXVXVXVXVXVXVXVXVXVXVXVXVXVXVXVXVXVXVXVXVXVXVXVXVXVXVXVXVXVXVXVXVXVXVXVXVXVXVXVXVXVXVXVXVXVXVXVXVXVXVX",
"VXVXVXVXVXVXVXVXVXVXVXVXVXVXVXVXVXVXVXVXVXVXVXVXVXVXVXVXVXVXVXVXVXVXVXVXVXVXVXVXVXVXVXVXVXVXVXVXVXVXVXVXVXVXVXVXVXVXVXVXVXVXVXVXVXVXVXVXVXVX",
"VXVXVXVXVXVXVXVXVXVXVXVXVXVXVXVXVXVXVXVXVXVXVXVXVXVXVXVXVXVXVXVXVXVXVXVXVXVXVXVXVXVXVXVXVXVXVXVXVXVXVXVXVXVXVXVXVXVXVXVXVXVXVXVXVXVXVXVXVXVX",
"VXVXVXVXVXVXVXVXVXVXVXVXVXVXVXVXVXVXVXVXVXVXVXVXVXVXVXVXVXVXVXVXVXVXVXVXVXVXVXVXVXVXVXVXVXVXVXVXVXVXVXVXVXVXVXVXVXVXVXVXVXVXVXVXVXVXVXVXVXVX"
};
