/* XPM */
static char *f8b40237cbe94fa1ac1c16807f2ab702aN2RjeNJ6AjV3lzs[] = {
/* columns rows colors chars-per-pixel */
"70 70 140 2 ",
"   c #070000",
".  c #080000",
"X  c #090000",
"o  c #090100",
"O  c #090001",
"+  c #0A0000",
"@  c #0B0000",
"#  c #0B0100",
"$  c #0A0001",
"%  c #0B0001",
"&  c #090003",
"*  c #0B0102",
"=  c #0A0003",
"-  c #0C0000",
";  c #0D0000",
":  c #0E0000",
">  c #0F0000",
",  c #0F0100",
"<  c #0F0101",
"1  c #0E0002",
"2  c #100000",
"3  c #110000",
"4  c #100001",
"5  c #110101",
"6  c #120000",
"7  c #130000",
"8  c #120001",
"9  c #130001",
"0  c #130101",
"q  c #110200",
"w  c #130002",
"e  c #140000",
"r  c #150000",
"t  c #150100",
"y  c #140001",
"u  c #150001",
"i  c #160100",
"p  c #170200",
"a  c #160201",
"s  c #170201",
"d  c #140002",
"f  c #150102",
"g  c #160002",
"h  c #170103",
"j  c #160203",
"k  c #180000",
"l  c #190000",
"z  c #190100",
"x  c #190101",
"c  c #1A0000",
"v  c #1B0100",
"b  c #1A0001",
"n  c #1A0200",
"m  c #190003",
"M  c #1B0102",
"N  c #180302",
"B  c #1A0202",
"V  c #1C0000",
"C  c #1D0000",
"Z  c #1D0100",
"A  c #1C0001",
"S  c #1E0000",
"D  c #1F0000",
"F  c #1F0100",
"G  c #1F0101",
"H  c #1E0200",
"J  c #1F0200",
"K  c #1E0201",
"L  c #1D0002",
"P  c #1E0002",
"I  c #1E0103",
"U  c #1F0103",
"Y  c #200100",
"T  c #200001",
"R  c #220000",
"E  c #230000",
"W  c #230100",
"Q  c #220001",
"!  c #210200",
"~  c #210102",
"^  c #200003",
"/  c #230102",
"(  c #220003",
")  c #240000",
"_  c #250101",
"`  c #260000",
"'  c #270100",
"]  c #270001",
"[  c #250200",
"{  c #240002",
"}  c #250103",
"|  c #280000",
" . c #290000",
".. c #280001",
"X. c #290001",
"o. c #290101",
"O. c #2A0001",
"+. c #2A0002",
"@. c #2B0102",
"#. c #2B0103",
"$. c #2C0000",
"%. c #2D0000",
"&. c #2C0001",
"*. c #2E0000",
"=. c #2F0101",
"-. c #2E0201",
";. c #2C0002",
":. c #2D0102",
">. c #2D0003",
",. c #2E0002",
"<. c #2F0103",
"1. c #2E0203",
"2. c #300000",
"3. c #310100",
"4. c #310101",
"5. c #320000",
"6. c #330100",
"7. c #320001",
"8. c #320200",
"9. c #310003",
"0. c #330102",
"q. c #300202",
"w. c #320202",
"e. c #340100",
"r. c #370101",
"t. c #340201",
"y. c #350201",
"u. c #340002",
"i. c #350103",
"p. c #360002",
"a. c #370003",
"s. c #360302",
"d. c #390100",
"f. c #380001",
"g. c #3A0001",
"h. c #390102",
"j. c #3B0002",
"k. c #380202",
"l. c #3C0201",
"z. c #3C0002",
/* pixels */
"> > > > 2 d 2 d d d d d a N n K K K ^ ) ) ) o.o.:.2.2.2.8.u.t.k.l.l.l.l.a.l.a.a.2.2.9.:.o.o.o.o.} ) ) ^ K n n n n h d d d d d d 2 2 > > > % ",
"> > > > 2 d d 2 d d d d d d n K K K ^ ^ ) [ ) o.o.:.2.u.u.t.u.k.l.l.l.u.u.u.a.2.2.2.:.o.o.o.) ) } ^ ^ ^ K K n n n d d d d d d d 2 > > > > > ",
"% > > > 2 2 d 2 d d a 2 d n n n K K ^ ^ ) ) o.o.o.:.2.2.2.u.u.u.u.l.u.l.u.u.8.q.:.2.o.o.o.) ) ) ) ^ ^ ^ K K n n n n d d d q 2 q > > > > > > ",
"> > > % 2 2 2 d d 2 2 a d d d n n K K K ^ ) ) o.) o.:.:.2.2.u.u.t.t.2.2.2.2.:.:.:.:.o.o.) ) ) ^ ) ^ K K K K m n n d 2 d a d a 2 > > > % % > ",
"> > % > > > d 2 d d d d d d n n n n K K ^ ^ ) o.o.o.:.:.:.:.2.2.u.9.2.:.2.2.:.:.:.o.o.) ) ) ^ ^ ^ ^ K K K K n n n d d d 2 a 2 a > > > > % > ",
"> % > > 2 > 2 2 d 2 d d d d d n d n K K ^ ^ ^ ) o.o.o.:.:.:.:.2.:.9.2.:.-.:.:.o.o.o.o.o.) ) ^ ^ ^ ^ K n K n n n d N d d a 2 d 2 > > > > > > ",
"> > > > > > > > q 2 d d d d d n n n n K ^ ^ ^ ) ^ o.o.o.o.o.:.:.1.1.:.:.o.o.o.o.o.o.o.[ ) ) ^ ^ K K K K n n n n d d d d d 2 2 d > > % > % % ",
"> % > % > > > > 2 d 2 d d d d 2 n d n n K K ^ ) ) ) ) o.o.o.:.:.#.o.o.o.o.o.o.o.o.) ) ^ ) ^ ^ K K K K K n d d d d d d d 2 d 2 2 > > > > > % ",
"> > > > > > > > d 2 2 d d d d d n n n K K K ^ ^ ) ) o.) o.o.o.) ) ) o.o.) o.o.o.o.) ) ^ K ^ ^ K K K L L n K d d d d d d 2 d 2 2 > > > > % % ",
"> % > % > % > > 2 d d 2 d d d d d d d n n n K ^ ^ ^ ) o.) ) o.o.o.o.) o.o.o.o.) ) ) ^ K K K ^ K n K n m n N d n d d d d d 2 d 2 % > > % > % ",
"% > > > > > > > d d 2 d d d d d d n n n K K K K ^ ^ ^ ) ) ) ) o.) ) o.) ) ) o.) ) ) ^ ^ K K L n n n n n n n d d d d a 2 d 2 2 2 > > > % % > ",
"> > > % > > % > 2 d d 2 d d d d d d n n n n n n J J ^ ) ) ) ) ) ) ) ) ) ) ) ) ) ! ^ ^ K K K m m n n n n n d n N d d 2 a 2 2 2 2 % > > > % % ",
"% % % > > % > > 2 d 2 d d a 2 d d d d d n n n n J K ^ ^ ) ^ [ ^ ) ) ) ! ) [ ) ! ) ! K K K n m n n d h d d d d d d d a 2 2 2 2 2 > > > > % % ",
"% % % % > > > > d 2 d 2 a 2 d d d d d n m n d n K K ^ ^ ! ) ) ! ) ^ [ ) [ ^ [ ) ^ K K K n n n n d n d d d d d d d d d q 2 2 > > % > % > % > ",
"% > % > > % > > 2 d 2 d 2 a d d d d d d d n n n K K ^ ^ ^ ^ ) ^ ^ ^ ) ^ ^ ^ ^ ^ ^ K n n n n n n n n d d d d d 2 d d 2 q 2 * > > > > > > > % ",
"% % % % > > > > d 2 2 2 a d d d d d d 2 n d n n K K K K ^ ^ ^ ^ ^ ^ ^ ^ ^ ^ ^ ^ ! K n n d n m d d d d d d a d d d d a q 2 * > > % > > > % % ",
"> > % % > > % > 2 2 d 2 a 2 d d d d d d a d n n n n K K K K ^ ^ K K K K K K K K K K n n n n n N d d d d d d d d 2 d 2 q 2 > > > > > > > % % ",
"> > > % > > > > > 2 2 d 2 a 2 d d d d d d N n n m n n K n K ^ K ^ K K K K K K K K n n n d n n d d d d d d d d d 2 a a 2 2 > % > % > % > % % ",
"% % % % > > % > > > > > a d d d d d d d d d h h n h n n K n L ^ K ^ K K K K K L n n n d n d N N d d d d d d d h 2 a 2 2 > > > > > > > % > % ",
"% % > % > % > > > > > > 2 2 2 d d d d d d d d d n m n n K K L ^ K K K K K n K K n d a n N d d d d d d d d d d 2 d 2 d 2 > > % > % > > > % % ",
"% > % > % > % > > % > > d 2 d 2 d d d d d d d d d N n n L L K K K n K K n n n d n n n d a j d d d d d d d 2 2 a d 2 2 2 > % > > > > > > % % ",
"% % % % > > > > > > > > 2 d 2 d d d d d d d d d n d n n n K n K K K K K n n d n d d d N a a d d d d d d a d a 2 2 d 2 2 > > % > % > % > % > ",
"% > % % > > % > > % > > d 2 d 2 d 2 d d d d d d d n h n m n n n n n n n n n n N d d d d d d d d d d d d 2 a 2 a d 2 2 2 > > > > > > > > > % ",
"% % % % > % > > > > > > 2 d 2 d a d d d d d d d d d n n h n n n n d n n d n N d d d d d d d d d d d d d a 2 a 2 2 d 2 > > > % > % > > > % % ",
"% % % > % > > > > > > > > > 2 2 2 a 2 d 2 j h 2 d d n n N N d N n n n n d d n d d d d d d d d d d d d d d a d a 2 2 > > > > > > > > > > % % ",
"> % % % % % > % > % > % % > > 2 2 d d d a 2 2 h d d d d d d d d d d d d d d d d d d d d d d d d d 2 d d 2 2 2 2 2 2 > > > % > % % > % > % % ",
"% > % > % > % % % > > > > > > > 2 d 2 d 2 a d d d d d d d d d d d d d d d d d d d d a 2 d d a 2 2 d 2 d 2 d 2 d 2 2 > > % > > > > > > % > % ",
"% % % % % % > % > > > % % > > > d 2 d 2 a 2 d d a 2 d d d d d d d d d d d d d d d d 2 a d d 2 a d 2 d 2 d 2 d 2 2 2 > > > > > % % > > > % % ",
"% % % > % % % > > > % > > > > > 2 d d 2 d a 2 a 2 d d d d d d d d d d d d d d d d d d d j 2 a 2 2 d 2 d d 2 d 2 > > % > > > > > > > > > % % ",
"% % % % > % % % > % > > > % > > d 2 2 2 a 2 a 2 d d d d d d d d d d d d d d d d d d d d 2 a 2 a d 2 d 2 2 2 2 2 > > > > > % > % % > % > % > ",
"% % % > % > % > % > > > > > > > 2 2 2 2 2 a 2 a d a 2 d d d d d d d d d d d d d a 2 d d a 2 q 2 2 2 2 d 2 2 > > > > % > % % > > > > > > > % ",
"% % % > % % % % % % > % > % > % 2 > > > d 2 d 2 2 d d d d d d 2 2 2 d d 2 2 d 2 d 2 d d 2 d 2 2 2 2 d 2 2 > > > > > > > > % > % % > > > % % ",
"  % % % % % % % % % % % % > % > > > > > 2 2 d 2 d 2 d d d d d d d 2 d d 2 2 d 2 d 2 d d d 2 2 d 2 2 2 2 2 2 > > > > > > > > > % % % > % > % ",
"% % > % % > % > > % > % > > > > > % > > 2 2 2 d 2 2 d d d d d d 2 d d d 2 d 2 d 2 d d 2 2 2 d 2 2 2 2 2 > > > > > > % > % > > > % > % % % % ",
"% % # % > % % % % % % > > > % > % > > > 2 2 d 2 d 2 d 2 2 a 2 a d 2 d 2 d 2 d 2 d 2 d 2 d 2 d d > > > > > % > > > > > > > % > % % % % % > % ",
"%   % % % % % > > % % % > % > > > > > 2 2 2 2 2 2 d 2 2 a 2 a 2 2 d 2 d 2 d 2 d 2 d 2 2 2 d 2 2 % > > > > > % > % > % > > > > > % > % > % % ",
"% % % % # # % % % > % % % > > > % > % > > * 2 2 2 2 2 d d a 2 a 2 d 2 d 2 2 d 2 > > > > 2 > > > > % > % % % > % % % > % % % > % % % > % % % ",
"%   %   # % % % % % > % % % > % > > > > % > 2 2 2 2 d 2 2 d d 2 d 2 d 2 2 2 2 d > > > > > > > > > % > > % > > > % % > > % % % % % > % % % > ",
"  % % %   % % % % % % % % > % % > > % > > > % > > > 2 2 d 2 d 2 2 d 2 d 0 2 2 2 > > > % > > > % > % > % > % > % > > > > % % > % % % % % > % ",
"% % %   % % > % > % > % % % > % > % > > % > > > > > 2 2 2 d 2 2 d 2 2 2 0 2 2 2 > > > > > > > > > > > > > > > > > > > > % > % % % > % > % % ",
"% %   % % % % % % > % > % % % > % > > > % > % > % > > > > q q 2 2 2 d 2 > % > % > % > > > % > % > % > > > % > % > % > > % % > % % % > % > % ",
"%   % % %   > % % % % % > % % % > > > > > > > > % % > % > > 2 2 2 2 d 2 > > > > > > % > > > > > > > > > > > > > > > % > % % % % % > % % % % ",
"% % % % % % % %   % > % % > % > % % % % > > % > % > % > > * 2 2 q * 2 2 > % > > > > > > > % > > % % % % % % > > % % > > % % > % % % % % > % ",
"%   % % % % % % % % % % % % % % % % > % > % > > > > > > > > 2 2 > > 2 > % % > > % > % > > > % > % % % > % % > > % % > > % > % % % > % > % % ",
"%   %   % % %   %   %   % > % > % > % > % > % > % > > > % > % > > > > > % % % % > > > % > > > % > % > % % % > % % % % % > % > % % % > % % % ",
"% % % % % % % % % % % % % % % % % % % % > > > > > > > % > > > > > > % > % % > % % > > > % > > > % % % % % > % % % > % > % % % % % % % % % % ",
"%   % % %   %   %   % % % % % % % > % % > > % > % > % > > > % > > > > > > % % % % % > % > % > % % % > % % % % % > % % % % % > % # # # # # % ",
"% %   % % % % % % %   %   % > % % % % % > % > > > > > > > % > > % > % > % % > % % > > > > > > > % > % % % > % > % % % > % > % % # # # # % % ",
"% % %   % % % % %   % % % % % % % % % % % > > > % > % > % > > > % > > > > % > % % > % > % > > > > % > > % % > % # # % % > % > % % % % % % % ",
"  % % %   %   % % %   %   % % % % % > % % % > > > > > > > > > % > > > > > > % % > > > > > > > > % % > > % > % % # # % % % % % % > % > % % % ",
"%   %   % % %   % % % % % % % % # # % % % % % % % > % % % > % % % % % % % % > % % % % > % % % % % % % % % % % % # # % % # # % > % % % > % % ",
"% % % %   % % %   %   % % % % % # # %   % % % % % % % % % % > % > % % > % % % % > % % % > % % > % > % % % > % > # # % % # # % % > % % % % % ",
"%   % % %   % % % % % %   %   % % % o o % % % % % > % % # # % % #   % % > % % % % > % % # # % % # # % % # # % % # # % % # # % % % % % % %   ",
"% %   % % %   % %   %   % % % % %   o o % % % > % % % % % % % % % % % > % % % > % % % % % % % % % % % % % % % % % %     % % % % % % % % % % ",
"% % % % % % % %   % % % % %   % % % o o %   % % % % % %   %   % % % % % % % % > % > % % %   > % %   %   %   %   %   % % % % % % % % %   %   ",
"  %   %   %   % % % %   %   % % %   % o % % % > > % % % % % % %   % % > % % % % % % % % % % % % % % % % % % % % % % %   %   % % %   % % % % ",
"  %   %   %   %   %   % % & % % % * % % %   % % > % % % % % % % % % %   %   % % % % % % % % %   %   %   % % % % %   % % % % %   % % % % %   ",
"% % % % % % % % % % % % %   % % % %   % % % % > % %   %     % %   % % % % %   %   %   &   % % % % % % %   %   % % %   %   % % %   %   % % % ",
"o o   % % %   %   %   % % &   % % % % % % % % % % % %   % %   & %   %   % > & & % % % % %   %   %   % % & % %   o o % % % % %   % % %   % % ",
"o o % % %   % % % % & % %   % % % &   %   % % % % > % %   % % % % % % % % & & & % &   % % % % % % %   % % % % % o o   %   % % &   % % %   % ",
"o o   %   % % %   %   % % % % % %   %   % % > % % % % %   % % % % % % % % % % % & % %   %   %   % % %   %   %   o o o o % % %   % % % % %   ",
"o o %   % % %   & % % % %   &   % % % %   % % % % >   % % % %   %   % %   &   %   % % % % % % %   % % % % % % % o o o #   & % %   %   % % % ",
"%     % % % % % % % % % % % % % %   % % % % %   % % % %   % &       %     % %     %   %   % o o %   %   %                 % &   % % %   %   ",
"        &   %   % % &   %   % % % %   %   % % %   %   %     % %         &   % & %   %   %   o o % % % %     %   %   %       & &   % % % % % ",
"    %   %   % % % % %   % % & % %   % % %   %   & % %           %       %     %     %   %   % % % % o o   %         %   %   % % %   % % % % ",
"  %     % %   % % % % %   %   % % %   % % % % % % % % %   %   %       %     %     % %           %   o #     %     %     %       % %   %   % ",
"        % % % % % %   % & % % % %   & % & % %   % % % % %       %   %   %   %             %       %   &                   %     % % % % %   ",
"  %   %   %   % % % & % % %   % % % % %   % % %   %   &       %                 %   %       %   %   %   %   %     %   % %   %     %   % % % ",
"%   %       %   %   % o % % % % %   %   % % % % % % % %         %       %   %         %       %           %         %   o o % % %   %   % % ",
"          %   % % % o o   %   % % & % %   % % &   %   %   %   %       %         %       %       %   %       %           o #   # % % % %   % "
};
