/* XPM */
static char *_eca5ee2525044b0bd7ff49fc0dcb931BlxKGTxXGELZbiBh[] = {
/* columns rows colors chars-per-pixel */
"70 70 74 1 ",
"  c #070606",
". c #0D0D0C",
"X c #100F0E",
"o c #11100F",
"O c #0F0F10",
"+ c #151414",
"@ c #181716",
"# c #191817",
"$ c #1C1C1B",
"% c #1D1D1C",
"& c #1E1E1E",
"* c gray12",
"= c #201E1C",
"- c #201F1D",
"; c #22201D",
": c #20201F",
"> c #23211F",
", c #202020",
"< c #212020",
"1 c #232120",
"2 c #232322",
"3 c #222323",
"4 c #242322",
"5 c #262423",
"6 c gray14",
"7 c #242425",
"8 c #272524",
"9 c gray15",
"0 c #292725",
"q c #282726",
"w c #282727",
"e c #282827",
"r c #2A2827",
"t c #2B2927",
"y c #272728",
"u c #282929",
"i c #2B2928",
"p c #2A2A2A",
"a c #2B2B2A",
"s c #2C2B2A",
"d c #2C2B2B",
"f c #2D2C2B",
"g c #2B2B2C",
"h c #2B2C2C",
"j c #2C2C2C",
"k c #2C2D2D",
"l c #2F2F2E",
"z c #2F2F2F",
"x c #302F2E",
"c c #30302F",
"v c #2F3030",
"b c gray19",
"n c #333230",
"m c #313232",
"M c #333332",
"N c #333333",
"B c #353535",
"V c #363634",
"C c #353636",
"Z c #373636",
"A c #383737",
"S c #383837",
"D c #373738",
"F c #3A3A3A",
"G c #3B3B3B",
"H c #3C3C3C",
"J c #3D3C3C",
"K c #3E3E3E",
"L c #403F3F",
"P c #40403F",
"I c gray25",
"U c #424141",
"Y c #424242",
"T c #4B4B4B",
/* pixels */
"6&&&:6++#:6pp,+#@+&+46,,,,,#@@qLLCbbCq@gC6@&+@+&@&vvp*6pbCjpp::xCx>@CC",
"p6,,&>@...#6,#&&$=&.&6,,,,,#X&ADbbg6sN66Cb@#@$&*+&upg,pjbbj,&:sjCCFttc",
"jp6,&$=6:#++&rsp6&+.@,,,33334+6xbbq66gs=jC6@O$,3#+*3pqjbCjj6=,66pbCF=s",
"bbj6@&pp64=@xFf4&@X..#,6yy,,=+6gCbgy6,,=6jb6+O=63+O,r6&&&&&#@,,,pbxCt<",
"jjjp$4p,,,,#:pfp,&++OO@&yp:#+O6gvgpp6$@@,pjp&.O@&<&+@#4,6,&&@#$:pjbbr$",
",jj6$:6&&,,=$&pjy&@,jb3@#g,=+XX$pgpg4@.+,66&++@+*DFFFDChjbSDq+$6bxbj6@",
"@6bh:&4:&:&$:&6s,#&6pjbF&#gCsqq$@y3<@O.@,6,#+<j&@yCKCjrppprpr+@6CFCf4=",
"&@pjr$6p:&@@&:@$##&,66pFK#Cbqqgq##@@$@.@,66&@pg6@@6g6,,6p,#&rr:&4Cf,>r",
"r:+@:@:8&+..#&@#,6=,66pbIjpj66j6,+=jy,=++++#pbp66&##@##,6$@txbbSp46$qs",
"666::=oo++@+OO+&<*,666pjCg36,pjpg@pg,&6p@X4CCmgy6sFA&@@#=$6hgjjbCr#@&,",
"+#4pf6$#$&+$=$+.+X+@##*36@@&6jbxs$yp&&3gC=6Fjg33pjFb6Cc=++<qppppjx&+++",
"X#:4:$#$&@+$,&@&#=<46*++@&#+&6jp6&bj6&6jb6&b3$$,pCFx6FFb&o@$#&:,,&&&#o",
"+##$6,&@&@#@#&@&&6bCbv,O@,,#@&,&@,xjp=yjbj+++o+@#6bj>KFbcpqpfcC=#,,,,6",
"q@$CKFf:&&&&&:,,6gCbvhp#+,y6+o&pp$6p6,3gjp++#,yg4@#6:GSxpjbCCMx&#$&,,6",
"pr:MFFvp&,p,,yphbbbjy<*,@,yg==CCb6$$*&,66=4&#&=yjp6#:KFj,4q666=+O+#,,6",
"rfrMCDbv,&6uuvvvjbCg*&&3$@##$qKFFbp=@&&,$6p&@#$3pfFC6bbp,,&,6&+..+@&6p",
"arcGccccxr&&&&,ppjj6,#,g=,AC>sKKIAj4++@#+36&&#,yqjbIA@pq=#@@@&:o.O#yjb",
"c6SSp6rppfs=xcx=#=qpy,6bqjFJM=jAKFb6+$,=O*6#@&,yppjbr&#&@#6rfMp:@o&gCF",
"6:Vf6:::6pp$qxCCj=+&6:64sKFCC6:jMMx4@bFC#+&&&:6yqp6jbjppupqjFb4&&$@gsj",
"$+$6&:,#&:&&#4fhjs6@#&rbLIFbcf:fjyp6,bbbj#+&,&,&=:&jp,,yy6,bDjr,,&@@#,",
"Cq@o@fcp$+@,##jjsppj@$bAKKFgh2#,,@@=6bxjvg6@O++#,6#@=###$:&4CSf6=#@qbG",
":&=$o6ppg6@##@gCMjsb,$sbFFvp6$.++@=&qppsu36&@&&,pfc,+@$6cAAq:cv,&&y,66",
"$@$,+$qfvh,@+@3bbbg6=@pCKFb2&+@#&6q$$&=,,=&@<+++$#:,=:=,rfCKC:&+,p,##*",
":$$,qq4cDvp&+@,yp<@+@@4CCbv6#+&,$#=6,:&&#&&@=+O+$@@#4&@@#:rcPF@o33,&,,",
"6,&6jjp6KCs&,@#,@@=4&6&4<,,,@&:&#@@,bbbjq==@8$+$&@@&,,&&::pjbKgX<&=333",
"6,,6,:6&MCr:6=++&4,@gm6&+@@@&6,$+++$ppmbxCF:s=&$&+#=6,,,666pbCf+&,3yyg",
"66y,&&&+6r&fh6#@s&@6p,$&#66&,,,&@+,px46bcMC:p6&&&$+4pgq6jppjbx6X@,66pp",
"sgy,&#@:#@rSj6f4&$pju=++@$6=:,,:$$qvbAp&:66$,&@#&6,@pjpppjjjjs,.+=:6p3",
"p,=&@O#jh:&pspjb=pgcjp##+#2&+#@@+4bbbbMg&@:6$+#@@$:#@ss66jbjp,$++o++@&",
"+++++@,6pCp&@#=s:qbbbb,@++:&:,6jr6bbbjss,,6r4&+#4xMC4$=*=&,=,&fjg6,6$+",
"+##@,,,,,jFFg:&&@4bxjp6:&$$,jSFFr&gbCby6$+#+@##4pfccMqo@pgbs@:Ccbbsp4@",
"@#@&&&,,&,pbSFKC@,s<,&&@$#pb6Mcs&@,sbj6,,@++@#:6:6sxsC=bIITI,6FFJCg4&@",
",#@&6#,,$&6bbbMp@@#+:ss&@sCCg6C6@X#6js,##@+O@#=:4ppp6j,cKKGC@#yFLGc6:=",
"y,#&,6,p,&,,ps64c:orcxCA=pCbx&jp@Xo:6,,&=:++#&&4q6:$,666Cbp4rp@&JPA6=$",
"y,,,66,p,$@@&,&pxj,6rfjCq=py6@,6@=+o++$$jj:&,,6,gy$@$,4@6:=bFbj:6Gc>&q",
"pagfc6&,$@@+@@6p66r#6rjjp++++@,@#qsjqGK>jbr6gy,,jy,$&:,@o@sq,,6b6,$6pp",
"hjvhgg&6&:#+$qjp,4p&rpp6&@5>++@O&,4=VLLx#fp,##+hg66,,#@@@p6&&&,jb+6Sbj",
"66hj6,$ppu66$qs66pc46p,,@qsq@+@$&=,&xxst4@$#p6+&yp,:@#sj$jy6,,66bs&bbp",
"=&@,,&#j33ug:,664rf@&,:@@p4:&,p3&$+$q=>YIb4qMj6O,6,@,spj$qbjpr666r+p6#",
"KFb,@#O+#&+3,,j6,t6@+.+&6,&&&&3,@+X&$@tLFCrsj6,&+##jCxpj4$mbhg,=cLq@&C",
"bbCvy&+6AGp=#$s,6r&ac:@@#&@&,#@#,#+:$@pbb,,b6,,,X@bbCbppr@bNj6qDGFb+rA",
"pp3&&<,yCCKM=@#::&&Dv6&+.++<bb3+,$#r,#xvy&jf&@@&#pCbbgppf$=s46Agghg&6b",
"=,,&@&66CMC664o@##6Cp:$#..O#hCDp+o*6:@6,&pp,$+##=Abgppp6r=+++pp,,6##qp",
"&##+X&s8pbp#qq+o+#hu:&&#. .O,pCv,Kp+@#pr@r::$@$#=CCjg66,,4ooqq&$:&@@,,",
"&@++@$,p&s4#b,#ajj6&,=#+..O+@@@&CIK,KLIK&#6,,&,#4FGAby6,:=o,x6,,&$++$$",
"+++.&&,p&fq$j,&bDjp&&&#..O@&pA4,LIf$ACvp$+,,,uf&qKKGNgp6&@+,jp66,$@O##",
"&&#+#:6j$6j=p&&cb6:&&&+. O@,qb4$bp+op6,#.#:@,,p66LKFMbbj,#+=y6qpq,$+#:",
"6,:&#$,6:#&@&##:6bg&&#+ ..@,6s$o&&p@X++..#+yKIj:$CCcbCCb,$+,qypbv6,&O$",
"6y&&@#&MIb4&@:+@AILF6@,&+..,r4f:6Cvu&.. .+#CFHH,+pppjCCb6&+,26phfh6&+.",
"O&&+.++jFbgy#4@sKCxp=,3&#+.$:sKFChy,#,&.$6jjvCbhX&64uacp,&+&,666pfp:=@",
",#...X,bf6&,&6,fNp6pjg,##,@O=CACs,##&y,O,gjjhju2.+&@##&$@@@+,,,,&66:cj",
"j6++&rjh,#$,&r46qqCGbs,$,6p+6SCbp&,,,:$O@yjgp66,++@@$&::$#&@#:&@+@=cbj",
"6#+66gu*#@@&+$&q6,vjh6&#,yj@,CCc6&=&@$@O@&,6,,6&@&jSbbp,,@#$+O+.+6fbbf",
"6#$u6,,#+#@&@+#fp#3,3,#&&,,@&,,,SS=@+@@O+&,,#,,,,&rbDjp6,+OO#,6:#6fjjp",
"6@6h6++++#=jt+=jg#633y,&#$+#vxxKLKC=+##++#,&#&,,4prsvfppy&++@#,p#,ppr6",
",@3h,,p6p,,=8@6j6+6,3yy,&@.,gKIIFbr##,66@,6,+&,6ypr6Svhppy:+++&6&hpp6:",
",#+#+gjg3&+&&O&,#+++&#$$@:&:jFIICqqq==,g:6x6&&,g6,66FDjpy6&+++,&:KAbp6",
"6jy6#&jvy$+++@+@6p#@O,&&4s:+fCFKC=r6&@,p&,jp=&&,,&&=FKbp6,$$@&,&6Ff,&@",
"uhyyj#&gy,&++p26,6yy&gvgq&++,jxfj$@o+,pjb6$##@++##+,CCbp3&+#,36&&&,FF#",
"#,&,,++#@&#@6y,##$&<+bjy4$.+#:=&$$xc&@pbAKpKKj,&#+.,6gh6*+O@&p6yFFIYFr",
"...+#ybbbj@,p6&#.+@&jbbjp$@++@pF=4CDb4&pxppIFjy,6#.O+###:6#,&$2PIDDv6r",
"++#,,phDLIp,jp,@.X&yjjjjp$#66sbb,pCCbg4&6&jCbhy3up&+:6hhch#,bpvFDhvj66",
"&hy&@$6hcF66ju6&. +,y6fbj,#6pspq@sxjy,4&@&jjjjpypp##,,pur,&#2cvjhpjjr,",
"sb,&@$##=6##3,#+@+.@pjbCN,#pxgq<+<3,=#:6##pjbbhyp,@+#&,paju2#:6:#####:",
"CCg,#+@xFLA=@#+&r2&X#gDDb,@xbp=qy@+@+@$=&+&ypvvvvg,##,6pjvjjp+++&sFC$:",
",jg3&+vCCFIJ6bgr6,,##$6p66&@,sbNg&+OO++&3*++O$vDDvv6,p3pjxjp:=rffFITJ&",
"+@$#+,CjjbFK:fjjp,,,jKbpKTIs6FFCg<$#+OO$,&+$&@@pvgp,&y,6sxcr@pbcpCLKLG",
":4=@.,bjpjCKr6bb6&:,jLLILKAC$gAFv3$*$+O&,@O++&##&*&+@&&,6,4>@,jjjCKKM8",
"Fbbx,@=gpgAKb#bg6&##avjvsp66$bFCg<@@@$+@+OO+.+,hq#&=o..+#xAf##pjcSFStx",
"y666g,@6pjxbb&6p,#++,62666&@$Ms&=636@@@6h&O+O+#,:,bDp#@#bIFCj+@$,:6rfG"
};
