/* XPM */
static char *_69abd68efa5442fcafd23f257763a33mAWMbOmVjtWn2fmC[] = {
/* columns rows colors chars-per-pixel */
"70 70 152 2 ",
"   c #040303",
".  c #080606",
"X  c #090907",
"o  c #090708",
"O  c #0D0C0C",
"+  c #110E0E",
"@  c #11100F",
"#  c #110F10",
"$  c #141413",
"%  c #191615",
"&  c #191817",
"*  c #191718",
"=  c #1C1B1B",
"-  c #211D1D",
";  c #21201E",
":  c #211F20",
">  c #242323",
",  c #292525",
"<  c #262825",
"1  c #292927",
"2  c #292728",
"3  c #2C2C2B",
"4  c #312E2E",
"5  c #2F312E",
"6  c #31312F",
"7  c #312F30",
"8  c #2F3130",
"9  c #343433",
"0  c #383637",
"q  c #343935",
"w  c #393937",
"e  c #393738",
"r  c #373A38",
"t  c #3C3C3B",
"y  c #403E3E",
"u  c #3D413E",
"i  c #40403E",
"p  c #413F40",
"a  c #3F4341",
"s  c #424240",
"d  c #414342",
"f  c gray26",
"g  c #434343",
"h  c #404040",
"j  c #444243",
"k  c #404443",
"l  c #424443",
"z  c #444442",
"x  c #454543",
"c  c #454344",
"v  c #414544",
"b  c #434544",
"n  c #424645",
"m  c #444444",
"M  c gray27",
"N  c #464644",
"B  c #474745",
"V  c #454746",
"C  c #464646",
"Z  c gray28",
"A  c #444443",
"S  c #484645",
"D  c #444847",
"F  c #454845",
"G  c #484846",
"H  c #494947",
"J  c #494947",
"K  c #494748",
"L  c #454948",
"P  c #474948",
"I  c #464A49",
"U  c #484848",
"Y  c #494949",
"T  c #4A4A48",
"R  c #4B4B49",
"E  c gray29",
"W  c #4B4B4B",
"Q  c #484C4B",
"!  c #4A4C4B",
"~  c #4C4C4A",
"^  c #4D4D4B",
"/  c #4D4B4C",
"(  c #4C4C4C",
")  c gray30",
"_  c #4E4E4C",
"`  c #4F4F4D",
"'  c #4E4E4E",
"]  c gray31",
"[  c #4C4C4B",
"{  c #504E4E",
"}  c #4E504F",
"|  c #4E514E",
" . c #50504E",
".. c #51514F",
"X. c #51514F",
"o. c #514F50",
"O. c #505050",
"+. c #515151",
"@. c #525250",
"#. c #535351",
"$. c gray32",
"%. c #535353",
"&. c #545452",
"*. c #555553",
"=. c #555354",
"-. c #535554",
";. c gray33",
":. c #555555",
">. c #575755",
",. c #565654",
"<. c #565656",
"1. c gray34",
"2. c #545353",
"3. c #585756",
"4. c #575956",
"5. c #585856",
"6. c #595957",
"7. c #595856",
"8. c #595758",
"9. c #585858",
"0. c gray35",
"q. c #5A5A58",
"w. c #5B5B59",
"e. c #5A5A5A",
"r. c #5B5B5B",
"t. c #5D5D5B",
"y. c #5D5B5C",
"u. c gray36",
"i. c #5E5E5C",
"p. c #5F5F5F",
"a. c #5C5B5B",
"s. c #625E5F",
"d. c #615E5D",
"f. c #60605E",
"g. c #61615F",
"h. c #60605E",
"j. c #625F60",
"k. c #606060",
"l. c gray38",
"z. c #626260",
"x. c #636361",
"c. c #646462",
"v. c #656563",
"b. c #676765",
"n. c #646362",
"m. c #686565",
"M. c #686866",
"N. c #696967",
"B. c #6A6A68",
"V. c #6D6D6B",
"C. c #70706E",
"Z. c #737271",
/* pixels */
"& i t w *.7.~ ..X.......*......./ $.$.K I =.$.p p <.L 0 p Q p =.p 3 O $ 2 a 0 a a ' o.Q K n k n p k a t a r r u r a a a a a a } i 6 w i ; X ",
"t < 0 #._ ,.b.h.t.t.f.g.g.g.w.*.$.8.<.o.<.k.k.8.o.j $.p.Q ] k.<.2 : * 2 3 t 0 ' 0.y.r.$./ Q K p n k k k r a a Q a r r k } a a a ; | q $ & - ",
"i t 3 q ^ ~ X.N.........4.*.~ i p I n j n o.$.I / e k / K =.L $ 2 8 : r e r 7 a p K p p p p p 9 9 r r 8 8 r a ] Q r 8 t k u r r i u @ ; 9 - ",
"6 ..t ; u S i g.*...X.^ ~ H i i p I p n j I / K Q $.k p e.k * $ n p : t p a 3 3 9 K $.v r p t 9 r r r r 0 k ) $.k u r 8 8 8 r u R @ % w.H @ ",
"9 i X.i 6 i g.g.w.4...i i u w i p Q I p a a } a p / Q =.Q $ $ e.Q t # 0 L k e 7 e o.y.Q t r r 8 r 9 r r a n Q Q 3 r u r 8 u r r @ 1 ..g.6 @ ",
"i S X.X.i w ~ B.g.w.X.i 6 6 6 w r e p e k a k a k p Q t $ : L ] h t O 7 t 9 0 p e Q $.K r 8 8 r t r r p p L a e r u a r u r 2 $ & q.w.i w & ",
"x w.i i ..t ; ..B.7.i y w i i i r t p k p r r r / k e : = o.k.7 t p O r p 7 r p v p K D k 9 r a Q K Q Q $.Q p t D r r p r 2 * = ,.g.i i i ; ",
"~ x i t t S N 3 _ t < ; 6 w w 6 e r e r 9 3 2 3 0 2 $ : ] Q 7 p 0 7   e Q p n h $.D t p e 3 8 r r p p p e 9 7 2 e 2 2 r 2 $ > a g._ R *.6 & ",
"i i i i y q i w   @ @ @ & & $ & $ $ $ $ $ $ $ O $   = E n y y 3 0 r $ t Q p p e p ' n   O $ # $ $ $ $ # # O o # # # $ $ o # <.r.i _ i _ w & ",
"i i i i i u i 5 O & ; ; 1 1 ; < < < : < < < > : *   : L y r y 9 0 r # r n h t e 0 h h O : 2 < 2 : : = : : * = : : : : : o = r.r.T ..X.X.i & ",
"i T w i i i w ; O ; < ; 1 < ; 1 > : : > > < > > *   2 Q t 9 p w r 0 # r Q p p p r e r $ < 2 : > = * # # # O # $ $ # $ $ o : r.;.X.7._ ~ 6 @ ",
"i i i i ~ i i 1 X ; < ; ; - & - $ $ $ $ * $ $ * * o 3 +.t 9 j t t r # p =.o.' L r r 0 $ < : $ * = $ # # # O o # o o o O   : <.k ..q.#.X.6 X ",
"w i y i T i ..i $ < < & & & & & * * * * = = = = $ o 8 1.z e z t a t $ K r.o.I k 9 e h * 2 : * < = $ $ * * # + o # O o +   : ' 9 R 3.,.,.q @ ",
"q i i i R | w._ @ 1 ; & & = = = * * = * $ $ = = $   8 r.{ y z w k p * Q 8.L r 0 9 p p $ > : * > * # # * * # o o # + + # o 2 =.e i i i X.w $ ",
"w i w i | *.w.| $ < ; & & = $ @ $ $ $ # # O $ $ *   3 0...T J w k p $ K o.p 0 0 p I n $ = : $ $ = * # * * * # + O O + # O 7 k.p 4 y w i 5 @ ",
"i i w i 4.4.w.i $ 5 < & = ; $ X $ $ $ $ $ O # * =   2 <.&.{ ^ y p r $ k ' e r p h ' p O : 2 = $ * O o # # + + + # # # $ # 0 j.K q i 9 w 5 O ",
"6 J 0 w u.r.' t $ : : $ $ $ O O O $ & & @ O @ $ ;   1 g.&.d.R i r 0 $ n ' 7 r / -.+.r O : $ $ $ * % # + + + + + + + % - + y d.y i i t i 6 @ ",
"w i 9 w %.#.D 9 $ : = * $ $ O # O $ $ $ @ @ $ & -   3 h.X.7.R _ p 0 o r h 7 t o.I I q O : $ $ $ # # + + + + + + + % - - + 4 d.S J J i ^ w & ",
"i N 6 w / D f 0 $ < : * * $ $ $ # # $ @ @ @ $ & - . 3 h.^ 3. .#.h r o 8 e r p o.h k 8 o = O # # + + + % % - - - % - - - % , 3.S i ~ i X.i % ",
"i i 0 i / D I y $ : : * * $ $ $ O O O O X X @ $ % . 3 7.i ^ i  .p p O 7 p n Q / r p < o = O O O + + + - - , , , - - - - + - { y i S i ^ w % ",
"y f t Q o./ <.D $ = : $ * $ $ $ @ O O O X O @ $ + . ; #.y i y i 0 t $ 0 L K Q p e e 3   = $ $ $ + % - - - , - , - - % - + , d.y ~ _ i _ w @ ",
"t D Y O./ ' y.C $ : = * = $ $ $ $ & @ @ @ $ $ $ @ X 4 7.y i y y 0 t $ t / L p r 0 r 3 o > = : > , - , - - - - - % % % + + y m.{ w.w.....w @ ",
"y ' 9.r.) %.j.t $ = = * = * $ = & & $ $ $ $ $ @ % + y d.i X.i i p h * a / h a p r t 3 o : = : > , , , - - - % - - % - % + 4 m.{ 4.w.X.X.q O ",
"f r.M.l.' <.l.0 $ > > = = = $ = & & & & $ $ @ @ @ X 4 c.i 3.i y Q L = I Q p h a p p 3   = $ * * - - - - - - - - - - - % + - d.{ ~ X.i H 6 O ",
"y ' k.0.n W ' p = : : * * * * * & & % $ % % + + - . 5 7.i i i y o.u.* 0 o.h 0 k a f > O * = * * ; ; - ; ; ; ; ; - % - X . 9 d.X.~ { i G 3   ",
"t t ( r.0.o.p 7 o O O o o O O o X X     . . X X % . ; i i i i y r.<.$ 0 $.I e r t f 2     O $ O .     X O O X X . + . . . ; i 3.i x t i 6 @ ",
"3 t D E <.<.r $ : > > : : > 2 : 6 6 6 6 4 4 y i 9 ; ; , 9 i i i u.' $ t o.Q h t ) : O : 2 < 3 3 6 6 6 w q 6 5 1 y , y y 6 ; , i u i w t 6 @ ",
"9 e t p L t 2 = r.u.r.-.<.e.9.<.X.,.7.4.X.X.*.h.d. .3 @ & 4 i m.e.n * n o.K Q p 0 O * Q u.-.<.<.q.4.3.7.3.3...| 3.m.d.d.d.4 % ; w x i i 3 @ ",
"h 9 3 t t * * L a a t r t h h h ^ &.3.,.~ i i X. .7.i - + % i Z.b.' * Q <.W p 7 o < %.r.C #.u.~ ~ ~ J ^ ..,.,.,.,.g.g.h.d.i & $ = w i F 3 O ",
"9 D 9 * = < e <.Q L p p h ' } ' @.&.q.3.X.R i i y  .i w ; + ; i Z.=.# a e.n 2 * > j k.u.W W W i i i S X.7.h.g.g...d...i i i 6 ; X > 9 R r $ ",
"9 <.9   = Q <.o.' Q p r h o.<.<.3.,.3.3.#.~ i i y i i i w % X & ' / $ h +.8 * : o.' #.k.k.) i G t i S *.f.g.g.g.g.w.,.~ i R R i = & & w r $ ",
"0.c * * a ' n y.<.( h e h W o.o.d.d.q.7.7.*.X.i i 6 y i i 1 @ @ = p : n a * $ p D l.l.<.<.) i i w i ~ 4.h.g.q.,.,.i ~ #.i T 3._ u ; o < 9 * ",
"w ; ; i i w i  ...,.T w i i _ #.0.u.u.e.0.e.e.=.<.h h p 8 8 9 * O $ = 9 @ O Q t ,.g.B.g.7...R u i q i h.V.g.*.*.f.,.*.*...@.| _ L E > # : > ",
"% 5 i i w 5 i ,.~ ..i i w i i T o.<.0.o.' <.<.<.<.r p n p p r 2 # o =   = 4.1 9 i 4.f.......R i q w i @.t.,.T ^ ..T i H i i i i $.n 8 * # * ",
"@ ; 5 ; $ O @ @ & ; @ O X O $ % * * * # $ $ = * : O $ * $ $ * # $ >   o ; & & ; O & & % @ & % O X X @ % ; ; ; ; - & & & @ @ % & 2 # : 8 O   ",
"; 6 i 6 6 w w w i i i w 5 w i i Q ' W Q Q ' W Q Z n L c t r p L 9   $ 2 w | z i T _ | T T i i i w y i i i *.*._ H i i i i i i R a e c a =   ",
"i i X.T i i q.B.f.*.i i w i J 3.k.u.u.u.y.e.=.' ' <.' p Z o.c r & ; ; w F w.C.4.f.f.q.q.q.4...T _ _ T i ,.g.B.f.4.*.@.....^ @.7.k.B.( > : 3 ",
"i u w w q i i _ ,._ i i q y J 3.$.} ( +.o.Z t e t p 0 0 Z n 2 O $ B.& i q.$ |  .T T T _ R _ i i T T i w T q.q.....R H ^ ^ H H ^ +.0 # * r 2 ",
"i i w w ..g.g.7...i i i q w i ,.<.o.Q o.' n t r 0 r 0 t L 7 # : q.N & 3 V.,.1 ,...X._ .._ ..X._ i i i i i i T T ..i i H R H i i C : : L Q # ",
"w q.g.~ i f.h.i _ i i i w u T ..<.W c n Z p r r h Q $.r.+.: : =.h.~ = 6 G x ~ 6 7...T i T ~ | ..T T _ T i w i _ *.^ i R ....H i $ 2 L } > $ ",
"X.~ X.V.g.i i ,.u q r i u 6 i ..<.W h c c h t p 9.' r.o.> 2 Q <.N i @ t i y i ..3 ..&.i i | R i ~ ` ~ ~ i i q u i ..i i R ^ i $ = p ) 9 < # ",
"i ..q.g.g.i i i | a u u t w i ..0.o.L n L h t r Q l.L $ * Q u.Q ..N @ i ^ i i i J i i ..h.4.R *.i i ~ i R i i u 9 H | @.H 6 ; O t t 0 7 e = ",
"i q.,.4...i i w a u 5 5 3 3 6 u c p 0 r r 9 7 3 r t 2 > n =.n h *.N $ N 7.R i y ^ i w i @.q 1 9 i i u w i q q 5 ; 1 6 u ; @ 1 q Q e 9 y L = ",
"i f.i i i i X.i $ O X O O X O O $ O O # $ O O o 2 O = $.u.r 3 p R i @ S 7.R i w 6 i i ; ; $ & @ @ @ $ $ $ @ @ @ - $ @ & O @ R g./ D ' <.+.$ ",
"R ~ w i w i T i & = > ; = : > < > : : < : = = : =   8 o.r 7 n e u w @ T q.T i i 3 i i @ - ; 1 & ; ; ; 5 1 < ; ; $ $ $ & @ 1 h.w.#.0.l.y.X.& ",
"i i q i i i T i X $ $ @ O $ : > * $ $ $ $ O O O :   8 o.7 0 o.7 w 6 @ i 4.i i i y q 6 X 1 ; 1 & @ $ & & & & & & & & & & @ u B.*.e.r.<.D i & ",
"i R i i T i i 6 @ & = # * < < : = * $ $ $ O O # :   2 u.n 0 p 7 t 6 O u _ i i i i 4 5 X 5 % & X @ & & & & & $ @ $ @ @ @   w C.4.e.#.W u t & ",
"R #.i i i i i ; @ = = = < 3 > # = $ $ $ O O $ $ * $ 8 o.n 7 p p u 6 X 9 i w q q 4 q i X ; @ - X @ @ @ & $ @ @ @ @ X % ; X 6 g.4.9.#.#. .C @ ",
"i | i R i u u < @ ; ; 1 1 ; & - # $ # # # # O O : O 7 =.e p e e L p # p j 8 7 0 q a r $ > * $ # O @ $ @ # # # # # * * * o 7 j.=.,...X.J i - ",
"i 4.i i u u u < @ ; ; ; ; ; % & * # * # # # O O * o 2 8.p p e e o.K * k n 8 7 0 r a r $ : $ $ O O O @ @ # # # # # $ * * O 3 j.' ^ X.T i i $ ",
"u R i u 5 5 u < @ ; ; ; ; - @ % # * $ $ # # # O #   2 y.p ' p p $.Q = n p 0 7 r a -.r $ : $ # O + + @ + O O # # * * * * o 7 y.K i i i t q @ ",
"u u 5 u u u u u O & ; ; ; - @ % * # * # # # O O # o 2 y.p o.p p Q L * e j r e j } -.a $ = $ # O $ % @ @ O # # # = * * * o : 8.p i i i y t @ ",
"u u 5 u i i i u X & - & ; - & & * $ * $ $ # # # #   3 8.p / p p K p O 7 e r v Q Q o.r # : O O O % * * * # # # # = = * $ o : <.p i i i i t @ ",
"< u u i 4.i.i u X & - - ; ; - - $ * * * * * $ * $   : o.t p p p K j # 7 e r p $.a p 8 o = O O # & - : : * % # # : * * * o 2 =.p i i i i q @ ",
"u u u i 4.4.| u @ ; ; - ; - % - * * * * * * * * =   2 o.0 p e e a p O 8 e p Q Q k a 2 o = O O O $ * : , : * # O = * * $ o 2 8.p i i i q 6 @ ",
"5 u u u i i i u & ; , ; , - % - * * * = * : : * : o 3 =.e p 9 9 0 r o 7 p p Q Q p t 2 o : O O O # * > 2 2 : % O = * $ $ o 7 e.p ~ T i t w @ ",
"u u R 4.i q R i & ; ; ; & & & & * $ * * * * * * : o 3 =.p e j 0 0 r # 2 r 7 Q L r e 2 $ * $ $ $ # = : : : $ # O # * : # o 7 / t N | x N 6 $ ",
"u u u w.4.i T q @ & & & & & & & * * * : : : : : * o 2 $.p 7 p p 0 8 # 3 k 0 p k L k : $ : 2 * * # * : : = $ O o # O : = o 3 8.8.S R i S q $ ",
"u u u 4.i.H i 6 $ & & $ @ @ & % $ * * = * * : * * o : =.o.e 0 7 r 8 O 0 $.p K p 8 p :   > 3 = : : : : : * # o o O o : : o 7 8.p R x t N w @ ",
"u u u ^ @.i i 9 & & & $ @ @ % @ # # $ $ * * * * # o 2 $./ 0 7 7 e 8 $ L b.Q / K 0 Q 7 # : : # = : : : * # # O O # o = $ o p m.e S i 9 x w @ ",
"u u 5 5 i i H 3   . X . X X .       o o o o o O   o : t 0 2 7 k p 0 * ] V.o.] L Q ] 3 o O O     o     o o o o o o   o o   2 y.o.x i t N r $ ",
"u u < < u u 6 @ X % - - - ; - - : : : : 2 2 2 2 7 2 * = 3 e e e r 7 * I N./ Q j n 8 $ o = 8 8 2 7 2 : : : : = = : $ 2 p : O : p u x i G r * ",
"u u < u t ; & & w y i i i i i i p p p / ' o.o.o.=.p : O : e 0 3 7 0 * e 8.L L e 7 : : 7 p +.j.k.j.k.y.o.W K p p Z o.k.j.=.: # : 9 z z a 3 $ ",
"5 u < u 6 + & i 9 w 9 y 4 4 y 9 7 7 0 9 0 0 e e 7 p 0 $ O = 7 p 8 8 * 9 o.p L e $ O 8 Q 8 7 K p K p t e e e 7 7 p 8.o.e p e = o < i i r > @ ",
"u 5 5 ; & & u B.^ i i i q 6 q w 6 6 w w 9 0 0 t r t t 8 = O * 3 r L O 8 r p a * # 3 r 7 7 e p e e r w w t 0 9 i ..,.~ S i x w < @ = 9 a 8 * ",
"i i 5 X ; 4.g.| X.| X.i w w 6 w 5 5 6 6 3 3 8 9 9 0 t r 8 : = = a 8   r / 9 : * 0 r r p L o.L 9 t h w w p w w x 4...T i S G i w ; @ * 8 8 $ ",
"u < @ @ i h.4.i *.X.X.^ i i i i t t w w 0 0 t y r 9 7 0 0 < $ O > > O a e $ = 0 0 8 0 t Q o.a 0 e t 9 9 w 6 6 u 4...~ i x R S i w = # * : $ ",
"5 & & i f.4.i g.R ~ ^ i i i i i [ G N x f c D Q 0.L p e r 0 < =   : = 2 2 $ 7 L 8 0 k +.$.Q a +.p n t 0 t t t x ..| i i i i i u z t > o o = ",
"@ 1 u i i i i i i | ^ ^ X.| ^ ~ #.) W D Y W ) ' Q a 8 2 2 3 2 > O $ o o 2 8 9 3 : 3 a I p 7 r I q w 6 < 6 6 3 9 R N i i i x i i 9 t 3 O   @ ",
"O 1 1 & & ; < ; & & = ; ; ; & & & * * $ $ * = & = = $ $ # # * # $ o   # 3 : $ $ # $ * > : * $ * & ; @ O $ & @ & @ + O @ & @ @ @ * * = = @   "
};
