/* XPM */
static char *f18fae4345274f21abfee5a9371e0fbf3BJ0d6Naaw825lLO[] = {
/* columns rows colors chars-per-pixel */
"70 35 114 2 ",
"   c None",
".  c #5F2F07",
"X  c #552D0A",
"o  c #5C2F0D",
"O  c #56330B",
"+  c #5C330C",
"@  c #5A3412",
"#  c #5E3814",
"$  c #633207",
"%  c #62340B",
"&  c #683609",
"*  c #65390E",
"=  c #6B3B0E",
"-  c #713E0D",
";  c #643A13",
":  c #6B3D12",
">  c #633E1B",
",  c #74410F",
"<  c #79430F",
"1  c #6E4112",
"2  c #6D431B",
"3  c #744313",
"4  c #794613",
"5  c #7C4A15",
"6  c #744518",
"7  c #7C4719",
"8  c #754A1B",
"9  c #7C4C19",
"0  c #7F531F",
"q  c #5E4126",
"w  c #774C20",
"e  c #784E21",
"r  c #7F5223",
"t  c #75502A",
"y  c #824D16",
"u  c #824E19",
"i  c #835016",
"p  c #84521B",
"a  c #8A551D",
"s  c #8D591E",
"d  c #915B1F",
"f  c #855621",
"g  c #8B5621",
"h  c #865927",
"j  c #8D5A21",
"k  c #835728",
"l  c #855A2A",
"z  c #8C5E29",
"x  c #925D22",
"c  c #8B5F32",
"v  c #8E622E",
"b  c #956125",
"n  c #996426",
"m  c #966329",
"M  c #9A662A",
"N  c #9D6A2C",
"B  c #876135",
"V  c #8C6333",
"C  c #8B673F",
"Z  c #936731",
"A  c #976931",
"S  c #9E6D31",
"D  c #9E733B",
"F  c #A16D2E",
"G  c #A3702F",
"H  c #A16E31",
"J  c #A47233",
"K  c #A87636",
"L  c #A97837",
"P  c #A47438",
"I  c #A97738",
"U  c #A4783B",
"Y  c #AB7A3A",
"T  c #906D41",
"R  c #977043",
"E  c #9C7343",
"W  c #A67A44",
"Q  c #AB7F45",
"!  c #A67E4C",
"~  c #A87F4A",
"^  c #B07F43",
"/  c #AD8244",
"(  c #AC834C",
")  c #B3844A",
"_  c #B6884E",
"`  c #AF8655",
"'  c #AF8A53",
"]  c #B08755",
"[  c #B48A53",
"{  c #BA8E54",
"}  c #B38C5A",
"|  c #BD9256",
" . c #BC965C",
".. c #B49164",
"X. c #BC9461",
"o. c #BE9B6A",
"O. c #BEA174",
"+. c #C59B5E",
"@. c #C39C63",
"#. c #C99E62",
"$. c #C69F6C",
"%. c #CCA366",
"&. c #C7A36C",
"*. c #CCA46B",
"=. c #CEA86F",
"-. c #D0A96F",
";. c #C5A674",
":. c #C9A571",
">. c #CCAB74",
",. c #C4A579",
"<. c #CAAC7A",
"1. c #CAAE82",
"2. c #CEB381",
"3. c #D2B481",
/* pixels */
"                      1.,...T           + # ; ; > ; : * # + O O O O O O O O                             k R +.$.:.                          ",
"    @ % * ; ; ; B @.&.~ h : % # + + + # + + * * * = * : = 1 1 = & & * % $ $ + $ $ & % % % % $ & % % % % $ & - S +.-.X.c * % + o o @         ",
"  q + & = - 7 ~ >.@.Z 3 1 1 = , , 3 3 8 5 4 7 8 5 6 5 y 5 5 0 9 4 4 3 3 3 - - 3 - - - 4 4 - y - y - 3 - - 7 7 7 g Y +.*.] V 6 - : : ;       ",
"  > % : 1 z X.*.[ m u f j j a j j x z b b b b x x x x x x b s s j x j j p y y y y y y u a u a a i a a a a d d d g g x ^ %.=._ z 9 - : ;     ",
"  2 * 3 E &.@.D g u g p f g f p p p i i a j g s x x b m m n N N N N S N M M b j a y y u u u a a u y u a y a a a p a a s M _ *.@.D 9 6 :     ",
"    6 ~ >. .S x g j j x z m b z b b a p a s s a j x j b x m n F S S H H H H J J F F N M M M n n n n n n n n x x s s a a a s I #.*.( f : ;   ",
"    ` *.( p 5 y u i a s s x x b b b b b M M n M M N b n n M M M S N N N N N S H H F F H H F N N M M M M n M M n m b z j j a j m _ %. .Z 1   ",
"  ;.#.Q p y u i a x d d x d d x d x d x b m n b b m n n M N M N F H F F J J J H H H F N N N M n M M M n n M n n m m m j j p 0 9 0 P #.@.T   ",
";.$.^ x s b b b x x x x n d x F n b b b b b x n b M M M M M M M n n n M N M N N N N n n b m n n b b b b b n b n n n N M m M m m b j A | >.  ",
"*._ a i s a x b n x x x x F x n M M M F M M F N N S N S G M N M n n M b b M n n n b n n m b b x d d d s d d d d x x x d s a p p p p i v { 2.",
"o.z 4 y a a j b x x x x d d x n b b b m M M F N N S H J J J S S N N N M N N F S N N n n b b b d b d d d d d d b n d b d s b b j j j i 3 v ,.",
"  6 3 4 u a j b n n M F F F x F n n n M M M M n m M N S N N N A N N N M m M N M m b b d b j s a s a a a a a a d d d a a p a b j j i 5 3 2   ",
"  3 4 u a a x j x d b b d x x x z x b x m m M M M b b b b m b b b m M M M M A N m b b b b b b b x x x x x b b x x d s g p p 0 i u y y 5 8   ",
"  3 3 5 i 5 i a p a a j d s x x b M z j x m m n m M A A N H S J P K P P K K K P J S F N N N F N F F F N M N F F F M F N S N N N M z a u 9   ",
"# $ : - 5 5 5 0 p p a a s x x n N N N F H H F J J J P P P P I K K K P J K K K K U J J S J S K L L J J J J G G G G J J G H J G N N b s 9     ",
"; & 3 9 a s d s b n M M M N F J J G J G J J J J L L L L Y Y Y K K P J S S N N N M b b b b j m N N n m b b x j d s d a j a a f p p i 8 6 1   ",
"  = 3 y j x x b m M M M M N N S F F F G F G D L P P H P H D J J H H H H J J J J H H F F N N F G J J G G N N M N m b b v j a p 9 3 = * O     ",
"  : 3 4 5 9 9 i f p f j j j j j b n M N N N S N H S H H H P J I I L I L Y Y Y Y Y I K I K K K K L L K J L P J J N M N N M m M M b a 5 1     ",
"  6 4 5 9 p p p p p a a j b b b b m n M N G D J P P P W Q Y Y Y Y I L L L L Y P K J J F F F F F G S J J J G F J S N N N M N N m v f 0 8     ",
"  5 u g x x x z b b M M N M N M N N S G G J J J P H H H H H H N F M N F F M N N F F F F F F J H F J G J S N N N N F N n n b b s j j p 6     ",
"  y a a a p j j x x x d b x j s s s s s j j b b x m M M H H K K J J J J J J J P K K K K K K J H J K L U J J S J G G F N N n N n m x p 4     ",
"  : = 3 4 5 u p u y 5 5 5 4 5 y 0 i 0 0 0 s s s x x m S A m M N N N A m N N M N F H J H J J F F S N A N N N m b b b b m b x b d s i u 4 6   ",
"  * * 3 9 f a j j j s s s j z x d b x j j s s 0 g a g x x x x x b m m b b M M N S H H F F F N N N N m M A b b b b j s j s s a p a p 0 7 7   ",
"2 - 4 9 p p a a s s x b b b x b n b b b b m m m A M x A F H F G J J J J J J J J J K L J J G J J U J K K K K S F F N N M N n n m m m b j p   ",
"6 - 4 y i j x x x x x F b b b x b n M N N N J J H J J J K K J J P J K K J K J J K F F F F F F F F F G K K J J J G G F F F F F d M F N x p   ",
"2 - 4 u p p s x x x n x M M M M n N N N N M F F H H H H F G G J H J J K K J G G F F n F M n x x n n n M M n n n n M n F d d d d d x a y r   ",
"E 6 3 y p p a f g j x x x m M M N n n M N N M N N N N S F F F G H H J J K G J G F F H H F F J G F n n M n n d a a a d d a a d d p y 4 f }   ",
"  ] e & : 1 4 4 4 4 4 y u p j x d x x b M N N N N N N F F F F F F F F F G G G G J F H J G G F F F F M F F n n n d n d d d d d d j a j  .>.  ",
"  $. .V 6 4 7 9 u u 9 p j z x x b b M M M A N M M b x n x x d d d d d d d d x x x x d b b x d d d x x n M n n n x x n x x F d n j A &.>.}   ",
"  V { $.~ f i a g g x x n n M N N N N S S N N J H H H F F H F F F F F n F F F F M M M M M M M n n x n d x d d d x x d x d d d x Q *.=.U 9   ",
"  : u ( *.{ Z a s x x d d x b n N N N N F N S F F F M M F F n n n N F F G G F F F F F H H H F F M M F M N M N N M M x F x x I +.>.+.J y 9   ",
"  ; & 6 Z @.*.[ m u 4 y y u i j j b b b M b b j s s d d a a a a d d n x n x n x n d n M n b x d x d n x n d d d x x d x H +.%.+.W j 5 - >   ",
"  @ . $ % 6 W &.;.( k : % & = 1 3 4 7 5 5 3 4 4 4 4 5 5 5 5 5 u < < 5 5 5 y y y y i i i p i i u i u i p i i p 9 5 i b ) #.+./ z 7 4 ; *     ",
"    X X + + % k ' >.>...R l e 2 # * * * * * % * * * 1 1 * % * ; & - : : : * * * * % # % * = : = % * * * * ; 2 r Z / +.*.} h 6 3 3 : = ;     ",
"                      2.3.<.O.                                                                                                              "
};
